<?xml version="1.0" encoding="utf-8"?>
<!-- Generator: Adobe Illustrator 24.1.0, SVG Export Plug-In . SVG Version: 6.00 Build 0)  -->
<svg version="1.1" id="Layer_1" xmlns="http://www.w3.org/2000/svg" xmlns:xlink="http://www.w3.org/1999/xlink" x="0px" y="0px"
	 viewBox="0 0 2286.4 2000" style="enable-background:new 0 0 2286.4 2000;" xml:space="preserve">
<style type="text/css">
	.st0{fill:#110580;}
	.st1{fill:#4E53BA;}
	.st2{fill:#32378F;}
	.st3{fill:#F5F5FA;}
	.st4{fill:#FFFFFF;}
	.st5{fill:#E8E8F7;}
	.st6{fill:#C5C6E3;}
	.st7{fill:#66A896;}
	.st8{fill:#FF5856;}
</style>
<g id="Layer_2_1_">
	<g id="illustrations">
		<path class="st0" d="M786.9,1999.4c-2.3-1-3.9-3.3-3.9-5.9c0-3.6,2.9-6.6,6.6-6.6h32.2v-32.3c-0.3-3.6,2.3-6.9,6-7.2
			c3.6-0.3,6.9,2.3,7.2,6c0,0.4,0,0.8,0,1.2v45.4h-45.5C788.6,2000,787.7,1999.7,786.9,1999.4z"/>
		<path class="st0" d="M125.5,1998.9c-2.4-1-3.9-3.3-4-5.9c-0.1-3.7,2.8-6.8,6.5-6.9c0,0,0.1,0,0.1,0h82.8c3.6,0,6.6,3,6.6,6.6
			c0.1,3.6-2.8,6.6-6.4,6.7c-0.1,0-0.1,0-0.2,0h-82.8C127.2,1999.5,126.3,1999.3,125.5,1998.9z M290.8,1998.9
			c-3.3-1.5-4.8-5.4-3.3-8.8c1.1-2.3,3.4-3.9,5.9-3.9h82.7c3.6,0.3,6.3,3.6,6,7.2c-0.3,3.2-2.8,5.7-6,6h-82.7
			c-0.9,0-1.8-0.1-2.6-0.4V1998.9z M456.2,1998.9c-3.3-1.5-4.8-5.4-3.3-8.8c1.1-2.3,3.4-3.9,5.9-3.9h82.7c3.6-0.3,6.9,2.3,7.2,6
			c0.3,3.6-2.3,6.9-6,7.2c-0.4,0-0.8,0-1.2,0h-82.7c-0.9,0.1-1.8,0-2.6-0.3L456.2,1998.9z M621.5,1998.9c-3.3-1.5-4.8-5.4-3.3-8.8
			c1.1-2.4,3.4-3.9,6-3.9h82.7c3.7,0,6.6,3,6.6,6.6c0,3.7-3,6.6-6.6,6.6l0,0h-82.7c-0.9,0.1-1.8,0-2.7-0.3V1998.9z"/>
		<path class="st0" d="M0,1999.4V1954c0-3.6,2.9-6.6,6.6-6.6c3.6,0,6.6,3,6.6,6.6v32.2h32.3c3.7,0,6.6,3,6.6,6.6s-3,6.6-6.6,6.6l0,0
			L0,1999.4z"/>
		<path class="st0" d="M4,1883.3c-2.3-1-3.9-3.3-4-5.9v-76.7c0-3.7,3-6.6,6.6-6.6c0,0,0,0,0,0c3.6,0,6.5,2.9,6.6,6.4
			c0,0.1,0,0.1,0,0.2v76.7c-0.2,3.7-3.3,6.5-7,6.4C5.5,1883.8,4.7,1883.6,4,1883.3L4,1883.3z M4,1729.7c-2.3-1-3.9-3.3-3.9-5.9v-77
			c0.3-3.6,3.6-6.3,7.2-6c3.2,0.3,5.7,2.8,6,6v76.8c0,3.7-3,6.6-6.6,6.6c0,0,0,0,0,0C5.8,1730.3,4.9,1730.1,4,1729.7L4,1729.7z
			 M4.2,1576.1c-2.3-1-3.9-3.3-3.9-5.9v-77c0-3.7,3-6.6,6.6-6.6s6.6,3,6.6,6.6c0,0,0,0,0,0v77c-0.2,3.7-3.3,6.5-7,6.4
			C5.8,1576.6,5,1576.4,4.2,1576.1L4.2,1576.1z"/>
		<path class="st0" d="M4.3,1422.6c-2.3-1-3.9-3.3-4-5.9v-45.6h45.5c3.7,0,6.6,2.9,6.6,6.6c0,3.7-2.9,6.6-6.6,6.6c0,0,0,0,0,0H13.6
			v32.2c0,3.6-2.9,6.6-6.5,6.6c0,0,0,0-0.1,0C6.1,1423.2,5.2,1423,4.3,1422.6z"/>
		<path class="st0" d="M125.8,1383.8c-3.3-1.5-4.8-5.4-3.3-8.8c1.1-2.3,3.4-3.9,5.9-3.9h82.7c3.6,0.3,6.3,3.6,6,7.2
			c-0.3,3.2-2.8,5.7-6,6h-82.7C127.6,1384.3,126.7,1384.2,125.8,1383.8z M291.2,1383.8c-3.3-1.5-4.8-5.4-3.3-8.8
			c1.1-2.3,3.4-3.9,5.9-3.9h82.7c3.6-0.3,6.9,2.3,7.2,6c0.3,3.6-2.3,6.9-6,7.2c-0.4,0-0.8,0-1.2,0h-82.7c-0.9,0-1.8-0.1-2.6-0.4
			V1383.8z M456.6,1383.8c-2.3-1.1-3.8-3.3-3.9-5.9c0-3.6,2.9-6.6,6.6-6.6c0,0,0,0,0.1,0h82.7c3.6,0.3,6.3,3.6,6,7.2
			c-0.3,3.2-2.8,5.7-6,6h-82.7c-0.9,0-1.8-0.2-2.6-0.5V1383.8z M621.9,1383.8c-2.4-1-3.9-3.3-4-5.9c0-3.6,3-6.6,6.6-6.6h82.7
			c3.7,0,6.6,2.9,6.6,6.6c0,3.7-2.9,6.6-6.6,6.6c0,0,0,0,0,0h-82.7c-0.9,0-1.8-0.1-2.6-0.5V1383.8z"/>
		<path class="st0" d="M826,1423.1c-2.4-1-3.9-3.3-4-5.9V1385h-32.2c-3.6,0.3-6.9-2.3-7.2-6c-0.3-3.6,2.3-6.9,6-7.2
			c0.4,0,0.8,0,1.2,0h45.4v45.4c-0.2,3.7-3.3,6.5-7,6.4C827.5,1423.5,826.7,1423.4,826,1423.1L826,1423.1z"/>
		<path class="st0" d="M826,1883.8c-2.3-1-3.9-3.3-3.9-5.9v-77c0-3.7,3-6.6,6.6-6.6c3.6,0,6.6,3,6.6,6.6v76.8
			c-0.1,3.6-3.1,6.5-6.7,6.4c-0.9,0-1.8-0.2-2.6-0.6L826,1883.8z M826,1730.2c-2.3-1-3.9-3.3-4-5.9v-76.7c-0.3-3.6,2.3-6.9,6-7.2
			c3.6-0.3,6.9,2.3,7.2,6c0,0.4,0,0.8,0,1.2v76.8c0,3.6-2.9,6.6-6.6,6.6C827.8,1730.9,826.9,1730.7,826,1730.2L826,1730.2z
			 M826,1576.6c-2.3-1-3.9-3.3-3.9-5.9v-77c0.3-3.6,3.6-6.3,7.2-6c3.2,0.3,5.7,2.8,6,6v76.7c0,3.6-2.9,6.6-6.5,6.6c0,0-0.1,0-0.1,0
			C827.8,1577.1,826.9,1577,826,1576.6L826,1576.6z"/>
		<path class="st1" d="M2268.5,517h-905.2c-75.6,0-137,61.3-137,137l0,0h-0.4c0-75.6-61.3-137-137-137l0,0H183.7
			c-9.9,0-17.9,8-17.9,17.9v1136.8c0,9.9,8,17.9,17.9,17.9h934c20.6,38.2,60.5,62.1,104,62.2h9.1c43.4-0.1,83.3-23.9,104-62h933.6
			c9.9,0,17.9-8,17.9-17.9V535.4c0.3-9.9-7.6-18.1-17.5-18.4C2268.8,517,2268.6,517,2268.5,517z"/>
		<path class="st2" d="M2200.5,563.6H1350c-68.3,0-123.7,55.4-123.7,123.7h-0.4c0-68.3-55.3-123.7-123.6-123.7c0,0,0,0-0.1,0H251.9
			c-8.9,0-16.1,7.2-16.2,16.1c0,0,0,0.1,0,0.1v1026.8c-0.1,8.9,7,16.3,15.9,16.4c0.1,0,0.2,0,0.2,0h876.3
			c18.7,34.4,54.6,55.9,93.7,56h8.3c39.1-0.2,75.1-21.6,93.7-56h876.4c8.9,0,16.2-7.2,16.2-16.2c0,0,0,0,0,0V579.8
			c0-8.9-7.2-16.1-16.1-16.2C2200.5,563.6,2200.5,563.6,2200.5,563.6z"/>
		<path class="st3" d="M1358.4,396h815.1c9.5,0,17.3,7.7,17.3,17.3v0v1164.9c0,9.5-7.7,17.3-17.3,17.3h-881.4
			c-36.4,0-65.8-29.5-65.8-65.8V528.1C1226.3,455.1,1285.4,396,1358.4,396L1358.4,396z"/>
		<path class="st4" d="M1160.2,1595.5H279.3c-9.5,0-17.3-7.7-17.3-17.3V413.3c0-9.5,7.7-17.3,17.3-17.3c0,0,0,0,0,0h814.9
			c73,0,132.1,59.1,132.1,132.1l0,0v1001.5c0,36.4-29.5,65.8-65.8,65.8C1160.3,1595.5,1160.3,1595.5,1160.2,1595.5z"/>
		<circle class="st5" cx="453.4" cy="904.3" r="67.1"/>
		<path class="st5" d="M593.7,858.9h460.2c7.8,0,14.1,6.3,14.1,14.1v0c0,7.8-6.3,14.1-14.1,14.1H593.7c-7.8,0-14.1-6.3-14.1-14.1v0
			C579.6,865.2,585.9,858.9,593.7,858.9z"/>
		<path class="st5" d="M593.7,923.8h317.7c7.8,0,14.1,6.3,14.1,14.1v0c0,7.8-6.3,14.1-14.1,14.1H593.7c-7.8,0-14.1-6.3-14.1-14.1v0
			C579.6,930.1,585.9,923.8,593.7,923.8z"/>
		<circle class="st5" cx="453.4" cy="1361.1" r="67.1"/>
		<path class="st5" d="M593.7,1380.6h460.2c7.8,0,14.1,6.3,14.1,14.1v0c0,7.8-6.3,14.1-14.1,14.1H593.7c-7.8,0-14.1-6.3-14.1-14.1v0
			C579.6,1386.9,585.9,1380.6,593.7,1380.6z"/>
		<path class="st5" d="M593.7,1315.7h317.7c7.8,0,14.1,6.3,14.1,14.1v0c0,7.8-6.3,14.1-14.1,14.1H593.7c-7.8,0-14.1-6.3-14.1-14.1v0
			C579.6,1322,585.9,1315.7,593.7,1315.7z"/>
		<circle class="st5" cx="453.4" cy="1132.7" r="67.1"/>
		<path class="st5" d="M593.7,1152.2h460.2c7.8,0,14.1,6.3,14.1,14.1v0c0,7.8-6.3,14.1-14.1,14.1H593.7c-7.8,0-14.1-6.3-14.1-14.1v0
			C579.6,1158.5,585.9,1152.2,593.7,1152.2z"/>
		<path class="st5" d="M593.7,1087.4h388.9c7.8,0,14.1,6.3,14.1,14.1l0,0c0,7.8-6.3,14.1-14.1,14.1H593.7c-7.8,0-14.1-6.3-14.1-14.1
			l0,0C579.6,1093.7,585.9,1087.4,593.7,1087.4z"/>
		
			<ellipse transform="matrix(0.1602 -0.9871 0.9871 0.1602 310.9424 2174.0364)" class="st6" cx="1433.1" cy="904.3" rx="67.1" ry="67.1"/>
		<path class="st6" d="M1573.5,1152.7h460.2c7.8,0,14.1,6.3,14.1,14.1l0,0c0,7.8-6.3,14.1-14.1,14.1h-460.2
			c-7.8,0-14.1-6.3-14.1-14.1l0,0C1559.4,1159,1565.7,1152.7,1573.5,1152.7z"/>
		<path class="st6" d="M1573.5,1087.9h317.7c7.8,0,14.1,6.3,14.1,14.1l0,0c0,7.8-6.3,14.1-14.1,14.1h-317.7
			c-7.8,0-14.1-6.3-14.1-14.1l0,0C1559.4,1094.2,1565.7,1087.9,1573.5,1087.9z"/>
		
			<ellipse transform="matrix(0.1602 -0.9871 0.9871 0.1602 -139.947 2557.6548)" class="st6" cx="1433.1" cy="1361.1" rx="67.1" ry="67.1"/>
		<path class="st6" d="M1573.5,858.9h460.2c7.8,0,14.1,6.3,14.1,14.1v0c0,7.8-6.3,14.1-14.1,14.1h-460.2c-7.8,0-14.1-6.3-14.1-14.1
			v0C1559.4,865.2,1565.7,858.9,1573.5,858.9z"/>
		<path class="st6" d="M1573.5,923.8h317.7c7.8,0,14.1,6.3,14.1,14.1v0c0,7.8-6.3,14.1-14.1,14.1h-317.7c-7.8,0-14.1-6.3-14.1-14.1
			v0C1559.4,930.1,1565.7,923.8,1573.5,923.8z"/>
		
			<ellipse transform="matrix(0.1602 -0.9871 0.9871 0.1602 85.4688 2365.8701)" class="st6" cx="1433.1" cy="1132.7" rx="67.1" ry="67.1"/>
		<path class="st6" d="M1573.5,1316.8h460.2c7.8,0,14.1,6.3,14.1,14.1l0,0c0,7.8-6.3,14.1-14.1,14.1h-460.2
			c-7.8,0-14.1-6.3-14.1-14.1l0,0C1559.4,1323.1,1565.7,1316.8,1573.5,1316.8z"/>
		<path class="st6" d="M1573.5,1381.7h388.9c7.8,0,14.1,6.3,14.1,14.1l0,0c0,7.8-6.3,14.1-14.1,14.1h-388.9
			c-7.8,0-14.1-6.3-14.1-14.1l0,0C1559.4,1388,1565.7,1381.7,1573.5,1381.7z"/>
		<path class="st7" d="M813.9,510.3c-33.2,38.1-64,78.3-92,120.3c-14.7-20.2-36.4-34.1-60.9-38.8c-13.7-2.4-31.4-2.5-40.3,6.3
			c-1.6,1.4-3.2,3-4.9,4.5c-10.1,9.7-15.1,26.7,1.4,36.9c12.9,8,25.1,13.1,34.5,23.4c12.3,15.2,22.2,32.2,29.3,50.4
			c13.1,29.8,65.8,30.9,77.3,3.5c27.5-64.7,59.4-127.4,95.4-187.8C865.4,509.9,829.7,492.3,813.9,510.3z"/>
		<path class="st8" d="M1789.8,502.2c-64.1,39.2-121.1,91.3-159.1,154.3c-9.7,16-9.8,38.7-4.7,56.1c3.3,11.4,11.7,27.5,23.4,14.1
			c46.9-52.3,94.1-101.9,151.3-144.6c18.4-13.7,10.1-93-11.2-79.9L1789.8,502.2z"/>
		<path class="st8" d="M1616,591.9c60.8,46,126.3,79.3,172.4,140.6c11,14.6,21.1-2.2,24.3-12.3c6-19.7,4.9-41-3-60
			c-33.5-71.9-108.3-124.8-186.5-148.3c-28.8-8.7-23.4,67.6-7.1,79.8L1616,591.9z"/>
		<path class="st0" d="M1064.6,262.8c-0.7,0.1-1.4,0.1-2.1,0c-2.7-0.8-4.3-3.6-3.6-6.4c2.8-10.2,6.8-20,11.7-29.3
			c1.3-2.5,4.5-3.4,7-2.1c2.5,1.3,3.5,4.4,2.2,7c-4.6,8.6-8.3,17.7-11,27.1C1068.3,261.1,1066.6,262.6,1064.6,262.8z"/>
		<path class="st0" d="M1918.8,463c-0.6,0.1-1.3,0.1-1.9,0l-7.4-1.7c-17.2-4-35.2-8.1-53.8-13c-2.7-0.9-4.2-3.8-3.3-6.5
			c0.8-2.4,3.3-3.9,5.8-3.4c18.6,4.9,36.3,9,53.5,12.9l7.4,1.7c2.8,0.7,4.5,3.4,3.9,6.2C1922.6,461.2,1920.9,462.8,1918.8,463z
			 M1797.7,430.2c-0.8,0.2-1.6,0.2-2.4,0c-20-7-39.4-15.3-58.2-25c-2.4-1.5-3.1-4.7-1.6-7.1c1.3-2.1,4-3,6.3-2
			c18.4,9.3,37.4,17.3,56.8,24c2.7,1,4.1,3.9,3.1,6.6c0,0,0,0,0,0c-0.6,1.8-2.1,3.1-4,3.3L1797.7,430.2z M1687.2,372.1
			c-1.4,0.2-2.7-0.2-3.8-1.1c-16.9-12.9-32.4-27.6-46.3-43.7c-1.9-2.2-1.6-5.4,0.6-7.3c2.2-1.9,5.4-1.6,7.3,0.6
			c13.4,15.6,28.4,29.8,44.7,42.2c2.3,1.7,2.7,5,1,7.2c0,0,0,0,0,0C1689.8,371.2,1688.6,371.9,1687.2,372.1z M1606.3,277.4
			c-2.1,0.3-4.2-0.8-5.3-2.7c-10.1-18.8-18.1-38.6-23.8-59.1c-0.8-2.7,0.8-5.5,3.5-6.3c0,0,0.1,0,0.1,0c2.7-0.8,5.6,0.8,6.3,3.6
			c5.6,19.7,13.3,38.8,23,56.8c1.3,2.5,0.4,5.6-2.1,7C1607.6,277,1607,277.3,1606.3,277.4z M1631.2,207.1
			c-11.5,1.5-23.2,2.3-34.8,2.2c-2.8,0-5.2-2.3-5.2-5.1s2.3-5.2,5.1-5.2c0,0,0,0,0,0c11.1,0.1,22.3-0.6,33.3-2.1l0,0
			c9.2-1.2,18.3-3.1,27.2-5.5c2.7-0.7,5.6,0.9,6.3,3.6c0,0,0,0,0,0c0.8,2.7-0.8,5.5-3.5,6.3c0,0-0.1,0-0.1,0
			c-9.4,2.6-18.9,4.6-28.6,5.9L1631.2,207.1z M1534.9,202c-0.6,0.1-1.1,0.1-1.7,0c-18-3.7-36.8-8.8-61-16.4c-2.5-1.3-3.4-4.5-2.1-7
			c1-1.8,3-2.9,5.1-2.7c23.9,7.4,42.4,12.4,60.1,16.1c2.8,0.5,4.6,3.2,4.1,6c-0.4,2.2-2.3,3.9-4.5,4.2L1534.9,202z M1715.6,174.8
			c-1.8,0.3-3.7-0.5-4.8-2c-1.7-2.3-1.2-5.5,1.1-7.3c8.7-6.3,16.5-13.7,23.4-21.9c5.9-7.2,10.8-15.2,14.5-23.8
			c1.1-2.6,4.2-3.8,6.8-2.7c2.6,1.1,3.8,4.2,2.7,6.8l0,0c-4.1,9.4-9.5,18.3-16.1,26.2c-7.4,8.8-15.8,16.7-25.1,23.4
			C1717.4,174.4,1716.5,174.7,1715.6,174.8L1715.6,174.8z M1573.7,157.3h-0.6c-2.8,0-5.2-2.2-5.2-5.1c0,0,0,0,0,0
			c-0.5-21.5,2.7-43,9.4-63.4c0.9-2.7,3.8-4.2,6.5-3.3c2.7,0.9,4.2,3.8,3.3,6.5l0,0c-6.5,19.5-9.5,40-9,60.5c-0.1,2.5-2,4.6-4.5,5
			L1573.7,157.3z M1414.8,166.1c-0.8,0.2-1.5,0.2-2.3,0c-7-2.2-14-4.5-21-6.6c-13.8-4.1-26.5-7.5-39-10.4c-2.8-0.7-4.5-3.4-3.9-6.2
			c0.6-2.8,3.4-4.5,6.2-3.9c0,0,0,0,0,0c12.7,3,25.6,6.4,39.5,10.6c7.1,2.1,14.1,4.3,21.2,6.6c2.7,0.9,4.2,3.8,3.3,6.5
			c-0.6,1.9-2.2,3.3-4.2,3.5V166.1z M1116,186.4c-1.7,0.3-3.5-0.4-4.6-1.8c-1.8-2.2-1.5-5.4,0.6-7.3c0,0,0,0,0,0
			c16.5-13.8,35-24.9,55-32.9c2.6-1.1,5.6,0.2,6.7,2.8c0,0,0,0,0,0c1,2.7-0.2,5.7-2.9,6.7c-18.9,7.7-36.5,18.2-52.2,31.3
			c-0.8,0.8-1.9,1.2-3,1.3L1116,186.4z M1292.9,138.8c-0.4,0.1-0.8,0.1-1.2,0c-20.5-1.9-41.1-1.8-61.6,0.4c-2.8,0-5.2-2.3-5.2-5.1
			c0-2.3,1.4-4.3,3.6-5l0,0c21.2-2.1,42.5-2.1,63.7,0c2.8,0.2,4.9,2.7,4.7,5.6c-0.3,2.3-2.2,4.1-4.5,4.4L1292.9,138.8z M1763.4,65.5
			c-2.8,0.4-5.4-1.5-5.9-4.2c-2.6-16.1-10.9-30.7-23.4-41c-2.6-2-5.3-3.8-8.1-5.4c-2.1-1.9-2.2-5.2-0.2-7.3c1.3-1.3,3.1-1.9,4.9-1.5
			c3.3,1.9,6.4,4,9.4,6.4c14.6,11.9,24.3,28.7,27.3,47.3c0.5,2.8-1.4,5.4-4.2,5.9L1763.4,65.5z M1615,42.1c-1.6,0.2-3.2-0.3-4.3-1.5
			c-2-2-2-5.3,0-7.3c0,0,0,0,0,0c15.3-15.5,34.3-26.9,55.2-33.1c2.7-0.8,5.5,0.8,6.3,3.5c0,0,0,0.1,0,0.1c0.8,2.7-0.8,5.6-3.5,6.4
			c0,0,0,0,0,0c-19.3,5.6-36.9,16.1-51,30.5c-0.8,0.9-1.8,1.5-3,1.7L1615,42.1z"/>
		<path class="st0" d="M2007.2,492.3c-1.3,0.2-2.5-0.1-3.6-0.9c-8.1-5.2-16.9-9.3-26.1-12.3c-2.8-0.7-4.4-3.5-3.7-6.3
			c0.7-2.8,3.5-4.4,6.3-3.7c0.2,0.1,0.5,0.1,0.7,0.2c10.1,3.1,19.7,7.6,28.6,13.3c2.3,1.6,3,4.7,1.4,7.1c0,0,0,0.1-0.1,0.1
			C2010,491.2,2008.7,492.1,2007.2,492.3z"/>
	</g>
</g>
</svg>
