<?xml version="1.0" encoding="utf-8"?>
<!-- Generator: Adobe Illustrator 24.1.0, SVG Export Plug-In . SVG Version: 6.00 Build 0)  -->
<svg version="1.1" id="Layer_1" xmlns="http://www.w3.org/2000/svg" xmlns:xlink="http://www.w3.org/1999/xlink" x="0px" y="0px"
	 viewBox="0 0 3396.2 2000" style="enable-background:new 0 0 3396.2 2000;" xml:space="preserve">
<style type="text/css">
	.st0{fill:#F8D7BC;}
	.st1{fill:#4E53BA;}
	.st2{fill:#F8ECE2;}
	.st3{fill:#FF5856;}
	.st4{fill:#EBD0BE;}
	.st5{fill:#E0C1A6;}
	.st6{fill:#F8D0B3;}
	.st7{fill:#FF7A82;}
	.st8{fill:#F8E7D8;}
	.st9{fill:#2B31BA;}
	.st10{fill:#DEBCA7;}
	.st11{fill:#BFA990;}
</style>
<g id="Layer_2_1_">
	<g id="illustrations">
		<rect x="640.9" y="637" class="st0" width="555.6" height="418.3"/>
		<polygon class="st1" points="584.8,603.7 584.8,637 1194.5,637 1194.5,1055.2 584.8,1055.2 584.8,1086.4 2930,1086.4 2930,603.7 
					"/>
		<path class="st2" d="M102,1130.1h1693.9c181,0,328.8,147.8,328.8,328.8v22.9c0,181-145.7,328.8-326.7,328.8l0,0H102l0,0V1130.1
			L102,1130.1z"/>
		<path class="st3" d="M3057,1086.4H20.8c-12.5,0-20.8,8.3-20.8,20.8l0,0c0,12.5,8.3,20.8,20.8,20.8h1764.7
			c187.3,0,339.2,151.9,339.2,339.2l0,0c0,187.3-149.8,339.2-337.1,341.3c0,0,0,0-2.1,0H20.8c-12.5,0-20.8,8.3-20.8,20.8l0,0
			c0,12.5,8.3,20.8,20.8,20.8H3057c187.3,0,339.2-151.9,339.2-339.2l0,0v-83.2C3396.2,1240.4,3244.3,1088.5,3057,1086.4
			C3057,1088.5,3057,1088.5,3057,1086.4z"/>
		<path class="st4" d="M1850,1275.8H102v-22.9h1748c6.2,0,12.5,6.2,12.5,12.5l0,0C1862.5,1271.7,1856.2,1275.8,1850,1275.8
			L1850,1275.8z"/>
		<path class="st5" d="M1042.6,955.3H640.9v-22.9h403.7c6.2,0,12.5,6.2,12.5,12.5l0,0l0,0C1055.1,951.2,1048.8,955.3,1042.6,955.3z"
			/>
		<path class="st5" d="M946.9,824.2H640.9v-22.9h308c6.2,0,12.5,4.2,12.5,12.5l0,0C959.3,818,955.2,824.2,946.9,824.2z"/>
		<path class="st4" d="M1976.9,1540.1H102v-22.9h1875c6.2,0,12.5,6.2,12.5,12.5l0,0C1989.4,1535.9,1983.2,1540.1,1976.9,1540.1
			L1976.9,1540.1z"/>
		<path class="st4" d="M1746,1687.9H102v-25h1644c6.2,0,12.5,4.2,12.5,10.4l0,0l0,0C1758.4,1681.6,1752.2,1685.8,1746,1687.9
			L1746,1687.9z"/>
		<path class="st4" d="M1920.8,1411.1H102v-22.9h1818.8c6.2,0,12.5,6.2,12.5,12.5l0,0C1931.2,1404.8,1927,1411.1,1920.8,1411.1
			L1920.8,1411.1z"/>
		<path class="st6" d="M1681.2,566h-680.5V314.2h680.5c39.5,0,70.8,31.2,70.8,70.8v112.4C1752,534.8,1720.8,566,1681.2,566z"/>
		<path class="st7" d="M3007.2,276.8H942.8c-10.4,0-18.7,8.3-18.7,18.7c0,10.4,8.3,18.7,18.7,18.7h738.8c39.5,0,70.8,31.2,70.8,70.8
			v110.3c0,39.5-31.2,70.8-70.8,70.8H947c-10.4,2.1-18.7,10.4-16.6,20.8c0,8.3,8.3,16.6,16.6,16.6h2060.2
			c39.5,0,70.8-31.2,70.8-70.8V345.4C3077.9,312.1,3044.6,276.8,3007.2,276.8L3007.2,276.8z"/>
		<path class="st8" d="M890.8,16.6H2000c64.5,0,118.6,52,118.6,118.6l0,0v8.3c0,64.5-52,118.6-118.6,118.6l0,0H890.8l0,0V16.6
			L890.8,16.6z"/>
		<path class="st9" d="M2786.6,0H842.9c-4.2,0-8.3,4.2-8.3,8.3l0,0c0,4.2,4.2,8.3,8.3,8.3l0,0h1152.9c66.6,0,122.8,54.1,122.8,122.8
			l0,0c0,66.6-54.1,122.8-122.8,122.8H842.9c-4.2,0-8.3,4.2-8.3,8.3l0,0c0,4.2,4.2,8.3,8.3,8.3h1943.6
			c66.6,0,122.8-54.1,122.8-122.8l0,0v-33.3C2909.4,54.1,2853.2,0,2786.6,0L2786.6,0z"/>
		<path class="st10" d="M1873,85.3H890.8V74.9H1873c4.2,0,6.2,2.1,6.2,6.2l0,0l0,0C1879.3,83.2,1877.2,85.3,1873,85.3z"/>
		<path class="st10" d="M1779.4,206H890.8v-10.4h888.6c4.2,0,6.2,2.1,6.2,6.2l0,0l0,0C1785.6,203.9,1783.5,206,1779.4,206z"/>
		<path class="st10" d="M1983.3,145.7H890.8v-12.5h1092.5c2.1,0,6.2,2.1,6.2,6.2l0,0l0,0C1989.6,141.5,1987.5,145.7,1983.3,145.7
			L1983.3,145.7z"/>
		<path class="st11" d="M1546.2,1517.2h-272.6c0,0-43.7,14.6-81.2,85.3c-45.8,87.4-31.2,170.6-60.3,235.2
			c-18.7,43.7-49.9,79.1-89.5,104c31.2,4.2,64.5,6.2,97.8,2.1c27.1-6.2,52-16.6,72.8-33.3c6.2,14.6,8.3,29.1,10.4,43.7
			s2.1,31.2,0,45.8c0,0,99.9-22.9,139.4-81.2c56.2-79.1,8.3-176.9,83.2-299.7C1473.3,1581.7,1506.6,1546.3,1546.2,1517.2z"/>
	</g>
</g>
</svg>
