<?xml version="1.0" encoding="utf-8"?>
<!-- Generator: Adobe Illustrator 24.1.0, SVG Export Plug-In . SVG Version: 6.00 Build 0)  -->
<svg version="1.1" id="Layer_1" xmlns="http://www.w3.org/2000/svg" xmlns:xlink="http://www.w3.org/1999/xlink" x="0px" y="0px"
	 viewBox="0 0 2017 2000" style="enable-background:new 0 0 2017 2000;" xml:space="preserve">
<style type="text/css">
	.st0{fill:#676BC4;}
	.st1{fill:#868AE0;}
	.st2{fill:#4E53BA;}
	.st3{fill:#B6B6ED;}
	.st4{fill:#32378F;}
	.st5{fill:#EBDBCD;}
	.st6{fill:#DEC7B2;}
	.st7{fill:#8A6645;}
	.st8{fill:#C49C77;}
	.st9{fill:#FF5856;}
	.st10{fill:#DCDCED;}
	.st11{fill:#FF8A91;}
	.st12{fill:#FFADB2;}
	.st13{fill:#F8F1EB;}
	.st14{fill:#D3D3F0;}
	.st15{fill:#D19673;}
	.st16{fill:#E0A17B;}
	.st17{fill:#E8AA84;}
	.st18{fill:#EDB593;}
</style>
<g>
	<rect x="1259.5" y="163.3" class="st0" width="207.6" height="730"/>
	<rect x="945.6" y="163.3" class="st1" width="313.9" height="730"/>
	<polygon class="st2" points="1467.1,163.3 1354.6,58.3 1259.5,163.3 	"/>
	<polygon class="st3" points="945.6,163.3 1259.5,163.3 1354.6,58.3 1068.6,58.3 	"/>
	<path class="st0" d="M1332.2,0h-241.4c-12.3,0-22.2,9.9-22.2,22.2v36.1h285.9V22.2C1354.6,9.9,1344.4,0,1332.2,0z"/>
	<polygon class="st4" points="1467.1,163.3 1327.5,88 1354.6,58.3 	"/>
	<rect x="945.6" y="345.3" class="st5" width="313.9" height="348.3"/>
	<rect x="1259.5" y="345.3" class="st6" width="207.6" height="348.3"/>
	<g>
		<path class="st7" d="M418,1628.9L418,1628.9c-20.4-11.8-27.5-37.7-16.1-58.3l310-619.2c11.6-21.1,38.5-28.6,59.4-16.4l51.6,29.7
			c20.9,12,27.8,38.9,15.5,59.6l-361.7,589.3C464.5,1633.8,438.5,1640.5,418,1628.9z"/>
		<path class="st7" d="M1957.8,1628.9L1957.8,1628.9c20.4-11.8,27.5-37.7,16.1-58.3l-310-619.2c-11.6-21.1-38.5-28.6-59.4-16.4
			l-51.6,29.7c-20.9,12-27.8,38.9-15.5,59.6l361.9,589.3C1911.4,1633.8,1937.6,1640.5,1957.8,1628.9z"/>
		<path class="st8" d="M1978.9,1040H397.2c-21.1,0-38.1-17-38.1-38.1V932c0-21.1,17-38.1,38.1-38.1h1581.8c21.1,0,38.1,17,38.1,38.1
			v69.9C2017,1023,2000,1040,1978.9,1040z"/>
	</g>
	<g>
		<path class="st9" d="M1623.3,893.7h-80.9c-55.1,0-100.5-43-103.5-97.9L1426,557c-0.4-9,6.7-16.6,15.5-16.6h282.7
			c9,0,16.1,7.5,15.5,16.6l-12.9,238.8C1723.8,850.7,1678.4,893.7,1623.3,893.7z"/>
		<path class="st9" d="M1736.9,594.7l-2.2,36.6c33.3,6.9,58.3,36.4,58.3,71.6c0,38.3-29.5,69.7-66.9,72.9l-2.2,36.6
			c58.5-2.2,105.4-50.3,105.4-109.5C1829.4,648,1789.4,602.8,1736.9,594.7z"/>
		<path class="st10" d="M1603.9,484.7c0,0-69.3-64.1-67.1-111c3.4-72.1,68-99.4,43.2-167c-11.8-32.3-60.2-136.2-60.2-136.2
			s80.2,79.2,108.4,128c25.6,44.3,22.6,114.5-5.4,148.2C1562.2,419.8,1603.9,484.7,1603.9,484.7z"/>
	</g>
	<g>
		<g>
			<circle class="st11" cx="333.7" cy="1565.8" r="333.7"/>
		</g>
		<path class="st11" d="M1800.6,1899.3H321.6c-21.9,0-40-18.1-40-40l0,0c0-21.9,18.1-40,40-40h1478.7c21.9,0,40,18.1,40,40l0,0
			C1840.6,1881.2,1822.5,1899.3,1800.6,1899.3z"/>
		<path class="st12" d="M321,1516.6c-30.1,16.1-38.7,55.5-25.4,85.4c15.9,35.5,58.5,44.3,91.9,28.6c17.6-8.2,32.3-22.4,40-40.4
			c7.5-17.4,8.6-37.9,3.9-56.2c-10.5-42-44.3-70.4-85.8-78.7c-41.3-8.4-90.4,3-120.1,34.6c-29.5,31.4-35.7,80.7-29.9,121.8
			c5.4,38.1,22.4,74.4,50.1,100.9c31.2,29.7,74.2,40.2,116.4,38.1c21.7-1.1,43.2-5.4,64.1-11.4c21.3-6.2,42.2-13.6,62-23.7
			c35.9-18.5,64.8-46.5,79.6-84.6c28.2-72.5,5.2-156.6-48.4-210c-30.3-30.1-68-51.4-108.2-65c-41.3-13.8-86.1-20.9-129.5-18.5
			c-43.5,2.4-83.9,19.1-116,49.1c-27.5,25.8-47.5,58.7-60.5,94c-24.5,67.8-26.2,149.3,6.9,214.3c39.2,76.8,119.6,119.4,202,131.7
			c21.1,3.2,42.2,4.3,63.5,4.3c5.4,0,10.3-3.2,11-9c0.6-4.9-3.4-11.2-8.8-11.2c-76.2,0.6-156.8-18.5-212.1-74
			c-24.1-24.1-42-53.4-51.4-86.5c-8.8-31.6-10.8-65-7.3-97.7c7.3-67.1,38.5-135.5,97.2-172.1c34.2-21.3,73.8-25.4,113-22.6
			c38.7,3,77,11.8,112.5,27.5c34.6,15.5,66.3,38.1,89.7,68c20.7,26.5,33.3,58.3,37.2,91.7c3.7,32.1-1.3,65.6-16.8,94.2
			c-17.6,32.7-48.6,53.1-82,66.9c-66.9,27.5-157.9,43-210.4-19.4c-21.9-26-33.3-59.4-35.3-93.4c-2.2-37.4,7.5-80,40-102.4
			c30.6-20.9,74.4-24.5,108.2-10.3c31.4,13.1,54.2,45.2,51.6,80.2c-1.1,15.9-7.7,31-20.2,41.3c-11.8,9.9-27.5,16.1-43,15.3
			c-14.2-0.9-27.3-7.3-34.6-19.6c-6.5-10.8-8.2-24.1-5.8-36.4c1.9-10.8,8.2-21.5,18.5-27.1C340.1,1529,332.4,1510.5,321,1516.6
			L321,1516.6z"/>
	</g>
	<path class="st2" d="M1538.5,1517.6h-52.9c-29.7,0-55.1,17.4-67.1,42.4v-0.2l-25.4,49.9h-305.5l-25.2-49.9v0.2
		c-12-25-37.4-42.4-67.1-42.4h-52.9c-60.9,0-110.2,49.3-110.2,110.2v81.3c0,60.9,49.3,110.2,110.2,110.2h52.9
		c29.7,0,55.1-17.4,67.1-42.4v0.2l25.4-49.9h305.5l25.4,49.9v-0.2c12,25,37.4,42.4,67.1,42.4h52.9c60.9,0,110.2-49.3,110.2-110.2
		v-81.3C1648.5,1566.9,1599.2,1517.6,1538.5,1517.6z"/>
	<path class="st1" d="M1372,1698.4h-52.9c-29.7,0-55.1,17.4-67.1,42.4v-0.2l-25.4,49.9H921l-25.4-49.9v0.2
		c-12-25-37.4-42.4-67.1-42.4h-52.9c-60.9,0-110.2,49.3-110.2,110.2v81.3c0,60.9,49.3,110.2,110.2,110.2h52.9
		c29.7,0,55.1-17.4,67.1-42.4v0.2l25.4-49.9h305.5l25.4,49.9v-0.2c12,25,37.4,42.4,67.1,42.4h52.9c60.9,0,110.2-49.3,110.2-110.2
		v-81.3C1482.1,1747.6,1432.9,1698.4,1372,1698.4z"/>
	
		<ellipse transform="matrix(0.8688 -0.4951 0.4951 0.8688 96.5757 585.6451)" class="st5" cx="1153.6" cy="110.6" rx="32.3" ry="31.2"/>
	<polygon class="st5" points="1123.5,128.7 1134.5,136.4 1173.2,85.2 1164.2,78.7 	"/>
	
		<ellipse transform="matrix(0.8688 -0.4951 0.4951 0.8688 98.6672 579.8555)" class="st13" cx="1143.7" cy="103.7" rx="32.3" ry="31.2"/>
	<g>
		<path class="st14" d="M1232.8,893.7H683.7c-48,0-94-20-126.7-55.1l-4.9-5.4h805.1c2.8,0,4.1,3.2,2.4,5.4l0,0
			C1326.6,873.7,1280.8,893.7,1232.8,893.7z"/>
		<g>
			<path class="st15" d="M870.1,833.3H741.2c-20.4,0-37.4-16.8-37.4-37.4v-11c0-52.5,43-95.5,95.5-95.5h12.5
				c52.5,0,95.5,43,95.5,95.5V796C907.3,816.5,890.5,833.3,870.1,833.3z"/>
			<path class="st16" d="M1022.2,833.3H795.8c-20.4,0-37.4-16.8-37.4-37.4v-30.1c0-73.4,60-133.2,133.2-133.2h34.6
				c73.4,0,133.2,60,133.2,133.2v30.1C1059.6,816.5,1042.8,833.3,1022.2,833.3z"/>
			<path class="st17" d="M1122.6,833.3H896.1c-20.4,0-37.4-16.8-37.4-37.4v-32.5c0-72.1,59-130.8,130.8-130.8h39.4
				c72.1,0,130.8,59,130.8,130.8v32.5C1160.1,816.5,1143.1,833.3,1122.6,833.3z"/>
			<path class="st18" d="M1150,833.3h-128.9c-20.4,0-37.4-16.8-37.4-37.4v-11c0-52.7,43-95.7,95.7-95.7h12c52.7,0,95.7,43,95.7,95.7
				v11C1187.2,816.5,1170.4,833.3,1150,833.3z"/>
		</g>
	</g>
</g>
</svg>
