<?xml version="1.0" encoding="utf-8"?>
<!-- Generator: Adobe Illustrator 24.1.0, SVG Export Plug-In . SVG Version: 6.00 Build 0)  -->
<svg version="1.1" id="Layer_1" xmlns="http://www.w3.org/2000/svg" xmlns:xlink="http://www.w3.org/1999/xlink" x="0px" y="0px"
	 viewBox="0 0 1952.8 2000" style="enable-background:new 0 0 1952.8 2000;" xml:space="preserve">
<style type="text/css">
	.st0{fill:#110580;}
	.st1{fill:#787CCB;}
	.st2{fill:#FFFFFF;}
	.st3{fill:#E8D4C1;}
	.st4{fill:#7A5734;}
	.st5{fill:#BA9C7E;}
	.st6{fill:#4C7378;}
	.st7{fill:#689399;}
	.st8{fill:#57848A;}
	.st9{fill:#DEC7B2;}
	.st10{fill:#EBDBCD;}
	.st11{fill:#FF5856;}
	.st12{fill:#FF7A82;}
	.st13{fill:#4E53BA;}
	.st14{fill:#AAACE3;}
	.st15{fill:#868AE0;}
	.st16{fill:#2B31BA;}
</style>
<g id="Layer_2_1_">
	<g id="illustrations">
		<path class="st0" d="M1030.2,565c-30.8-102.4-32.2-160.3-28.3-203.1s119.2,16.1,141.3,32.9c28.6,21.7,63,53.3,63,53.3L1030.2,565z
			"/>
		<path class="st0" d="M1354.2,448.3c78.4-72.3,130.3-98.8,170.6-113.9c40.3-15.1,35.3,113.9,31.8,141.4c-4.1,32.4-13.1,84-13.1,84
			L1354.2,448.3z"/>
		<path class="st0" d="M1590.9,1206.1c35.7,55.4,60.6,117.6,94.1,174.9c19.6,33.6,63.1,101.9,69.2,26
			c7.8-95.9-57.6-198.1-83.7-287.4c-28.6-98-41.3-212.5,13.2-304.1c55.3-93.3,234.1-129.9,265.8,5.3c19,80.8-47.5,142.5-126.4,114.7
			l-11.2-4l49.6,9.2c-16.8,0-0.7-15.9-2.6,3.9c-2.2,23.6-9.3,44.8-8.9,68.9c0.9,49.9,13.3,98.7,25.6,146.7
			c25.4,99,70.1,219.8,29.7,320.5c-40,99.8-156.3,154.2-250.5,88.4c-90.4-63.1-141.7-228.7-144.8-333.9c-1.3-41.9,56-68,81.1-29.1
			H1590.9z"/>
		<path class="st0" d="M1572.5,674c-6.8,134-72.8,240.9-298,228.1c-205.9-11.2-280.1-123.2-273.3-257.1s140.1-236.1,298-228.1
			S1579.4,540,1572.5,674z"/>
		<path class="st1" d="M1299.6,709.3c-18-5.5-37.2-5.6-55.3-0.4c-3.1,1.3-5.3,4.2-5.6,7.6c-0.4,3.4,1,6.8,3.8,9
			c0.8,0.6,1.6,1.3,2.3,2c-1.5-2,0.3,0.3,0.7,0.8s2,2.3,2.9,3.5s1,1.3,1.4,2.1c0.1,0.1,0.2,0.3,0.3,0.4c0.7,1.2,1.3,2.5,2,3.8
			c3,6.2,5.9,12.4,9.5,18.4c0.2,0.4,0.5,0.8,0.7,1.2l0,0c0.1,0.2,0.3,0.3,0.4,0.4l0.4,0.5c3.2,3,8.1,3.5,11.8,1.2
			c0.3-0.1,0.6-0.3,0.8-0.5l0,0c1.4-1,2.4-2.3,3-3.9c0.2-0.7,0.5-1.4,0.8-2.1l0,0V753c0.9-1.5,2-2.8,3.1-4.1l1.8-2.1l0.8-0.9
			c1.5-1.3,2.8-2.8,4.1-4.1c6.6-5.4,11.8-12.2,15.3-19.9C1306.8,716.9,1304.5,711.4,1299.6,709.3z M1285.4,745.8l0.3-0.3
			c0.6-0.8,0-0.3-0.4,0.3H1285.4z"/>
		<path class="st2" d="M1491.1,618c1.5,1.3,1.8,3.6,0.5,5.1c-0.1,0.2-0.3,0.3-0.5,0.5c-18.6,16.2-39.2,36.7-60.3,47.2
			c-22.4,11.2-45.5,10.5-68.4,4.2c-8.7-2.8-17.3-6.2-25.5-10.1c-1.9-0.7-2.9-2.8-2.2-4.7c0.1-0.3,0.3-0.7,0.5-0.9
			c16.3-24.3,39.5-43.2,66.5-54.3C1427.8,594.9,1467.7,598.8,1491.1,618z"/>
		<path class="st1" d="M1432.1,660.3c1.3-5.4,1.6-11,1-16.5c-0.6-5.8-2-11.4-4.3-16.8c-2.6-7.8-7.7-14.6-14.4-19.4
			c-3.7-2.1-7.9-3.1-12.2-2.8c-4,0.4-7.7,2.2-10.5,5.1c-2.6,2.3-4.4,5.3-5.3,8.7c-1.4,5.1-2,10.5-1.7,15.8c0.5,13,5.1,25.4,13,35.7
			c2.9,3.3,6.7,5.7,10.9,6.9c7.9,1.6,16-1.8,20.4-8.6C1430.5,665.9,1431.5,663.1,1432.1,660.3z"/>
		<path class="st2" d="M1233.2,656.2c1,1.6,0.4,3.7-1.2,4.6c-0.2,0.1-0.5,0.2-0.7,0.3c-16.8,6.2-34.3,10-52.2,11.2
			c-19.4,1.4-38.6-3.5-55-14c-15.1-10.4-25.3-26.2-34.2-42.3c-0.9-1.6-0.3-3.7,1.3-4.6c0.1,0,0.2-0.1,0.3-0.1
			c24.9-10.8,54.8-18.6,80.2-10.3C1197.2,609.3,1219.2,633.2,1233.2,656.2z"/>
		<path class="st1" d="M1183.5,634.1c2.4-7.4,2.4-15.5,0-22.9c-3.6-9.5-14.3-14.3-23.8-10.7c-0.4,0.1-0.7,0.3-1,0.4
			c-5.5,3.2-10.3,7.7-13.9,12.9c-7.7,10.8-11.9,23.8-12.1,37.1c0.2,4.3,1.6,8.5,4.1,12c3.9,5.2,10.3,7.9,16.8,7
			c4-1.1,7.7-3,10.9-5.6c4.7-3.6,8.6-8.1,11.7-13.1C1179.5,646,1182,640.2,1183.5,634.1z"/>
		<path class="st0" d="M1086.7,820c0,0-33.6,171.6-128.1,320.3c-72.3,113.8-119.2,276.9-55.7,429.5s224.7,205.5,386.5,210.5
			c161.8,5,360-101.7,395.1-235c35-133.3,10.4-243.6-48-348.1c-113.2-202.5-147.7-378.9-147.7-378.9L1086.7,820z"/>
		<path class="st0" d="M1076,1662.5c-26.9-3.7-53.9,6.5-71.8,26.9c-16.8,20.7-19.8,52.5-4.6,74.5c16.8,24.1,49,31.2,78.4,34.1
			c42.1,4.1,84.5,3.5,126.4-1.8c19-2.5,38.7-6.1,54.3-17.1c15.7-11,26.5-31.3,21-49.6L1076,1662.5z"/>
		<path class="st0" d="M1487.6,1651.6c26.9-3.7,53.9,6.5,71.8,26.9c16.8,20.7,19.8,52.5,4.6,74.5c-16.8,24.1-48.9,31.2-78.1,34.1
			c-42,4.1-84.4,3.5-126.3-1.8c-19-2.5-38.7-6.1-54.3-17.1c-15.7-11-26.5-31.3-21-49.6L1487.6,1651.6z"/>
		<path class="st1" d="M1143.8,725.3c-88.4,9-177.7,5.6-265.1-10.2c-10.6-2-15.1,14.2-4.5,16.2c88.9,16.2,179.7,19.8,269.6,10.8
			C1154.4,741,1154.5,724.2,1143.8,725.3z"/>
		<path class="st1" d="M1151.5,767c-61.1,38-131.2,58.9-203.1,60.6c-10.8,0-10.8,16.8,0,16.8c74.9-1.7,147.9-23.5,211.6-62.9
			C1169.1,775.9,1160.7,761.3,1151.5,767L1151.5,767z"/>
		<path class="st1" d="M1397.8,740.9c28.9-3.6,57.7,2.1,86.5,3.6c26.1,1.3,52.2,0.4,78.1-2.6c52.5-6.2,103.6-20.9,151.3-43.6
			c9.8-4.6,1.3-19.1-8.5-14.5c-46.6,22.2-96.6,36.3-147.9,41.8c-25.1,2.7-50.4,3.4-75.6,2c-28-1.6-56-6.9-84-3.5
			c-10.6,1.3-10.8,18.2,0,16.8L1397.8,740.9z"/>
		<path class="st1" d="M1394.1,786.1c62.4,28.2,128.8,46.5,196.9,54.3c10.8,1.2,10.6-15.6,0-16.8c-65.1-7.5-128.6-25-188.3-51.8
			c-9.8-4.4-18.3,10.1-8.5,14.5L1394.1,786.1z"/>
		<path class="st1" d="M1510.2,1775c6.8-4.3,11.7-11.1,13.6-18.9c1.5-7.8,0.7-15.9-2.4-23.2c-8.1-18.2-21-33.8-37.4-45.2
			c-4-2.3-9.1-1-11.5,3c-2.2,4-0.9,9.1,3,11.5c12.6,8.9,22.7,20.8,29.5,34.6c2.3,4.6,3.2,9.8,2.6,14.9c0-1.8-0.4,1.4-0.6,2
			c-0.2,0.6-1.1,2.2,0,0.7l-0.8,1.6l-1,1.6c1-1.4-0.4,0.3-0.6,0.6c-0.2,0.3-1.1,1.1-1.7,1.6c-0.6,0.5,0.6-0.4-1,0.7
			c-3.7,2.4-5,7.3-3,11.2c2.4,4,7.5,5.3,11.5,3L1510.2,1775z"/>
		<path class="st1" d="M1410.9,1707.6c8.9,21.2,11.7,44.5,8.1,67.2c-1.1,4.4,1.5,9,5.9,10.3c4.4,1.2,9-1.2,10.4-5.6
			c4.4-27.1,1-54.9-9.8-80.2c-2.4-4-7.5-5.3-11.5-3c-3.9,2.5-5.2,7.5-3,11.5V1707.6z"/>
		<path class="st1" d="M1274.8,1216.1c-3,43.2-5,86.4-4.7,129.7c0,34.5,1.5,69,1.8,103.5c0,4.6,3.8,8.4,8.4,8.4s8.4-3.8,8.4-8.4
			c-0.3-34.5-1.7-69-1.8-103.5c0-43.3,1.7-86.6,4.7-129.7C1292.3,1205.4,1275.5,1205.4,1274.8,1216.1z"/>
		<path class="st1" d="M1558.4,1671.6c-20.4-29.1-54.8-45.1-90.3-41.9l8.4,8.4c13-116.5,14.2-234.1,3.5-350.8
			c-1-10.7-17.8-10.8-16.8,0c10.6,116.8,9.5,234.3-3.5,350.8c0,4.6,3.8,8.4,8.4,8.4c29.4-3.1,58.3,9.7,75.7,33.6
			C1550.1,1688.9,1564.7,1680.5,1558.4,1671.6z"/>
		<path class="st1" d="M1096.5,1345.7c-3,54.7-9,109.3-18.1,163.4c-1.8,10.6,14.4,15.1,16.2,4.5c9.4-55.6,15.6-111.7,18.7-168.1
			c0.6-10.8-16.2-10.8-16.8,0V1345.7z"/>
		<path class="st1" d="M1288.4,1624.2c-0.8-26.2,2.4-52.3,1.7-78.4c0-10.8-16.8-10.8-16.8,0c0.7,26.2-2.5,52.3-1.7,78.4
			C1272,1635,1288.8,1635,1288.4,1624.2z"/>
		<path class="st3" d="M723.2,1272.6c-1.3-18-127.2-32.5-282.4-32.5s-281.1,14.5-282.4,32.5c0,0.1,0,0.3,0,0.4
			c0.6,18,126.8,32.7,282.5,32.7s281.8-14.6,282.5-32.7C723.2,1272.9,723.2,1272.8,723.2,1272.6z M440.8,1300.6
			c-131.3,0-237.7-12.3-238.2-27.6c0,0,0,0,0-0.3c1.1-15.1,107.3-27.4,238.1-27.4s237.1,12.3,238.1,27.4c0,0,0,0,0,0.3
			c-0.4,15-106.8,27.3-238.1,27.3V1300.6z"/>
		<path class="st4" d="M601.3,1792.8c0,0,0-0.5,0-0.7s0,0.7,0,1.1V1792.8z"/>
		<path class="st5" d="M440.8,1300.3c131.3,0,237.7-12.3,238.2-27.6c0,0,0,0,0-0.3c-1.1-15.1-107.3-27.4-238.1-27.4
			s-237.1,12.3-238.1,27.4c0,0,0,0,0,0.3C203.1,1288,309.5,1300.3,440.8,1300.3z"/>
		<path class="st6" d="M454.2,1303.7c-9.7-141.3-28.6-281.9-56.5-420.8c-27.7-138.6-64.5-275.2-110-409
			c-25.5-75.5-53.9-150-85.2-223.5c-3-5.1-9.5-6.8-14.6-3.9c-4.9,3.1-6.6,9.5-3.9,14.6C238.8,390.5,285,523.1,322.4,658.4
			c37.3,134.5,65.9,271.3,85.7,409.5c11.2,78.2,19.5,156.8,24.8,235.7C433.8,1317.3,455.3,1317.4,454.2,1303.7L454.2,1303.7z"/>
		<path class="st6" d="M527,1330.4c-7.7-221.2,1.7-442.6,28-662.3c7.5-61.5,16.2-122.8,26.2-183.9c2.2-13.4-18.3-19.2-20.6-5.6
			c-36.2,219.3-55.4,441-57.5,663.3c-0.6,62.9,0.3,125.7,2.5,188.6c0.4,13.7,21.7,13.7,21.3,0L527,1330.4z"/>
		<path class="st6" d="M402.5,1350.3c-32.1-177.4-102.4-345.6-206.2-493c-29.1-41.3-60.7-80.8-94.6-118.3
			c-9.2-10.2-24.3,4.9-15.1,15.1c119,131.7,207.8,287.7,260.2,457.2c14.6,47.4,26.3,95.7,35.1,144.5
			C384.4,1369.4,404.9,1363.7,402.5,1350.3z"/>
		<path class="st6" d="M212.2,1158.5l-51.7-24.9l-44.8-21.1c-26.4-12.7-45.7-23-46-31.8c-0.4-7.7,18.3-21.5,52.7-27.7
			c4.3-0.7,8.7-1.4,13.5-2c4.8-0.6,9.6-0.6,14.7-0.8c10.8-0.3,21.7,0.3,32.4,1.7c24.7,3.4,48.6,10.6,71,21.5
			c22.3,11.1,42.6,25.9,60.1,43.6c7.6,7.8,14.5,16.1,20.8,25c2.9,4.2,5.6,8.1,8.1,12.2c2.5,4.1,4.5,8.2,6.6,12
			c15.6,31.3,16,54.4,11.2,57.6c-6.6,4.6-26.5-4.4-52.9-17.4l-44.3-22.4L212.2,1158.5z"/>
		<path class="st7" d="M60,762c-25.9-43.8-44.5-91.6-55.1-141.3c-7.7-39.2-5.6-65.3,1.8-68.6S34.1,565.7,59,595
			c30.9,37.4,58.7,77.4,83,119.4c24.6,41.9,45.3,86,62,131.7c12.9,36.3,17.8,62,12.8,65.7c-6.1,4.6-29.9-6.8-60.2-32.5
			C118.1,845.8,85.5,806.2,60,762z"/>
		<path class="st8" d="M236.9,887.8c-20-119.1-3.2-220.2,13.6-222.5s60.3,89.3,80,206.8c19.7,117.5,3.9,219-8.2,221.5
			C307.2,1096.6,256.8,1006.9,236.9,887.8z"/>
		<path class="st8" d="M144.8,245c-18.4-54.6-29.7-111.3-33.6-168.8c-2.5-44.8,2.4-73.8,10.6-76s26,21,47.1,59.7
			c26.4,49.8,48.4,101.7,66,155.2c17.9,53.4,30.8,108.4,38.8,164.1c5.6,43.9,5.3,72.8-0.5,75.5c-7.1,2.9-28.4-17.4-53.4-54.6
			C188,351.8,162.9,299.7,144.8,245z"/>
		<path class="st6" d="M281.9,415.3c-4.5-113.4,19.8-207.3,36.9-208.5c17-1.2,53.3,89.6,57.9,204.7c4.6,115.1-29.1,208.6-41.3,208.7
			C319.8,620.4,286.5,528.8,281.9,415.3z"/>
		<path class="st7" d="M192.1,583.2c-24.7-20.9-46-45.4-63.3-72.7c-13.7-22.4-19.4-40.8-14.5-47.8s24.2-7.5,50.4,0
			c32.7,9.7,62.9,26.3,88.8,48.5c26,22.3,46.7,50,60.7,81.2c11.2,25.1,13.1,44.5,8.7,48.7c-5.6,5.6-24.6,2.6-49.1-7.2
			C244.1,621.3,216.5,604.2,192.1,583.2z"/>
		<path class="st6" d="M427.2,1046.6c-14.1-37.1-24.9-75.4-32.4-114.4c-5.6-31.4-5.6-53.9,1.6-58.4c7.2-4.5,27.3,6.3,51.3,30.4
			c30.1,31.3,53.4,68.5,68.4,109.2c15.2,40.8,21.5,84.3,18.5,127.7c-2.8,33.9-11.2,55.2-17.4,56c-7.7,1.3-22.4-15.7-39.2-43.1
			C457.9,1119.7,440.9,1083.8,427.2,1046.6z"/>
		<path class="st8" d="M513.7,1005.6c12.3-44.3,31.5-86.3,56.9-124.6c20.4-29.7,38.9-45.5,46.9-42.7c8,2.9,11.2,26.7,9.9,62
			c-2.6,44.4-10.1,88.4-22.4,131.1c-12.1,42.9-29.2,84.3-51,123.2c-17.5,30.8-33.3,49.1-39.2,47.9c-7.5-1.5-15-24.7-16.8-60.7
			C495.8,1095.9,501.1,1049.9,513.7,1005.6z"/>
		<path class="st6" d="M432.8,558.9c-27.5-97.6-23.1-184.9-6.8-190.5c16.2-5.6,70.3,65.5,98.1,164.8c27.9,99.2,14.2,188.7,2.3,191.6
			C511.4,728.4,460.4,656.5,432.8,558.9z"/>
		<path class="st6" d="M529,363.5c6.7-54.7,20.5-108.2,41.1-159.3c16.8-39.6,33-62.7,41.3-61.1c16,3.2,27.2,108.6,11.7,232.4
			c-6.8,53.6-18.8,106.4-36.1,157.6c-13.8,40.1-27.3,64.9-33.6,64.5c-7.7-0.6-17.8-27-24.1-69.5C521.9,473.4,521.8,418.1,529,363.5z
			"/>
		<path class="st9" d="M440.8,1305.7c153.3,0,277.9-14.2,282.2-31.9l-22.4,267.4c0,126.8-116.9,230.6-259.7,230.6l0,0
			c-142.8,0-259.7-103.8-259.7-230.6l-22.4-267.7l0,0C161.6,1291.4,286.7,1305.7,440.8,1305.7z"/>
		<path class="st10" d="M713.3,1388.4c-19.4,0.6-37.9,8.6-51.5,22.4c-29,28-46.9,71.1-70.5,104.1c-8.8-17.7-16.6-35.9-23.4-54.5
			c-8.2-22.4-38.2-42.9-61.6-25c-24.2,18.6-44.5,41.8-59.7,68.3c-13.9,23.4-25.3,51-47,68.5c-21.7,17.4-44.8,21.8-53.3-8.2
			c-7.6-26.4-5-54.7-13.4-81.1c-7-22-18.4-44.8-40.7-54.5c-26.7-11.5-52.3,2.7-76,14.7c-14.2,7.1-28,14.8-41.6,22.9l4.8,56.4
			c24.2-15.1,53.8-33.6,78.8-37.3c15.7-2.3,14.6,8.3,15.7,23.1c0.9,13.2,0.8,26.5,1.6,39.7c1.5,26.8,5.6,53.7,21.3,76.1
			c33.9,47.8,97.8,45.6,142.7,15.2c23.2-16.5,42.7-37.6,57.3-62c5-7.8,9.9-16.3,14.9-24.6c19.2,44.8,48.7,85,97.4,68
			c30.3-10.5,49.8-43.5,67.8-68.1c5.6-7.6,15.9-26.2,26.2-42.7L713.3,1388.4z"/>
		<path class="st8" d="M380.1,707.3c10.9-56.8,28.9-112,53.5-164.4c19.6-40.5,38-63.6,46.2-61.6c15.8,4.3,18.7,115.4-6.6,244.3
			c-6.4,32.3-14.2,62.7-22.4,90.3s-16.8,50.4-22.4,69.9c-5.6,19.4-9.6,35.6-12.1,47.7c-2.5,12.1-4.3,19.9-7.3,20.9
			c-3,1-10.7-3.5-18.6-15.3c-10.3-16.9-17-35.8-19.8-55.3c-4-27.2-4.9-54.9-2.6-82.3C370,769.7,374,738.3,380.1,707.3z"/>
		<path class="st3" d="M722.6,1270.5h-44.3c0.5,0.6,0.8,1.2,0.8,2c0,0,0,0,0,0.3c-0.5,15.2-106.9,27.6-238.2,27.6
			s-237.7-12.3-238.2-27.6c0,0,0,0,0-0.3c0.1-0.7,0.4-1.4,0.8-2h-44.3c-0.4,0.6-0.7,1.4-0.8,2.1c0,0.1,0,0.3,0,0.4
			c0.6,18,126.8,32.7,282.5,32.7s281.8-14.6,282.5-32.7c0-0.1,0-0.3,0-0.4C723.3,1271.9,723,1271.1,722.6,1270.5z"/>
		<path class="st7" d="M546.1,652.3c16.6-40.8,40.1-78.5,69.5-111.3c23.5-25.4,43.6-37.6,51-33.6c7.5,4,8.1,27.1,2.7,60.2
			c-7.3,41.5-19.2,82.1-35.5,121c-8.8,21.1-18.9,41.7-30.2,61.6c-9.3,16.5-19.6,32.5-30.9,47.8c-9.2,12.5-16.4,22.4-21.8,30.3
			c-5.4,7.8-9.1,13.2-12.2,13.6c-3.1,0.3-9.5-4.2-14.3-14.8c-5.6-14.5-8.1-30.1-7.1-45.7c0.8-20.2,3.3-40.4,7.5-60.2
			C529.8,697.6,536.9,674.6,546.1,652.3z"/>
		<path class="st11" d="M1351.3,299.1c-29.2-6.4-53.7-45.3-62.5-68.8c-3.9-12.6-4.8-25.9-2.7-38.9c1.2-12.8,7.6-24.5,17.8-32.3
			c12.1-8.3,27.9-8.7,40.4-1.1c11.9,7.4,19.8,19.7,21.5,33.6c10.5-9.2,23.6-14.8,37.5-16c11.2-1.8,24-0.9,32.8,6.5
			c11.2,9.5,12.4,27.2,6.3,40.6c-7.9,16.1-18.9,30.5-32.4,42.3c-17.3,14.9-37.1,26.5-58.6,34.3"/>
		<path class="st12" d="M1478,98.5c-17.6,4-41.1-10.8-51.9-21.3c-5.4-5.8-9.4-12.9-11.7-20.5c-2.7-7.3-2.2-15.5,1.3-22.4
			c4.4-7.7,12.9-12.1,21.7-11.2c8.4,0.9,15.9,5.5,20.4,12.6c3.3-7.7,9-14.2,16.3-18.4c5.5-4.4,12.6-6.2,19.6-5
			c8.6,3.1,14.2,11.4,13.9,20.6c0,10.9-2.2,21.7-6.5,31.8c-5.6,12.6-13.4,24.1-23,33.9"/>
		<path class="st13" d="M1406.7,1866.5c-5.5-20.7-15.9-39.8-30.4-55.7l-117-144.8c-49.2-54-119-84.8-192-84.7H706.7
			c-73.1-0.1-142.8,30.7-192,84.7l-117,144.8c-14.5,15.8-24.9,34.9-30.4,55.7c-9.7,37.8-12,94.5,47.8,122.9
			c76.6,36.4,207.7-29.3,272.9-72.8c22.6-15.1,49.1-23.2,76.3-23.1h245.3c27.3,0,53.8,0.7,76.4,15.9
			c65.2,43.8,196.1,116.7,272.9,80.3C1418.7,1960.9,1416.4,1904.3,1406.7,1866.5z"/>
		<ellipse class="st14" cx="1041.8" cy="1622.8" rx="30.9" ry="11.7"/>
		<path class="st15" d="M1041.9,1634.5c-16.8,0-30.9-5.3-30.9-11.7v9.7c0,6.4,13.8,11.7,30.9,11.7s30.9-5.3,30.9-11.7l0,0v-9.7
			C1072.7,1629.2,1058.7,1634.5,1041.9,1634.5z"/>
		<ellipse class="st14" cx="1166.7" cy="1622.8" rx="30.9" ry="11.7"/>
		<path class="st15" d="M1166.7,1634.5c-16.8,0-30.9-5.3-30.9-11.7v9.7c0,6.4,13.8,11.7,30.9,11.7c17,0,30.9-5.3,30.9-11.7l0,0v-9.7
			C1197.6,1629.2,1183.8,1634.5,1166.7,1634.5z"/>
		<ellipse class="st14" cx="1104.3" cy="1596.6" rx="30.9" ry="11.7"/>
		<path class="st15" d="M1104.3,1608.4c-16.8,0-30.9-5.2-30.9-11.7v9.7c0,6.4,13.8,11.7,30.9,11.7c17.1,0,30.9-5.3,30.9-11.7l0,0
			v-9.6C1135.2,1603.1,1121.3,1608.4,1104.3,1608.4z"/>
		<ellipse class="st14" cx="1104.3" cy="1651.7" rx="30.9" ry="11.7"/>
		<path class="st15" d="M1104.3,1663.4c-16.8,0-30.9-5.3-30.9-11.7v9.7c0,6.5,13.8,11.7,30.9,11.7c17.1,0,30.9-5.2,30.9-11.7l0,0
			v-9.7C1135.2,1658.4,1121.3,1663.4,1104.3,1663.4z"/>
		<ellipse class="st16" cx="692" cy="1613" rx="58" ry="22"/>
		<path class="st0" d="M692,1635c-32,0-58-9.8-58-22v18.2c0,12.2,26,22,58,22c32,0,58-9.8,58-22l0,0V1613
			C750,1625.2,724,1635,692,1635z"/>
		<ellipse class="st16" cx="994.3" cy="1696.9" rx="58" ry="22"/>
		<path class="st0" d="M994.3,1718.8c-32,0-58-9.8-58-22v18.3c0,12.1,25.9,22,58,22c32,0,58-9.9,58-22l0,0v-18.2
			C1052.3,1708.8,1026.3,1718.8,994.3,1718.8z"/>
		<ellipse class="st14" cx="838.7" cy="1622.6" rx="15.2" ry="5.7"/>
		<path class="st15" d="M838.7,1628.4c-8.3,0-15.1-2.5-15.1-5.6v4.8c0,3.2,6.8,5.6,15.1,5.6s15.2-2.5,15.2-5.6l0,0v-4.8
			C853.8,1625.8,847.1,1628.4,838.7,1628.4z"/>
		<ellipse class="st14" cx="935.2" cy="1622.6" rx="15.2" ry="5.7"/>
		<path class="st15" d="M935.5,1628.4c-8.3,0-15.1-2.5-15.1-5.6v4.8c0,3.2,6.8,5.6,15.1,5.6c8.3,0,15.2-2.5,15.2-5.6l0,0v-4.8
			C950.4,1625.8,943.6,1628.4,935.5,1628.4z"/>
		<path class="st15" d="M846.5,1702.4h-31.1c-4.1,0-7.4-1.3-7.4-3v-12.6c0-1.7-3.3-3-7.4-3H770c-4.1,0-7.4,1.3-7.4,3v12.6
			c0,1.7-3.3,3-7.4,3h-31.1c-4.1,0-7.4,1.3-7.4,3v16.1c0,1.7,3.3,3,7.4,3h31.1c4.1,0,7.4,1.3,7.4,3v12.7c0,1.6,3.3,3,7.4,3h30.6
			c4.1,0,7.4-1.4,7.4-3v-12.7c0-1.6,3.3-3,7.4-3h31.1c4.1,0,7.4-1.3,7.4-3v-16.1C853.8,1703.8,850.5,1702.4,846.5,1702.4z"/>
		<path class="st14" d="M846.5,1687.5h-31.1c-4.1,0-7.4-1.3-7.4-3v-12.7c0-1.7-3.3-3-7.4-3H770c-4.1,0-7.4,1.3-7.4,3v12.7
			c0,1.6-3.3,3-7.4,3h-31.1c-4.1,0-7.4,1.3-7.4,3v16.1c0,1.6,3.3,3,7.4,3h31.1c4.1,0,7.4,1.3,7.4,3v12.6c0,1.7,3.3,3,7.4,3h30.6
			c4.1,0,7.4-1.3,7.4-3v-12.6c0-1.7,3.3-3,7.4-3h31.1c4.1,0,7.4-1.3,7.4-3v-16.1C853.8,1688.9,850.5,1687.5,846.5,1687.5z"/>
	</g>
</g>
</svg>
