<?xml version="1.0" encoding="utf-8"?>
<!-- Generator: Adobe Illustrator 24.1.0, SVG Export Plug-In . SVG Version: 6.00 Build 0)  -->
<svg version="1.1" id="Layer_1" xmlns="http://www.w3.org/2000/svg" xmlns:xlink="http://www.w3.org/1999/xlink" x="0px" y="0px"
	 viewBox="0 0 2000 2000" style="enable-background:new 0 0 2000 2000;" xml:space="preserve">
<style type="text/css">
	.st0{fill:#EBDBCD;}
	.st1{fill:#C5C6E3;}
	.st2{fill:#E8EAF7;}
	.st3{fill:#FFFFFF;}
	.st4{fill:#E8E8F7;}
	.st5{fill:#4E53BA;}
	.st6{fill:#FF7A82;}
	.st7{clip-path:url(#SVGID_2_);}
	.st8{fill:#FCB58A;}
	.st9{fill:#FF5856;}
	.st10{fill:#001D80;}
	.st11{fill:#868AE0;}
	.st12{fill:none;}
	.st13{fill:#E3996D;}
	.st14{fill:#FFADB2;}
	.st15{fill:#C7645D;}
	.st16{fill:#F0A173;}
	.st17{clip-path:url(#SVGID_4_);}
	.st18{fill:#D7D7E6;}
	.st19{fill:#2B31BA;}
	.st20{fill:#DADAED;}
	.st21{fill:#989BD7;}
	.st22{fill:#F8E7D8;}
	.st23{fill:#110580;}
	.st24{fill:#DEBCA7;}
	.st25{clip-path:url(#SVGID_6_);}
	.st26{fill:#DCDCED;}
</style>
<g id="Layer_2_1_">
	<g id="illustrations">
		<circle class="st0" cx="1000" cy="1000" r="1000"/>
		<path class="st1" d="M275.9,168.3h1433.2c42.8,0,76.9,34.7,76.9,76.9v862.3c0,42.8-34.7,76.9-76.9,76.9H275.9
			c-42.8,0-76.9-34.7-76.9-76.9V245.2C199,203,233.7,168.3,275.9,168.3z"/>
		<path class="st2" d="M281.7,212.8h1422.2c17.4,0,31.8,13.9,31.8,31.8v750.1c0,17.4-13.9,31.2-31.8,31.2H281.7
			c-17.4,0-31.2-13.9-31.2-31.2V244.7C249.9,227.3,264.3,212.8,281.7,212.8z"/>
		<polygon class="st1" points="1262.6,1394.4 722.4,1394.4 789.5,1185.1 1195.5,1185.1 		"/>
		<path class="st1" d="M598,1341.2h789.5c11.6,0,20.8,9.3,20.8,20.8v11.6c0,11.6-9.3,20.8-20.8,20.8H598c-11.6,0-20.8-9.3-20.8-20.8
			v-11.6C577.2,1350.5,586.5,1341.2,598,1341.2z"/>
		<circle class="st2" cx="985.5" cy="1105.8" r="42.2"/>
		<path class="st3" d="M458.1,311.2h1054.4l0,0v633.9c0,11-8.7,19.7-19.7,19.7h-1015c-11,0-19.7-8.7-19.7-19.7
			C458.1,945.6,458.1,311.2,458.1,311.2z"/>
		<path class="st4" d="M1209.9,356.9h245.2c6.9,0,12.1,5.2,12.1,12.1v539c0,6.9-5.2,12.1-12.1,12.1h-245.2
			c-6.9,0-12.1-5.2-12.1-12.1V369C1197.8,362.1,1203,356.9,1209.9,356.9z"/>
		<path class="st0" d="M515.3,356.9h625.2c6.9,0,12.1,5.2,12.1,12.1v539c0,6.9-5.2,12.1-12.1,12.1H515.3c-6.9,0-12.1-5.2-12.1-12.1
			V369C503.2,362.1,509,356.9,515.3,356.9z"/>
		<path class="st1" d="M1245.8,451.1h85c4.6,0,8.7,4,8.7,8.7l0,0c0,4.6-4,8.7-8.7,8.7h-85c-4.6,0-8.7-4-8.7-8.7l0,0
			C1237.1,455.2,1240.6,451.1,1245.8,451.1z"/>
		<path class="st1" d="M1245.8,487.6h174.1c4.6,0,8.7,4,8.7,8.7l0,0c0,4.6-4,8.7-8.7,8.7h-174.1c-4.6,0-8.7-4-8.7-8.7l0,0
			C1237.1,491,1240.6,487.6,1245.8,487.6z"/>
		<path class="st1" d="M1245.8,647.2h174.1c4.6,0,8.7,4,8.7,8.7l0,0c0,4.6-4,8.7-8.7,8.7h-174.1c-4.6,0-8.7-4-8.7-8.7l0,0
			C1237.1,650.7,1240.6,647.2,1245.8,647.2z"/>
		<path class="st1" d="M1245.8,610.8h129.6c4.6,0,8.7,4,8.7,8.7l0,0c0,4.6-4,8.7-8.7,8.7h-129.6c-4.6,0-8.7-4-8.7-8.7l0,0
			C1237.1,614.8,1240.6,610.8,1245.8,610.8z"/>
		<path class="st1" d="M1245.8,814.3h174.1c4.6,0,8.7,4,8.7,8.7l0,0c0,4.6-4,8.7-8.7,8.7h-174.1c-4.6,0-8.7-4-8.7-8.7l0,0
			C1237.1,818.4,1240.6,814.3,1245.8,814.3z"/>
		<path class="st1" d="M1245.8,777.9h85c4.6,0,8.7,4,8.7,8.7l0,0c0,4.6-4,8.7-8.7,8.7h-85c-4.6,0-8.7-4-8.7-8.7l0,0
			C1237.1,782,1240.6,777.9,1245.8,777.9z"/>
		<path class="st1" d="M1245.8,850.2h174.1c4.6,0,8.7,4,8.7,8.7l0,0c0,4.6-4,8.7-8.7,8.7h-174.1c-4.6,0-8.7-4-8.7-8.7l0,0
			C1237.1,854.3,1240.6,850.2,1245.8,850.2z"/>
		<circle class="st5" cx="1260.8" cy="742" r="21.4"/>
		<circle class="st5" cx="1260.8" cy="415.3" r="21.4"/>
		<circle class="st6" cx="1260.8" cy="574.3" r="21.4"/>
		<g>
			<g>
				<defs>
					<path id="SVGID_1_" d="M515.3,356.9h625.2c6.9,0,12.1,5.2,12.1,12.1v539c0,6.9-5.2,12.1-12.1,12.1H515.3
						c-6.9,0-12.1-5.2-12.1-12.1V369C503.2,362.1,509,356.9,515.3,356.9z"/>
				</defs>
				<clipPath id="SVGID_2_">
					<use xlink:href="#SVGID_1_"  style="overflow:visible;"/>
				</clipPath>
				<g class="st7">
					<path class="st8" d="M650.1,1725.3l-6.4,86.2c-1.2,19.1,20.8,34.7,39.3,33.5c22.6-1.2,34.7-17.9,35.9-37.6l6.4-86.2
						c1.7-19.1-20.8-34.7-39.3-33.5C663.4,1688.8,651.2,1705.6,650.1,1725.3z"/>
					<path class="st8" d="M925.4,1734l13.3,85.6c2.9,19.1,28.3,28.9,46.3,23.7c21.4-6.4,29.5-25.4,26.6-45.1l-13.3-85.6
						c-2.9-19.1-28.3-28.9-46.3-23.7C930,1695.8,922.5,1714.9,925.4,1734L925.4,1734z"/>
					<path class="st8" d="M644.3,809.1c-31.8,56.1-51.5,113.4-53.2,178.1c-1.7,60.7,11.6,120.9,64.8,157.3
						c35.3,24.3,71.1-31.2,35.9-55.5c-34.7-24.3-36.4-71.1-34.1-110.5c2.9-48.6,17.9-91.4,42.2-133.6
						C720.6,808,665.7,772.1,644.3,809.1L644.3,809.1z"/>
					<path class="st8" d="M917.3,840.4c29.5,38.2,50.9,78.1,60.7,126.1c8.1,40.5,11,78.7-22.6,108.7c-31.2,28.9,12.1,78.7,43.4,49.7
						c20.8-18.5,36.4-42.8,45.1-69.4c8.7-30.1,6.4-59.6,1.2-90.2c-11-64.2-38.2-118-78.1-168.9C941,763.4,890.7,806.8,917.3,840.4
						L917.3,840.4z"/>
					<path class="st9" d="M996,784.8c0,0-33.5-236.6-44.5-279.9c-17.4-66.5-64.8-106.4-131.9-106.4c-68.2,0-115.7,40.5-134.2,107
						c-19.1,68.2-44.5,274.1-44.5,274.1c-2.9,9.3,1.7,19.1,11,22c21.4,8.1,66.5,22.6,167.7,21.4c90.2-1.2,137.1-13.3,160.2-15.6
						c9.8-0.6,17.4-9.3,16.8-19.1C996.5,787.2,996.5,786,996,784.8z"/>
					<path class="st8" d="M782.5,631.6H856l0,0v125.5c0,10.4-8.7,19.1-19.1,19.1h-35.3c-10.4,0-19.1-8.7-19.1-19.1L782.5,631.6
						L782.5,631.6z"/>
					<path class="st10" d="M769.8,456.9L769.8,456.9L769.8,456.9z"/>
					<circle class="st8" cx="819.5" cy="536.7" r="122"/>
					<path class="st9" d="M695.2,532.1c0,1.7,0,4,0.6,5.8v0.6c0,2.3,0.6,4,1.2,6.4l0,0c0.6,2.3,0.6,4.6,1.2,6.9
						c8.7-34.1,39.3-58.4,74.6-58.4c4.6,0,8.7,0.6,13.3,1.2c3.5,0.6,6.4,1.2,9.8,1.2c22.6,0,41.1-16.8,44-39.3l0,0
						c-0.6,2.3-0.6,4.6-0.6,6.9c0,26,20.8,46.8,46.8,46.8l0,0l0,0c24.9,5.2,45.7,23.7,53.2,48l0,0c1.7-5.2,2.9-11,3.5-16.8v-0.6
						c0.6-2.3,0.6-4.6,0.6-6.9v-1.7c0-2.9,0-5.2,0-8.1s0-4.6,0-6.9c0-0.6,0-1.2,0-1.7c0-1.7,0-3.5-0.6-4.6c-0.6-1.2,0-1.2-0.6-2.3
						c-0.6-1.2-0.6-2.9-0.6-4.6l-0.6-2.3c-0.6-1.7-0.6-2.9-1.2-4.6s-0.6-1.2-0.6-1.7l-1.2-4.6c0-0.6-0.6-1.2-0.6-1.7
						c-0.6-1.7-1.2-3.5-1.7-4.6c0-0.6,0-0.6-0.6-1.2c-0.6-1.7-1.2-3.5-1.7-5.2v-0.6c-0.6-1.7-1.7-4-2.3-5.8l0,0
						c-11-22.6-28.3-41.6-49.7-54.4l0,0c-6.9-4-13.9-7.5-21.4-9.8h-0.6c-2.3-0.6-4.6-1.2-6.4-2.3h-1.2c-5.2-1.2-9.8-2.3-15-2.9h-1.7
						l-5.8-0.6h-2.3c-2.3,0-5.2,0-7.5,0c-68.8,0-124.3,55.5-124.3,124.3c0,2.3,0,4.6,0,6.9C695.2,531.5,695.2,532.1,695.2,532.1z"/>
					<path class="st11" d="M938.1,739.2C912.7,725.3,884.9,716,856,712c-4.6,20.2-15,31.2-38.2,31.2s-31.2-11.6-35.3-32.4
						c-4.6,0-19.1,2.9-22.6,4c-42.2,8.1-59,19.1-79.8,34.7c-32.4,24.3-64.2,74.6-71.1,86.2c-1.2,1.2-1.2,3.5,0,4.6
						c7.5,12.1,17.4,22.6,28.9,30.7c14.5,9.3,29.5,16.2,45.7,21.4c0,0,9.8-18.5,13.3-25.4c4-9.3,14.5-40.5,14.5-40.5
						c-5.8,13.3-9.3,27.8-10.4,42.2c-0.6,19.7,6.4,41.6,5.8,54.9c-1.7,23.1-6.4,45.7-13.3,67.7c-0.6,2.9,0.6,5.2,3.5,6.4l0,0
						c37,8.7,75.2,13.9,113.4,14.5c41.1,0,82.1-2.9,122.6-9.3c2.9-0.6,4.6-2.9,4-5.8c0,0,0,0,0-0.6c-5.2-22-9.3-44-11-65.9
						c-3.5-30.1,0-35.9,0-57.8c-1.2-15.6-3.5-31.8-6.4-47.4l6.4,60.2c18.5-0.6,37-4.6,53.8-12.7c11.6-6.4,21.4-13.9,30.7-23.1
						c1.7-1.7,2.3-4,1.2-6.4C1004,826.5,968.2,757.1,938.1,739.2z"/>
					<path class="st12" d="M782.5,653v-21.4H856V653c48-15,81.6-58.4,84.4-108.2c-4.6-67.1-63-118-129.6-113.4
						c-60.7,4-108.7,52.6-113.4,113.4C701,594.6,734.5,637.9,782.5,653z"/>
					<path class="st13" d="M819.5,658.8c-12.7,0-24.9-1.7-37-5.8v22.6c12.1,3.5,24.9,4,37,2.3c12.7-1.2,24.9-4,36.4-9.8v-15.6
						C844.4,656.4,831.7,658.8,819.5,658.8z"/>
					<path class="st8" d="M714.9,1001.2c33.5,5.8,67.7,9.3,101.8,10.4c44.5,0,99.5-6.4,99.5-6.4s4.6,31.8,6.9,38.8
						s-36.4,20.8-104.7,19.1c-89.6-1.7-111-14.5-110.5-17.9C707.3,1042.2,714.9,1001.2,714.9,1001.2z"/>
					<path class="st14" d="M945.1,1064.2c55.5,110.5,81.6,179.9,96.6,327.4c12.7,124.3-3.5,290.9-5.8,385.8c0,2.9-0.6,5.8-2.3,8.1
						c-4.6,6.9-33.5,13.3-41.6,13.9c-39.9,2.9-77.5-2.9-81-17.4c-20.8-85.6-37-171.8-48-259.1c-9.3-72.3-20.8-153.3-26.6-212.3
						c0-2.3-1.7-4-4-4c-2.3,0-4,1.7-4,4l0,0c-1.2,9.8-2.3,65.4-4,82.1c-4,46.8-11.6,92.5-19.7,138.8c-12.1,73.5-40.5,177-61.9,247
						c-1.7,5.8-5.8,10.4-11.6,12.1c-15,2.3-29.5,2.9-44.5,2.3c-17.9-1.2-55.5-6.9-57.8-15.6c-27.2-113.4-28.3-330.8,11.6-557.5
						c9.3-52.6,26.6-102.9,50.9-150.4c40.5,7.5,81.6,11.6,123.2,12.7C858.9,1081.6,902.8,1075.2,945.1,1064.2z"/>
					<path class="st14" d="M707.3,1044.5c-4.6,1.2-8.7,4.6-11,8.7c-2.9,5.2-4.6,10.4-5.2,16.2c0,0,46.3,13.9,134.2,16.2
						c85,2.3,119.7-21.4,119.7-21.4c-1.7-5.8-5.2-10.4-10.4-13.9c-6.9-4-12.1-6.9-12.1-6.9s-26.6,23.7-107.6,17.9
						S707.3,1044.5,707.3,1044.5z"/>
					<path class="st15" d="M676.1,1823c14.5,0.6,28.3-2.3,41.6-7.5c5.2,10.4,9.3,22,12.1,33.5c1.7,11.6,8.1,49.7-1.2,57.3
						c-8.7,7.5-7.5,5.8-19.7,11c-17.4,7.5-24.3,3.5-48,15.6c-8.7,4.6-46.3,39.3-84.4,42.8c-31.8,2.9-40.5-12.7-44.5-21.4
						c-3.5-8.7,2.9-24.9,25.4-41.6c22-16.8,42.2-35.9,60.7-57.3c9.8-13.3,18.5-28.3,24.3-44C643.1,1811.5,649.5,1822.4,676.1,1823z"
						/>
					<path class="st15" d="M979.2,1825.9c-13.9,0.6-27.8-2.3-40.5-8.1c-7.5,11.6-12.7,24.3-15,38.2c-2.3,11.6-6.4,45.7,2.9,52.6
						c9.3,6.9,7.5,5.8,19.7,11c17.4,6.9,24.3,3.5,48,15.6c8.7,4.6,46.3,39.9,84.4,42.8c23.1,1.7,40.5-12.7,44-21.4
						c3.5-8.7,4-26-24.3-45.1c-28.3-19.1-61.9-49.2-66.5-57.8c-6.4-12.7-20.2-40.5-20.2-40.5S1005.2,1825.3,979.2,1825.9z"/>
					<path class="st5" d="M920.8,824.8c0,0,4.6,26.6,5.2,39.9c0,8.1,0,20.8,0,20.8s5.8,0,9.3-0.6c3.5-0.6,6.4-1.2,6.4-1.2
						s-3.5-12.1-7.5-23.7C930.6,849,920.8,824.8,920.8,824.8z"/>
					<path class="st5" d="M713.1,823c0,0-6.4,18.5-9.3,30.7c-1.2,6.4-1.7,12.7-1.7,19.1c-0.6,3.5-4.6,14.5-6.4,19.1
						c-0.6,1.7-2.3,2.3-3.5,2.3c-2.3-0.6-6.4-1.2-9.3-2.3c-4.6-1.7-8.1-2.9-6.9-2.3c1.2,0.6,10.4-14.5,17.4-26.6
						C698.7,851.9,713.1,823,713.1,823z"/>
					<path class="st3" d="M924.8,1068.8c41.1,81.6,65.9,170,79.8,260.3c14.5,95.4,15.6,192,11,288c-2.9,55.5-6.9,111-12.7,166
						c-0.6,6.4,9.3,6.4,9.8,0c9.3-99.5,16.8-199,14.5-298.4c-2.3-93.1-13.3-186.2-38.8-276.5c-13.9-49.7-32.4-98.3-55.5-144
						C930,1058.4,921.3,1063.6,924.8,1068.8L924.8,1068.8z"/>
					<path class="st3" d="M701,1071.1c-35.9,82.7-55.5,171.2-66.5,260.3c-10.4,92-15,184.5-12.7,277c0.6,54.9,3.5,109.3,9.8,163.7
						c0.6,6.4,10.4,6.4,9.8,0c-11-95.4-11.6-191.4-8.1-286.9c2.9-89.1,11-178.7,30.7-266c11-49.2,26.6-97.2,46.3-143.4
						C712,1070,703.9,1065.4,701,1071.1L701,1071.1z"/>
					<path class="st16" d="M816.7,1011.6c-34.1-1.2-68.2-4.6-101.8-10.4c0,0-0.6,4.6-1.7,11c33.5,9.3,68.8,13.3,104.1,11.6
						c33.5-1.2,66.5-6.9,98.3-17.9l1.2-0.6l0,0C916.1,1005.8,861.2,1011.6,816.7,1011.6z"/>
				</g>
			</g>
		</g>
		<path class="st11" d="M474.8,266h1021.4c9.3,0,16.8,7.5,16.8,16.8l0,0v28.3l0,0H458.1l0,0v-28.3C458.1,273.6,465.6,266,474.8,266
			L474.8,266z"/>
		<g>
			<g>
				<defs>
					<circle id="SVGID_3_" cx="1000" cy="1000" r="1000"/>
				</defs>
				<clipPath id="SVGID_4_">
					<use xlink:href="#SVGID_3_"  style="overflow:visible;"/>
				</clipPath>
				<g class="st17">
					<path class="st18" d="M325,910.9l-3.5-0.6c-8.7-1.7-16.8,2.9-20.2,11L277,989c-0.6,1.2-0.6,1.7-0.6,2.9
						c8.1,6.9,18.5,11.6,28.9,12.7c9.3,1.7,19.1,1.2,28.3-1.7c0-0.6,0.6-1.7,0.6-2.3l5.8-71.7C339.5,920.2,333.7,912.7,325,910.9z"
						/>
					<path class="st15" d="M326.2,808c1.7-2.9,5.2-4,8.1-2.3c1.2,0.6,1.7,1.2,2.3,2.3c3.5,7.5,8.7,16.8,12.1,23.1
						c6.9,15.6,9.3,33,6.4,49.7c-4,12.7-9.8,24.9-17.9,35.3c-0.6,1.2-1.7,1.7-2.9,2.3c-5.8,1.7-11.6,1.7-17.4,0.6
						c-11-2.9-12.7-9.8-12.7-9.8c-3.5-13.3-5.2-26.6-5.2-39.9c1.2-13.3,5.8-26,12.7-37.6C317.5,823.6,322.2,816.1,326.2,808z"/>
					<path class="st19" d="M234.8,1261.4l41.1-264.9c0-1.2,0.6-2.9,1.2-4c15.6,12.7,37,16.8,56.1,11c0,1.7-0.6,3.5-0.6,4.6
						l-63,260.8c-1.7,9.3-11,15.6-20.2,13.3C240,1279.9,233.1,1270.7,234.8,1261.4z"/>
					
						<rect x="145.8" y="787.2" transform="matrix(0.9974 -7.271257e-02 7.271257e-02 0.9974 -75.078 16.3785)" class="st20" width="83.3" height="504.4"/>
					
						<rect x="132.4" y="857.2" transform="matrix(0.9974 -7.271257e-02 7.271257e-02 0.9974 -62.1506 12.9375)" class="st21" width="28.3" height="5.8"/>
					
						<rect x="134.2" y="916.2" transform="matrix(0.9976 -6.982627e-02 6.982627e-02 0.9976 -63.8148 12.6016)" class="st21" width="28.3" height="5.8"/>
					
						<rect x="138.2" y="972.9" transform="matrix(0.9976 -6.982627e-02 6.982627e-02 0.9976 -67.7623 13.0234)" class="st21" width="28.3" height="5.8"/>
					
						<rect x="144.6" y="1026.1" transform="matrix(0.9974 -7.271257e-02 7.271257e-02 0.9974 -74.3998 14.2679)" class="st21" width="28.3" height="5.8"/>
					
						<rect x="148.6" y="1082.2" transform="matrix(0.9974 -7.271257e-02 7.271257e-02 0.9974 -78.4691 14.7099)" class="st21" width="28.3" height="5.8"/>
					
						<rect x="152.7" y="1138.9" transform="matrix(0.9974 -7.271257e-02 7.271257e-02 0.9974 -82.58 15.1561)" class="st21" width="28.3" height="5.8"/>
					
						<rect x="157.3" y="1195" transform="matrix(0.9974 -7.271257e-02 7.271257e-02 0.9974 -86.6448 15.6402)" class="st21" width="28.3" height="5.8"/>
					
						<rect x="107.5" y="958.9" transform="matrix(0.985 -0.1724 0.1724 0.985 -198.1086 40.5509)" class="st14" width="53.8" height="403.7"/>
					<polygon class="st0" points="126.1,957.8 72.9,967 81,890.7 92.5,889 					"/>
					<polygon class="st6" points="84.4,926 92,920.8 98.3,921.3 105.8,917.3 92.5,889 81,890.7 78.1,921.3 					"/>
					<path class="st6" d="M89.1,1099.5h231.3c5.8,0,9.8,4.6,9.8,9.8c0,0.6,0,0.6,0,1.2l-30.7,247c-1.2,11.6-11,20.2-22.6,20.2H131.3
						c-11.6,0-21.4-8.7-22.6-20.2l-30.1-247c-0.6-5.2,3.5-10.4,8.7-11C87.9,1100.1,88.5,1100.1,89.1,1099.5z"/>
					<path class="st22" d="M-175.8,1386.9h524.6c31.2,0,56.1,24.9,56.1,56.1l0,0v3.5c0,31.2-24.9,56.1-56.1,56.1h-524.6l0,0
						L-175.8,1386.9L-175.8,1386.9z"/>
					<path class="st23" d="M720.6,1378.3h-920.2c-2.3,0-4,1.7-4,4l0,0c0,2.3,1.7,4,4,4h546c31.8,0,57.8,26,57.8,57.8l0,0
						c0,31.8-26,57.8-57.8,57.8h-546c-2.3,0-4,1.7-4,4l0,0c0,2.3,1.7,4,4,4l0,0h920.2c31.8,0,57.8-26,57.8-57.8l0,0v-16.8
						C778.5,1404.3,752.5,1378.3,720.6,1378.3L720.6,1378.3z"/>
					<path class="st24" d="M244.1,1477.2h-419.9v-5.2h419.9c1.7,0,2.9,1.2,2.9,2.9l0,0l0,0C247,1475.4,245.8,1477.2,244.1,1477.2
						L244.1,1477.2z"/>
					<path class="st24" d="M289.8,1419.9h-465.6v-5.2h465.6c1.7,0,2.9,1.2,2.9,2.9l0,0l0,0C292.7,1418.7,291.5,1419.9,289.8,1419.9
						L289.8,1419.9z"/>
					<path class="st24" d="M341.2,1447.1h-517.1v-5.2h517.1c1.7,0,2.9,1.2,2.9,2.9l0,0l0,0C344.1,1445.9,343,1447.1,341.2,1447.1
						L341.2,1447.1z"/>
				</g>
			</g>
		</g>
		<g>
			<g>
				<defs>
					<circle id="SVGID_5_" cx="1000" cy="1000" r="1000"/>
				</defs>
				<clipPath id="SVGID_6_">
					<use xlink:href="#SVGID_5_"  style="overflow:visible;"/>
				</clipPath>
				<g class="st25">
					<path class="st8" d="M1850.2,1526.3c-76.9-11.6-154.4-24.3-230.2-40.5c-143.4-30.1-181,193.8-38.8,223.8
						c33.5,6.9,67.7,13.9,101.2,20.2C1747.3,1669.8,1803.4,1601.5,1850.2,1526.3z"/>
					<path class="st8" d="M1414.1,1473.7c75.8,2.9,140,42.2,201.3,85c44,30.7,87.3-38.2,43.4-68.8c-72.9-50.9-151.5-94.3-241.2-97.7
						C1364.4,1389.2,1360.9,1471.4,1414.1,1473.7L1414.1,1473.7z"/>
					<path class="st8" d="M1547.1,1722.4l-96.6-0.6c-61.3-0.6-112.2-53.2-113.4-116.8l-0.6-22c-1.2-63.6,47.4-115.7,108.7-115.1
						l96.6,0.6c60.7,0.6,112.2,53.2,113.4,116.8l0.6,22C1657,1670.9,1608.4,1723,1547.1,1722.4z"/>
					<path class="st9" d="M1186.2,1842.1h-107.6c-73.5,0-133.6-57.3-137.7-130.1L923.7,1395c-0.6-11.6,8.1-21.4,19.1-22
						c0.6,0,1.2,0,1.2,0h375.4c11.6,0,20.8,9.3,20.8,20.8c0,0.6,0,0.6,0,1.2l-17.4,316.9C1319.8,1784.8,1259.1,1842.1,1186.2,1842.1
						z"/>
					<path class="st9" d="M1337.2,1444.8l-2.9,48.6c52.6,11,86.2,62.5,75.2,115.1c-8.7,42.2-44,73.5-86.8,76.9l-2.9,48.6
						c80.4-2.9,142.9-70.6,140-150.4C1457.5,1513.6,1406,1455.8,1337.2,1444.8L1337.2,1444.8z"/>
					<path class="st26" d="M1160.2,1299c0,0-92-85-89.1-147.5c4.6-95.4,90.2-131.9,57.8-222.1c-15.6-42.8-79.8-181-79.8-181
						s106.4,105.3,144,170c34.1,59,30.1,152.1-6.9,196.6C1105.3,1212.8,1160.2,1299,1160.2,1299z"/>
					<path class="st16" d="M1458.1,1469.1L1458.1,1469.1c42.8,2.3,75.2,39.3,72.9,81.6l0,0l-5.8,98.3c-2.3,42.8-39.3,75.2-81.6,72.9
						l0,0c-51.5-2.9-90.2-46.8-87.3-98.3l4-66.5C1363.2,1505.5,1407.2,1466.2,1458.1,1469.1L1458.1,1469.1L1458.1,1469.1z"/>
					<path class="st8" d="M1442.5,1465L1442.5,1465c42.8,2.3,75.2,39.3,72.9,81.5l0,0l-5.8,98.3c-2.3,42.8-39.3,75.2-81.6,72.9l0,0
						c-51.5-2.9-90.2-46.8-87.3-98.3l0,0l4-66.5C1347,1501.4,1391,1462.1,1442.5,1465L1442.5,1465L1442.5,1465z"/>
				</g>
			</g>
		</g>
	</g>
</g>
</svg>
