<?xml version="1.0" encoding="utf-8"?>
<!-- Generator: Adobe Illustrator 24.1.0, SVG Export Plug-In . SVG Version: 6.00 Build 0)  -->
<svg version="1.1" id="Layer_1" xmlns="http://www.w3.org/2000/svg" xmlns:xlink="http://www.w3.org/1999/xlink" x="0px" y="0px"
	 viewBox="0 0 3902.1 2000" style="enable-background:new 0 0 3902.1 2000;" xml:space="preserve">
<style type="text/css">
	.st0{fill:#C5C6E3;}
	.st1{fill:#E8EAF7;}
	.st2{fill:#AAACE3;}
	.st3{fill:#868AE0;}
	.st4{fill:#F8E7D8;}
	.st5{fill:#4E53BA;}
	.st6{fill:#DEBCA7;}
	.st7{fill:#D7D7E6;}
	.st8{fill:#C7645D;}
	.st9{fill:#2B31BA;}
	.st10{fill:#DADAED;}
	.st11{fill:#989BD7;}
	.st12{fill:#FFADB2;}
	.st13{fill:#EBDBCD;}
	.st14{fill:#FF7A82;}
	.st15{fill:#6267CC;}
	.st16{fill:#110580;}
</style>
<g id="Layer_2_1_">
	<g id="illustrations">
		<path class="st0" d="M2658.8,0H603.5c-61.6,0-110.6,49-110.6,110.6v1237c0,61.6,49,110.6,110.6,110.6h736.2l-71.1,224.3h-203.8
			c-15.8,0-30,12.6-30,30v17.4c0,15.8,12.6,30,30,30h178.5l0,0h774.1l0,0h178.5c15.8,0,30-12.6,30-30v-17.4c0-15.8-12.6-30-30-30
			h-202.2l-71.1-224.3h736.2c61.6,0,110.6-49,110.6-110.6v-1237C2769.4,49,2720.4,0,2658.8,0z"/>
		<path class="st1" d="M611.4,64.8h2039.5c25.3,0,45.8,20.5,45.8,45.8v1074.2c0,25.3-20.5,45.8-45.8,45.8H611.4
			c-25.3,0-45.8-20.5-45.8-45.8V109C567.1,83.7,587.7,64.8,611.4,64.8z"/>
		<circle class="st1" cx="1620.9" cy="1344.4" r="60"/>
		<path class="st2" d="M3083.7,1170.6L3083.7,1170.6c90,0,162.7,72.7,162.7,162.7v158c0,90-72.7,162.7-162.7,162.7l0,0
			c-90,0-162.7-72.7-162.7-162.7v-158C2921,1244.9,2993.7,1170.6,3083.7,1170.6z"/>
		<path class="st3" d="M3254.3,1842c12.6,0,22.1-9.5,22.1-20.5c0-3.2-1.6-7.9-3.2-11.1c-50.6-104.3-175.4-146.9-279.6-96.4
			c-42.7,20.5-75.8,55.3-96.4,96.4c-6.3,11.1-1.6,23.7,9.5,28.4c3.2,1.6,6.3,3.2,11.1,3.2H3254.3z"/>
		<path class="st3" d="M3129.5,1336.5c0,17.4,14.2,31.6,31.6,31.6h88.5v-33.2c0-9.5-1.6-19-3.2-30h-86.9
			C3142.2,1304.9,3129.5,1319.1,3129.5,1336.5z"/>
		<path class="st3" d="M3129.5,1434.4c0,17.4,14.2,31.6,31.6,31.6h88.5v-63.2h-90C3142.2,1404.4,3129.5,1418.6,3129.5,1434.4z"/>
		<path class="st3" d="M3129.5,1534c0,17.4,14.2,31.6,31.6,31.6h71.1c9.5-19,14.2-41.1,15.8-61.6h-88.5
			C3142.2,1503.9,3129.5,1516.6,3129.5,1534z"/>
		<path class="st3" d="M3039.5,1336.5c0-17.4-14.2-31.6-31.6-31.6h-85.3c-1.6,9.5-3.2,19-3.2,30v33.2h88.5
			C3025.3,1366.5,3039.5,1352.3,3039.5,1336.5z"/>
		<path class="st3" d="M3039.5,1434.4c0-17.4-14.2-31.6-31.6-31.6h-88.5v61.6h88.5C3025.3,1466,3039.5,1451.8,3039.5,1434.4z"/>
		<path class="st3" d="M3039.5,1534c0-17.4-14.2-31.6-31.6-31.6H2921c1.6,22.1,6.3,42.7,15.8,61.6h71.1
			C3025.3,1564,3039.5,1551.3,3039.5,1534z"/>
		<path class="st2" d="M3083.7,1753.6c-148.5,0-268.6-120.1-268.6-268.6v-19c0-17.4,14.2-31.6,31.6-31.6s31.6,14.2,31.6,31.6v20.5
			c0,113.7,91.6,205.4,205.4,205.4s205.4-91.6,205.4-205.4V1466c0-17.4,14.2-31.6,31.6-31.6s31.6,14.2,31.6,31.6v20.5
			C3352.3,1633.5,3232.2,1753.6,3083.7,1753.6z"/>
		<path class="st4" d="M1459.7,1919.4H660.3c-49,0-88.5-39.5-88.5-88.5l0,0c0-49,39.5-88.5,88.5-88.5h799.4l0,0L1459.7,1919.4
			L1459.7,1919.4z"/>
		<path class="st5" d="M88.5,1728.3h1407.6c3.2,0,6.3,3.2,6.3,6.3l0,0l0,0c0,3.2-3.2,6.3-6.3,6.3l0,0H661.9
			c-49,0-88.5,39.5-88.5,88.5l0,0l0,0c0,49,39.5,88.5,88.5,88.5l0,0h835.7c3.2,0,6.3,3.2,6.3,6.3l0,0l0,0c0,3.2-3.2,6.3-6.3,6.3l0,0
			H88.5c-49,0-88.5-39.5-88.5-88.5l0,0v-25.3C0,1769.4,39.5,1728.3,88.5,1728.3L88.5,1728.3z"/>
		<path class="st6" d="M818.3,1879.9h643v-7.9h-643c-1.6,0-4.7,1.6-4.7,4.7l0,0C813.6,1878.4,815.2,1879.9,818.3,1879.9z"/>
		<path class="st6" d="M747.2,1793h712.5v-7.9H747.2c-1.6,0-4.7,1.6-4.7,4.7l0,0l0,0C744.1,1791.5,745.7,1793,747.2,1793z"/>
		<path class="st6" d="M669.8,1835.7h789.9v-7.9H669.8c-1.6,0-4.7,1.6-4.7,4.7l0,0C665.1,1832.5,666.7,1835.7,669.8,1835.7z"/>
		<path class="st7" d="M570.3,935.2l-6.3-1.6c-14.2-3.2-28.4,4.7-34.8,19l-39.5,115.3c0,1.6-1.6,3.2-1.6,4.7
			c14.2,11.1,31.6,19,49,22.1c15.8,3.2,31.6,1.6,47.4-3.2c0-1.6,0-3.2,0-4.7l9.5-121.6C594,951,584.5,938.4,570.3,935.2z"/>
		<path class="st8" d="M571.9,759.9c3.2-4.7,9.5-6.3,14.2-3.2c1.6,1.6,3.2,1.6,3.2,3.2c6.3,12.6,14.2,28.4,20.5,39.5
			c11.1,26.9,15.8,56.9,11.1,85.3c-6.3,22.1-17.4,42.7-30,60c-1.6,1.6-3.2,3.2-4.7,3.2c-9.5,3.2-20.5,3.2-30,0
			c-19-4.7-20.5-15.8-20.5-15.8c-6.3-22.1-9.5-44.2-9.5-67.9c1.6-22.1,9.5-44.2,22.1-64.8C557.7,786.7,565.6,774.1,571.9,759.9z"/>
		<path class="st9" d="M417.1,1530.8l69.5-450.2c0-3.2,1.6-4.7,1.6-6.3c26.9,22.1,63.2,28.4,96.4,19c0,3.2,0,4.7-1.6,7.9
			l-107.4,442.3c-4.7,15.8-20.5,25.3-36.3,20.5C425,1557.7,415.5,1545,417.1,1530.8L417.1,1530.8z"/>
		
			<rect x="265.4" y="723.6" transform="matrix(0.9974 -7.271257e-02 7.271257e-02 0.9974 -82.9175 27.4601)" class="st10" width="140.6" height="857.9"/>
		
			<rect x="243.3" y="843.6" transform="matrix(0.9974 -7.271257e-02 7.271257e-02 0.9974 -60.9798 21.7159)" class="st11" width="49" height="9.5"/>
		
			<rect x="251.1" y="938.4" transform="matrix(0.9974 -7.271257e-02 7.271257e-02 0.9974 -67.8475 22.5365)" class="st11" width="49" height="9.5"/>
		
			<rect x="257.5" y="1034.8" transform="matrix(0.9974 -7.271257e-02 7.271257e-02 0.9974 -74.841 23.2554)" class="st11" width="49" height="9.5"/>
		
			<rect x="263.9" y="1131.2" transform="matrix(0.9974 -7.271257e-02 7.271257e-02 0.9974 -81.8347 23.9735)" class="st11" width="49" height="9.5"/>
		
			<rect x="271.7" y="1225.9" transform="matrix(0.9974 -7.271257e-02 7.271257e-02 0.9974 -88.7017 24.7931)" class="st11" width="49" height="9.5"/>
		
			<rect x="278.1" y="1322.4" transform="matrix(0.9974 -7.271257e-02 7.271257e-02 0.9974 -95.6954 25.5112)" class="st11" width="49" height="9.5"/>
		
			<rect x="285.9" y="1417.1" transform="matrix(0.9974 -7.271257e-02 7.271257e-02 0.9974 -102.5622 26.3318)" class="st11" width="49" height="9.5"/>
		
			<rect x="202.2" y="1017.2" transform="matrix(0.985 -0.1724 0.1724 0.985 -230.756 63.1199)" class="st12" width="91.6" height="685.6"/>
		<polygon class="st13" points="232.2,1014.2 142.2,1030 156.4,900.5 175.4,897.3 		"/>
		<polygon class="st14" points="162.7,960.5 175.4,951 186.4,952.6 199.1,946.3 175.4,897.3 156.4,900.5 151.7,952.6 		"/>
		<path class="st14" d="M169,1255.9h393.4c9.5,0,17.4,7.9,17.4,17.4v1.6l-52.1,420.2c-3.2,19-19,34.8-37.9,34.8h-248
			c-19,0-36.3-14.2-37.9-34.8l-50.6-420.2c-1.6-9.5,4.7-17.4,14.2-19C167.5,1255.9,169,1255.9,169,1255.9z"/>
		<path class="st9" d="M2701.4,1932.1c14.2,0,25.3-11.1,25.3-25.3c0-3.2-1.6-7.9-3.2-11.1c-58.5-121.6-203.8-172.2-325.4-113.7
			c-49,23.7-88.5,63.2-113.7,113.7c-6.3,12.6-1.6,26.9,11.1,33.2c3.2,1.6,7.9,3.2,11.1,3.2H2701.4z"/>
		<circle class="st9" cx="2505.5" cy="1565.6" r="232.2"/>
		<path class="st15" d="M2350.7,1739.3c36.3,31.6,80.6,52.1,128,56.9h52.1c47.4-4.7,93.2-25.3,128-58.5v-346
			c-88.5-79-221.2-79-309.6,0v347.6H2350.7z"/>
		<circle class="st2" cx="2505.5" cy="1573.5" r="101.1"/>
		<circle class="st16" cx="2505.5" cy="1573.5" r="61.6"/>
		<path class="st2" d="M3385.5,1717.2h466c28.4,0,50.6,22.1,50.6,50.6v33.2c0,28.4-22.1,50.6-50.6,50.6h-466
			c-28.4,0-50.6-22.1-50.6-50.6v-33.2C3334.9,1739.3,3357,1717.2,3385.5,1717.2z"/>
		<circle class="st16" cx="3292.3" cy="1783.6" r="216.4"/>
		<circle class="st9" cx="3292.3" cy="1783.6" r="167.5"/>
	</g>
</g>
</svg>
