<?xml version="1.0" encoding="utf-8"?>
<!-- Generator: Adobe Illustrator 24.1.0, SVG Export Plug-In . SVG Version: 6.00 Build 0)  -->
<svg version="1.1" id="Layer_1" xmlns="http://www.w3.org/2000/svg" xmlns:xlink="http://www.w3.org/1999/xlink" x="0px" y="0px"
	 viewBox="0 0 2669.5 2000" style="enable-background:new 0 0 2669.5 2000;" xml:space="preserve">
<style type="text/css">
	.st0{fill:#110580;}
	.st1{fill:#787CCB;}
	.st2{fill:#FFFFFF;}
	.st3{fill:#C5C6E3;}
	.st4{fill:#E8EAF7;}
	.st5{fill:#676BC4;}
	.st6{fill:#2B31BA;}
	.st7{fill:#D7D7E6;}
	.st8{fill:#C7645D;}
	.st9{fill:#DADAED;}
	.st10{fill:#989BD7;}
	.st11{fill:#FFADB2;}
	.st12{fill:#EBDBCD;}
	.st13{fill:#FF7A82;}
	.st14{fill:#FCFAF8;}
	.st15{fill:#D6D7F0;}
	.st16{fill:#FF5856;}
	.st17{fill:#FCBF9A;}
	.st18{opacity:0.18;fill:#FCB58A;enable-background:new    ;}
</style>
<g>
	<g>
		<path class="st0" d="M101.5,863.2c-61.1-53.8-85.3-90.7-100-120c-14.7-29.4,83.4-37.5,104.6-35.4c27.3,2.6,62,9.1,62,9.1
			L101.5,863.2z"/>
		<path class="st0" d="M496.3,1113.5c-9.1-2.3-58.7-32.4-70.4-55.5c-24.2-48.5-118.4-36.1-118.4-36.1l202.3-216"/>
		<path class="st0" d="M273.2,673.7c16.5-79.7,36.8-118.9,55-146.1c18.2-27.3,72.5,54.8,82.5,73.4c11.9,21.9,29.4,58,29.4,58
			L273.2,673.7z"/>
		<path class="st0" d="M889.2,415.7c-35.4,35.4-64.1,78.1-98.1,115.1c-20,21.7-63.4,65.7-55.7,8.4c9.6-72.7,74.6-138.2,108.4-200.7
			c37.1-68.3,64.8-151.5,38.9-228.4C856.3,31.9,729.3-24,683.9,71.5c-27,57.1,12.6,113.7,75.7,105.6c3-0.5,6.1-0.7,9.1-1.2
			c-12.8-0.5-25.6-0.7-38.5-1.2c12.6,2.8,3-11.7,1.4,3.3c-2.1,17.9-0.2,34.7-4.4,52.7c-8.6,37.1-25.6,71.3-42.6,105.1
			c-34.7,69.7-87.4,152.4-73.4,233.7c13.8,80.6,91.6,139.8,172.2,106c77.4-32.4,142.2-147.5,161.3-225.4
			C952.6,419.2,914.1,390.8,889.2,415.7L889.2,415.7z"/>
		<path class="st0" d="M492.1,723.3c49.4,89.5,50.8,184.3-96.2,264.7c-134.2,73.4-225.8,30.3-275.2-59.2s-6.3-207.9,96.2-264.7
			C319.4,607.5,442.7,633.9,492.1,723.3z"/>
		<path class="st1" d="M309.1,860.4c-14,3.7-26.1,11.2-35.9,21.9c-1.6,1.9-1.6,5.1-0.7,7.2c1.2,2.6,3.5,4,6.1,4.2
			c0.7,0,1.6,0,2.3,0.5c-1.9-0.7,0.2,0,0.7,0.2c1.2,0.2,2.1,0.7,3.3,1.2c0.5,0.2,1.2,0.5,1.6,0.7c0.2,0,0.2,0.2,0.5,0.2
			c0.9,0.5,1.9,1.2,2.8,1.6c4.4,2.8,8.9,5.6,13.5,8.2c0.2,0.2,0.7,0.5,0.9,0.5c0,0,0,0,0.2,0s0.2,0,0.5,0.2c0.2,0,0.2,0,0.5,0.2
			c3,0.9,6.8-1.2,8.2-4c0.2-0.2,0.2-0.5,0.2-0.7l0,0l0,0c0.5-1.2,0.7-2.3,0.2-3.7c-0.2-0.5-0.2-1.2-0.2-1.6l0,0V897
			c0-1.4,0.2-2.6,0.5-4c0-0.7,0.2-1.4,0.5-2.1c0-0.2,0.2-0.7,0.2-0.9c0.5-1.4,0.7-3,0.9-4.4c1.4-6.1,3.3-12.8,1.9-19.1
			C316.8,862.7,313.1,859.2,309.1,860.4z M314.7,889.7L314.7,889.7C314.9,888.6,314.7,889.3,314.7,889.7z"/>
		<g>
			<g>
				<path class="st2" d="M396.3,724.3c1.6,0.2,2.8,1.9,2.3,3.5c-5.6,17.9-10.7,39.6-20,54.8c-10,16.1-25.2,24.9-42.6,30.3
					c-6.8,2.1-13.7,2.6-20.5,3.7c-1.6,0.2-3.3-1.2-3.3-2.8c0.9-22.4,8.4-44.7,21.2-61.8C346.2,734.8,373.7,721.3,396.3,724.3z"/>
			</g>
			<path class="st1" d="M375.1,775.3c-1.4-4-3.5-7.7-6.1-11c-2.8-3.5-5.8-6.5-9.6-9.1c-5.1-3.5-10.5-6.8-17-6.8c-3,0-6.5,1.2-9.1,3
				c-2.6,1.9-3.7,3.7-4.7,7.5c-0.7,2.6-0.5,5.1,0.2,7.7c1.2,4,3,7.7,5.1,11c5.4,8.2,13.7,14.4,22.8,17.9c4.4,1.6,9.1,0.2,9.8,0
				c4.7-1.4,10.3-7.5,9.8-13.8C376.5,779.3,376,777.7,375.1,775.3z"/>
		</g>
		<g>
			<g>
				<path class="st2" d="M244.8,852.7c1.4,0.7,1.9,2.6,0.7,4c-8.6,10.5-17.9,20.5-29.1,28.2c-12.1,8.4-26.6,13.8-41.2,13.1
					c-14-0.7-27-6.8-39.2-13.5c-1.4-0.7-1.6-2.6-0.9-3.7c11.9-17,28-34,47.8-38.9C202.6,836.8,226.4,843.4,244.8,852.7z"/>
			</g>
			<path class="st1" d="M203.8,858.5c-1.9-5.6-4.2-11.2-9.3-14.9c-6.5-4.7-15.8-3.5-20.3,3.3c-2.6,4-3.5,9.6-3.7,14
				c-0.9,10,2.1,20.3,7,28.9c1.6,2.8,4.9,4.9,7.5,6.1c4,1.6,10.3,1.2,13.7-2.3c2.3-2.3,3.5-5.4,4.7-8.2c1.6-4.2,2.3-8.9,2.3-13.3
				C206.1,867.6,205.4,862.7,203.8,858.5z"/>
		</g>
	</g>
	<path class="st3" d="M1845.4,2000c35.9,0,57.3-40.1,37.3-69.7c-31.9-46.8-93.9-78.5-165.5-78.5c-71.3,0-133.5,31.7-165.5,78.5
		c-20.3,29.6,1.4,69.7,37.3,69.7H1845.4z"/>
	<g>
		<path class="st3" d="M1976.4,1446.7h-1475c-43.8,0-79.7-35.9-79.7-79.7V479.8c0-43.8,35.9-79.7,79.7-79.7h1475
			c43.8,0,79.7,35.9,79.7,79.7v887.5C2055.8,1411.1,2020.2,1446.7,1976.4,1446.7z"/>
		<path class="st4" d="M1970.8,1283.4H507c-17.9,0-32.6-14.7-32.6-32.6V478.9c0-17.9,14.7-32.6,32.6-32.6h1463.8
			c17.9,0,32.6,14.7,32.6,32.6V1251C2003.2,1268.7,1988.5,1283.4,1970.8,1283.4z"/>
		<polygon class="st3" points="1516.8,1662.3 961,1662.3 1029.7,1446.7 1447.8,1446.7 		"/>
		<path class="st3" d="M1645,1607.8H832.5c-11.7,0-21.2,9.6-21.2,21.2v11.9c0,11.7,9.6,21.2,21.2,21.2H1645
			c11.7,0,21.2-9.6,21.2-21.2V1629C1666.4,1617.3,1656.8,1607.8,1645,1607.8z"/>
		
			<ellipse transform="matrix(0.9239 -0.3827 0.3827 0.9239 -428.7013 575.1147)" class="st4" cx="1231.3" cy="1365.2" rx="43.3" ry="43.3"/>
	</g>
	<g>
		
			<rect x="2183.7" y="15.3" transform="matrix(0.5052 -0.863 0.863 0.5052 700.5994 2127.0193)" class="st5" width="43.1" height="874.4"/>
		
			<rect x="1907.3" y="1127.7" transform="matrix(0.4332 -0.9013 0.9013 0.4332 310.4999 2792.1746)" class="st5" width="935.9" height="43.1"/>
		<path class="st6" d="M1754,187.1c-130-76.2-295.3-38.7-380.3,82.3c-7.5,10.5-4.2,25.2,7,31.9l455.8,267.5
			c11.2,6.5,25.6,2.1,31.2-9.6C1931.8,426,1883.8,263.5,1754,187.1z"/>
		<path class="st6" d="M1857,14.4c-47.3-27.7-107.4-14.2-138.4,30.1c-2.8,4-1.6,9.1,2.6,11.7l165.9,97.4c4,2.3,9.3,0.7,11.4-3.5
			C1921.8,101.3,1904.3,42.1,1857,14.4z"/>
		<circle class="st6" cx="2597" cy="682.1" r="72.5"/>
		
			<rect x="1679.7" y="66.6" transform="matrix(0.5052 -0.863 0.863 0.5052 726.1796 1608.1394)" class="st6" width="171.5" height="208.3"/>
		<path class="st6" d="M2473.5,1715.2h-568.2c-13.1,0-23.5-10.5-23.5-23.5v-0.7c0-51,41.5-92.5,92.5-92.5h430.2
			c51,0,92.5,41.5,92.5,92.5v0.7C2497,1704.7,2486.5,1715.2,2473.5,1715.2z"/>
		<path class="st6" d="M2323.1,1606.4h-267.5v-23.8c0-31.7,25.6-57.3,57.3-57.3h152.6c31.7,0,57.3,25.6,57.3,57.3v23.8H2323.1z"/>
	</g>
	<g>
		<g>
			<path class="st7" d="M2550.1,1285.9l-4.4-0.9c-10-2.1-20,3.5-24,12.8l-29.1,81.1c-0.5,1.2-0.5,2.3-0.9,3.3
				c9.1,7.7,21,13.3,34.5,15.6c12.1,2.1,23.5,0.9,33.8-2.1c0-0.9,0.5-2.1,0.5-3l6.5-85.8C2567.4,1296.9,2560.2,1288,2550.1,1285.9z"
				/>
			<path class="st8" d="M2551.5,1162.9c2.6-4.9,10.3-4.9,12.8,0c4.4,8.9,10.3,20.3,14.7,28c7.7,13.3,11.4,45.4,7.7,59.7
				c-4.7,17.9-17.5,36.8-21.4,42.2c-0.9,1.2-2.1,2.1-3.5,2.6c-3.5,1.2-11.2,2.8-20.7,0.5c-13.3-3.3-14.9-12.1-14.9-12.1
				s-7.7-29.8-6.5-47.8c1.2-17.9,11.2-41,15.1-45.2C2537.5,1188.3,2545.5,1173.8,2551.5,1162.9z"/>
			<path class="st6" d="M2442.5,1704.7l48.7-316.7c0.2-1.6,0.7-3.5,1.2-5.1c9.1,7.5,20.5,13.1,33.8,15.1c11.9,1.9,23.3,0.9,33.3-2.1
				c-0.2,1.9-0.5,3.7-0.9,5.6l-75.5,311.4c-2.8,10.5-13.5,17.2-24.2,14.9C2448.3,1725.7,2441.1,1715.7,2442.5,1704.7z"/>
		</g>
		<g>
			
				<rect x="2335.9" y="1137.9" transform="matrix(0.9973 -7.277233e-02 7.277233e-02 0.9973 -98.4014 177.4047)" class="st9" width="99" height="602.4"/>
			
				<rect x="2320.2" y="1221.6" transform="matrix(0.9973 -7.277233e-02 7.277233e-02 0.9973 -82.961 173.3343)" class="st10" width="34" height="7.2"/>
			
				<rect x="2325.1" y="1288.7" transform="matrix(0.9973 -7.277233e-02 7.277233e-02 0.9973 -87.8321 173.8684)" class="st10" width="34" height="7.2"/>
			
				<rect x="2330" y="1356" transform="matrix(0.9973 -7.277233e-02 7.277233e-02 0.9973 -92.7203 174.4031)" class="st10" width="34" height="7.2"/>
			
				<rect x="2334.9" y="1423.1" transform="matrix(0.9973 -7.277233e-02 7.277233e-02 0.9973 -97.5914 174.9372)" class="st10" width="34" height="7.2"/>
			
				<rect x="2339.8" y="1490.5" transform="matrix(0.9973 -7.277233e-02 7.277233e-02 0.9973 -102.4795 175.4719)" class="st10" width="34" height="7.2"/>
			
				<rect x="2344.7" y="1557.6" transform="matrix(0.9973 -7.277233e-02 7.277233e-02 0.9973 -107.3506 176.006)" class="st10" width="34" height="7.2"/>
			
				<rect x="2349.6" y="1624.9" transform="matrix(0.9973 -7.277233e-02 7.277233e-02 0.9973 -112.2388 176.5407)" class="st10" width="34" height="7.2"/>
		</g>
		<g>
			
				<rect x="2290.4" y="1343.5" transform="matrix(0.985 -0.1724 0.1724 0.985 -238.3907 424.1299)" class="st11" width="64.1" height="481.9"/>
			<polygon class="st12" points="2312.2,1341.9 2249.3,1352.8 2259,1262.2 2272.1,1259.8 			"/>
			<polygon class="st13" points="2263,1303.9 2272.1,1297.8 2279.8,1298.8 2288.9,1293.9 2272.1,1259.8 2259,1262.2 2255.1,1298.5 
							"/>
		</g>
		<path class="st13" d="M2268.1,1511.5h276.2c7.2,0,12.6,6.3,11.9,13.3l-36.8,295c-1.6,13.8-13.3,24-27,24h-173.2
			c-13.8,0-25.4-10.3-27-24l-35.7-295C2255.6,1517.8,2261.1,1511.5,2268.1,1511.5z"/>
	</g>
	<g>
		<path class="st3" d="M846.5,1905.1H336.6c-14.7,0-26.6-11.9-26.6-26.6v-0.5c0-14.7,11.9-26.6,26.6-26.6h509.9
			c14.7,0,26.6,11.9,26.6,26.6v0.5C873.1,1893.3,861.2,1905.1,846.5,1905.1z"/>
		<g>
			<g>
				<path class="st14" d="M877.1,1257.3c-2.6-19.3-16.5-35.4-31.9-47.5c-43.8-34.3-103-45.2-157.8-36.4c-20.5,3.3-40.8,9.3-58,21.2
					c-35.2,24.2-50.3,72.7-36.6,113.3c1.9,5.6,8.6,11.7,8.6,11.7c-17,32.4-27,56.4-41.5,89.7c33.6-25.6,70.1-47.8,108.8-66.2
					l4.7,2.6c45.9,28,106.3,14.4,152.4-13.1C853.8,1316,881.3,1289.2,877.1,1257.3z"/>
			</g>
			<g>
				<ellipse class="st15" cx="669.4" cy="1264.3" rx="16.8" ry="15.8"/>
				<ellipse class="st15" cx="727.7" cy="1264.3" rx="16.8" ry="15.8"/>
				<ellipse class="st15" cx="782" cy="1264.3" rx="16.8" ry="15.8"/>
			</g>
		</g>
		<g>
			<path class="st16" d="M405.1,1309.9c-33.8-7.5-62.2-52.4-72.5-79.7c-5.1-13.8-5.1-30.5-3.3-45c1.9-14.4,8.6-28.9,20.5-37.5
				c13.5-9.6,32.9-10,46.8-1.2c14,8.9,21.7,21,24.9,38.7c14-11.9,25.4-15.6,43.3-18.4c13.1-2.1,27.7-0.9,38,7.5
				c13.1,11,14.4,31.5,7.2,47.1c-7.2,15.6-20.7,34.7-37.5,48.9C453.8,1286.6,429.4,1301.5,405.1,1309.9"/>
		</g>
		<g>
			<path class="st5" d="M477.6,1711.3l-29.6-11.9c-7-2.8-10.5-11-7.7-17.9l35.4-87.9c2.8-7,11-10.5,17.9-7.7l29.6,11.9
				c7,2.8,10.5,11,7.7,17.9l-35.4,88.1C492.8,1710.8,484.6,1714.3,477.6,1711.3z"/>
			<path class="st17" d="M566.6,1743.4l-58-23.1c-9.1-4.7-12.6-16.8-8.4-27.3l28.7-71.3c3.7-9.1,12.8-14.2,21.7-12.1l88.8,39.9
				c13.1,3.3,10.3,7.7,4.9,21.4l-38.5,54.3C598.8,1742.5,566.6,1743.4,566.6,1743.4z"/>
			<path class="st17" d="M536.6,1612.4c0,0,40.6-23.3,53.8-33.6c10.7-8.4,20.3-24,26.8-23.3c27,3,11.2,31.5,5.8,38.7
				c-7.7,10.3-31,32.4-31,32.4L536.6,1612.4z"/>
			<path class="st17" d="M586.4,1751.1l-61.3-24.2c-8.2-3.3-12.1-12.4-8.9-20.5l0,0c3.3-8.2,12.4-12.1,20.5-8.9l61.3,24.2
				c8.2,3.3,12.1,12.4,8.9,20.5l0,0C603.7,1750.4,594.4,1754.4,586.4,1751.1z"/>
			<path class="st17" d="M603.9,1725.9l-61.3-24.2c-8.2-3.3-12.1-12.4-8.9-20.5l0,0c3.3-8.2,12.4-12.1,20.5-8.9l61.3,24.2
				c8.2,3.3,12.1,12.4,8.9,20.5l0,0C621.2,1725.2,611.8,1729.2,603.9,1725.9z"/>
			<path class="st17" d="M623.3,1701.2L562,1677c-8.2-3.3-12.1-12.4-8.9-20.5l0,0c3.3-8.2,12.4-12.1,20.5-8.9l61.3,24.2
				c8.2,3.3,12.1,12.4,8.9,20.5l0,0C640.5,1700.3,631.2,1704.3,623.3,1701.2z"/>
			<path class="st17" d="M638,1675.1l-61.3-24.2c-8.2-3.3-12.1-12.4-8.9-20.5l0,0c3.3-8.2,12.4-12.1,20.5-8.9l61.3,24.2
				c8.2,3.3,12.1,12.4,8.9,20.5l0,0C655.2,1674.4,645.9,1678.4,638,1675.1z"/>
		</g>
		<polygon class="st18" points="54.4,956.6 340.8,1851.5 591.6,1851.5 842.6,1851.5 1129,956.6 		"/>
	</g>
</g>
</svg>
