<?xml version="1.0" encoding="utf-8"?>
<!-- Generator: Adobe Illustrator 24.1.0, SVG Export Plug-In . SVG Version: 6.00 Build 0)  -->
<svg version="1.1" id="Layer_1" xmlns="http://www.w3.org/2000/svg" xmlns:xlink="http://www.w3.org/1999/xlink" x="0px" y="0px"
	 viewBox="0 0 2696.8 2000" style="enable-background:new 0 0 2696.8 2000;" xml:space="preserve">
<style type="text/css">
	.st0{fill:#C5C6E3;}
	.st1{fill:#E8EAF7;}
	.st2{fill:#F8E7D8;}
	.st3{fill:#110580;}
	.st4{fill:#DEBCA7;}
	.st5{fill:#D7D7E6;}
	.st6{fill:#C7645D;}
	.st7{fill:#2B31BA;}
	.st8{fill:#DADAED;}
	.st9{fill:#989BD7;}
	.st10{fill:#FFADB2;}
	.st11{fill:#EBDBCD;}
	.st12{fill:#FF7A82;}
	.st13{opacity:0.18;fill:#FCB58A;enable-background:new    ;}
	.st14{fill:#676BC4;}
	.st15{fill:#FF5856;}
	.st16{fill:#DCDCED;}
</style>
<g>
	<path class="st0" d="M1797.1,1850.7c32.9,0,52.6-36.9,34.2-64.1c-29.2-43.1-86.3-72.3-151.8-72.3s-122.6,29.2-151.8,72.3
		c-18.6,27.2,1.1,64.1,34.2,64.1H1797.1z"/>
	<g>
		<path class="st0" d="M2003.1,1385.4h-1355c-40.1,0-72.7-32.9-72.7-72.7V497c0-40.1,32.9-72.7,72.7-72.7h1355
			c40.1,0,72.7,32.9,72.7,72.7v815.4C2075.9,1352.5,2043,1385.4,2003.1,1385.4z"/>
		<path class="st1" d="M1997.7,1235.1H653.4c-16.3,0-29.9-13.4-29.9-29.9V496.3c0-16.3,13.4-29.9,29.9-29.9h1344.3
			c16.3,0,29.9,13.4,29.9,29.9v709.1C2027.6,1221.8,2014,1235.1,1997.7,1235.1z"/>
		<polygon class="st0" points="1580.9,1583 1070.4,1583 1133.6,1385.4 1517.5,1385.4 		"/>
		<path class="st0" d="M1698.8,1533.2H952.5c-10.7,0-19.5,8.6-19.5,19.5v11.1c0,10.7,8.6,19.5,19.5,19.5h746.3
			c10.7,0,19.5-8.6,19.5-19.5v-11.1C1718.1,1541.8,1709.4,1533.2,1698.8,1533.2z"/>
		<circle class="st1" cx="1318.7" cy="1310.4" r="39.9"/>
	</g>
	<g>
		<path class="st2" d="M487,1951h594.4v-131H487c-35.1,0-63.7,28.6-63.7,63.7v3.9C423.3,1922.5,451.9,1951,487,1951z"/>
		<path class="st3" d="M65.7,1810.1h1042.7c2.7,0,4.8,2,4.8,4.8l0,0c0,2.7-2,4.8-4.8,4.8H490c-36.3,0-65.7,29.5-65.7,65.7l0,0
			c0,36.3,29.5,65.7,65.7,65.7h618.5c2.7,0,4.8,2,4.8,4.8l0,0c0,2.7-2,4.8-4.8,4.8H65.7c-36.3,0-65.7-29.5-65.7-65.7v-19.3
			C0,1839.5,29.5,1810.1,65.7,1810.1z"/>
		<path class="st4" d="M605.5,1922h475.9v-6.1H605.5c-1.6,0-3.2,1.4-3.2,3.2l0,0C602.4,1920.7,603.7,1922,605.5,1922z"/>
		<path class="st4" d="M553.9,1857.7h527.6v-6.1H553.9c-1.6,0-3.2,1.4-3.2,3.2l0,0C550.7,1856.3,552.3,1857.7,553.9,1857.7z"/>
		<path class="st4" d="M495.9,1888.7h585.6v-6.1H495.9c-1.6,0-3.2,1.4-3.2,3.2l0,0C492.7,1887.4,494,1888.7,495.9,1888.7z"/>
	</g>
	<g>
		<g>
			<path class="st5" d="M175.9,1280.7l4.1-0.9c9.5-2,19,3.2,22.7,12.2l27.6,77.1c0.5,0.9,0.5,2,0.9,3.2
				c-8.6,7.3-19.7,12.7-32.6,14.7c-11.3,1.8-22.4,0.9-32.2-2c0-0.9-0.5-1.8-0.5-2.9l-6.3-81.4
				C159.5,1291.1,166.3,1282.7,175.9,1280.7z"/>
			<path class="st6" d="M174.5,1164c-2.5-4.5-9.7-4.5-12,0c-4.1,8.4-9.7,19.3-14.1,26.5c-7.3,12.7-10.7,43.1-7.3,56.7
				c4.3,17,16.5,34.9,20.4,40.1c0.9,1.1,1.8,1.8,3.2,2.3c3.4,1.1,10.7,2.7,19.5,0.5c12.7-2.9,14.1-11.3,14.1-11.3s7.3-28.3,6.1-45.3
				c-1.1-17-10.4-39-14.5-42.8C187.6,1188.2,180.2,1174.4,174.5,1164z"/>
			<path class="st7" d="M277.8,1678l-46.2-300.5c-0.2-1.6-0.7-3.2-1.1-4.8c-8.6,7-19.5,12.2-32.2,14.3c-11.3,1.8-22.2,0.9-31.7-2
				c0.2,1.8,0.5,3.6,0.9,5.4l71.6,295.3c2.7,10,12.7,16.3,22.9,14.3C272.4,1697.9,279.4,1688.4,277.8,1678z"/>
		</g>
		<g>
			
				<rect x="45.9" y="1379.2" transform="matrix(7.277233e-02 -0.9973 0.9973 7.277233e-02 -1114.9288 1653.1912)" class="st8" width="571.5" height="94"/>
			
				<rect x="373.9" y="1207.3" transform="matrix(7.277233e-02 -0.9973 0.9973 7.277233e-02 -870.2651 1510.7048)" class="st9" width="6.8" height="32.2"/>
			
				<rect x="369.4" y="1271" transform="matrix(7.277233e-02 -0.9973 0.9973 7.277233e-02 -937.9669 1565.2456)" class="st9" width="6.8" height="32.2"/>
			
				<rect x="364.7" y="1334.9" transform="matrix(7.277233e-02 -0.9973 0.9973 7.277233e-02 -1006.0716 1619.7432)" class="st9" width="6.8" height="32.2"/>
			
				<rect x="360.2" y="1398.5" transform="matrix(7.277233e-02 -0.9973 0.9973 7.277233e-02 -1073.7734 1674.2836)" class="st9" width="6.8" height="32.2"/>
			
				<rect x="355.4" y="1462.4" transform="matrix(7.277233e-02 -0.9973 0.9973 7.277233e-02 -1141.8774 1728.7811)" class="st9" width="6.8" height="32.2"/>
			
				<rect x="350.9" y="1526.1" transform="matrix(7.277233e-02 -0.9973 0.9973 7.277233e-02 -1209.5792 1783.3219)" class="st9" width="6.8" height="32.2"/>
			
				<rect x="345.9" y="1590" transform="matrix(7.277233e-02 -0.9973 0.9973 7.277233e-02 -1277.8765 1837.5791)" class="st9" width="6.8" height="32.2"/>
		</g>
		<g>
			
				<rect x="163.1" y="1533.8" transform="matrix(0.1724 -0.985 0.985 0.1724 -1216.6765 1680.2494)" class="st10" width="457.1" height="60.7"/>
			<polygon class="st11" points="401.4,1333.7 461.2,1344.1 451.9,1258.3 439.4,1256 			"/>
			<polygon class="st12" points="448.3,1297.9 439.4,1292 432.4,1292.9 423.6,1288.4 439.4,1256 451.9,1258.3 455.5,1292.9 			"/>
		</g>
		<path class="st12" d="M443.3,1494.9H181.1c-6.8,0-12,5.9-11.1,12.7l34.9,279.9c1.6,12.9,12.7,22.7,25.6,22.7h164.3
			c13.1,0,24-9.7,25.6-22.9l34-279.7C455.3,1500.7,450.1,1494.9,443.3,1494.9z"/>
	</g>
	<polygon class="st13" points="1516.4,278.5 56.9,1960.6 1571,1960.6 1924.1,526.5 	"/>
	<g>
		
			<rect x="2250.4" y="14" transform="matrix(0.5052 -0.863 0.863 0.5052 764.7014 2164.7163)" class="st14" width="39.4" height="802.9"/>
		
			<rect x="1996.5" y="1035.7" transform="matrix(0.4332 -0.9013 0.9013 0.4332 423.9492 2785.0186)" class="st14" width="859.6" height="39.4"/>
		<path class="st7" d="M1856.1,171.8c-119.4-70-271-35.6-349.2,75.5c-6.8,9.7-3.9,23.1,6.3,29.2L1932,522.2
			c10.2,6.1,23.3,2,28.6-8.8C2019.2,391,1975.3,241.8,1856.1,171.8z"/>
		<path class="st7" d="M1950.6,13.2c-43.5-25.4-98.6-12.9-127.1,27.4c-2.5,3.6-1.4,8.4,2.3,10.7l152.3,89.3
			c3.6,2.3,8.6,0.7,10.4-3.2C2010.2,92.9,1994.1,38.6,1950.6,13.2z"/>
		<circle class="st7" cx="2630.2" cy="626.2" r="66.6"/>
		
			<rect x="1787.8" y="60.8" transform="matrix(0.5052 -0.863 0.863 0.5052 788.458 1688.317)" class="st7" width="157.5" height="191.5"/>
		<path class="st7" d="M2516.7,1574.8H1995c-12,0-21.8-9.7-21.8-21.8l0,0c0-47.4,38.3-85.7,85.7-85.7h393.9
			c47.4,0,85.7,38.3,85.7,85.7l0,0C2538.4,1565.1,2528.7,1574.8,2516.7,1574.8z"/>
		<path class="st7" d="M2378.7,1475.1H2133v-22c0-29,23.6-52.6,52.6-52.6h140.5c29,0,52.6,23.6,52.6,52.6V1475.1z"/>
	</g>
	<g>
		<path class="st15" d="M2243.1,2000h-77.3c-52.6,0-95.9-41-98.8-93.6l-12.5-228c-0.5-8.6,6.3-15.9,15-15.9h269.7
			c8.6,0,15.4,7.3,15,15.9l-12.5,228C2339,1958.8,2295.5,2000,2243.1,2000z"/>
		<path class="st15" d="M2351.5,1714.2l-2,34.9c31.7,6.6,55.8,34.7,55.8,68.4c0,36.5-28.1,66.6-63.9,69.6l-2,34.9
			c56-2,100.6-48,100.6-104.5C2439.9,1765.4,2401.6,1722.2,2351.5,1714.2z"/>
		<path class="st16" d="M2224.3,1609.5c0,0-66.2-61.2-63.9-106.1c3.2-68.7,65-94.7,41.2-159.3c-11.3-30.8-57.6-130.1-57.6-130.1
			s76.6,75.5,103.6,122.2c24.5,42.2,21.5,109.2-5.2,141.4C2184.7,1547.4,2224.3,1609.5,2224.3,1609.5z"/>
	</g>
</g>
</svg>
