<?xml version="1.0" encoding="utf-8"?>
<!-- Generator: Adobe Illustrator 24.1.0, SVG Export Plug-In . SVG Version: 6.00 Build 0)  -->
<svg version="1.1" id="Layer_1" xmlns="http://www.w3.org/2000/svg" xmlns:xlink="http://www.w3.org/1999/xlink" x="0px" y="0px"
	 viewBox="0 0 4890.9 2000" style="enable-background:new 0 0 4890.9 2000;" xml:space="preserve">
<style type="text/css">
	.st0{fill:#E0E1FF;}
	.st1{fill:#AAACE3;}
	.st2{fill:#FF5856;}
	.st3{fill:#1F6771;}
	.st4{fill:#6B4D3A;}
	.st5{fill:#8A634B;}
	.st6{fill:#4E53BA;}
	.st7{fill:#E69E19;}
	.st8{fill:#FDB62F;}
</style>
<g id="Layer_2_1_">
	<g id="illustrations">
		<path class="st0" d="M2294.6,1525.7h-617.6c-62-0.1-113.4-47.9-118.1-109.6L1455.9,29.8c-1.2-15.2,10.1-28.4,25.2-29.7
			c0.8-0.1,1.5-0.1,2.3-0.1H2488c15.5,0.1,27.9,12.7,27.8,28.2c0,0.5,0,1-0.1,1.5l-103.2,1386.3
			C2408,1477.9,2356.5,1525.6,2294.6,1525.7z"/>
		<path class="st1" d="M2374.2,1372.7l69-967.4h-914.8l69,967.4c4.4,56,51.2,99.3,107.4,99.2h562.1
			C2323,1471.9,2369.8,1428.7,2374.2,1372.7z"/>
		<path class="st2" d="M1219.5,694.5C1100.5,563.3,860.9,491.1,713,548.7s-97.7,47.4-148.8,57.3c-51.1,9.9-139.9-17.4-231.7,42.9
			c-103.9,68-303.1,264.4-225.5,545.7c66.2,239.6,322.5,459.4,656.6,429.4c334.1-30,512.2-213.1,566.3-375
			C1393.7,1057.2,1334.4,821.5,1219.5,694.5z"/>
		<path class="st3" d="M675.1,768.9c0,0,37.2-325.4-163-417.2S-13,132.2,0.4,153s65.7,380.5,198.4,486.7
			C397.3,800.7,675.1,768.9,675.1,768.9z"/>
		<path class="st4" d="M741.1,740.4c0,0-17.9-161-16.4-255.7c3.2-195.2,15.1-290.2,15.1-290.2l-166.7,13.1c0,0,5,227.5,17.6,312.5
			c10.9,82.9,32.5,164,64.2,241.3c15.6,14.5,37.6,19.9,58,14.1C728.5,770.4,739.5,756.7,741.1,740.4z"/>
		
			<ellipse transform="matrix(0.993 -0.1179 0.1179 0.993 -19.0654 78.7849)" class="st5" cx="656.5" cy="200.6" rx="83.8" ry="40.7"/>
		<path class="st6" d="M4503.4,538.5h-185.5c-100.7,0-192.4,57.9-235.6,148.8l0,0L3993.9,862H2920.6l-89-175.4l0,0
			c-43.2-90.8-134.8-148.7-235.4-148.8h-185.8c-213.6,0-386.7,173.1-386.7,386.7c0,0.2,0,0.5,0,0.7v285.5
			c-0.1,213.6,172.9,386.8,386.5,387c0.1,0,0.2,0,0.2,0h185.8c100.6-0.1,192.2-58,235.4-148.8l0,0l89-175.4h1073.3l89,175.4l0,0
			c43.3,90.9,135,148.8,235.6,148.8h185.5c213.6,0,386.7-173.1,386.7-386.7c0-0.1,0-0.2,0-0.2V925.2
			c0-213.6-173.1-386.7-386.7-386.7C4503.9,538.5,4503.7,538.5,4503.4,538.5z"/>
		<path class="st7" d="M2480.9,1727.1c-686.1,181.3-1549-288.5-1549-288.5l-70.4,16.9c0,0,428.9,657.8,1475.9,527.3
			c1257.3-156.5,1305.2-1084,1305.2-1084l8.9-141.4l0,0C3629.8,942.6,3478.7,1463.5,2480.9,1727.1z"/>
		<path class="st8" d="M3686.8,353.5c-6.2-37.6-38.5-65.4-76.6-66c-48.1,2.2-53.8,59-55.1,68c-5.2,41.7,0,299.9-34,347.3
			c-126.5,181.1-396.9,488.4-1180,641.7c-414.5,81.4-1389.1-31.3-1389.1-31.3l-20.3,125.5c0,0,862.9,469.8,1549,288.5
			c1186.9-313.3,1175.7-990.4,1173.8-1034.8C3654.6,690.8,3688.6,366.1,3686.8,353.5z"/>
		<path class="st4" d="M861.4,1455.8c23.8-4.4,47.3-10.1,70.4-17.1c3.7-3.5,21.1-125.8,21.1-125.8s-59.3-3-74.4,24.8
			C857.6,1378.9,861.4,1455.8,861.4,1455.8z"/>
	</g>
</g>
</svg>
