<?xml version="1.0" encoding="utf-8"?>
<!-- Generator: Adobe Illustrator 24.1.0, SVG Export Plug-In . SVG Version: 6.00 Build 0)  -->
<svg version="1.1" id="Layer_1" xmlns="http://www.w3.org/2000/svg" xmlns:xlink="http://www.w3.org/1999/xlink" x="0px" y="0px"
	 viewBox="0 0 1988.2 2000" style="enable-background:new 0 0 1988.2 2000;" xml:space="preserve">
<style type="text/css">
	.st0{fill:#4C7378;}
	.st1{fill:#66A896;}
	.st2{fill:#57848A;}
	.st3{fill:#FC9658;}
	.st4{fill:#689399;}
	.st5{fill:#E69E19;}
	.st6{fill:#FDB62F;}
	.st7{fill:#6B4D3A;}
	.st8{fill:#FF5856;}
	.st9{fill:#1F6771;}
	.st10{fill:#8A634B;}
	.st11{fill:#DEC7B2;}
	.st12{fill:#EBDBCD;}
	.st13{opacity:0.75;}
	.st14{fill:#E0E1FF;}
	.st15{fill:#AAACE3;}
</style>
<g id="Layer_2_1_">
	<g id="illustrations">
		<path class="st0" d="M1242.1,416.4c-25.9-45.2-52.6-91.3-65.8-141.7s-12-107.2,15.4-151.8s84.3-72.7,133.9-56.4
			c61.1,20,87,95.5,78.7,159.3c-8.3,63.8-41.2,121.2-61.6,182.1c-6.7,19.9-11.2,44.4,3,60.2c15.1,16.4,42.1,12,62.7,4
			c60.2-24.1,109.9-74.2,173.8-86.5c23.5-4.5,51.5-1.9,65.9,17.3c6.4,9.7,10,21,10.7,32.6c5.7,64.4-25.4,126.5-80.3,160.6
			c-37.6,22.6-83,30.1-119.6,54.2c-8.2,5.4-16.6,12.7-18.1,22.5c-1.5,9.8,5.2,19.1,12,26.4c21.7,23.5,50.1,39.9,71.3,63.6
			c21.3,23.8,34.2,60.2,17.5,87.5c-16.7,27.3-55,32.1-86.1,25c-31.1-7.1-60.2-23.1-91.6-27.3s-69.7,8.9-78.3,39.6
			c-9.4,33.7,21.8,65.6,54.2,78.8s69.2,16.4,97.9,36.1c44.9,31.1,56.1,92.6,25,137.5c-15.4,22.2-39.1,37.1-65.8,41.3
			c-28.7,4.5-57.6-3.8-85.3-12.6c-144.2-45.9-282.7-107.9-413-184.9c-18.1-10.7-36.1-22-49.5-38.4c-37.4-46.7-21.1-114.8-3.1-171.8
			c8.7-27.4,20.5-58.3,47.6-68.1c36.1-13.1,71,19.3,106.8,33.1c30.1,11.4,63.6,9.8,92.5-4.5c16.8-7.9,30.5-21.3,38.7-38
			c13.7-31.2-0.6-68.2-22.5-94.4c-21.9-26.2-50.9-45.6-73.5-71.2c-27.2-30.8-44.7-73-36.7-113.4c8-40.5,46.7-75.4,87.6-70.1
			c58.9,7.5,87.5,84.3,145.4,97.5C1253.3,440.1,1242.1,416.4,1242.1,416.4z"/>
		<path class="st1" d="M1666.7,258.9c3.2-39.6,1.2-128.5-56.3-131.9c-61.1-3.6-43.2,88.6-36.1,122c9.8,45.5,25.1,90.9,29.2,137
			c-7.5,15.4-13.3,31.5-17.3,48.2c-0.9,6.8,4,13.1,10.8,13.9c1.2,0.2,2.5,0.1,3.7-0.1c-0.6,3.1-1.3,6-2.1,9.5
			c-2.6,10,12.3,12,15.4,2.9c4.8-14.6,7.9-29.6,9.3-44.9c8.6-20.1,16.1-40.6,22.5-61.5C1656.5,323.3,1663.5,291.3,1666.7,258.9z"/>
		<path class="st0" d="M1877.5,282.2c-25.3-44.6-85.9-32.9-125.4-17.3s-83.9,45.1-97.7,86.9c-12.1,14.5-20.4,31.9-24.1,50.4
			c-2.7,13.4,19,21.5,23.5,7.8c9.4-27.9,27.4-53.1,54.5-66.2c28.7-13.5,60.6-9.2,91-6.8c21.5,1.6,53.2,7.2,72.3-6.5
			C1887.4,319.5,1886.1,297.4,1877.5,282.2z"/>
		<path class="st2" d="M1780.5,34.1c-27-2.2-50.8,35.3-63.1,54.2c-17.2,27.2-30.7,56.4-40.3,87.1c-11.7,35.2-19.9,71.2-29.4,106.9
			c-9.8,36.8-23.7,72.3-34.7,108.4c-4.6,9.5-8.9,19-12.6,28.7c-3.7,9.8,9.2,20.5,16.3,10.8c25.6-34.6,44-74.5,64.4-112.3
			c21.5-39.9,42.9-79.7,64.4-119.5C1756.5,178.4,1848.4,39.6,1780.5,34.1z"/>
		<path class="st3" d="M1707.6,560c31.7-53.2-4.3-122.7-51.9-162.6c-23.7-19.7-51.2-36.1-81.8-40.5c-62.3-8.4-120.8,37.3-152.1,91.8
			s-43,118-63.7,177.5c-40.6,116.3-115.4,216.8-176.2,323.9s-108.8,230-87.8,351.1c2.6,14.8,10.5,33.1,25.6,32.2
			c7.5-1.3,14.3-5.2,19.3-11c25.3-23.5,50.8-47.1,75.7-71.2c127.6-123.2,243-258.2,344.9-403.4C1630.5,747,1707.6,560,1707.6,560z"
			/>
		<path class="st4" d="M1119.1,1319.4c77.1-79.4,105.8-194,75.4-300.4c-11.6-40.5-31.1-79.3-39.3-120.4c-8.1-41.1-2.5-87.1,29.3-114
			c31.9-26.9,94.2-21.7,113.3,16.6c13.4,27,6,65.4,34,80c18.1,9.3,40.4,1,51.9-13.5s14.6-33.5,17.5-51.7l29-187
			c3.6-22.8,7.4-46.4,20.5-65.4s38.1-32.6,62.5-26.3c68,17.5,35.4,136.3,99.9,164.3c44.9,19.5,86.2-25.7,105.8-66.2
			c25.7-52.7,48.8-110.4,99-143.9c50.2-33.5,138.5-26.3,163.6,29.4c16.8,37-0.5,77.7-20.2,111.4c-22.4,38.5-47.9,75-76.2,109.4
			c-27.8,33.8-58.5,82.6-26.5,116.4c18.8,20,51.8,23.1,71.6,42.1c10.9,11.5,17.7,26.4,19.2,42.1c10.2,77.1-76,145.8-156.9,124.9
			c-48.2-12.5-95.2-50.5-142.2-38.2c-46.1,12-60.8,67.4-50.6,112.4s37.3,86.3,46.9,131.4c9.6,45.1-7.2,100.2-54.2,110.4
			c-62,13.4-129.1-59.7-186.3-34.8c-17.5,7.6-29,23.1-39.6,38.1c-30.3,42.8-59.5,86.4-87.5,130.7L1119.1,1319.4z"/>
		<path class="st1" d="M754.5,386.7c-50.5-29.1-101.8-58.6-142.8-100s-71.4-96.9-69.9-155.2S582.5,14.3,639.5,2.3
			c70.2-14.8,137.2,43.6,165,109.8c27.8,66.2,27.9,140.1,42.1,210.4c4.6,23,14,49.2,36.1,56.1c24.1,7.4,47.4-11.5,62.7-31.1
			c44.6-57.3,64.6-133.1,119.4-180.6c20.2-17.5,48.8-30.6,73.3-20c11.6,5.8,21.4,14.6,28.5,25.5c41.6,59,46.5,136.4,12.5,200.1
			c-23.6,42.8-63.4,75.3-85.3,119c-4.9,9.9-8.9,21.6-4.6,31.7c4.3,10.1,15.7,15.5,26.3,18.8c34,10.5,70.7,10.4,104.5,21.6
			c33.8,11.1,66.8,39.1,65.8,74.7s-35.1,61.8-69.1,72.3c-34,10.5-70.9,11.2-103.7,24.9c-32.9,13.7-62.1,47.6-53.3,81.9
			c9.8,37.8,57.7,51.2,96.3,45.8s75.9-22.8,114.8-19.7c60.7,5,105.8,58.3,100.8,118.9c-2.5,30-17.1,57.7-40.6,76.7
			c-25.2,20.3-57.7,28.5-89.4,35.5c-164.8,36.3-333.2,53.9-502,52.3c-23.4,0-47.4-1-69.2-9.4c-62.2-24.1-84.6-99-99-164.1
			c-7-31.3-12.8-67.8,7.8-92.4c27.5-32.8,79.3-21.1,121.6-27.7c35.4-5.8,66.9-26.1,86.7-56.1c11.9-17,17.6-37.6,16.1-58.3
			c-4.2-37.8-38.7-65.6-74.4-78.3c-35.7-12.7-74.5-15.7-110.5-27.7c-43.6-14.6-84.3-45.6-98.9-89.1c-14.6-43.5,3-98.9,45.4-116.7
			c61.1-25.6,131.6,32.6,194.8,12.8C778.5,403.4,754.5,386.7,754.5,386.7z"/>
		<path class="st5" d="M692.8,1065.1C334.9,1000,36.1,594.2,36.1,594.2L0,586.5c0,0,56.3,398.9,570.6,566
			c617.9,201.2,842.1-219.2,842.1-219.2l34.8-63.6l0,0C1397.2,951.3,1213.8,1159.7,692.8,1065.1z"/>
		<path class="st6" d="M1551.9,689.7c5.4-18.8-3.6-38.8-21.3-47.3c-22.8-9.5-37.8,15.7-40.2,19.6c-11.5,18.1-65.7,139.1-91.4,153.9
			c-98.2,56.5-290.9,140.2-687.7,41.1C501.2,804.6,73.6,540.3,73.6,540.3l-37.5,53.8c0,0,298.5,405.8,656.3,470.9
			c620.2,112.6,762.1-204.1,770.7-224.9C1463.5,839.3,1550,696,1551.9,689.7z"/>
		<path class="st7" d="M0,586.5c0,0,33.9,8.5,36.1,7.6s37.3-53.8,37.3-53.8s-26.7-14.3-39.8-4.5C15,550.1,0,586.5,0,586.5z"/>
		<path class="st8" d="M943.6,701c-59.2-65.3-178.3-101.2-251.9-72.6c-73.5,28.5-48.6,23.6-73.6,28.5s-69.6-8.6-115.3,21.4
			c-51.7,33.8-150.5,131.6-112.1,270.9c32.9,119.2,160.7,228.8,326.6,213.7S971.7,1057,998.5,976.3
			C1030.3,881.4,1000.7,764.1,943.6,701z"/>
		<path class="st9" d="M672.8,737.7c0,0,18.5-161.8-81-207.5s-261.1-108.7-254.3-98.6c6.8,10.2,32.5,189.2,98,242.1
			C534.8,753.8,672.8,737.7,672.8,737.7z"/>
		<path class="st7" d="M705.7,723.9c0,0-8.9-80.1-8.1-127.3c1.5-97,7.5-144.5,7.5-144.5l-83,6.8c0,0,2.5,113.2,8.8,155.3
			c11.1,74.8,31.9,120.1,31.9,120.1s14.9,13.3,28.9,7C699.4,738.7,704.8,731.9,705.7,723.9z"/>
		
			<ellipse transform="matrix(0.993 -0.1179 0.1179 0.993 -49.0416 81.4021)" class="st10" cx="663.6" cy="455.3" rx="41.8" ry="20.3"/>
		<path class="st11" d="M1701.6,1842.7H356.5c-41.2-0.1-74.6-33.5-74.7-74.7L80.6,1032.9c0.1-41.2,33.5-74.6,74.7-74.7h1747.3
			c41.2,0.1,74.6,33.5,74.7,74.7L1776.2,1768C1776.1,1809.2,1742.8,1842.6,1701.6,1842.7z"/>
		<path class="st12" d="M1871.6,1385.7c-12.5,9.9-27.6,16-43.4,17.7c-37.4,4.3-62.9-15.1-91.3-36.8c-29.7-22.8-62.2-46.8-101.2-48.5
			c-39.9-1.7-75.1,21.3-112.7,30.8c-15.2,3.9-34.1,7-49.1,0.8c-6.1-2.9-11.6-6.9-16.2-11.7c3.1,2.6-3.5-9.1-4.7-10.1
			c-1.2-1-0.8-2-1.2-3.1c-1.4-5.2-2.6,1.4-4-3.7c-5.9-24.1-13.5-47.7-22.5-70.7c-10-23.3-22.1-50.3-46.3-61.3
			c-22.8-10.3-45.9,0.4-64.4,15c-33.4,26.3-64,56-91.4,88.6c-22.7,26.6-58.5,75.6-96.3,78.3c-15.7,1.2-31.1-5.1-41.3-17.1
			c0,0-2.1-3.7-4.2-7.2l-0.5-9.3c-1.2-18.7-2.2-37.6-4.3-56.2c-4.2-37-10.8-75.3-26.7-109.1c-20.7-44.1-59.8-65.3-105.1-41
			c-37.6,20.2-62,68.5-83.6,103.6c-24.1,39-46.7,78.9-73.8,116c-20.9,28.5-52.8,73-91.8,72.3c-40.3-0.8-81-42.1-109.9-66.2
			c-72.3-61-132.5-157.3-235.2-165.9c-79.3-6.6-146.5,32.8-204,83.1l48.2,175.4c44.9-25.8,93.2-43.4,146.4-38.4
			c94,8.9,152.1,110.2,214.6,169.6c32.5,30.8,68.9,67.7,111.2,84.3c48.2,19,89.2,1,123.9-34.9c32.5-34.9,61.4-73.1,86-114
			c23.6-37.8,44.1-79.8,72.3-114.4c9.5-12,21-22.3,36.7-23.7c0.5,0,4,0,7.6,0.5c0.4,17.3,0.4,34.8,2.3,51.5
			c3.1,35.6,11.2,70.5,24.1,103.9c17.6,42.1,47,84.7,94,95.7c44.3,10.4,85.1-26.7,113.4-56c31.5-32.5,58-69.3,89.3-102.1
			c13.1-14.9,28.6-27.5,45.9-37.2c1.9-0.9,3.9-1.4,6-1.4c0.5,1.4,1,2.9,1.5,4.3c18.1,73.3,48.2,194.7,147.6,182
			c42.5-5.4,81.2-32.3,124.9-29c40.8,3.1,70.6,41.2,102.4,63.3c16.9,12.2,36.2,20.7,56.6,24.9l82.7-302.4
			C1881,1377.6,1874.4,1383.5,1871.6,1385.7z M1369.8,1436.4C1372.2,1444.3,1373.3,1450.5,1369.8,1436.4z"/>
		<g class="st13">
			<path class="st14" d="M1608.1,2000H1271c-33.8,0-61.8-26.1-64.4-59.8l-56.2-756.6c-0.6-8.3,5.6-15.5,13.9-16.2c0.4,0,0.8,0,1.2,0
				h548.3c8.3,0,15.1,6.7,15.1,15c0,0.4,0,0.8,0,1.2l-56.3,756.6C1670,1973.9,1641.9,2000,1608.1,2000z"/>
			<path class="st15" d="M1651.5,1916.5l37.7-528.3h-499.3l37.7,528.3c2.4,30.6,27.9,54.2,58.6,54.2H1593
				C1623.6,1970.7,1649.2,1947.1,1651.5,1916.5z"/>
		</g>
	</g>
</g>
</svg>
