<?xml version="1.0" encoding="utf-8"?>
<!-- Generator: Adobe Illustrator 24.1.0, SVG Export Plug-In . SVG Version: 6.00 Build 0)  -->
<svg version="1.1" id="Layer_1" xmlns="http://www.w3.org/2000/svg" xmlns:xlink="http://www.w3.org/1999/xlink" x="0px" y="0px"
	 viewBox="0 0 1721.1 2000" style="enable-background:new 0 0 1721.1 2000;" xml:space="preserve">
<style type="text/css">
	.st0{fill:#EBDBCD;}
	.st1{fill:#110580;}
	.st2{fill:#FCB58A;}
	.st3{fill:#F8D7BC;}
	.st4{fill:#4E53BA;}
	.st5{fill:#E3996D;}
	.st6{fill:#2B31BA;}
	.st7{fill:#FF8A91;}
	.st8{fill:#F8ECE2;}
	.st9{fill:#FF5856;}
	.st10{fill:#EBD0BE;}
	.st11{fill:#E0C1A6;}
	.st12{fill:#F8D0B3;}
	.st13{fill:#FF7A82;}
	.st14{fill:#F0A173;}
	.st15{fill:#001D80;}
	.st16{fill:#FFFFFF;}
	.st17{fill:#E0E0E0;}
	.st18{fill:#FFADB2;}
	.st19{fill:#AB534D;}
	.st20{fill:#F8E7D8;}
	.st21{fill:#C7645D;}
	.st22{fill:#DEBCA7;}
	.st23{fill:#F3E9E1;}
	.st24{fill:#BFA990;}
	.st25{fill:#D4BFA9;}
	.st26{fill:#C5C6E3;}
</style>
<g>
	<polygon class="st0" points="189.5,500.3 1071.6,65.5 1279.6,853.3 277.9,817.1 	"/>
	<path class="st1" d="M808.6,281.5L774.5,535c-0.4,3.2,1.3,6.5,4.3,7.8c9.9,4.3,33,13.4,58.9,14.7c20.9,1.1,58-4.5,79.4-11
		c3.9-1.3,6.5-5.6,5-9.5l0,0l-99.3-257.4C820.2,272.4,809.6,273.7,808.6,281.5z"/>
	<circle class="st2" cx="922.7" cy="352.5" r="148.9"/>
	<rect x="495.9" y="1498.7" class="st3" width="203.7" height="154.1"/>
	<polygon class="st4" points="475.8,1486.9 475.8,1498.7 699.8,1498.7 699.8,1652.8 475.8,1652.8 475.8,1664.5 1337.2,1664.5 
		1337.2,1486.9 	"/>
	<path class="st5" d="M390.4,1395.8c5,31.5,11.2,62.8,18.8,93.9c13.2,54.8,97.5,31.5,84.4-23.3c-7.6-31.1-13.6-62.4-18.8-93.9
		c-3.7-23.3-32.8-36.3-53.7-30.6C396,1349,386.7,1372.5,390.4,1395.8L390.4,1395.8z"/>
	<polygon class="st6" points="1721.1,1075.8 1569.2,1163.8 1566.4,984.1 	"/>
	<path class="st7" d="M895.9,931.6c-0.9-0.4-1.7-0.9-2.6-0.9c-14.5-2.4-125.8-21.6-241.5-43.8c-51.6-9.9-201.8-52.4-280.3-21.8
		s-94.1,76.6-101,109c-6,29.1,4.5,128.2,30.2,228.7c22.9,90,78.8,203.9,90.4,227c1.3,2.8,4.1,4.5,7.1,4.7c7.1,0.4,21.6,0.2,40.1-5.4
		c16.4-5,33.9-14.2,41.9-18.6c2.6-1.5,4.3-4.3,4.3-7.3c0.4-25,2.4-142-0.6-224.2c-3-79.8-30.4-106.2-30.4-106.2
		s94.5,104.9,191,133.6c76.4,22.7,236.5,72.9,302.7,71c76.8-2.2,132.3-34.5,157.1-73.6c46-72.3,17.5-179.3,10.1-202.8
		c-0.9-3-3.2-5.2-6.3-5.8c-25.2-6-145.2-34.7-176.3-47.7C906.5,936.8,898.5,932.9,895.9,931.6z"/>
	<path class="st2" d="M1110.9,898c0,0-1.7,19.9,0.2,48.1c1.9,28.5,6.3,50.3,6.3,50.3s-115-18.6-158.6-35.4c-55-21.4-63.9-30-63.9-30
		s10.4-23.1,14-39.7c2.8-12.3,4.3-46.2,4.3-46.2s59.6,28.3,101.2,38.2C1056.1,893.2,1110.9,898,1110.9,898z"/>
	<circle class="st4" cx="110.9" cy="147.7" r="110.9"/>
	<path class="st8" d="M979.5,1929H298v-249h681.2c33.9,0,61.5,27.4,61.5,61.5v126.2C1041,1901.4,1013.3,1929,979.5,1929z"/>
	<path class="st9" d="M1383.2,1664.5H268.4c-4.3,0-7.8,3.5-7.8,7.8l0,0c0,4.3,3.5,7.8,7.8,7.8h136.8l0,0h511
		c68.8,0,124.5,55.7,124.5,124.5l0,0c0,68.8-55.7,124.5-124.5,124.5H285.1l0,0h-16.8c-4.3,0-7.8,3.5-7.8,7.8l0,0
		c0,4.3,3.5,7.8,7.8,7.8h1115c68.8,0,124.5-55.7,124.5-124.5v-30.9C1507.7,1720.1,1452,1664.5,1383.2,1664.5z"/>
	<path class="st10" d="M940.2,1733.9H298v-8.6h642.2c2.4,0,4.3,1.9,4.3,4.3l0,0C944.5,1732,942.6,1733.9,940.2,1733.9z"/>
	<path class="st11" d="M643.9,1616.1h-148v-8.6h148c2.4,0,4.3,1.9,4.3,4.3l0,0C648.2,1614.2,646.3,1616.1,643.9,1616.1z"/>
	<path class="st11" d="M609,1567.6H495.9v-8.6h112.9c2.4,0,4.3,1.9,4.3,4.3l0,0C613.3,1565.6,611.3,1567.6,609,1567.6z"/>
	<path class="st10" d="M986.8,1830.8H298v-8.6h688.8c2.4,0,4.3,1.9,4.3,4.3l0,0C991.1,1828.9,989.2,1830.8,986.8,1830.8z"/>
	<path class="st10" d="M902,1884.6H298v-8.6h604c2.4,0,4.3,1.9,4.3,4.3l0,0C906.3,1882.6,904.4,1884.6,902,1884.6z"/>
	<path class="st10" d="M966.1,1783.4H298v-8.6h668.1c2.4,0,4.3,1.9,4.3,4.3l0,0C970.4,1781.4,968.7,1783.4,966.1,1783.4z"/>
	<path class="st12" d="M892.9,1472.6H631v-92.4h262c7.1,0,12.9,5.8,12.9,12.9v66.5C905.9,1467,900,1472.6,892.9,1472.6z"/>
	<path class="st13" d="M1365.1,1366.2H844.6H616.3h-6.9c-3.9,0-7.1,3.2-7.1,7.1s3.2,7.1,7.1,7.1H631l0,0h249
		c14.2,0,25.9,11.7,25.9,25.9v40.4c0,14.2-11.7,25.9-25.9,25.9h-57l0,0H610.9c-3.9,0-7.1,3.2-7.1,7.1s3.2,7.1,7.1,7.1h5.4h230h518.8
		c14.2,0,25.9-11.7,25.9-25.9v-69.1C1391,1377.7,1379.3,1366.2,1365.1,1366.2z"/>
	<path class="st14" d="M463.3,800.7c77.3-34.7,166.6,11.9,243.6,25c75.5,12.9,158.2,2.8,210.6-58.9c11.9-14,13.8-34.5,0-48.3
		c-12.3-12.3-36.5-14.2-48.3,0c-49.4,58-126,47.5-192.3,30.6c-83.1-21.4-165.5-44.5-247.9-7.6c-16.8,7.6-20.9,32.2-12.3,46.8
		C426.6,805.8,446.5,808.2,463.3,800.7L463.3,800.7z"/>
	<path class="st2" d="M488.1,822c83.9-27.4,166.8,26.8,245.3,49.8c75.1,22,158.6,18.6,217.3-38.4c31.7-30.6-16.8-79.2-48.3-48.3
		c-52.9,51.4-130.3,29.8-191.2,7.1c-77.5-28.7-158-63.4-241.2-36.3C428.3,769.6,446.2,835.8,488.1,822L488.1,822z"/>
	<path class="st15" d="M843.9,265.3L843.9,265.3L843.9,265.3z"/>
	<path class="st16" d="M1016.4,563.5c7.3,2.2,72.7,28.5,97.3,116.1c20.5,72.3,37.5,179.5,42.9,214.7c1.1,6.7-3.5,13.2-10.1,14.5
		c-19.6,3.9-61.9,9.9-115.2,5.2c-74.2-6.7-121.5-26.8-121.5-26.8l1.9-16.8l-6.7,3c-5.2,2.4-11.4,0.9-14.7-3.7L842,805.4
		c-3.2-4.3-1.7-10.4,2.8-12.7l0.6-0.4l-39.1-47c-3.7-4.5-3.5-11,0.9-15.1c13.8-13.4,43.8-43.6,65.2-72.7
		c15.5-21.1,36-59.6,48.8-74.4C946.7,552.9,997.2,557.9,1016.4,563.5z"/>
	<polygon class="st2" points="1018.7,590.9 971,468.6 880.4,467.9 927.9,590.3 	"/>
	<path class="st2" d="M935.7,617.7c13.6,3.2,31.9-9.7,47.3-16.6c16.4-7.3,35.6-10.4,35.6-10.4l-90.6-0.6
		C927.9,590.3,921.4,614.4,935.7,617.7z"/>
	<path class="st17" d="M903.9,716.7c0,0-9.1,24.4-18.1,38c-9.1,13.6-40.4,37.5-40.4,37.5l-11.7-14c0,0,21.8-11,37.1-25.9
		C882.1,741.7,903.9,716.7,903.9,716.7z"/>
	<path class="st17" d="M911.7,870.4c0,0,28.1-16.6,40.6-30.2c12.5-13.6,30-40.8,30-40.8s-19.2,41.6-28.7,59.6
		c-13.2,24.6-23.3,35.6-23.3,35.6l-20.3-7.1c0,0,0.2-4.1,0.9-8C911.3,875.3,911.7,870.4,911.7,870.4z"/>
	<path class="st14" d="M396.4,791.4c19.6-12.3,40.1-22,62.1-28.9c18.3-5.6,10.6-35-8-29.3c-24.4,7.6-47.7,18.1-69.3,31.9
		C365.1,775.4,380,801.7,396.4,791.4L396.4,791.4z"/>
	
		<ellipse transform="matrix(0.3162 -0.9487 0.9487 0.3162 558.8977 1152.7947)" class="st1" cx="1079.2" cy="188.7" rx="56.1" ry="56.1"/>
	<path class="st5" d="M919.3,397.1c15.5,5.8,22.4,5.6,22.4,5.6c-1.9-10.4-3.9-21.4-3.9-22.2c0,0-25.9-8.6-43.2-25.9
		c-25.9-25.9-12.9-51.8-34.5-73.4c-17.9-17.9-40.6-25.9-48.1-28.1c-0.2,0.2-0.4,0.2-0.4,0.4l0,0c0.4,0.2,27.8,11.4,46,35.8
		c18.3,24.4,1.7,48.3,23.7,77.7C894.7,385.1,905.7,392.2,919.3,397.1z"/>
	<path class="st5" d="M979.5,490.1c-17.5,7.3-36.7,11.2-56.8,11.2c-10.4,0-20.7-1.1-30.4-3.2l12.7,32.6c3.7-0.4,7.1-1.1,10.8-1.9
		c25.2-5.8,47.5-18.1,65.4-34.7L979.5,490.1z"/>
	<path class="st16" d="M958.3,512.8c-29.6,0-53.7-24.2-53.7-53.7c0-29.6,24.2-53.7,53.7-53.7s53.7,24.2,53.7,53.7
		C1012,488.6,987.9,512.8,958.3,512.8z M958.3,414.2c-24.8,0-44.9,20.1-44.9,44.9c0,24.8,20.1,44.9,44.9,44.9
		c24.8,0,44.9-20.1,44.9-44.9C1003.2,434.3,983.1,414.2,958.3,414.2z"/>
	<path class="st1" d="M1132,542.4c6-2.2,9.5-8.6,7.3-14.9l-71.4-216C1050,248,991.8,201.4,922.5,201.4c-45.1,0-85.5,19.9-113.3,50.9
		l0,0c0.4,0,29.1,7.3,50.5,28.9c21.6,21.6,8.6,47.5,34.5,73.4c17.3,17.3,43.2,25.9,43.2,25.9c0,2.6,12.7,67.8,22.9,118.3
		c2.2,11,4.3,24,6,33.9c0.9,4.7,4.1,8.6,8.6,10.6c26.1,10.6,56.3,16,88.5,14.5C1086.7,556.6,1116.3,547.5,1132,542.4z"/>
	<path class="st18" d="M1116,981.9c0,0,10.4,42.3,7.1,42.3c-3.2-0.2-128.2-24.8-160.5-31.9c-71.4-15.3-82.4-63.9-82.4-63.9
		s5.6-0.2,11.7-4.7c6-4.5,8.2-6.3,8.2-6.3s10.1,25,72.3,43.2C1058.4,985.6,1116,981.9,1116,981.9z"/>
	<path class="st19" d="M403.5,1465.5c0,0,28.5-0.2,42.9-2.8s42.3-16.4,42.3-16.4s16.4,36.3,21.1,45.7c4.7,9.5,25,33.4,27.6,49
		c2.6,15.5,3.2,50.5-57,55.9c-27.8,2.4-54.2,59.1-84.6,63.2c-15.1,2.2-86.5,9.9-106.8-1.1c-20.1-11-13.8-40.8,35.2-57
		s39.7-32.4,51.4-53.3C387.1,1527.9,403.5,1465.5,403.5,1465.5z"/>
	<path class="st2" d="M236.7,1409.8c-4.3,35.2-8.4,70.1-12.7,105.3c-2.8,23.5,22.2,43.8,43.8,43.8c25.9,0,40.8-20.3,43.8-43.8
		c4.3-35.2,8.4-70.1,12.7-105.3c2.8-23.5-22.2-43.8-43.8-43.8C254.4,1366.2,239.5,1386.3,236.7,1409.8L236.7,1409.8z"/>
	<path class="st18" d="M926.4,1276.3c63.2,6.3,121.7-11.4,166.2-54.4c44.2-42.9,41.6-115.2,39.1-144.4c-1.9-23.1-9.7-60.4-12.7-75.1
		c-0.9-3.7-3.7-6.5-7.3-7.1c-22.7-4.1-101.6-18.3-125.2-25.7c-19.2-6-36.3-12.5-44.7-16c-3.2-1.3-6.9-0.6-9.5,1.7
		c-7.1,6.5-24.4,18.3-52.2,15.5c-38-3.9-205-55.5-270.8-75.7s-176.3-69.3-278.6-35.4c-65.2,21.6-114.2,83.9-115.4,214.9
		c-0.9,101.6-1.1,231.8,0.6,280.7c1.3,38.6-0.2,79.4-0.9,94.9c-0.2,4.1,2.2,7.6,5.8,9.1c6.7,2.6,18.6,6.5,35.6,10.1
		c21.1,4.5,47.3,2.8,58.9,1.5c3.7-0.4,6.7-2.8,7.8-6.3c6.3-18.6,26.8-80.3,45.3-132.1c46.4-129.7,50.3-199.4,48.1-230.9
		c-0.6-7.8,8-12.7,14.5-8.2c30.6,21.1,96.5,64.5,170.3,97.5C702.4,1236.8,847.6,1268.3,926.4,1276.3z"/>
	<path class="st16" d="M1015.3,981.3c0.4,45.5-13.8,92.1-46.8,124.7c-14.9,14.7-33.2,26.3-53.3,32.4c-24.2,7.3-49.6,6-74.2,2.2
		c-92.1-14.7-176.5-57.2-259.8-96.9c-41.9-20.1-83.9-39.7-127.7-55.5c-11-3.9-22-7.8-33-11c-12.3-3.7-25-7.1-37.8-5.6
		c-20.7,2.2-36.7,16.4-47.5,33.2c-11.4,17.9-17,39.5-21.6,60.2c-5.2,22.9-8.4,46.2-10.6,69.5c-3.2,33.7-4.1,67.3-7.1,101
		c-6.3,66.9-13.8,134.2-25.7,200.5c-0.9,5.4-1.9,10.6-3,15.8c-1.5,7.3,9.7,10.6,11.2,3c5.8-27.6,9.7-55.7,13.4-83.7
		c5-36.3,9.3-72.7,13.2-109.2c3.2-30.6,5.4-61.1,7.1-91.9c2.4-45.5,7.3-92.4,22.2-135.9c6.3-18.6,17-37.8,35.2-47
		c21.6-11,47.7,0.4,68.6,7.8c44.2,15.1,87,34.5,129,54.8c83.5,39.7,167.5,83.1,259.4,100.1c25,4.5,50.5,7.8,75.7,3.7
		c20.7-3.5,40.8-12.3,57.6-24.8c36.5-26.8,58.5-68.4,65.2-112.9c1.7-11.4,2.6-23.1,2.4-34.7C1026.9,973.7,1015.3,973.7,1015.3,981.3
		L1015.3,981.3z"/>
	<path class="st2" d="M391.4,814.9c19.4-18.8,44.9-25.5,70.8-30.4c18.3-3.7,11.9-32.2-6.7-28.5c-30.6,6-60.9,15.3-83.9,37.5
		C358.2,806.5,377.8,828.1,391.4,814.9L391.4,814.9z"/>
	<path class="st2" d="M497.4,823.5l-63,15.5c-9.3,2.4-18.8-3.5-20.9-12.7l-9.9-39.9c-2.4-9.3,3.5-18.8,12.7-20.9l63-15.5
		c9.3-2.4,18.8,3.5,20.9,12.7l9.9,39.9C512.3,811.9,506.7,821.4,497.4,823.5z"/>
	<path class="st20" d="M1020.9,1359.8h-424v-88.7h424c12.1,0,21.8,9.7,21.8,21.8v44.9C1042.7,1349.8,1033,1359.8,1020.9,1359.8z"/>
	<path class="st6" d="M1285,1264.2H578.7c-1.7,0-3.2,1.5-3.2,3.2l0,0c0,1.7,1.5,3.2,3.2,3.2h418.8c24.6,0,44.5,19.9,44.5,44.5l0,0
		c0,24.6-19.9,44.5-44.5,44.5H578.7c-1.7,0-3.2,1.5-3.2,3.2l0,0c0,1.7,1.5,3.2,3.2,3.2H1285c24.6,0,44.5-19.9,44.5-44.5v-12.9
		C1329.5,1284,1309.6,1264.2,1285,1264.2z"/>
	<path class="st21" d="M78.8,1722.5c10.6,21.4,63.7,30.9,118.5-8.4c82.9-59.3,132.5-41.2,132.5-90.8c0-22.2-4.5-42.7-10.4-66.2
		c-5.4-21.4-5.2-61.7-5.2-61.7s-39.5,4.3-59.6,0.6c-15.5-2.8-26.8-8.8-26.8-8.8s-5.8,31.9-24.2,65.6c-12.9,23.7-22.4,38.2-44.5,58.5
		C145.7,1623.5,61.1,1687.1,78.8,1722.5z"/>
	<path class="st22" d="M919.3,1340.1H596.9v-4.1h322.4c1.1,0,2.2,0.9,2.2,2.2l0,0C921.4,1339,920.5,1340.1,919.3,1340.1z"/>
	<path class="st22" d="M954.4,1296.5H596.9v-4.1h357.3c1.1,0,2.2,0.9,2.2,2.2l0,0C956.4,1295.5,955.5,1296.5,954.4,1296.5z"/>
	<path class="st22" d="M993.7,1317.5H596.9v-4.1h396.8c1.1,0,2.2,0.9,2.2,2.2l0,0C995.9,1316.4,994.8,1317.5,993.7,1317.5z"/>
	<g>
		<path class="st23" d="M1351.5,24.7c29.3,30.4,46,63.9,64.3,101.4c5.2,10.4,36.7-10.4,34.3-20.5c-9.7-40.1-36-75.1-65.4-103.6
			C1375.2-7,1343.7,16.7,1351.5,24.7L1351.5,24.7z"/>
		<path class="st23" d="M1530.4,21c-0.9,37.1-8.6,71.9-15.8,108.1c-3.2,16,27.4-2.8,30.6-11c13.6-35.4,17.5-76,17-113.7
			C1562.1-6.8,1530.6,9.8,1530.4,21L1530.4,21z"/>
		<path class="st23" d="M1603.7,174.4c22.9-11.2,46.2-22.2,69.5-32.6c8.4-3.7,19.4-13.6,17-24c-2.4-10.4-15.5-9.5-23.1-6.3
			c-23.3,10.6-46.4,21.4-69.5,32.6c-8.2,4.1-19.4,13.4-17,24C1583,178.5,1596.4,178.1,1603.7,174.4L1603.7,174.4z"/>
	</g>
	<path class="st24" d="M828.6,1822.2H728.5c0,0-16.2,5.4-30,31.1c-17,31.9-11,62.8-22,86.5c-12.7,27.4-32.6,38-32.6,38
		s22.2,3,35.6,1.1c12.1-1.7,27-11.9,27-11.9s2.8,5.8,3.5,16c0.9,11-0.2,17-0.2,17s36.7-8.6,51.6-29.8c20.7-29.3,3.5-65.4,30.2-109.8
		C803.4,1840.7,828.6,1822.2,828.6,1822.2z"/>
	<g>
		
			<ellipse transform="matrix(0.4276 -0.904 0.904 0.4276 474.3544 1483.9604)" class="st25" cx="1408.9" cy="367.4" rx="17" ry="44.7"/>
		<g>
			<g>
				<path class="st0" d="M1376.1,334.1c7.6-14.9,14-30.4,16.6-46.8c5.8-35.6-5-76.4,16.6-105.1c15.5-20.7,44.2-27.8,69.9-25
					c31.3,3.5,61.9,20.9,77.3,48.6s12.7,65.2-9.1,88c-18.3,19.2-46.4,25.9-65.8,44c-10.8,10.1-18.1,23.3-26.1,36l-2.6,3.9
					C1392,373.2,1376.1,334.1,1376.1,334.1z"/>
			</g>
		</g>
		<path class="st24" d="M1481.2,275.9c-2.8-9.3-10.8-8.4-18.1-5.2c-1.9-5-5-11.7-10.4-13.6c-6-2.2-12.7,2.2-17.3,5.8
			c-9.9,8.2-17.5,20.1-21.8,32.2c-4.3,12.1-6.3,25-10.1,37.1c-1.5,5,6.3,6.9,7.8,1.9c5-15.5,6.5-32.6,14.5-46.8
			c4.5-8,11-17.3,19.4-21.4c2.8-1.3,4.7-1.7,6.7,1.1c1.5,2.2,2.6,4.5,3.5,6.9c0,0.2,0.2,0.4,0.2,0.6c-1.1,0.6-1.9,1.3-2.8,1.9
			c-8.2,6.5-18.8,17.9-18.3,29.1c0.2,5,3.7,9.3,8.8,9.5c5.8,0.2,11.4-4.5,14.9-8.8c6.5-8,8.4-18.6,6.7-28.5c1.7-1.1,3.7-1.7,5.4-1.9
			c5-0.4,3,7.8,2.4,10.6c-2.4,9.3-7.3,17.5-12.1,25.5c-3.7,6-6.9,12.5-11.4,17.9c-5,6-11.7,10.4-17.9,14.9c-4.3,2.8,0,9.7,4.3,6.9
			c7.6-5,15.1-10.4,20.7-17.5c5.8-7.8,10.8-16.4,15.5-24.8C1477.1,300.5,1484.6,286.9,1481.2,275.9z M1457.4,290.5
			c-0.9,4.3-2.6,8.4-5.6,11.7c-1.7,1.9-9.3,8.6-8.8,2.6c0.2-3.7,3-7.6,5-10.6c2.6-3.9,6-7.6,9.7-10.6
			C1457.9,286,1457.9,288.2,1457.4,290.5z"/>
		<path class="st24" d="M1401.5,382.9c-20.1-9.5-33.9-22.9-33.7-31.7l0,0l-8.8,35.6c-3.2,6.9,8.6,19.4,26.8,27.8
			c17.9,8.4,35.2,9.9,38.4,3c0.2-0.4,0.2-0.6,0.4-1.1l0,0l22.9-27.8l0,0C1440.8,394.5,1421.6,392.4,1401.5,382.9z"/>
	</g>
	<path class="st26" d="M271.2,843.2L271.2,843.2c-7.1,1.9-14.5-2.2-16.6-9.3l-94.1-337.1c-1.9-7.1,2.2-14.5,9.3-16.6l0,0
		c7.1-1.9,14.5,2.2,16.6,9.3l94.1,337.1C282.7,833.9,278.6,841.2,271.2,843.2z"/>
	<path class="st26" d="M254.2,829.6L254.2,829.6c0.4-7.3,6.7-13.2,14.2-12.7l349.4,20.5c7.3,0.4,13.2,6.7,12.7,14.2l0,0
		c-0.4,7.3-6.7,13.2-14.2,12.7l-349.4-20.5C259.6,843.4,253.8,837.1,254.2,829.6z"/>
	<g>
		<path class="st0" d="M1625.5,1057.4l-15.3-4.1c-0.9-0.2-1.5-1.3-1.3-2.2c0.2-0.9,1.3-1.5,2.2-1.3l11.9,3.2l3.2-11.9
			c0.2-0.9,1.3-1.5,2.2-1.3c0.9,0.2,1.5,1.3,1.3,2.2L1625.5,1057.4z"/>
		<path class="st0" d="M1583,1045.8c-0.2,0-0.2,0-0.4,0l-27.6-7.6c-0.9-0.2-1.5-1.3-1.3-2.2c0.2-0.9,1.3-1.5,2.2-1.3l27.6,7.6
			c0.9,0.2,1.5,1.3,1.3,2.2C1584.5,1045.4,1583.9,1045.8,1583,1045.8z M1527.8,1030.9c-0.2,0-0.2,0-0.4,0l-27.6-7.6
			c-0.9-0.2-1.5-1.3-1.3-2.2c0.2-0.9,1.3-1.5,2.2-1.3l27.6,7.6c0.9,0.2,1.5,1.3,1.3,2.2C1529.3,1030.5,1528.6,1030.9,1527.8,1030.9z
			 M1472.7,1016c-0.2,0-0.2,0-0.4,0l-27.6-7.6c-0.9-0.2-1.5-1.3-1.3-2.2c0.2-0.9,1.3-1.5,2.2-1.3l27.6,7.6c0.9,0.2,1.5,1.3,1.3,2.2
			C1474,1015.6,1473.4,1016,1472.7,1016z"/>
		<path class="st0" d="M1417.5,1001.1c-0.2,0-0.2,0-0.4,0l-15.3-4.1l4.1-15.3c0.2-0.9,1.3-1.5,2.2-1.3c0.9,0.2,1.5,1.3,1.3,2.2
			l-3.2,11.9l11.9,3.2c0.9,0.2,1.5,1.3,1.3,2.2C1418.8,1000.7,1418.2,1001.1,1417.5,1001.1z"/>
		<path class="st0" d="M1414.9,956.2c-0.2,0-0.2,0-0.4,0c-0.9-0.2-1.5-1.3-1.3-2.2l7.3-27.6c0.2-0.9,1.3-1.5,2.2-1.3
			c0.9,0.2,1.5,1.3,1.3,2.2l-7.3,27.6C1416.4,955.8,1415.8,956.2,1414.9,956.2z M1429.8,901.2c-0.2,0-0.2,0-0.4,0
			c-0.9-0.2-1.5-1.3-1.3-2.2l7.3-27.6c0.2-0.9,1.3-1.5,2.2-1.3c0.9,0.2,1.5,1.3,1.3,2.2l-7.3,27.6
			C1431.3,900.6,1430.7,901.2,1429.8,901.2z"/>
		<path class="st0" d="M1444.7,846c-0.2,0-0.2,0-0.4,0c-0.9-0.2-1.5-1.3-1.3-2.2l4.1-15.3l15.3,4.1c0.9,0.2,1.5,1.3,1.3,2.2
			c-0.2,0.9-1.3,1.5-2.2,1.3l-11.9-3.2l-3.2,11.9C1446.2,845.5,1445.6,846,1444.7,846z"/>
		<path class="st0" d="M1627.7,880.7c-0.2,0-0.2,0-0.4,0l-27.6-7.6c-0.9-0.2-1.5-1.3-1.3-2.2c0.2-0.9,1.3-1.5,2.2-1.3l27.6,7.6
			c0.9,0.2,1.5,1.3,1.3,2.2C1629.2,880.3,1628.3,880.7,1627.7,880.7z M1572.4,865.8c-0.2,0-0.2,0-0.4,0l-27.6-7.6
			c-0.9-0.2-1.5-1.3-1.3-2.2c0.2-0.9,1.3-1.5,2.2-1.3l27.6,7.6c0.9,0.2,1.5,1.3,1.3,2.2C1573.9,865.4,1573.1,865.8,1572.4,865.8z
			 M1517.2,850.9c-0.2,0-0.2,0-0.4,0l-27.6-7.6c-0.9-0.2-1.5-1.3-1.3-2.2c0.2-0.9,1.3-1.5,2.2-1.3l27.6,7.6c0.9,0.2,1.5,1.3,1.3,2.2
			C1518.7,850.5,1518.1,850.9,1517.2,850.9z"/>
		<path class="st0" d="M1665.2,905.5c-0.2,0-0.2,0-0.4,0c-0.9-0.2-1.5-1.3-1.3-2.2l3.2-11.9l-11.9-3.2c-0.9-0.2-1.5-1.3-1.3-2.2
			c0.2-0.9,1.3-1.5,2.2-1.3l15.3,4.1l-4.1,15.3C1666.7,905.1,1665.9,905.5,1665.2,905.5z"/>
		<path class="st0" d="M1635.4,1015.8c-0.2,0-0.2,0-0.4,0c-0.9-0.2-1.5-1.3-1.3-2.2l7.3-27.6c0.2-0.9,1.3-1.5,2.2-1.3
			s1.5,1.3,1.3,2.2l-7.3,27.6C1637,1015.4,1636.1,1015.8,1635.4,1015.8z M1650.3,960.8c-0.2,0-0.2,0-0.4,0c-0.9-0.2-1.5-1.3-1.3-2.2
			l7.3-27.6c0.2-0.9,1.3-1.5,2.2-1.3c0.9,0.2,1.5,1.3,1.3,2.2l-7.3,27.6C1651.8,960.1,1651,960.8,1650.3,960.8z"/>
	</g>
	<g>
		<path class="st14" d="M1031.2,913.9c-43.4-3.9-77.5-12.3-98.4-18.8c30.4,18.1,66.9,30.6,106.8,35c24.4,2.6,48.3,2.2,70.8-1.3
			c-0.2-5.8-0.2-10.8-0.2-15.3C1089.1,915.9,1061.9,916.8,1031.2,913.9z"/>
		<path class="st14" d="M911.7,870.4L911.7,870.4L911.7,870.4L911.7,870.4z"/>
	</g>
	<g>
		<path class="st0" d="M32.8,411.2c-0.6,0-1.1-0.2-1.5-0.6c-2.8-3.9-5-8.2-6.9-12.7c-0.4-0.9,0-1.9,0.9-2.4s1.9,0,2.4,0.9
			c1.7,4.3,3.9,8.4,6.5,12.1c0.6,0.9,0.4,1.9-0.4,2.4C33.4,410.9,33,411.2,32.8,411.2z"/>
		<path class="st0" d="M20.5,370.4c-0.9,0-1.7-0.9-1.7-1.7v-0.9c0-9.5,1.5-19,4.3-28.5c0.2-0.9,1.3-1.5,2.2-1.1
			c0.9,0.2,1.5,1.3,1.1,2.2c-2.8,9.1-4.3,18.3-4.3,27.4v0.6C22.2,369.5,21.4,370.4,20.5,370.4L20.5,370.4z M37.3,315.4
			c-0.4,0-0.6,0-0.9-0.2c-0.9-0.4-1.1-1.5-0.4-2.4c5-7.8,11.2-15.5,18.6-22.9c0.6-0.6,1.7-0.6,2.4,0c0.6,0.6,0.6,1.7,0,2.4
			c-7.1,7.1-13.2,14.7-18.1,22.2C38.4,315.1,38,315.4,37.3,315.4z M77.7,273.7c-0.4,0-1.1-0.2-1.3-0.6c-0.6-0.9-0.4-1.9,0.4-2.4
			c4.7-3.7,9.9-7.3,15.5-11c2.8-1.9,5.8-3.9,8.6-5.6c0.9-0.4,1.9-0.2,2.4,0.4c0.4,0.9,0.2,1.9-0.4,2.4c-2.8,1.9-5.8,3.7-8.6,5.6
			c-5.6,3.7-10.6,7.3-15.3,11C78.3,273.5,78.1,273.7,77.7,273.7z M126.2,241.3c-0.6,0-1.1-0.2-1.5-0.9c-0.4-0.9-0.2-1.9,0.4-2.4
			c9.7-6.3,17-11.4,23.5-16.8c0.6-0.6,1.9-0.4,2.4,0.2c0.6,0.6,0.4,1.9-0.2,2.4c-6.7,5.4-14,10.6-24,17
			C126.9,241.3,126.5,241.3,126.2,241.3z M227,223.9c-0.9,0-1.7-0.9-1.7-1.7c0-0.9,0.6-1.7,1.7-1.7c9.5-0.2,19-1.3,28.5-3.7
			c0.9-0.2,1.9,0.4,2.2,1.3c0.2,0.9-0.4,1.9-1.3,2.2C246.6,222.3,236.7,223.6,227,223.9L227,223.9z M198.1,221.3c-0.2,0-0.2,0-0.4,0
			c-9.7-1.9-19.2-5-28.1-8.8c-0.9-0.4-1.3-1.5-0.9-2.4s1.5-1.3,2.4-0.9c8.6,3.9,17.9,6.7,27.4,8.6c0.9,0.2,1.5,1.1,1.3,2.2
			C199.6,220.6,199,221.3,198.1,221.3z M283.5,211.1c-0.6,0-1.3-0.4-1.5-1.1c-0.4-0.9,0-1.9,0.9-2.4c8.4-3.7,16.8-8,25.7-13.4
			c0.9-0.4,1.9-0.2,2.4,0.6c0.4,0.9,0.2,1.9-0.6,2.4c-9.1,5.4-17.5,9.7-26.1,13.4C284,210.9,283.8,211.1,283.5,211.1z M170.9,204.4
			c-0.4,0-0.9-0.2-1.1-0.4c-0.6-0.6-0.9-1.7-0.2-2.4c6.5-7.6,11.4-15.8,15.3-24.2c0.4-0.9,1.5-1.3,2.4-0.9s1.3,1.5,0.9,2.4
			c-3.9,8.6-9.3,17-15.8,25C171.8,204.2,171.3,204.4,170.9,204.4z M145.4,197.5c-0.4,0-0.9-0.2-1.1-0.4c-8.2-6.5-14.9-13.8-19.9-22
			c-0.4-0.9-0.2-1.9,0.6-2.4c0.9-0.4,1.9-0.2,2.4,0.6c4.7,7.8,11.2,14.9,19,21.1c0.6,0.6,0.9,1.7,0.2,2.4
			C146.3,197.3,145.9,197.5,145.4,197.5z M333.6,181.6c-0.6,0-1.1-0.2-1.5-0.6c-0.6-0.9-0.4-1.9,0.4-2.4c7.3-5.2,14-10.4,20.5-15.5
			l2.8-2.2c0.9-0.6,1.9-0.4,2.4,0.2c0.4,0.6,0.4,1.9-0.2,2.4l-2.8,2.2c-6.5,5-13.4,10.1-20.5,15.5
			C334.3,181.3,334,181.6,333.6,181.6z M193.6,151.8L193.6,151.8c-1.1,0-1.7-0.9-1.7-1.9s0-2.2,0-3.5c0-3.9-0.4-7.8-1.1-11.7
			c-0.9-4.3-2.2-8.4-4.3-12.5c-0.4-0.9,0-1.9,0.9-2.4c0.9-0.4,1.9,0,2.4,0.9c2.2,4.3,3.7,8.8,4.5,13.4c0.9,3.9,1.1,8.2,1.1,12.3
			c0,1.3,0,2.4,0,3.7C195.3,150.9,194.4,151.8,193.6,151.8z M116.1,148.8c-0.9,0-1.7-0.6-1.7-1.5c-0.2-1.9-0.2-4.1-0.2-6
			c0-8.2,1.7-16.2,4.7-23.3c0.4-0.9,1.5-1.3,2.4-0.9c0.9,0.4,1.3,1.5,0.9,2.4c-3,6.7-4.5,14.2-4.5,22c0,1.9,0,3.9,0.2,5.6
			C118,147.9,117.4,148.8,116.1,148.8C116.3,148.8,116.3,148.8,116.1,148.8z M168.3,102.4c-0.2,0-0.6,0-0.9-0.2
			c-7.1-4.1-14.9-5.4-22-3.7c-1.5,0.4-3,0.9-4.5,1.3c-0.9,0.4-1.9,0-2.2-1.1c-0.4-0.9,0-1.9,1.1-2.2c1.5-0.6,3.2-1.1,5-1.5
			c8.2-1.7,16.6-0.4,24.6,4.1c0.9,0.4,1.1,1.5,0.6,2.4C169.6,102.2,169,102.4,168.3,102.4z"/>
		<path class="st0" d="M380.6,146.8c-0.6,0-1.1-0.2-1.5-0.9c-0.4-0.9-0.2-1.9,0.6-2.4c5-3,9.3-5.2,13.2-6.3c0.9-0.2,1.9,0.2,2.2,1.3
			c0.2,0.9-0.2,1.9-1.3,2.2c-3.5,1.1-7.6,2.8-12.3,5.8C381.3,146.8,381.1,146.8,380.6,146.8z"/>
	</g>
</g>
</svg>
