<?xml version="1.0" encoding="utf-8"?>
<!-- Generator: Adobe Illustrator 24.1.0, SVG Export Plug-In . SVG Version: 6.00 Build 0)  -->
<svg version="1.1" id="Layer_1" xmlns="http://www.w3.org/2000/svg" xmlns:xlink="http://www.w3.org/1999/xlink" x="0px" y="0px"
	 viewBox="0 0 1910.4 2000" style="enable-background:new 0 0 1910.4 2000;" xml:space="preserve">
<style type="text/css">
	.st0{fill:#B7B7C4;}
	.st1{fill:#735639;}
	.st2{fill:#0C0454;}
	.st3{fill:#000000;}
	.st4{fill:#FFFFFF;}
	.st5{fill:#FCB58A;}
	.st6{fill:#E3996D;}
	.st7{fill:#E8D4C1;}
	.st8{fill:#7A5734;}
	.st9{fill:#DEC7B2;}
	.st10{fill:#BA9C7E;}
	.st11{fill:#4C7378;}
	.st12{fill:#689399;}
	.st13{fill:#57848A;}
	.st14{fill:#EBDBCD;}
	.st15{fill:#F0A173;}
	.st16{fill:#e0a757;}
	.st17{fill:#001D80;}
	.st18{fill:#AB534D;}
	.st19{fill:#e0a757;}
	.st20{fill:#C7645D;}
	.st21{fill:#AB8868;}
	.st22{fill:#D7D7E6;}
	.st23{fill:#8A6645;}
	.st24{fill:#C49C77;}
	.st25{fill:#787CCB;}
	.st26{fill:#FCFAF8;}
	.st27{fill:#E0E0E0;}
	.st28{fill:#D6D7F0;}
	.st29{fill:#FF5856;}
	.st30{fill:#DCDCED;}
</style>
<g>
	<path class="st0" d="M1377.4,1721.4h-183.3c-6.1,0-10.9-4.9-10.9-10.9v-8.6c0-6.1,4.9-10.9,10.9-10.9h183.3
		c6.1,0,10.9,4.9,10.9,10.9v8.6C1388.2,1716.5,1383.3,1721.4,1377.4,1721.4z"/>
	<rect x="1257.4" y="1204.8" class="st1" width="56.5" height="486.1"/>
	<path class="st2" d="M1335,377.8l49.3-4.7l10,96.9c0,0-13.9,4.7-28.3,5.5c-14.7,0.8-28.3,0-28.3,0L1335,377.8z"/>
	<path class="st3" d="M1148.3,234.1c-16.2,33.6-52,179.2-52,179.2c-1.2,3.1,0,6.6,2.9,8.6c9.4,6.5,31.5,27,74.5,40.7
		c20.9,6.6,72.1,15.2,95.6,13.5c4.3-0.4,7.4-4.1,7.4-4.1l23.8-333.9C1199.7,133,1157.9,214.4,1148.3,234.1z"/>
	<path class="st4" d="M1187.6,421.9c-16.4,0-29.5-23.1-29.5-52.4s12.9-52.4,29.5-52.4c16.4,0,29.5,23.1,29.5,52.4
		C1217.1,399.1,1204,421.9,1187.6,421.9z M1187.6,324.4c-12.1,0-22.3,20.7-22.3,45.3s10.2,45.3,22.3,45.3
		c12.1,0,22.3-20.7,22.3-45.3S1199.7,324.4,1187.6,324.4z"/>
	<ellipse class="st5" cx="1301.2" cy="288.8" rx="151.9" ry="143.3"/>
	<path class="st6" d="M1368.2,417.3c-2.3-56.7-5.3-128.8-5.3-131c0,0-32.1-8.6-50.4-25.8c-5.7-5.5-9.8-10.9-12.5-16.2
		c2.2,8.2,5.9,16.8,13.5,25.6c16.4,19,41.4,32.4,41.4,32.4c-0.2,2,2,65.7-1.2,120.8C1358.9,421.4,1363.5,419.4,1368.2,417.3z"/>
	<g>
		<path class="st7" d="M1707.4,1348.8c-81.1,0-146.8,2.9-147.2,6.5l0,0c0.4,3.5,66.1,6.5,147.2,6.5c80.9,0,146.8-2.9,147.2-6.5l0,0
			C1854.2,1351.6,1788.5,1348.8,1707.4,1348.8z M1710.7,1360c-60.8,0-110-2.2-110-4.9c0-2.7,49.3-4.9,110-4.9s110,2.2,110,4.9
			C1820.9,1357.8,1771.5,1360,1710.7,1360z"/>
		<path class="st7" d="M1707.4,1348.8c-81.3,0-147.2,2.9-147.2,6.5s65.9,6.5,147.2,6.5c81.3,0,147.2-2.9,147.2-6.5
			S1788.7,1348.8,1707.4,1348.8z M1710.7,1360c-60.8,0-110-2.2-110-4.9c0-2.7,49.3-4.9,110-4.9s110,2.2,110,4.9
			C1820.9,1357.8,1771.5,1360,1710.7,1360z"/>
		<path class="st8" d="M1822.7,1377L1822.7,1377c0,0,0-0.2,0-0.4C1822.7,1376.6,1822.7,1376.8,1822.7,1377z"/>
		<path class="st9" d="M1560.2,1355.3L1560.2,1355.3L1560.2,1355.3L1560.2,1355.3z"/>
		<path class="st9" d="M1854.5,1355.3L1854.5,1355.3L1854.5,1355.3L1854.5,1355.3z"/>
		<ellipse class="st10" cx="1710.7" cy="1355.1" rx="110" ry="4.9"/>
		<g>
			<path class="st11" d="M1791.6,794.7c-31.5,74.7-53.9,153.2-66.7,233.4s-16.2,161.6-10,242.6c3.5,45.3,10.2,90.5,19.7,134.9
				c1.8,8,14.1,4.7,12.3-3.3c-17-78.6-24.2-158.9-22.1-239.2c2.2-79.9,13.9-159.7,34.8-236.9c11.7-43.6,26.6-86.4,44.2-128
				c1.4-3.1-1.4-7-4.5-7.8C1795.7,789.2,1792.8,791.6,1791.6,794.7L1791.6,794.7z"/>
			<path class="st11" d="M1795.7,1132.8c-31.5,68.2-50.2,141.7-55.3,216.6c-1.4,20.9-1.8,42-1,62.9c0.4,8.2,13.1,8.2,12.7,0
				c-2.7-73.1,8-146.2,31.5-215.4c6.6-19.5,14.3-38.9,23.1-57.7C1810.2,1131.9,1799.2,1125.4,1795.7,1132.8L1795.7,1132.8z"/>
			<path class="st11" d="M1635.4,811.5c20.1,69.4,34.4,140.3,45,211.7s17.4,143.3,22.9,215c3.1,40.7,5.9,81.5,8.4,122.4
				c0.6,8.2,13.3,8.2,12.7,0c-4.7-72.5-9.6-145.2-16.6-217.5c-7.2-72.1-16.6-144.3-30.9-215.4c-8-40.3-17.6-80.1-29.1-119.6
				C1645.4,800.2,1633.3,803.5,1635.4,811.5L1635.4,811.5z"/>
			<path class="st11" d="M1561,1019.9c17.4,17.8,28.1,40.5,37.5,63.1c10.4,25,19.5,50.6,27.4,76.6c15.6,51.4,26.8,104.2,32.6,157.5
				c3.3,29.9,5.1,60,5.3,90.3c0,8.2,12.7,8.2,12.7,0c-0.4-55.1-6.1-110.2-16.6-164.2c-10.6-53.9-26.4-107.1-47.1-158.1
				c-10.8-26.6-22.5-53.4-43-74.1C1564.1,1005,1555.1,1014,1561,1019.9L1561,1019.9z"/>
			<path class="st11" d="M1648.7,1272.4c-9.4-11.5-21.1-19.4-30.9-23.3c-9.8-3.9-17.6-3.9-19.9-1.4c-2.3,2.5-1.8,10.2,1.6,19.5
				s9,20.5,17.4,30.9c8.4,10.4,18.4,18,27.2,23.1c8.6,5.1,16,7.2,18.2,5.9c2.7-1.8,4.3-9.4,2.5-19.7
				C1663.2,1297,1658.1,1283.9,1648.7,1272.4z"/>
			<path class="st12" d="M1689,1186.2c7.8-38.3,0.6-71.7-6.6-73.1c-7-1.2-25.8,27.2-33.4,64.9c-7.6,37.7,0.2,71.5,5.3,72.7
				C1660.7,1252.3,1681.2,1224.5,1689,1186.2z"/>
			
				<ellipse transform="matrix(0.7008 -0.7134 0.7134 0.7008 -374.0797 1497.0967)" class="st11" cx="1597.6" cy="1194.5" rx="20.5" ry="79.8"/>
			<path class="st13" d="M1712.8,1296.1c3.7-15.8,5.7-31.3,6.5-45.5c0.8-14.1,0.4-27-1-37.5c-2.5-21.5-7.6-34.4-11.1-34.4
				c-3.5,0-8.8,12.5-14.7,32.3c-2.9,9.8-6.3,21.5-9.4,34.2c-3.3,12.9-6.8,26.8-10.2,41.6c-3.5,14.7-6.5,28.9-9,41.8
				s-4.7,25-6.5,35.2c-3.3,20.3-4.1,34-1.8,35.2c2.9,1.4,13.3-8,25-26c5.9-9,11.9-20.3,17.6-33.2
				C1704,1326.7,1709.1,1311.9,1712.8,1296.1z"/>
			<path class="st13" d="M1796.1,1312.1c12.1-21.5,21.1-42.2,26.2-58.2c5.3-16,6.6-27.2,3.5-29.3c-2.9-2-12.9,3.7-25.4,15.2
				c-12.5,11.7-27.6,29.7-40.1,51.8c-12.5,22.3-19.9,44.6-23.3,61.4c-1.8,8.4-2.5,15.4-2.5,20.5c0,1.6-0.6,3.7,0.6,6.3
				c0.2,0.6,0.6,1.2,1,1.6c0.4,0.6,1.4,1.2,2,1.4c1.4,0.4,2.3,0,2.9-0.4c1.2-0.8,2-2.2,1.6-3.1c-0.4-1-1-0.6-1.2-0.6
				c-0.2,0.2-0.4,0.2-0.6,0.4c-0.2,0.2,0.2,0,0,0c0,0-0.2,0-0.4-0.2s-0.4-0.6-0.4-0.6s0,0.4,0,0.8c0,0,0,0,0,0.2l0,0l0.8-0.6l0,0
				c0,0,0,0,0.2,0c0.4,0,1.2-0.2,2.7,0.2h0.4l0,0h0.2h0.2c0.2,0,0.4,0,0.6-0.2c4.1-3.1,9-8,14.5-14.5
				C1770.7,1351.8,1784,1333.4,1796.1,1312.1z"/>
			<path class="st11" d="M1763.7,1215.1c-3.1-27.2-10-51-16.8-68c-6.8-16.8-13.5-27-17.2-26.4c-3.5,0.6-6.8,12.1-8.6,30.1
				c-1.6,18-1.6,42.6,1.6,68.8c1.6,13.3,3.7,25.6,6.3,36.9c2.5,11.3,5.3,21.1,7.2,29.3c2.2,8.2,3.7,14.9,5.1,19.9
				c1.2,4.9,2.3,8.2,3.7,8.4c1.6,0.4,4.5-1.6,7.6-6.3c3.1-4.7,6.5-12.3,8.8-21.7c2.3-9.6,3.5-20.7,3.9-32.6
				C1765.6,1241.9,1765.2,1228.8,1763.7,1215.1z"/>
			<path class="st12" d="M1594.6,1084c-15.8-15.2-33-25.8-46.7-31.9s-23.7-7.4-26-4.5c-2.2,2.7,1.4,12.1,9.2,24.2
				c7.8,12.1,19.9,27.2,35,41.6c15.2,14.5,31.1,25.4,43.8,32.6s22.3,10.4,24.2,8.6c2.5-2.2,0.6-12.1-5.9-25.6
				C1621.9,1115.8,1610.6,1099.2,1594.6,1084z"/>
			<path class="st11" d="M1570.9,980.2c-18.8-33.4-46.3-52.8-52.6-48.9c-6.1,3.7-1.4,36.6,16.8,69c18.2,32.4,45.3,52.6,50.2,50.2
				C1591.3,1047.4,1589.7,1013.6,1570.9,980.2z"/>
			<path class="st13" d="M1640.7,1044.1c-3.3-22.7-11.3-42.4-19.5-55.3c-8.2-13.1-16.2-19.7-19.5-18.4c-3.3,1.2-5.1,11.1-5.3,25.6
				c-0.2,14.5,0.8,33.4,3.7,53.9c2.9,20.5,7.6,38.9,11.9,52.8c4.5,13.9,9,23.1,11.5,23.1c3.3,0.2,9-8.4,13.5-23.1
				C1641.5,1087.9,1644,1066.8,1640.7,1044.1z"/>
			<path class="st12" d="M1850.1,1169.6c18.8-12.9,34.6-26.6,45.3-38.1c10.8-11.3,16.6-20.3,14.7-23.7c-1.8-3.1-12.5-2.9-28,1.4
				c-15.4,4.3-35.6,12.9-55.3,26.4c-19.7,13.5-34.6,29.7-44.2,42.6c-9.4,13.1-13.3,23.1-11.7,25.2c2.2,2.5,12.7,0.4,27.2-5.5
				C1812.7,1192.3,1831.3,1182.5,1850.1,1169.6z"/>
			<path class="st11" d="M1861.4,1069.7c13.1-27.6,20.5-54.3,23.5-74.5c2.9-20.1,1.8-33.2-1.6-34.4s-11.9,8.8-22.7,25.2
				c-10.8,16.6-23.7,39.7-36.2,65.9s-21.9,51-27.8,70c-5.9,18.8-8.2,31.7-5.9,33.2c2.7,1.8,13.7-5.7,27.6-20.5
				C1831.9,1119.7,1848.3,1097.3,1861.4,1069.7z"/>
			
				<ellipse transform="matrix(0.1791 -0.9838 0.9838 0.1791 427.0609 2656.0017)" class="st12" cx="1805.1" cy="1072.1" rx="89.1" ry="20.5"/>
			<path class="st12" d="M1837.9,749.7c11.1-23.7,19-46.1,23.5-63.3c4.5-17.2,5.3-28.9,2.2-30.9c-3.1-1.8-12.9,5.1-25,18.6
				c-12.1,13.5-26.2,33.6-37.7,58.1c-11.5,24.4-17.6,48.3-20.1,66.3c-2.5,18-1.6,29.9,1,30.9c3.1,1.2,11.7-7,22.3-21.3
				C1814.3,793.7,1826.8,773.4,1837.9,749.7z"/>
			<path class="st11" d="M1806.5,749.7c1.6-24.6,0.8-47.1-1.4-63.9c-2.2-16.6-5.7-27.6-9.2-28.1c-3.5-0.6-10.2,8.8-16.4,24.8
				c-6.3,16-12.1,38.7-13.9,64.3c-1.8,25.6,1.6,49.1,5.9,65.7c4.3,16.6,9.8,26.8,12.5,26.8c3.3,0,8.2-10.4,12.5-26.6
				C1800.8,796.4,1804.9,774.4,1806.5,749.7z"/>
			<path class="st12" d="M1836,867.2c7.6-12.1,13.7-24.4,18.4-35.8c4.5-11.5,7.8-22.3,9.8-31.7c3.9-18.6,2.9-30.9-0.4-32.3
				c-3.3-1.4-11.9,7.2-23.3,21.5c-5.5,7-11.9,15.6-18.6,25.2c-6.6,9.6-13.7,19.9-20.7,31.3c-7,11.1-13.5,22.1-19.2,32.3
				c-5.7,10.2-10.6,19.5-14.5,27.8c-7.8,16.4-11.9,28-9.8,29.7c2.3,2.2,13.9-2.3,29.1-13.7c7.6-5.7,16-13.1,24.4-22.3
				C1820,890.1,1828.4,879.3,1836,867.2z"/>
			<path class="st11" d="M1743.9,851.4c-2.3-12.3-4.7-23.8-7-34.2c-1-5.3-2.3-10.2-3.3-14.9c-0.6-2.3-1.2-4.5-1.6-6.8
				c-0.4-2.2-1-4.3-1.4-6.3c-3.7-16-6.6-27.2-10.6-27.8c-3.3-0.6-10.6,9-15.4,27.2c-0.6,2.2-1.2,4.7-1.8,7c-0.6,2.5-0.8,5.1-1.2,7.6
				c-0.8,5.5-1.2,11.1-1.4,17c-0.2,11.9,0.8,25,3.1,38.3c5.1,26.6,14.5,48.5,22.3,63.9c8,15.4,14.9,24.8,17.4,24.4
				c3.3-0.6,6.5-11.9,7-29.7C1751,899.7,1748.6,876,1743.9,851.4z"/>
			<path class="st13" d="M1802.8,984.5c14.5-19.9,24-40.5,28.9-56.3c4.9-15.8,5.5-27,2.2-28.7c-3.1-1.8-12.3,4.1-24.2,15.1
				c-11.9,10.9-26.4,27-40.3,45.9s-24.2,38.1-30.7,53c-6.6,14.9-9.2,25.4-7.2,27.2c2.5,2.2,12.9-1.8,26.4-11.1
				C1771.7,1019.9,1788.3,1004.4,1802.8,984.5z"/>
			<path class="st11" d="M1643.8,773.2c-11.5-24.2-26.4-43.2-38.7-55.7c-12.3-12.5-22.1-18.6-25.2-16.8c-3.1,1.8-2,13.3,2.9,29.9
				c4.9,16.6,13.3,37.9,23.8,60c5.3,11.1,10.6,21.3,15.4,30.7c2.3,4.7,4.9,9.2,7.2,13.3s4.5,8.2,6.5,11.7c8.2,14.5,14.3,24,17,23.7
				c3.1-0.4,7.2-11.5,7.2-29.7c0-4.5-0.2-9.6-1-14.7c-0.6-5.3-1.6-10.8-2.9-16.6C1653.8,797.6,1649.5,785.3,1643.8,773.2z"/>
			<path class="st11" d="M1642.9,862.1c-28.7-36.2-63.3-55.5-68.8-50.6c-5.3,4.7,8.8,41,36.7,76.2c28,35.2,61.6,55.9,65.9,52.8
				C1682.2,936.8,1671.6,898.3,1642.9,862.1z"/>
			<path class="st12" d="M1658.5,943.2c-11.1-11.7-23.3-20.5-33.4-26.2c-10.2-5.7-18.2-7.8-21.1-5.7c-2.7,2.2-2.7,10.8,1.2,22.1
				c3.9,11.3,11.7,25.6,23.8,38.1c12.1,12.5,26.2,20.5,37.5,24.8c11.3,4.1,19.9,4.5,21.7,2.5c2.2-2.5,0.2-10.8-4.9-21.1
				C1678,967.3,1669.8,954.8,1658.5,943.2z"/>
			<path class="st12" d="M1680.8,1052.1c-13.3-24.2-27.2-45.5-38.3-60.6c-11.1-15.1-19.9-23.8-22.9-22.9c-2.7,1-2.3,12.7,2.2,30.5
				s13.3,41.8,27,66.7c13.7,24.8,29.9,45.5,43.2,59.6c13.3,14.1,23.7,21.7,25.6,20.7c2.5-1.4,0-12.7-6.5-29.9
				C1704.4,1099,1694.3,1076.4,1680.8,1052.1z"/>
			<path class="st11" d="M1742.5,1085.5c0.2-18.2-4.1-34.4-9.4-45.5c-5.3-11.1-11.5-17.4-15.2-16.8c-3.5,0.6-7.4,8.2-10.6,19.4
				c-3.1,11.3-5.7,26-5.9,42.2c-0.2,16.2,2.2,31.1,5.1,42.4s6.6,19.2,9.4,19.5c3.3,0.6,9.6-5.3,15.4-16.2
				C1737.3,1119.7,1742.4,1103.7,1742.5,1085.5z"/>
			<path class="st12" d="M1758.6,1150.4c8.4-18.4,11.1-36.9,10.8-50.6c-0.6-13.7-4.1-22.3-7.6-23.1c-3.5-0.8-10,5.7-17.4,16
				c-7.4,10.4-15.6,24.4-23.1,40.7c-7.4,16.2-12.3,31.9-15.1,44.4c-2.9,12.5-3.5,21.7-1.4,23.3c2.5,2,11.5-1,22.3-9.6
				C1737.7,1183.1,1750,1169,1758.6,1150.4z"/>
			<path class="st12" d="M1705.2,833.2c0.8-29.5-2.7-56.1-7.6-75.1c-4.7-19.2-10.6-30.5-14.3-30.3c-3.5,0.2-8,12.1-11.7,31.1
				c-3.7,19-6.8,44.8-7.6,73.3c-0.8,28.5,1.4,54.5,4.1,73.7c2.9,19.2,6.6,31.3,9.4,31.7c3.3,0.4,9.8-10.8,15.6-29.5
				C1699.2,889.1,1704.4,862.7,1705.2,833.2z"/>
		</g>
		<path class="st9" d="M1854.5,1355.3c-0.4,3.5-66.1,6.5-147.2,6.5c-80.9,0-146.8-2.9-147.2-6.5c0,0.4,0,1,0,1.4l24.8,262.5l0,0
			l4.1,44l0,0c0.2,7.8,53,14.1,118.1,14.1c65.3,0,118.1-6.3,118.1-14.1l0,0l0,0l0.8-9.2c0-0.2,0-0.4,0-0.6l2-20.3l0,0l0,0
			l26.2-276.4C1854.5,1356.3,1854.5,1355.7,1854.5,1355.3z"/>
		<g>
			<path class="st14" d="M1836.2,1550.3l1.2-11.7c-0.4,0.2-0.8,0.4-1.4,0.4c-44.2,16.4-88.2,32.8-132.3,49.3
				c-25.4,9.4-50.8,19-76,28.3c-3.7,1.4-5.3,5.9-2.3,8.8c23.5,23.7,58.6,24.4,89.1,32.6c9.6,2.5,19.2,6.1,27.4,11.3h16.8
				c-19.5-19-49.3-23.5-75.8-29.1c-15.2-3.3-30.9-7.4-43.4-16.8c44-16.4,87.8-32.6,131.7-49.1
				C1792.8,1566.6,1814.5,1558.6,1836.2,1550.3z"/>
			<path class="st14" d="M1721.2,1445.8c42.6-11.9,85.4-23.7,128-35.4l2-21.1c-90.9,2-181.8,6.1-272.7,12.3c-4.7,0.4-9.4,0.6-14.1,1
				l1,10.6c78.6-5.5,157.3-9.6,235.9-11.9c15.1-0.4,30.3-0.8,45.3-1.2c-39.7,10.9-79.4,21.7-119,32.8
				c-49.8,13.9-99.5,28.7-146.4,50.6c-2.9,1.4-5.9,2.7-8.8,4.1l1.2,11.3c2.3-1.2,4.9-2.3,7.2-3.5
				C1625.9,1473.9,1673.6,1459.1,1721.2,1445.8z"/>
			<path class="st14" d="M1612.2,1536.7c50-0.8,99.3-11.3,148-22.1c26.8-5.9,53.8-12.1,80.9-16.8l1-10.8
				c-66.3,11.7-131.5,31.5-198.6,37.5c-22.3,2-45,2.3-67.2,0.4l1,10.8C1588.9,1536.5,1600.4,1536.9,1612.2,1536.7z"/>
		</g>
		<path class="st7" d="M1820.9,1355.1L1820.9,1355.1c0,2.7-49.3,4.9-110,4.9s-110-2.2-110-4.9l0,0h-40.3c0,0,0,0,0,0.2l0,0
			c0.4,3.5,66.1,6.5,147.2,6.5c80.9,0,146.8-2.9,147.2-6.5l0,0c0,0,0,0,0-0.2H1820.9z"/>
	</g>
	<path class="st15" d="M1114.5,628.9c-15.8,58.4-31.3,118.1-58.4,172.4c-7.2,14.5-20.3,51.2-40.9,49.8
		c-20.1-1.4-37.1-14.5-45.9-31.9c-8.6-17.2-33-22.1-48.9-12.9c-17.6,10.4-21.5,31.7-12.9,48.9c16,32.3,47.3,54.3,81.7,63.3
		c45.9,11.9,82.3-6.8,107.9-45c44.8-66.8,65.5-149.1,86.4-225.8C1195.6,603.3,1126.6,584.4,1114.5,628.9L1114.5,628.9z"/>
	<path class="st6" d="M1128.4,1424.5c4.7,27.8,10.6,55.3,17.4,82.7c12.3,48.3,91.1,27.8,78.8-20.5c-7-27.4-12.7-54.9-17.4-82.7
		c-3.5-20.5-30.7-32.1-50.2-27C1133.7,1383,1124.9,1403.8,1128.4,1424.5L1128.4,1424.5z"/>
	<path class="st6" d="M1407.3,857c0,0,23.5,58.2,23.5,63.5s-108.5,20.5-152.9,18c-34.2-2-112-14.3-107.5-21.7
		c4.5-7.4,27.8-65.5,27.8-65.5s56.7,14.3,102.4,12.9S1407.3,857,1407.3,857z"/>
	<path class="st16" d="M1170.2,916.9c0,0,31.5,10.4,49.6,12.9c77.6,11.1,127.8,4.7,127.8,4.7s-230.3,126.1-237.9,142.5
		c-7.6,16.4,65.1,73.3,86.4,137.2c19,56.9,31.7,198.4,34.2,228.9c0.4,3.7-1.8,7-5.1,8.6c-7.6,3.5-23.1,9.6-46.3,13.9
		c-34.4,6.3-56.7,12.5-57.3,4.7c-0.6-7.8-128.4-244.9-133.1-252.7c-4.7-7.8-78-122.2-81.1-151.3
		C898.3,978.6,1170.2,916.9,1170.2,916.9z"/>
	<path class="st4" d="M1250.4,495.4c0,0-62.2,12.5-89.7,35.6c-24.6,20.7-69.6,108.3-79,127.1c-1.2,2.2-0.6,4.7,1,6.5
		c6.1,6.1,20.9,19.9,34.6,27c17.6,9.2,52.8,16.2,52.8,16.2l8-53.2c0,0-19.4,35.2-6.5,73.1c7.6,22.1,13.1,51.6,14.3,66.1
		c0.6,8.2-1.2,54.7-1.2,54.7s47.3,12.3,98.3,15.8c50.8,3.5,137.4-12.9,137.4-12.9s-4.3-107.9-1.6-127.4c5.3-39.1-5.9-67.6-5.9-67.6
		l14.9,59.4c0,0,51.2,6.5,61,1.4c9.4-4.9,25.6-18.8,32.6-24.8c2.2-1.8,2.9-4.7,2.3-7.4c-4.9-19.9-27.2-102-64.1-142.9
		c-19-20.9-88.5-42.6-104.8-42.6C1338.3,499.2,1250.4,495.4,1250.4,495.4z"/>
	<path class="st17" d="M1218.5,202.4L1218.5,202.4L1218.5,202.4z"/>
	<ellipse class="st3" cx="1406.5" cy="93.4" rx="59" ry="55.5"/>
	<path class="st18" d="M1145.6,1512.2c0,0,29.5,5.5,42.6,1.2c20.1-6.6,39.9-22.1,39.9-22.1s25,26.8,31.9,33.2s15.6,10.8,22.5,22.9
		s7.4,45.9-39.3,77.6c-16.8,11.5-37.9,85.4-79.4,100.1c-27.8,9.8-49.8,12.9-68.6,4.3c-19.2-8.8-24-29.7,14.5-58.2
		c38.5-28.5,29.7-61.8,33.8-82.7C1147.6,1567.5,1145.6,1512.2,1145.6,1512.2z"/>
	<path class="st5" d="M832.1,1488.2c-3.9,30.9-8,61.8-11.9,92.6c-2.7,20.7,20.7,38.5,40.9,38.5c24.2,0,38.1-17.8,40.9-38.5
		c3.9-30.9,8-61.8,11.9-92.6c2.7-20.7-20.7-38.5-40.9-38.5C848.7,1449.7,834.8,1467.5,832.1,1488.2L832.1,1488.2z"/>
	<path class="st5" d="M1013.7,788.4c23.5,4.7,41.4,19.9,58.4,36.2c12.1,11.5,28.9-7.6,16.8-19.4c-20.3-19.4-42.6-36.7-70.4-42.2
		C1002.3,759.7,997.3,785.1,1013.7,788.4L1013.7,788.4z"/>
	<path class="st5" d="M1345.6,415.9l-95.2-0.6c0,0,7,90.7,7,91.3c0,16,21.3,28.9,47.7,28.9s47.7-12.9,47.7-28.9
		C1352.6,506.2,1345.6,415.9,1345.6,415.9z"/>
	<path class="st6" d="M1301.2,431.9c-17.6,0-34.6-2.9-50.2-8l1.2,18.2c10.8,5.1,27.8,8.8,45,10c15.1,1,36.4,1.6,50.8-2.7l-1.6-23.7
		C1331.9,429.8,1316.8,431.9,1301.2,431.9z"/>
	<path class="st19" d="M1432.2,920.2c0,0,41.6,45.7,49.1,77.8c7.4,32.1,12.3,80.7,1.6,109.1c-10.8,28.3-44.6,69.4-106.1,73.1
		c-101.6,6.1-313.5-30.9-322.9-30.9s-5.7,62-37.5,148.6c-28.5,77-79.4,205-90.1,231.8c-1.2,3.1-4.1,5.1-7.4,5.3
		c-11.1,0.6-37.5,1.2-64.3-3.1c-18.8-2.9-32.6-10.8-40.1-15.6c-3.5-2.3-5.3-6.5-4.9-10.6c3.3-29.7,17.6-153.2,26.4-203.9
		c9.4-53.4,16.2-259,50.2-300.6c29.7-36.4,40.5-40.3,73.9-50.8c30.1-9.4,351.6-12.3,351.6-12.3L1432.2,920.2z"/>
	<path class="st20" d="M812.5,1595.7c-9.8,18.2-29.1,43.4-45,53.9c-37.3,25-84.8,58.8-91.9,65.9c-7,7-23.1,37.3,1.4,53.6
		c17.6,11.5,68.4,16,132.5-15.6c48.3-23.8,72.3-28.9,89.9-35.6c29.3-10.8,22.7-42.8,16.6-58.4c-4.7-12.3-6.1-14.7-9.4-46.5
		c-0.8-6.8-3.5-34.6-3.5-34.6s-24.8,8.4-52,5.1c-19.9-2.5-31.1-15.8-31.1-15.8S816.1,1589.2,812.5,1595.7z"/>
	<path class="st21" d="M1466,1217.3h-360.6c-6.1,0-10.9-4.9-10.9-10.9v-35.8c0-6.1,4.9-10.9,10.9-10.9H1466
		c6.1,0,10.9,4.9,10.9,10.9v35.8C1476.9,1212.4,1472,1217.3,1466,1217.3z"/>
	<path class="st22" d="M737.5,650.4l192.7,19.2c4.5,0.4,8.8,2.9,11.9,6.8l205.2,254.7c2.3,2.9,0.4,7.8-2.7,7.4l-201.7-22.3
		c-3.7-0.4-7-2.3-9.6-5.7L735.5,655.9C733.8,653.8,735.1,650,737.5,650.4z"/>
	<path class="st5" d="M1441.1,701.1c0.8,3.7,1.6,7.4,2.3,11.1c0.2,1.6,1.8,10,1.2,6.6c-0.4-2.9,0.8,6.3,1,8.4
		c0.4,3.9,0.6,7.8,0.8,11.7c0.2,7.2,0,14.5-0.4,21.9c-0.2,2.2-0.4,4.5-0.6,6.6c0-0.6,0.8-5.5,0.2-1.2c-0.8,4.3-1.6,8.8-2.7,13.1
		c-0.8,3.3-2,6.5-2.9,9.6c-2.2,7.2,0.6,0.2-2,5.3c-1.6,2.9-3.1,6.1-4.7,8.8c-1,1.6-7.6,11.1-4.1,6.6c-10.9,13.7-19.2,19.7-36,27.4
		c-66.1,30.3-153.2,6.3-221.7-10c-30.3-7.2-60.6-15.1-90.3-24.4c-44-13.9-62.7,55.1-19,69c73.9,23.5,151.7,41.6,228.9,48.7
		c88.5,8,186.7-20.9,217.9-112.6c13.7-40.3,10.6-84.8,1.6-125.7C1500.4,637,1431.4,656.1,1441.1,701.1L1441.1,701.1z"/>
	<path class="st4" d="M1419.3,679.2c6.5-4.3,78-55.3,78-55.3l25.4,66.8c0,0-7.2,12.7-35.8,27.2c-28.9,14.5-56.1,11.1-56.1,11.1
		L1419.3,679.2z"/>
	<path class="st4" d="M1375.5,937.4c2,18,3.7,36.2,5.7,54.1c1.8,16.2,4.1,32.6,4.7,49.1c0.4,13.7-1.4,28.3-11.5,38.5
		c-9,9-21.9,12.1-34.2,13.1c-14.7,1.2-29.3,0-44-0.6c-17.8-0.8-35.6-1.6-53.4-2.3c-36-1.6-71.9-3.1-107.7-4.5
		c-17.4-0.8-34.8-1.6-52.2-2.2c-14.1-0.6-28.3-0.8-42.4,0.6c-27.4,2.7-54.1,11.7-71.5,34.2c-18,23.3-23.3,53.2-29.3,81.1
		c-7.6,35.4-15.2,70.6-22.9,105.9s-15.2,70.6-22.9,105.9c-6.5,29.5-12.3,59.4-19.9,88.5c-1.2,4.5-2.3,9.2-3.7,13.7
		c-2,6.6,8.2,9.4,10.2,2.7c7.4-25.2,12.7-50.8,18.2-76.4c7.6-35.4,15.2-70.6,22.9-105.9c7.6-35.6,15.4-71.1,23.1-106.7
		c3.5-16.4,6.8-32.8,10.8-49.1c3.3-14.1,7.2-28,14.1-40.9c6.5-12.3,15.4-22.7,27.6-29.7c11.7-7,25-10.6,38.5-12.3
		c30.5-4.1,62.4-0.6,93,0.8c36,1.6,71.9,3.1,107.7,4.5c18.2,0.8,36.2,1.6,54.3,2.3c15.1,0.6,30.5,2,45.5,1.2
		c12.7-0.6,26-2.7,37.1-9.6c11.5-6.8,19.2-18.4,21.9-31.5c3.1-14.7,1.4-29.7-0.2-44.4c-2-18-3.7-36.2-5.7-54.1
		c-1-8.8-1.8-17.4-2.7-26.2C1385.2,930.7,1374.7,930.5,1375.5,937.4L1375.5,937.4z"/>
	<g>
		<path class="st23" d="M286.2,1767.1L286.2,1767.1c-9.8-3.5-14.9-14.1-11.7-23.8l235.7-772.7c3.3-10,14.3-15.4,24.2-11.9l24.6,8.8
			c10,3.5,15.1,14.7,11.3,24.4l-260,764.1C306.7,1765.6,295.9,1770.6,286.2,1767.1z"/>
		<path class="st23" d="M1508.2,1767.1L1508.2,1767.1c9.8-3.5,14.9-14.1,11.7-23.8l-235.5-772.7c-3.3-10-14.3-15.4-24.2-11.9
			l-24.6,8.8c-10,3.5-15.1,14.7-11.3,24.4l260.2,763.9C1487.7,1765.6,1498.4,1770.6,1508.2,1767.1z"/>
		<path class="st24" d="M1546.9,997.2H247.7c-10.6,0-19.2-8.6-19.2-19.2v-42c0-10.6,8.6-19.2,19.2-19.2h1299.2
			c10.6,0,19.2,8.6,19.2,19.2v42C1565.9,988.6,1557.4,997.2,1546.9,997.2z"/>
	</g>
	<g>
		<path class="st3" d="M402.3,1666.5c-119.4-14.9-173,62-173.2,62.2c0-0.2,5.7,4.1,5.7-12.1l-2.7-24.2l0,0c0,0-10.2,3.1-14.1,4.7
			c-12.1,5.1-23.1,19.4-26.4,19.2c-3.1-0.2-14.5-10.4-32.3-15.2c-17.8-4.9-38.7-0.2-40.7-1.6c-1.8-1.2-1.2-7.4-3.9-15.4
			c-3.3-9.4-11.9-20.1-11.9-20.1l0,0c-0.4,0.4-27.2,51.6-32.8,62s-15.2,26.4-16.6,60.8c-2,45.9,28.9,27.4,28.9,27.4l-21.5-19.9H29.9
			h-9c-11.5,0-20.9,11.3-20.9,25s9.4,25,20.9,25h9h30.9h480.6l0.4-43C541.8,1800.7,544.6,1684.2,402.3,1666.5z"/>
		<path class="st3" d="M516.4,1863.7H82.3c-13.9,0-25-11.3-25-25l0,0c0-13.9,11.3-25,25-25h434.1c13.9,0,25,11.3,25,25l0,0
			C541.4,1852.3,530.1,1863.7,516.4,1863.7z"/>
		<path class="st25" d="M445.5,1728.4c-26.6-4.9-54.7-3.1-78.4,10.9c-16.8,10-30.3,25.4-37.5,43.6c-2.5,6.5-4.3,13.3-4.5,20.1
			c-16-1-33.2-1-48.1,5.3c-7.8,3.3-14.5,8.6-17.6,16.8c-2.9,7.4-2.9,16.4,0.4,23.8c3.7,8.6,11.5,14.1,20.9,14.1c3.7,0,3.7-5.9,0-5.9
			c-15.2-0.2-20.5-17.8-15.6-29.9c5.9-14.9,25.6-17.6,39.5-18.4c8-0.4,15.8-0.2,23.8,0.4c1.6,0.2,2.9-1.4,2.9-2.9
			c-0.8-14.1,6.3-28.9,14.9-40.3c12.5-16.6,31.1-27.8,51.2-32.1c15.4-3.3,31.5-2.7,46.9,0.2C447.6,1734.7,449.2,1729,445.5,1728.4z"
			/>
		<path class="st3" d="M487.3,1857.4c19.5,4.5,40.1,5.3,59.8,9c11.5,2.2,35.8,7.6,14.7,17.2c-26.6,12.1-62.7,3.9-90.9,5.5
			c-31.1,2-65.1,10-85.8,35c-21.1,25.4-13.1,80.3,28.7,75.6c25-2.9,36-28.3,19.9-48.1c-0.8-1-1.6-2-2.3-2.9
			c2.5,4.5,5.1,8.8,7.8,13.3c-1.8-4.9-4.7,1.4,0.8-1.2c6.5-3.1,11.9-7.2,18.8-9.6c14.5-4.9,29.7-6.3,44.6-7.8
			c30.9-2.9,70.2-2.5,94.8-24.4c24.4-21.7,28.1-60.6-0.4-80.9c-27.4-19.4-80.1-17.2-110.6-7.2
			C475.2,1835.1,473.6,1854.1,487.3,1857.4L487.3,1857.4z"/>
		<path class="st25" d="M88,1752.5c1.2,7,7.4,12.5,14.1,14.1c7,1.6,15.1-0.6,19.9-6.1c2-2.3-1.4-5.7-3.3-3.3
			c-3.7,4.3-9.8,6.1-15.2,4.9c-5.3-1.2-9.8-5.3-10.8-10.8C91.9,1748.2,87.4,1749.3,88,1752.5L88,1752.5z"/>
		<path class="st25" d="M154.6,1768.3c0,7,6.6,12.3,13.1,13.5c7.8,1.4,15.4-2.2,21.3-7c2.3-2-1-5.3-3.3-3.3
			c-4.5,3.9-10.4,6.6-16.4,5.9c-4.5-0.6-10-3.9-10-9C159.3,1765.2,154.6,1765.2,154.6,1768.3L154.6,1768.3z"/>
		<path class="st25" d="M132.9,1798.8c-4.5-3.7-9.8-5.9-15.4-6.6c-1-0.2-2.2,0.6-2.5,1.4c-0.6,1-0.4,2,0,2.9
			c0.2,0.2,0.4,0.6,0.4,0.8c-0.2-0.8,0,0.2,0.2,0.4c0.2,0.4,0.2,0.8,0.4,1.4c0,0.2,0.2,0.4,0.2,0.8v0.2c0,0.4,0,0.8,0.2,1.4
			c0.2,2.2,0.2,4.1,0.4,6.3c0,0.2,0,0.2,0,0.4l0,0v0.2v0.2c0.4,1.2,2,2,3.1,1.8c0.2,0,0.2,0,0.2,0l0,0l0,0c0.4-0.2,1-0.4,1.4-0.8
			c0.2-0.2,0.4-0.4,0.4-0.4l0,0l0,0c0.4-0.4,1-0.6,1.4-0.8c0.2-0.2,0.6-0.2,0.8-0.4c0.2,0,0.2-0.2,0.4-0.2c0.6-0.2,1.2-0.4,1.6-0.6
			c2.3-1,4.9-2,6.6-3.7C133.9,1801.9,134.1,1799.8,132.9,1798.8z M124.5,1807.4C124.7,1807.4,124.7,1807.4,124.5,1807.4
			C125.1,1807.2,124.7,1807.4,124.5,1807.4z"/>
	</g>
	<g>
		<path class="st26" d="M940.8,206.5c-15.2-45-54.5-81.1-101.2-95.8s-99.7-8.2-142.3,15.4c-20.9,11.5-39.9,27.6-51.6,47.9
			c-11.7,20.3-15.4,45.5-6.8,67.4c10.4,26.4,36.4,43.8,62.7,56.1c28.3,13.3,67,22.1,103,13.1l0,0c29.7,18.2,59.4,36.6,89.1,54.7
			c-5.5-20.3-21.9-60.6-22.5-60.8l3.9-0.4c21.5-7.6,41-20.9,55.1-38.3c6.8-8.4,12.7-18.2,14.5-28.9
			C946.4,226.7,944.1,216.3,940.8,206.5z"/>
	</g>
	<g>
		<path class="st4" d="M729.5,82.2c-11.7-35-48.3-55.1-83.7-66.3C565.1-9.4,475.2-4.4,397.8,30c-36.2,16-71.3,40.3-87.2,76.6
			c-13.7,31.7-10.8,69.2,5.1,99.9s43.4,54.5,74.7,68.8c-10.9,28-27.6,62.2-38.3,90.1c22.1-13.1,44.4-26.2,66.5-39.3
			c11.3-6.6,22.9-13.5,35.6-17.4c17.2-5.3,35.6-4.9,53.6-6.1c50.4-2.9,100.7-18,141.9-47.1c41-29.3,72.5-73.5,81.7-123.1
			C734.2,115.8,734.7,98.3,729.5,82.2z"/>
	</g>
	<g>
		<path class="st4" d="M664,431.7c-1.6-12.7-10.8-23.1-20.7-31.1c-28.5-22.3-67-29.5-102.8-23.8c-13.3,2.2-26.6,6.1-37.7,13.7
			c-22.9,15.8-32.8,47.5-23.8,73.7c1.2,3.7,5.7,7.6,5.7,7.6c-11.1,21.1-17.6,36.7-27,58.4c21.9-16.6,45.7-31.1,71-43.2l3.1,1.6
			c29.9,18.2,69.4,9.4,99.5-8.4C648.7,469.8,666.5,452.4,664,431.7z"/>
	</g>
	<path class="st27" d="M1185.1,629.1c0,0-11.7,34-14.5,46.1c-3.1,14.1-3.1,32.1-3.1,32.1l-11.5-2.5c0,0,2.9-18.2,10.4-37.5
		C1170.2,657.3,1185.1,629.1,1185.1,629.1z"/>
	<path class="st27" d="M1412.8,650.8c0,0,4.5,33,5.3,40.1c1.8,14.7,1.2,37.1,1.2,37.1l11.5,0.8c0,0-2.5-27.8-7.8-46.1
		C1420.6,673.9,1412.8,650.8,1412.8,650.8z"/>
	<path class="st4" d="M1378.4,439.7c-16.4,0-29.5-23.1-29.5-52.4s12.9-52.4,29.5-52.4c16.4,0,29.5,23.1,29.5,52.4
		C1407.9,416.9,1395,439.7,1378.4,439.7z M1378.4,342.2c-12.1,0-22.3,20.7-22.3,45.3c0,24.6,10.2,45.3,22.3,45.3
		c12.1,0,22.3-20.7,22.3-45.3C1400.7,362.9,1390.5,342.2,1378.4,342.2z"/>
	<path class="st3" d="M1506.2,450.5c12.9-6.1,11.9-12.3,8.8-23.5l-63.5-178.8c-19-63.3-80.7-109.9-154-109.9
		c-47.7,0-75.1,20.1-75.1,20.1l0,0c0.4,0,30.9,7.4,53.6,28.7c22.9,21.5,9.2,47.5,36.6,73.3c18.4,17.2,50.4,25.8,50.4,25.8
		c0,2.5,5.1,124.3,7.2,175.9c0.8,18.2,11.1,16.4,47.5,11.3C1466,466.7,1484.9,460.4,1506.2,450.5z"/>
	<path class="st27" d="M1278.3,242.5c-18.8,0-35,10.6-43.2,26.2c-6.8-3.5-14.3-5.3-22.1-5.3c-2.5,0-5.1,0.2-7.6,0.6
		c-6.1-20.1-24.6-34.8-46.7-34.8c-27,0-48.9,21.9-48.9,48.9s21.9,48.9,48.9,48.9c27,0,48.9-21.9,48.9-48.9c0-2.2-0.2-4.5-0.6-6.6
		c8.6-1.2,17.6,0.2,25.2,4.3c-1.8,4.9-2.7,10.2-2.7,15.6c0,27,21.9,48.9,48.9,48.9c27,0,48.9-21.9,48.9-48.9
		S1305.3,242.5,1278.3,242.5z M1158.7,319.3c-22.9,0-41.2-18.6-41.2-41.2c0-22.9,18.6-41.2,41.2-41.2c22.9,0,41.2,18.6,41.2,41.2
		C1199.9,300.8,1181.4,319.3,1158.7,319.3z M1278.3,332.6c-22.9,0-41.2-18.6-41.2-41.2c0-22.9,18.6-41.2,41.2-41.2
		c22.9,0,41.2,18.6,41.2,41.2C1319.8,314,1301.2,332.6,1278.3,332.6z"/>
	<path class="st5" d="M1037.1,870.5l-38.9-3.9c-24.4-2.5-43.4-20.7-41.8-40.7l0.6-6.8c1.6-19.7,22.9-34,47.3-31.5l38.9,3.9
		c24.4,2.5,43.4,20.7,41.8,40.7l-0.6,6.8C1082.9,859,1061.6,873.1,1037.1,870.5z"/>
	<g>
		<ellipse class="st28" cx="528.5" cy="436.2" rx="10.9" ry="10.4"/>
		<ellipse class="st28" cx="566.5" cy="436.2" rx="10.9" ry="10.4"/>
		<ellipse class="st28" cx="601.8" cy="436.2" rx="10.9" ry="10.4"/>
	</g>
	<g>
		<path class="st28" d="M790.3,251.7c-0.4,2.3-0.8,4.9,0,7.2c0.6,2,1.6,3.9,3.1,5.3c1.2,1.2,2.3,2,3.9,2.5c1.4,0.8,2.9,1.2,4.7,1
			c2.2,0,4.3-0.6,6.1-1.6c0,0,0.2,0,0.2-0.2c-1,0.4-2,0.8-2.9,1.2h0.2c-1.2,0.2-2.2,0.4-3.3,0.4c0,0,0,0,0.2,0
			c1.2-0.2,2.2-0.4,3.3-0.4c1-0.4,2-0.8,2.9-1.2c0.8-0.6,1.8-1.4,2.5-2c0.6-0.8,1.4-1.8,2-2.5c0.4-1,0.8-2,1.2-2.9
			c0.2-1.2,0.4-2.2,0.4-3.3c-0.2-1.2-0.4-2.2-0.4-3.3c-0.4-1.6-1.2-3.1-2.3-4.3c-0.6-1-1.4-1.8-2.3-2.3c-0.8-0.8-1.8-1.4-2.7-1.6
			c-1-0.6-2-0.8-3.1-0.8c-1.2-0.4-2.2-0.4-3.3,0c-1.2,0-2.2,0.2-3.1,0.8c-1,0.4-2,0.8-2.7,1.6c-1,0.6-1.8,1.4-2.3,2.3
			C791.4,248.8,790.6,250.1,790.3,251.7L790.3,251.7z"/>
		<path class="st28" d="M761.7,180c4.9-7.6,17.6-11.7,26.4-10.8c4.1,0.4,12.5,2.5,14.9,6.5c1.8,2.7,2.2-0.4-0.8,2.7
			c-1.8,1.8-5.1,2.9-7.2,4.3c-13.9,9.2-28.3,35.4-7.4,45.7c8.2,4.1,19-0.8,18.8-10.8c0-4.5-1.6-7.4,0.8-11.3
			c1.6-2.5,5.5-4.5,7.8-6.1c6.5-4.7,12.7-9.6,14.1-18c2.3-15.1-11.1-26.6-24-31.5c-14.1-5.3-29.9-3.5-42.2,5.1
			c-6.6,4.7-19.7,19.7-7.6,25.8C757.6,182.9,760.3,182.3,761.7,180L761.7,180z"/>
	</g>
	<g>
		<path class="st29" d="M617.9,916.9h-32.6c-22.1,0-40.5-17.4-41.6-39.5l-5.3-96c-0.2-3.5,2.7-6.6,6.3-6.6h113.8
			c3.5,0,6.5,3.1,6.3,6.6l-5.3,96C658.3,899.5,639.9,916.9,617.9,916.9z"/>
		<path class="st29" d="M663.6,796.4l-0.8,14.7c13.5,2.7,23.5,14.7,23.5,28.9c0,15.4-11.9,28-27,29.3l-0.8,14.7
			c23.7-1,42.4-20.3,42.4-44C700.7,818,684.7,799.8,663.6,796.4z"/>
		<path class="st30" d="M610,752.3c0,0-28-25.8-27-44.8c1.4-28.9,27.4-39.9,17.4-67.2c-4.7-12.9-24.2-54.9-24.2-54.9
			s32.3,31.9,43.6,51.6c10.4,17.8,9.2,46.1-2.2,59.6C593.2,726.1,610,752.3,610,752.3z"/>
	</g>
	<g>
		<path class="st28" d="M637,113.3H398.2c-5.5,0-10-4.5-10-10l0,0c0-5.5,4.5-10,10-10H637c5.5,0,10,4.5,10,10l0,0
			C647,108.8,642.5,113.3,637,113.3z"/>
		<path class="st28" d="M558.8,209.5H398.2c-5.5,0-10-4.5-10-10l0,0c0-5.5,4.5-10,10-10h160.7c5.5,0,10,4.5,10,10l0,0
			C568.8,205,564.3,209.5,558.8,209.5z"/>
		<path class="st28" d="M503.1,160.2h-105c-5.5,0-10-4.5-10-10l0,0c0-5.5,4.5-10,10-10h105c5.5,0,10,4.5,10,10l0,0
			C513.1,155.9,508.6,160.2,503.1,160.2z"/>
		<path class="st28" d="M617.3,160.2h-65.9c-5.5,0-10-4.5-10-10l0,0c0-5.5,4.5-10,10-10h65.9c5.5,0,10,4.5,10,10l0,0
			C627.2,155.9,622.7,160.2,617.3,160.2z"/>
	</g>
</g>
</svg>
