<?xml version="1.0" encoding="utf-8"?>
<!-- Generator: Adobe Illustrator 24.1.0, SVG Export Plug-In . SVG Version: 6.00 Build 0)  -->
<svg version="1.1" id="Layer_1" xmlns="http://www.w3.org/2000/svg" xmlns:xlink="http://www.w3.org/1999/xlink" x="0px" y="0px"
	 viewBox="0 0 2352.6 2000" style="enable-background:new 0 0 2352.6 2000;" xml:space="preserve">
<style type="text/css">
	.st0{fill:#E8D4C1;}
	.st1{fill:#BA9C7E;}
	.st2{fill:#4C7378;}
	.st3{fill:#689399;}
	.st4{fill:#57848A;}
	.st5{fill:#DEC7B2;}
	.st6{fill:#EBDBCD;}
	.st7{fill:#110580;}
	.st8{fill:#B3B6DE;}
	.st9{fill:#E8EAF7;}
	.st10{fill:#C5C6E3;}
	.st11{fill:#999BC9;}
	.st12{fill:#D8DBF2;}
	.st13{fill:#A7A9D6;}
	.st14{fill:#FFFFFF;}
	.st15{fill:#E8E8F7;}
	.st16{fill:#FF7A82;}
	.st17{fill:#FDB62F;}
	.st18{fill:#64A7B0;}
	.st19{fill:#4E53BA;}
	.st20{fill:#8589DB;}
	.st21{fill:#FF5856;}
	.st22{fill:#676BC4;}
	.st23{fill:#FCB58A;}
</style>
<g id="Layer_2_1_">
	<g id="illustrations">
		<path class="st0" d="M650.2,1142.9c-1.4-15.9-114.4-29.1-253.8-29.1s-252.4,13.2-253.8,29.1c0,0,0,0,0,0.7
			c0.7,15.9,114.4,29.1,253.8,29.1S649.5,1159.5,650.2,1142.9C650.2,1143.6,650.2,1142.9,650.2,1142.9z M396.4,1167.9
			c-117.9,0-213.6-11.1-214.3-25c0,0,0,0,0-0.7c0.7-13.9,96.4-25,213.6-25s212.9,11.1,213.6,25v0.7
			C609.9,1156.8,514.3,1167.9,396.4,1167.9z"/>
		<path class="st1" d="M396.4,1167.9c117.9,0,213.6-11.1,213.6-25v-0.7c-0.7-13.9-96.4-25-213.6-25s-212.9,11.1-213.6,25
			c0,0,0,0,0,0.7C182.8,1156.8,278.5,1167.9,396.4,1167.9z"/>
		<path class="st2" d="M408.2,1170.6c-9-126.9-25.7-253.1-50.6-377.9c-25-124.1-58.3-246.9-98.5-367.5c-22.9-68-48.5-135.2-77-201.1
			c-2.8-4.9-8.3-6.2-13.2-3.5c-4.2,2.8-6.2,8.3-3.5,13.2c49.2,116.5,90.8,235.8,124.1,357.1c33.3,120.7,58.9,243.4,77,367.5
			c9.7,70.7,17.3,140.8,22.2,212.2C390.1,1183.1,409.5,1183.1,408.2,1170.6z"/>
		<path class="st2" d="M474,1194.9c-6.9-198.3,1.4-397.4,25-595c6.9-55.5,14.6-110.3,23.6-165c2.1-11.8-16.6-17.3-18.7-4.9
			c-32.6,196.9-49.9,396-51.3,595.7c-0.7,56.2,0,113,2.1,169.2C455.3,1207.4,474,1207.4,474,1194.9L474,1194.9z"/>
		<path class="st2" d="M362.4,1212.9c-29.1-159.5-92.2-310.7-185.2-443.1c-26.4-36.8-54.8-72.8-85.3-106.1
			c-8.3-9-21.5,4.2-13.2,13.9c106.8,118.6,186.5,258.7,233.7,410.5c13.2,42.3,23.6,86,31.2,129.7
			C345.7,1230.3,364.5,1224.7,362.4,1212.9L362.4,1212.9z"/>
		<path class="st2" d="M191.1,1040.3l-46.5-22.2l-40.2-18.7c-23.6-11.1-40.9-20.8-41.6-28.4c-0.7-7.6,16.6-19.4,47.2-25
			c3.5-0.7,7.6-1.4,12.5-1.4c4.9,0,8.3-0.7,13.2-0.7c9.7,0,19.4,0,29.1,1.4c22.2,2.8,43.7,9.7,63.8,19.4
			c20.1,9.7,38.1,22.9,54.1,38.8c6.9,6.9,13.2,14.6,18.7,22.2c2.8,3.5,4.9,7.6,6.9,11.1c2.1,3.5,4.2,7.6,5.5,11.1
			c13.9,27.7,14.6,48.5,10.4,52c-5.5,4.2-23.6-4.2-47.2-15.9l-39.5-20.1L191.1,1040.3z"/>
		<path class="st3" d="M54.5,684.5C30.9,645,14.3,602,4.6,557.6c-6.9-34.7-5.5-58.9,1.4-61.7s25,12.5,47.2,38.1
			c27.7,34,52.7,69.3,74.2,107.5c22.2,37.4,40.2,77.7,55.5,118.6c11.8,32.6,15.9,55.5,11.8,58.9s-27-6.2-54.1-29.1
			C106.5,759.4,77.4,724,54.5,684.5z"/>
		<path class="st4" d="M213.3,797.5c-18-106.8-2.8-197.6,12.5-199.7s54.1,80.4,72.1,185.8c18,105.4,3.5,196.9-7.6,199
			C276.4,984.8,231.3,904.3,213.3,797.5z"/>
		<path class="st4" d="M130.8,219.9C114.1,170.7,104.4,120,100.3,68c-2.1-40.2,2.1-66.6,9.7-68c7.6-1.4,23.6,18.7,42.3,53.4
			c23.6,44.4,43.7,91.5,58.9,139.4c15.9,47.8,27.7,97.1,34.7,147.7c5.5,39.5,4.9,65.9-0.7,68c-6.2,2.8-25.7-15.3-47.8-49.2
			C169.6,315.6,146.7,269.1,130.8,219.9z"/>
		<path class="st2" d="M253.5,373.1c-4.2-101.9,18-186.5,33.3-187.2c15.3-0.7,47.8,80.4,52,183.8s-26.4,187.2-36.8,187.2
			C287.5,556.9,257.7,475.1,253.5,373.1z"/>
		<path class="st3" d="M173.1,523.6c-22.2-18.7-40.9-40.9-56.9-65.2c-12.5-20.1-17.3-36.8-13.2-43c4.2-6.2,21.5-6.9,45.1,0
			c29.1,9,56.9,23.6,79.7,43.7c23.6,20.1,41.6,45.1,54.8,72.8c9.7,22.2,11.8,40.2,7.6,43.7c-4.9,4.9-22.2,2.1-44.4-6.2
			C219.5,558.3,195.3,542.4,173.1,523.6z"/>
		<path class="st2" d="M395.7,937.6c-12.5-33.3-22.2-68-29.1-102.6c-4.9-28.4-5.5-48.5,1.4-52.7s24.3,5.5,46.5,27
			c27,28.4,47.8,61.7,61.7,98.5c13.9,36.8,19.4,75.6,16.6,114.4c-2.8,30.5-10.4,49.2-15.3,50.6c-6.9,1.4-20.1-13.9-34.7-38.8
			C423.4,1003.5,408.2,970.9,395.7,937.6z"/>
		<path class="st4" d="M452.5,902.9c11.1-39.5,28.4-77.7,51.3-111.6c18-26.4,34.7-40.9,42.3-38.1c7.6,2.8,10.4,23.6,9,55.5
			c-2.1,40.2-9,79.7-20.1,117.9c-11.1,38.8-26.4,75.6-45.8,111c-15.9,27.7-29.8,44.4-35.4,43c-6.9-1.4-13.9-22.2-15.3-54.8
			C436.6,984.1,441.4,943.2,452.5,902.9z"/>
		<path class="st3" d="M501.8,586c15.3-36.8,36.1-70.7,62.4-99.9c20.8-22.9,38.8-34,45.8-30.5s6.9,24.3,2.1,54.1
			c-6.2,37.4-17.3,73.5-31.9,108.9c-7.6,18.7-16.6,37.4-27,55.5c-8.3,14.6-17.3,29.1-27.7,43c-8.3,11.1-14.6,20.1-19.4,27
			c-4.9,6.9-8.3,11.8-11.1,11.8c-2.8,0-8.3-3.5-12.5-13.2c-4.9-13.2-6.9-27-6.2-40.9c0.7-18,2.8-36.1,6.9-54.1
			C487.2,626.3,493.4,605.5,501.8,586z"/>
		<path class="st2" d="M389.4,502.1c-25-87.4-20.8-166.4-6.2-171.3c14.6-4.9,63.1,58.9,88.1,147.7s12.5,169.2,2.1,172
			C459.5,654,413.7,589.5,389.4,502.1z"/>
		<path class="st2" d="M475.4,326.7c6.2-49.2,18.7-97.1,36.8-142.9c15.3-35.4,29.8-56.2,37.4-54.8c14.6,2.8,24.3,97.8,10.4,208.7
			c-6.2,47.2-17.3,95-32.6,140.8c-12.5,36.1-24.3,58.3-29.8,57.6c-6.9-0.7-15.9-24.3-21.5-62.4C469.2,425.2,469.2,375.2,475.4,326.7
			z"/>
		<path class="st5" d="M396.4,1172.7c138,0,249.6-12.5,253.8-28.4l-20.1,239.9c0,113.7-104.7,207.3-233,207.3l0,0
			c-128.3,0-233-92.9-233-207.3l-20.1-240.6l0,0C145.3,1159.5,258.4,1172.7,396.4,1172.7z"/>
		<path class="st6" d="M641.2,1246.9c-17.3,0.7-34,7.6-46.5,20.1c-25.7,25.7-42.3,64.5-63.1,93.6c-7.6-15.9-14.6-32.6-20.8-49.2
			c-7.6-20.1-34-38.8-54.8-22.2c-21.5,16.6-40.2,37.4-53.4,61c-12.5,20.8-22.9,45.8-42.3,61.7s-40.2,19.4-47.8-7.6
			c-6.9-23.6-4.2-49.2-11.8-72.8c-6.2-20.1-16.6-40.2-36.8-49.2c-24.3-10.4-47.2,2.8-68.7,13.2c-12.5,6.2-25,13.2-37.4,20.8
			l4.2,50.6c21.5-13.9,48.5-30.5,70.7-33.3c13.9-2.1,13.2,7.6,13.9,20.8c0.7,11.8,0.7,23.6,1.4,35.4c1.4,24.3,4.9,48.5,19.4,68.7
			c30.5,43,88.1,40.9,128.3,13.9c20.8-14.6,38.1-33.3,51.3-55.5c4.9-6.9,9-14.6,13.2-22.2c17.3,40.2,43.7,76.3,87.4,61
			c27-9.7,44.4-38.8,61-61c4.9-6.9,13.9-23.6,23.6-38.1L641.2,1246.9z"/>
		<path class="st4" d="M341.6,635.3c9.7-51.3,25.7-100.6,47.8-147.7c17.3-36.1,34-56.9,41.6-55.5c14.6,4.2,16.6,103.3-5.5,219.1
			c-5.5,29.1-12.5,56.2-20.1,81.1s-15.3,45.1-20.1,62.4c-4.9,17.3-8.3,31.9-11.1,43c-2.8,11.1-4.2,18-6.9,18.7
			c-2.8,0.7-9.7-2.8-16.6-13.9c-9-15.3-15.3-31.9-18-49.2c-3.5-24.3-4.2-49.2-2.1-73.5C332.6,691.4,336.7,663,341.6,635.3z"/>
		<path class="st0" d="M649.5,1140.8h-39.5c0.7,0.7,0.7,1.4,0.7,2.1v0.7c-0.7,13.9-95.7,25-213.6,25s-213.6-11.1-214.3-25
			c0,0,0,0,0-0.7c0-0.7,0-1.4,0.7-2.1h-39.5c-0.7,0.7-0.7,1.4-0.7,2.1c0,0,0,0,0,0.7c0.7,15.9,114.4,29.1,253.8,29.1
			s253.1-13.2,253.8-29.1c0,0,0,0,0-0.7C650.2,1142.2,649.5,1141.5,649.5,1140.8z"/>
		<path class="st7" d="M2301.3,952.2c-3.5-1.4-4.9-5.5-3.5-9c1.4-2.8,3.5-4.2,6.2-4.2h34v-34c0-4.2,2.8-6.9,6.9-6.9
			c4.2,0,6.9,2.8,6.9,6.9v47.8h-47.8C2303.4,952.9,2302,952.9,2301.3,952.2z"/>
		<path class="st7" d="M1605.1,951.5c-3.5-1.4-4.9-5.5-3.5-9c1.4-2.8,3.5-4.2,6.2-4.2h87.4c4.2,0,6.9,2.8,6.9,6.9
			c0,4.2-2.8,6.9-6.9,6.9h-87.4C1606.4,952.2,1605.8,952.2,1605.1,951.5z M1779.1,951.5c-3.5-1.4-5.5-5.5-4.2-9
			c1.4-2.8,3.5-4.9,6.9-4.2h86.7c4.2,0,6.9,2.8,6.9,6.9c0,4.2-2.8,6.9-6.9,6.9h-87.4C1780.5,952.2,1779.8,952.2,1779.1,951.5
			L1779.1,951.5z M1953.2,951.5c-3.5-1.4-4.9-5.5-3.5-9c1.4-2.8,3.5-4.2,6.2-4.2h87.4c4.2,0,6.9,2.8,6.9,6.9c0,4.2-2.8,6.9-6.9,6.9
			h-87.4C1955.3,952.2,1953.9,952.2,1953.2,951.5L1953.2,951.5z M2127.2,951.5c-3.5-1.4-5.5-5.5-4.2-9c1.4-2.8,3.5-4.2,6.9-4.2h87.4
			c4.2,0,6.9,2.8,6.9,6.9c0,4.2-2.8,6.9-6.9,6.9H2130C2129.3,952.2,2127.9,952.2,2127.2,951.5L2127.2,951.5z"/>
		<path class="st7" d="M1472.6,952.2v-47.8c0-4.2,2.8-6.9,6.9-6.9s6.9,2.8,6.9,6.9v34h34c4.2,0,6.9,2.8,6.9,6.9s-2.8,6.9-6.9,6.9
			H1472.6z"/>
		<path class="st7" d="M1476.8,830.1c-2.8-1.4-4.2-3.5-4.2-6.2v-81.1c0-4.2,2.8-6.9,6.9-6.9s6.9,2.8,6.9,6.9v81.1
			c0,4.2-2.8,6.9-6.9,6.9C1478.9,830.1,1477.5,830.1,1476.8,830.1z M1476.8,667.9c-2.8-1.4-4.2-3.5-4.2-6.2v-80.4
			c0-4.2,2.8-6.9,6.9-6.9s6.9,2.8,6.9,6.9v81.1c0,4.2-2.8,6.9-6.9,6.9C1478.9,668.6,1477.5,668.6,1476.8,667.9L1476.8,667.9z
			 M1476.8,506.3c-2.8-1.4-4.2-3.5-4.2-6.2v-81.1c0-4.2,2.8-6.9,6.9-6.9s6.9,2.8,6.9,6.9v81.1c0,4.2-2.8,6.9-6.9,6.9
			C1478.9,507,1477.5,507,1476.8,506.3L1476.8,506.3z"/>
		<path class="st7" d="M1476.8,344.7c-2.8-1.4-4.2-3.5-4.2-6.2v-47.8h47.8c4.2,0,6.9,2.8,6.9,6.9s-2.8,6.9-6.9,6.9h-34v34
			c0,4.2-2.8,6.9-6.9,6.9C1478.9,345.4,1478.2,344.7,1476.8,344.7z"/>
		<path class="st7" d="M1605.1,303.8c-2.8-1.4-4.2-3.5-4.2-6.2c0-4.2,2.8-6.9,6.9-6.9h87.4c4.2,0,6.9,2.8,6.9,6.9s-2.8,6.9-6.9,6.9
			h-86.7C1607.1,304.5,1605.8,304.5,1605.1,303.8z M1779.1,303.8c-2.8-1.4-4.2-3.5-4.2-6.2c0-4.2,2.8-6.9,6.9-6.9h87.4
			c4.2,0,6.9,2.8,6.9,6.9s-2.8,6.9-6.9,6.9h-87.4C1781.2,304.5,1779.8,304.5,1779.1,303.8L1779.1,303.8z M1953.2,303.8
			c-3.5-1.4-5.5-5.5-4.2-9c1.4-2.8,3.5-4.2,6.9-4.2h87.4c4.2,0,6.9,2.8,6.9,6.9s-2.8,6.9-6.9,6.9h-87.4
			C1955.3,304.5,1954.6,304.5,1953.2,303.8L1953.2,303.8z M2127.9,303.8c-3.5-1.4-4.9-5.5-3.5-9c1.4-2.8,3.5-4.2,6.2-4.2h86.7
			c4.2,0,6.9,2.8,6.9,6.9s-2.8,6.9-6.9,6.9H2130C2129.3,304.5,2128.6,304.5,2127.9,303.8L2127.9,303.8z"/>
		<path class="st7" d="M2342.9,345.4c-2.8-1.4-4.2-3.5-4.2-6.2v-34h-34c-4.2,0-6.9-2.8-6.9-6.9s2.8-6.9,6.9-6.9h47.8v47.8
			c0,4.2-2.8,6.9-6.9,6.9C2344.3,346.1,2343.6,345.4,2342.9,345.4z"/>
		<path class="st7" d="M2342.2,830.1c-2.8-1.4-4.2-3.5-4.2-6.2v-81.1c0-4.2,2.8-6.9,6.9-6.9s6.9,2.8,6.9,6.9v81.1
			c0,4.2-2.8,6.9-6.9,6.9C2344.3,830.8,2342.9,830.8,2342.2,830.1z M2342.2,668.6c-2.8-1.4-4.2-3.5-4.2-6.2v-81.1
			c0-4.2,2.8-6.9,6.9-6.9s6.9,2.8,6.9,6.9v81.1c0,4.2-2.8,6.9-6.9,6.9C2344.3,669.3,2343.6,669.3,2342.2,668.6L2342.2,668.6z
			 M2342.2,507c-2.8-1.4-4.2-3.5-4.2-6.2v-81.1c0-4.2,2.8-6.9,6.9-6.9s6.9,2.8,6.9,6.9v81.1c0,4.2-2.8,6.9-6.9,6.9
			C2344.3,507.7,2343.6,507,2342.2,507L2342.2,507z"/>
		<path class="st8" d="M514.9,389.8h1466.7c52,0,94.3,42.3,94.3,94.3v927.2c0,52-42.3,94.3-94.3,94.3H514.9
			c-52,0-94.3-42.3-94.3-94.3V484.1C419.9,432.1,462.2,389.8,514.9,389.8z"/>
		<path class="st9" d="M508,449.4h1480.5c13.9,0,25,11.1,25,25v925.8c0,13.9-11.1,25-25,25H508c-13.9,0-25-11.1-25-25V474.4
			C483,460.5,494.1,449.4,508,449.4z"/>
		<path class="st10" d="M2256.9,1952.8H239.6c-31.2,0-56.9-25.7-56.9-56.9c0-9,2.1-18,6.2-26.4l204.6-314.8
			c15.9-30.5,47.8-49.2,81.8-49.2h1544.3c34,0,65.9,18.7,81.8,49.2l204.6,314.8c14.6,27.7,4.2,61.7-23.6,77
			C2274.9,1950.8,2265.9,1952.8,2256.9,1952.8z"/>
		<path class="st11" d="M2313.1,1894.6c0.7,31.2-23.6,57.6-54.8,58.3c-0.7,0-1.4,0-2.1,0H239.6c-31.2,0-56.9-25.7-56.9-56.9
			c0-0.7,0-1.4,0-2.1l0,0v49.9l0,0c0,31.2,25.7,56.2,56.9,56.2h2016.6c31.2,0,56.2-25,56.9-56.2l0,0V1894.6L2313.1,1894.6z"/>
		<path class="st12" d="M1640.4,1911.9h-785c-9.7,0-18-8.3-18-18c0-2.8,0.7-5.5,2.1-8.3l30.5-101.2c4.9-9.7,15.3-15.9,26.4-15.9
			h703.2c11.1,0,20.8,6.2,26.4,15.9l30.5,101.2c4.9,9,1.4,20.1-7.6,24.3C1646.7,1911.2,1643.9,1911.9,1640.4,1911.9z"/>
		<path class="st13" d="M1928.9,1733.7H567.6c-11.8,0-21.5-9.7-21.5-21.5c0-3.5,0.7-6.9,2.8-10.4l57.6-119.3
			c6.2-11.1,18-18.7,31.2-18.7h1222.6c13.2,0,25,6.9,31.2,18.7l57.6,119.3c5.5,10.4,1.4,23.6-9,29.1
			C1935.8,1733,1932.4,1733.7,1928.9,1733.7z"/>
		<path class="st14" d="M483,536.1h1530.5l0,0v864c0,13.9-11.1,25-25,25l0,0H508c-13.9,0-25-11.1-25-25l0,0V536.1L483,536.1z"/>
		<path class="st15" d="M745.9,663h492.4c8.3,0,14.6,6.2,14.6,14.6v207.3c0,8.3-6.2,14.6-14.6,14.6H745.9c-8.3,0-14.6-6.2-14.6-14.6
			V677.6C731.3,669.9,737.5,663,745.9,663z"/>
		<path class="st15" d="M1355.4,955.7H1750c8.3,0,14.6,6.2,14.6,14.6v313.4c0,8.3-6.2,14.6-14.6,14.6h-394.6
			c-8.3,0-14.6-6.2-14.6-14.6V970.2C1340.9,961.9,1347.8,955.7,1355.4,955.7z"/>
		<path class="st15" d="M744.5,956.3h494.4c7.6,0,13.9,6.2,13.9,13.9l0,0c0,7.6-6.2,13.9-13.9,13.9H744.5c-7.6,0-13.9-6.2-13.9-13.9
			l0,0C731.3,962.6,737.5,956.3,744.5,956.3z"/>
		<path class="st15" d="M744.5,1017.4h355.7c7.6,0,13.9,6.2,13.9,13.9l0,0c0,7.6-6.2,13.9-13.9,13.9H744.5
			c-7.6,0-13.9-6.2-13.9-13.9l0,0C731.3,1023.6,737.5,1017.4,744.5,1017.4z"/>
		<path class="st15" d="M744.5,1078.4h425.1c7.6,0,13.9,6.2,13.9,13.9l0,0c0,7.6-6.2,13.9-13.9,13.9H744.5
			c-7.6,0-13.9-6.2-13.9-13.9l0,0C731.3,1084.6,737.5,1078.4,744.5,1078.4z"/>
		<path class="st15" d="M744.5,1209.5h494.4c7.6,0,13.9,6.2,13.9,13.9l0,0c0,7.6-6.2,13.9-13.9,13.9H744.5
			c-7.6,0-13.9-6.2-13.9-13.9l0,0C731.3,1215.7,737.5,1209.5,744.5,1209.5z"/>
		<path class="st15" d="M744.5,1270.5h286.4c7.6,0,13.9,6.2,13.9,13.9l0,0c0,7.6-6.2,13.9-13.9,13.9H744.5
			c-7.6,0-13.9-6.2-13.9-13.9l0,0C731.3,1276.7,737.5,1270.5,744.5,1270.5z"/>
		<path class="st15" d="M1353.3,663h390.4c7.6,0,13.9,6.2,13.9,13.9l0,0c0,7.6-6.2,13.9-13.9,13.9h-390.4c-7.6,0-13.9-6.2-13.9-13.9
			l0,0C1340.2,669.3,1345.7,663,1353.3,663z"/>
		<path class="st15" d="M1353.3,724h272.5c7.6,0,13.9,6.2,13.9,13.9l0,0c0,7.6-6.2,13.9-13.9,13.9h-272.5c-7.6,0-13.9-6.2-13.9-13.9
			l0,0C1340.2,730.3,1345.7,724,1353.3,724z"/>
		<path class="st15" d="M1353.3,785.1h328c7.6,0,13.9,6.2,13.9,13.9l0,0c0,7.6-6.2,13.9-13.9,13.9h-328c-7.6,0-13.9-6.2-13.9-13.9
			l0,0C1340.2,791.3,1345.7,785.1,1353.3,785.1z"/>
		<path class="st15" d="M1353.3,846.1h376.5c7.6,0,13.9,6.2,13.9,13.9l0,0c0,7.6-6.2,13.9-13.9,13.9h-376.5
			c-7.6,0-13.9-6.2-13.9-13.9l0,0C1340.2,852.3,1345.7,846.1,1353.3,846.1z"/>
		<circle class="st16" cx="539.2" cy="492.4" r="15.9"/>
		<circle class="st17" cx="599.5" cy="492.4" r="15.9"/>
		<circle class="st18" cx="659.9" cy="492.4" r="15.9"/>
		<polygon class="st19" points="1583.6,1298.2 1395.6,1298.2 1395.6,1119.3 1489.9,1053.4 1583.6,1119.3 		"/>
		<rect x="1456" y="1199.1" class="st20" width="66.6" height="99.2"/>
		<polygon class="st21" points="1583.6,1119.3 1710.5,1119.3 1616.8,1053.4 1489.9,1053.4 		"/>
		<rect x="1583.6" y="1119.3" class="st20" width="126.9" height="178.2"/>
		<polygon class="st22" points="860.3,899.5 763.2,899.5 763.2,807.9 811.7,774 860.3,807.9 		"/>
		<rect x="794.4" y="848.9" class="st20" width="34.7" height="51.3"/>
		<polygon class="st21" points="860.3,807.9 925.5,807.9 876.9,774 811.7,774 		"/>
		<rect x="860.3" y="807.9" class="st20" width="65.2" height="91.5"/>
		<polygon class="st19" points="1022.6,899.5 926.2,899.5 926.2,752.5 974,718.5 1022.6,752.5 		"/>
		<rect x="957.4" y="865.5" class="st20" width="34.7" height="34.7"/>
		<polygon class="st16" points="1022.6,752.5 1088.4,752.5 1039.9,718.5 974,718.5 		"/>
		<rect x="1022.6" y="752.5" class="st20" width="65.2" height="147"/>
		<polygon class="st19" points="1167.5,899.5 1088.4,899.5 1088.4,824.6 1128,796.9 1167.5,824.6 		"/>
		<rect x="1114.1" y="869" class="st20" width="28.4" height="30.5"/>
		<polygon class="st23" points="1167.5,824.6 1220.9,824.6 1181.4,796.9 1128,796.9 		"/>
		<rect x="1167.5" y="824.6" class="st20" width="53.4" height="74.9"/>
		<path class="st7" d="M59.3,1519.4c-0.7,0-1.4,0-2.1,0c-2.8-0.7-4.9-3.5-4.9-6.2c1.4-11.1,4.2-21.5,8.3-31.9
			c1.4-2.8,4.2-4.2,6.9-3.5c2.8,0.7,4.2,4.2,3.5,6.9c-3.5,9.7-6.2,19.4-7.6,29.8C62.8,1517.4,61.4,1518.7,59.3,1519.4z"/>
		<path class="st7" d="M978.9,1608.2c-0.7,0-1.4,0-2.1,0l-7.6-0.7c-18.7-1.4-37.4-3.5-58.3-6.2c-2.8-0.7-4.9-2.8-4.9-6.2
			c0.7-2.8,2.8-4.9,6.2-4.9l0,0c20.1,2.8,38.8,4.2,57.6,6.2l7.6,0.7c2.8,0,4.9,2.8,4.9,5.5C982.3,1605.4,980.9,1607.5,978.9,1608.2
			L978.9,1608.2z M847.8,1590.9c-0.7,0-1.4,0-2.8,0c-21.5-4.9-43-10.4-64.5-18c-2.8-0.7-4.2-4.2-3.5-6.9l0,0
			c0.7-2.8,4.2-4.2,6.9-3.5l0,0c20.8,6.9,41.6,13.2,63.1,17.3c2.8,0.7,4.9,3.5,4.2,6.2C851.3,1588.8,849.9,1590.9,847.8,1590.9z
			 M724.4,1546.5c-1.4,0.7-2.8,0-4.2-0.7c-19.4-11.1-37.4-24.3-54.1-38.8c-2.1-2.1-2.1-5.5-0.7-7.6c2.1-2.1,5.5-2.1,7.6-0.7
			c15.9,14.6,34,27,52.7,37.4c2.8,1.4,3.5,4.9,2.1,7.6C726.4,1545.1,725.8,1545.8,724.4,1546.5z M626.6,1458.4
			c-2.1,0.7-4.9,0-5.5-2.1c-13.2-18-24.3-37.4-33.3-58.3c-1.4-2.8,0-6.2,2.8-6.9c2.8-0.7,6.2,0,6.9,2.8
			c8.3,20.1,19.4,38.8,31.9,56.2c2.1,2.1,1.4,5.5-1.4,7.6l0,0C628,1458.4,627.3,1458.4,626.6,1458.4z M642.5,1381.4
			c-11.8,3.5-23.6,5.5-36.1,6.9c-2.8,0.7-5.5-1.4-6.2-4.2c-0.7-2.8,1.4-5.5,4.2-6.2h0.7c11.8-1.4,23.6-3.5,34.7-6.9l0,0
			c9.7-2.8,18.7-5.5,27.7-9.7c2.8-1.4,6.2-0.7,7.6,2.1s0.7,6.2-2.1,7.6c0,0-0.7,0-0.7,0.7C662.7,1375.2,652.9,1378.7,642.5,1381.4
			L642.5,1381.4z M541.3,1389.8c-0.7,0-1.4,0-2.1,0c-19.4-1.4-39.5-4.2-65.9-8.3c-2.8-0.7-4.9-3.5-4.2-6.2s3.5-4.9,6.2-4.2
			c25.7,4.2,45.8,6.9,65.2,8.3c2.8,0,4.9,2.8,4.9,6.2C544.8,1387.7,543.4,1389.1,541.3,1389.8L541.3,1389.8z M725.8,1336.4
			c-2.1,0.7-4.2,0-5.5-1.4c-2.1-2.1-2.1-5.5,0-7.6c8.3-7.6,15.3-16.6,21.5-26.4c4.9-8.3,9-17.3,11.8-27c0.7-2.8,4.2-4.9,6.9-3.5
			c2.8,1.4,4.9,4.2,3.5,6.9l0,0c-2.8,10.4-7.6,20.1-13.2,29.8c-6.2,10.4-13.9,20.1-22.9,28.4
			C727.8,1335.7,727.1,1336.4,725.8,1336.4L725.8,1336.4z M576,1338.4L576,1338.4c-3.5,0.7-6.2-1.4-6.9-4.9
			c-3.5-22.2-3.5-45.1,0.7-67.3c0.7-2.8,3.5-4.9,6.2-4.2c2.8,0.7,4.9,3.5,4.2,6.2c-4.2,20.8-4.2,43-0.7,63.8
			C580.1,1335,578.7,1337.7,576,1338.4z M410.9,1370.3c-0.7,0-1.4,0-2.1,0c-7.6-1.4-15.3-2.8-22.9-4.2c-15.3-2.1-28.4-4.2-42.3-5.5
			c-2.8,0-5.5-2.8-5.5-5.5c0-2.8,2.8-5.5,5.5-5.5h0.7c13.9,1.4,27.7,2.8,43,5.5c7.6,1.4,15.3,2.8,22.9,4.2c2.8,0.7,4.9,3.5,4.2,6.2
			l0,0C414.4,1367.6,413,1369,410.9,1370.3L410.9,1370.3z M102.3,1433.4c-2.8,0.7-6.2-0.7-6.9-4.2c-0.7-2.1,0-3.5,1.4-4.9
			c15.3-16.6,33.3-30.5,52.7-42.3c2.8-1.4,6.2-0.7,7.6,2.1c1.4,2.8,0.7,5.5-2.1,7.6l0,0c-18.7,10.4-35.4,24.3-49.9,39.5
			C103.7,1432.1,103,1432.8,102.3,1433.4L102.3,1433.4z M279.9,1358.6h-1.4c-21.5,0.7-43,4.2-64.5,9c-2.8,0.7-5.5-1.4-6.2-4.9
			c-0.7-2.8,1.4-4.9,3.5-6.2l0,0c21.5-5.5,43.7-8.3,65.9-9.7c2.8,0,5.5,2.8,5.5,5.5C283.3,1355.8,281.9,1357.9,279.9,1358.6
			L279.9,1358.6z M760.4,1216.4c-2.8,0.7-5.5-0.7-6.2-3.5c-4.9-16.6-15.9-30.5-30.5-39.5c-2.8-2.1-6.2-3.5-9-4.9
			c-2.8-0.7-4.9-4.2-3.5-6.9c1.4-2.8,4.2-4.9,6.9-3.5c0.7,0,0.7,0,1.4,0.7c3.5,1.4,7.6,3.5,11.1,5.5c16.6,10.4,29.1,26.4,35.4,45.8
			C765.3,1212.2,763.9,1215,760.4,1216.4C761.1,1216.4,761.1,1216.4,760.4,1216.4L760.4,1216.4z M602.3,1212.2
			c-1.4,0.7-3.5,0-4.9-0.7c-2.1-2.1-2.8-5.5-1.4-7.6c13.9-18.7,31.9-33.3,53.4-42.3c2.8-1.4,6.2,0,6.9,2.8c1.4,2.8,0,6.2-2.8,6.9
			c0,0,0,0-0.7,0c-19.4,8.3-36.1,22.2-49.2,38.8C604.4,1211.5,603.7,1212.2,602.3,1212.2L602.3,1212.2z"/>
		<path class="st7" d="M1075.3,1626.2c-1.4,0-2.8,0-4.2-0.7c-9-4.2-18.7-7.6-29.1-9c-2.8-0.7-4.9-3.5-4.2-6.2
			c0.7-2.8,3.5-4.9,6.2-4.2c11.1,2.1,21.5,5.5,31.9,10.4c2.8,1.4,3.5,4.2,2.1,6.9C1078,1624.8,1076.6,1626.2,1075.3,1626.2z"/>
	</g>
</g>
</svg>
