<?xml version="1.0" encoding="utf-8"?>
<!-- Generator: Adobe Illustrator 24.1.0, SVG Export Plug-In . SVG Version: 6.00 Build 0)  -->
<svg version="1.1" id="Layer_1" xmlns="http://www.w3.org/2000/svg" xmlns:xlink="http://www.w3.org/1999/xlink" x="0px" y="0px"
	 viewBox="0 0 2645.3 2000" style="enable-background:new 0 0 2645.3 2000;" xml:space="preserve">
<style type="text/css">
	.st0{fill:#B3B6DE;}
	.st1{fill:#FFFFFF;}
	.st2{fill:#453069;}
	.st3{fill:#C5C6E3;}
	.st4{fill:#999BC9;}
	.st5{fill:#D8DBF2;}
	.st6{fill:#A7A9D6;}
	.st7{fill:#36C5F0;}
	.st8{fill:#2EB67D;}
	.st9{fill:#ECB22E;}
	.st10{fill:#E01E5A;}
	.st11{fill:#E8E8F7;}
	.st12{fill:#ACAFE0;}
	.st13{fill:#868AE0;}
</style>
<g id="Layer_2_1_">
	<g id="illustrations">
		<path class="st0" d="M412.1,0h1821.4c64.8,0,117.2,52.5,117.2,117.2v1150.8c0,64.8-52.5,117.2-117.2,117.2H412.1
			c-64.8,0-117.2-52.5-117.2-117.2V117.2C294.8,52.5,347.3,0,412.1,0z"/>
		<path class="st1" d="M403.6,74h1838.2c17.1,0,31,13.9,31,31v1149.7c0,17.1-13.9,31-31,31H403.6c-17.1,0-31-13.9-31-31V105
			C372.6,87.8,386.5,74,403.6,74z"/>
		<path class="st2" d="M995.4,74H403.7c-17.1,0-31.1,13.9-31.1,31v1149.5c0.1,17.1,14,31,31.1,31h591.7V74z"/>
		<path class="st3" d="M2574.9,1941H70.5c-38.9,0-70.4-31.5-70.4-70.3c0-11.6,2.8-23,8.3-33.2l253.9-390.7
			c20-37.5,59-60.9,101.5-60.9h1917.8c42.5,0,81.5,23.4,101.5,60.9l253.9,391.3c18,34.5,4.6,77-29.9,94.9
			C2597.2,1938.2,2586.2,1940.9,2574.9,1941z"/>
		<path class="st4" d="M2645.3,1868.4c1.2,38.9-29.5,71.4-68.4,72.5c-0.7,0-1.3,0-2,0H70.5c-38.9,0.1-70.4-31.4-70.5-70.2
			c0-0.8,0-1.6,0-2.3l0,0v62.2l0,0c0.5,38.5,31.9,69.4,70.4,69.4h2504.5c38.5,0,69.9-30.9,70.4-69.4l0,0V1868.4z"/>
		<path class="st5" d="M1810.2,1889.9h-975c-12.8-0.5-22.7-11.3-22.1-24.1c0.1-3.1,0.9-6.2,2.2-9l38.3-125.5
			c6.4-12,18.9-19.5,32.5-19.6h873.1c13.6,0,26.1,7.6,32.5,19.6l38.3,125.5c5.5,11.5,0.6,25.4-10.9,30.9
			C1816.4,1889,1813.3,1889.8,1810.2,1889.9z"/>
		<path class="st6" d="M2167.7,1668.8H477.9c-14.7-0.2-26.5-12.2-26.3-26.9c0-4.3,1.1-8.5,3.2-12.3l70.6-148
			c7.5-14.2,22.3-23.1,38.4-23.1h1517.8c16.1,0,30.9,8.9,38.4,23.1l71.2,148.3c6.8,13,1.8,29.1-11.2,35.9
			C2176.3,1667.7,2172,1668.7,2167.7,1668.8z"/>
		<path class="st7" d="M623.4,451.4c-25.6,0-46.3,20.7-46.3,46.3c0,6,1.2,11.9,3.5,17.5c7.1,17.1,23.7,28.2,42.2,28.2H669v-46.3
			c0-25.3-20.3-45.9-45.6-46.3V451.4z M623.4,573.3H501.7c-25.2,4-42.5,27.8-38.4,53c3.2,19.8,18.7,35.3,38.4,38.4h121.8
			c25.2-4,42.5-27.8,38.4-53C658.7,591.9,643.2,576.4,623.4,573.3z"/>
		<path class="st8" d="M912.3,618.8c0-25.2-20.4-45.6-45.6-45.6c-25.2,0-45.6,20.4-45.6,45.6c0,0,0,0.1,0,0.1v45.7h45.6
			c25.2,0,45.6-20.4,45.6-45.6C912.3,618.8,912.3,618.8,912.3,618.8z M790.7,618.8V496.9c1.3-25.2-18.1-46.7-43.4-48
			c-25.2-1.3-46.7,18.1-48,43.4c-0.1,1.5-0.1,3.1,0,4.6v121.9c0.7,25.6,22,45.7,47.6,45c11.3-0.3,22.2-4.8,30.4-12.6
			C785.9,642.5,790.6,630.9,790.7,618.8"/>
		<path class="st9" d="M745.1,908.3c25.2-4,42.5-27.8,38.4-53c-3.2-19.8-18.7-35.3-38.4-38.4h-46.3v46.3
			C699.4,888.3,719.9,908.3,745.1,908.3z M745.1,786.3h121.6c25.2,1.3,46.7-18.1,48-43.4c1.3-25.2-18.1-46.7-43.4-48
			c-1.5-0.1-3.1-0.1-4.6,0H745.1c-25.2-0.4-45.9,19.7-46.3,44.9c0,0.2,0,0.5,0,0.7c0,6,1.2,11.9,3.5,17.5
			c4.6,11.2,13.5,20.2,24.8,24.8c5.5,2.3,11.5,3.5,17.5,3.5"/>
		<path class="st10" d="M456.1,740.7c0,6,1.2,11.9,3.5,17.5c2.3,5.6,5.7,10.7,10,14.9c4.2,4.2,9.2,7.5,14.7,9.8
			c23.3,9.7,50.1-1.4,59.7-24.8c2.3-5.5,3.5-11.5,3.5-17.5V695h-45.7c-25.2,0-45.6,20.4-45.6,45.6
			C456.1,740.7,456.1,740.7,456.1,740.7z M577.7,740.7v121.9c1.3,25.2,22.7,44.6,48,43.4c23.4-1.2,42.2-19.9,43.4-43.4V740.7
			c0-6-1.2-11.9-3.5-17.5c-4.7-11.1-13.5-20-24.7-24.7c-23.8-9.3-50.7,2.4-60,26.2C578.9,729.9,577.8,735.3,577.7,740.7z"/>
		<path class="st11" d="M1338.2,245.3h774.3c7.9,0,14.2,6.4,14.2,14.2v132.2c0,7.9-6.4,14.2-14.2,14.2h-774.3
			c-7.9,0-14.2-6.4-14.2-14.2V259.5C1324,251.6,1330.4,245.3,1338.2,245.3z"/>
		<path class="st12" d="M1148.3,245.3h86.7c6.9,0,12.5,5.6,12.5,12.5v86.7c0,6.9-5.6,12.5-12.5,12.5h-86.7
			c-6.9,0-12.5-5.6-12.5-12.5v-86.7C1135.8,250.9,1141.4,245.3,1148.3,245.3z"/>
		<path class="st11" d="M1338.2,525.5h774.3c7.9,0,14.2,6.4,14.2,14.2v248.6c0,7.9-6.4,14.2-14.2,14.2h-774.3
			c-7.9,0-14.2-6.4-14.2-14.2V539.7C1324,531.8,1330.4,525.5,1338.2,525.5z"/>
		<path class="st13" d="M1148.3,525.5h86.7c6.9,0,12.5,5.6,12.5,12.5v86.7c0,6.9-5.6,12.5-12.5,12.5h-86.7
			c-6.9,0-12.5-5.6-12.5-12.5V538C1135.8,531.1,1141.4,525.5,1148.3,525.5z"/>
		<path class="st11" d="M1338.2,890.6h774.3c7.9,0,14.2,6.4,14.2,14.2v195c0,7.9-6.4,14.2-14.2,14.2h-774.3
			c-7.9,0-14.2-6.4-14.2-14.2v-195C1324,897,1330.4,890.6,1338.2,890.6z"/>
		<path class="st12" d="M1148.3,890.6h86.7c6.9,0,12.5,5.6,12.5,12.5v86.7c0,6.9-5.6,12.5-12.5,12.5h-86.7
			c-6.9,0-12.5-5.6-12.5-12.5v-86.7C1135.8,896.2,1141.4,890.6,1148.3,890.6z"/>
	</g>
</g>
</svg>
