<?xml version="1.0" encoding="utf-8"?>
<!-- Generator: Adobe Illustrator 24.1.0, SVG Export Plug-In . SVG Version: 6.00 Build 0)  -->
<svg version="1.1" id="Layer_1" xmlns="http://www.w3.org/2000/svg" xmlns:xlink="http://www.w3.org/1999/xlink" x="0px" y="0px"
	 viewBox="0 0 2206.8 2000" style="enable-background:new 0 0 2206.8 2000;" xml:space="preserve">
<style type="text/css">
	.st0{fill:#110580;}
	.st1{fill:#D5D5ED;}
	.st2{fill:#FFFFFF;}
	.st3{fill:#E8E8F7;}
	.st4{fill:#FF5856;}
	.st5{fill:#FCFAF8;}
	.st6{fill:#D6D7F0;}
	.st7{fill:#4E53BA;}
	.st8{fill:#868AE0;}
	.st9{fill:#EBDBCD;}
</style>
<g id="Layer_2_1_">
	<g id="illustrations">
		<path class="st0" d="M784.6,1719.9c-1-0.2-1.9-0.6-2.8-1.2c-3.3-2.3-4.1-6.9-1.7-10.2c0,0,0,0,0-0.1c8.7-12.2,18.7-23.4,29.9-33.4
			c2.8-2.9,7.5-3.1,10.4-0.2c2.9,2.8,3.1,7.5,0.2,10.4c-0.2,0.3-0.5,0.5-0.8,0.7c-10.4,9.3-19.7,19.8-27.8,31.1
			C790.4,1719.4,787.5,1720.5,784.6,1719.9z"/>
		<path class="st0" d="M1301.3,1760.1c-1.1-0.2-2.1-0.7-2.9-1.3c-8.5-6.4-16.9-12.8-25.1-19.2c-16.5-12.1-32-22.9-47.2-32.9
			c-3.6-1.9-5-6.4-3-10c1.9-3.6,6.4-5,10-3c0.4,0.2,0.7,0.4,1.1,0.7c15.6,10.1,31.3,21,48,33.4c8.5,6.4,16.9,12.8,25.3,19.2
			c3.1,2.6,3.5,7.3,0.9,10.4c-1.8,2.1-4.6,3.1-7.3,2.4L1301.3,1760.1z M889.8,1642.4c-4-1-6.5-5-5.5-9c0.6-2.4,2.3-4.3,4.5-5.2
			c28.8-10.4,59.1-16.4,89.7-17.6c4.1-0.2,7.5,3,7.7,7.1c0.2,4.1-3,7.5-7.1,7.7c-29.1,1.1-57.9,6.7-85.3,16.7
			c-1.2,0.4-2.6,0.6-3.8,0.3L889.8,1642.4z M1150.4,1664.2c-0.5-0.1-1-0.3-1.5-0.6c-26.5-12.4-54.2-22.1-82.6-29
			c-3.9-0.9-6.4-4.8-5.5-8.8c0,0,0-0.1,0-0.1c0.9-3.9,4.8-6.4,8.7-5.5l0,0c29.5,7.2,58.2,17.3,85.7,30.3c3.7,1.7,5.4,6,3.7,9.7
			c-1.4,3.2-5,5-8.4,4.2L1150.4,1664.2z"/>
		<path class="st1" d="M1854.9,269.2c-9.4-3.2-19.8,1.2-24.1,10.1l-168.4,325.8c6.8,3.5,14.9,3.9,22,1l506.4-212.9
			c7.1-3,12.5-9.1,14.7-16.5L1854.9,269.2z"/>
		<path class="st2" d="M2058,31.5L2058,31.5c-0.6-0.3-1.3-0.5-2-0.7l0,0C2056.7,31,2057.3,31.2,2058,31.5z"/>
		<path class="st2" d="M1861.4,351.8c9.2,2,18.7-1.9,23.8-9.9l172.4-310.4c-0.6,0-1.2-0.6-1.9-0.7l0,0h-0.4h-0.5
			c-1.6-0.4-3.3-0.7-5-0.8l2.3,0.3c-4.6-0.6-9.2,0-13.5,1.7L1532.2,245c-6.1,2.6-11,7.4-13.7,13.5L1861.4,351.8z"/>
		<path class="st3" d="M1803,335.8l-284.2-77.7c-0.4,0.9-0.9,1.7-1.2,2.7l0,0c-2.1,6.4-1.9,13.3,0.8,19.6l130.3,309.9
			c2.7,6.4,7.6,11.7,13.8,14.8L1803,335.8z"/>
		<path class="st3" d="M2203.5,381.3l-0.5,0.9L2203.5,381.3z"/>
		<path class="st3" d="M2203,382.2c-0.8,1.5-1.8,2.9-2.9,4.2C2201.1,385.1,2202.1,383.7,2203,382.2z"/>
		<path class="st3" d="M2057.6,31.5l-142.9,257.4l290.8,87.8c-0.5,1.6-1.2,3.2-2,4.7c4-7.7,4.4-16.8,1-24.9L2074.2,46.6
			C2071.1,39.4,2065.1,33.9,2057.6,31.5z"/>
		<path class="st3" d="M2060.7,32.4c-0.9-0.4-1.9-0.6-2.8-1l0,0C2058.9,32.1,2059.8,32.1,2060.7,32.4z"/>
		<path class="st1" d="M462.4,1619.3c-8.3-10.4-23-13-34.3-6L5.3,1856.3c5.1,8.9,13.9,15.1,24,16.9l719.7,126.3
			c10.1,1.7,20.5-1.2,28.3-7.9L462.4,1619.3z"/>
		<path class="st2" d="M860.6,1499.4L860.6,1499.4c-0.6-0.7-1-1.5-1.7-2.2l0,0C859.6,1497.9,860.1,1498.7,860.6,1499.4z"/>
		<path class="st2" d="M410.3,1716.3c8.9,8.9,22.4,11.3,33.8,6l416.7-222.9c-0.6-0.7-1-1.5-1.6-2.2l0,0l-0.4-0.6
			c-0.2-0.1-0.4-0.3-0.5-0.4c-1.6-1.6-3.2-3.1-5.1-4.4c0.8,0.6,1.5,1.3,2.3,2c-4.7-4-10.3-6.7-16.3-7.8l-719.8-126.2
			c-8.7-1.5-17.6,0.4-24.9,5.2L410.3,1716.3z"/>
		<path class="st3" d="M356.4,1656.3l-262-291.4c-1.1,0.6-2.2,1.4-3.3,2.1l0,0c-7,5.6-11.7,13.5-13.3,22.4L0.6,1829.8
			c-1.6,9.1,0.1,18.5,4.7,26.5L356.4,1656.3z"/>
		<path class="st3" d="M771.6,1995.5l-1.2,0.6L771.6,1995.5z"/>
		<path class="st3" d="M770.4,1996.1c-2.1,1-4.2,1.9-6.4,2.6C766.2,1998,768.4,1997.2,770.4,1996.1z"/>
		<path class="st3" d="M860.6,1499.4l-345.4,184.7l262.1,307.7c-1.8,1.4-3.7,2.7-5.6,3.8c10.2-5.7,17.3-15.6,19.2-27.1l76.9-440.4
			C869.6,1518,867,1507.5,860.6,1499.4z"/>
		<path class="st3" d="M863,1502.5c-0.7-1.1-1.5-2.2-2.4-3.1l0,0C861.5,1500.3,862.3,1501.4,863,1502.5z"/>
		<path class="st0" d="M424.6,1331c-0.6,0.8-1.3,1.5-2.1,2.1c-3.4,2.2-8,1.3-10.2-2.1c-8.2-12.5-15.1-25.9-20.4-39.9
			c-1.8-3.7-0.2-8.1,3.4-9.8c3.7-1.8,8.1-0.2,9.8,3.4c0.2,0.4,0.3,0.8,0.4,1.2c5.1,13,11.5,25.5,19.2,37.1
			C426.4,1325.4,426.3,1328.6,424.6,1331z"/>
		<path class="st0" d="M1439.7,597.1c-0.5,0.8-1.1,1.4-1.8,1.9l-8.8,6.4c-20.4,14.9-41.5,30.2-64.1,45.8c-3.3,2.3-7.8,1.5-10.1-1.8
			c0,0-0.1-0.1-0.1-0.2c-2.3-3.4-1.4-7.9,1.9-10.2c0,0,0,0,0,0c22.6-15.4,43.7-30.8,64.1-45.6l8.8-6.4c3.3-2.4,7.9-1.7,10.3,1.6
			c0,0,0,0,0,0C1441.7,591.3,1441.5,594.6,1439.7,597.1z M1291,696.9c-0.6,1-1.5,1.8-2.6,2.4c-26.2,15-53.4,28.2-81.4,39.5
			c-3.7,1.7-8.1,0.1-9.8-3.6c-1.7-3.7-0.1-8.1,3.6-9.8c0.2-0.1,0.5-0.2,0.7-0.3c27.4-11,54-23.9,79.7-38.5c3.5-2,8-0.8,10,2.8
			c0,0,0,0,0,0C1292.5,691.8,1292.5,694.7,1291,696.9L1291,696.9z M1124.9,762c-1.1,1.7-2.8,2.8-4.7,3.2c-29.8,6.1-60.1,9.1-90.4,9
			c-4-0.1-7.3-3.4-7.2-7.4c0-4,3.3-7.3,7.3-7.3c0,0,0,0,0.1,0c29.3,0.2,58.6-2.7,87.4-8.7c3.9-0.9,7.8,1.6,8.7,5.6
			C1126.4,758.3,1126,760.3,1124.9,762z M947.3,760.4c-1.7,2.6-4.8,3.8-7.8,3.1c-29.7-6.7-58.5-16.6-86-29.6
			c-3.7-1.8-5.2-6.2-3.5-9.9c1.8-3.7,6.2-5.2,9.9-3.5c26.5,12.6,54.4,22.1,83,28.6c4,0.9,6.5,4.8,5.6,8.8
			C948.2,758.9,947.8,759.7,947.3,760.4L947.3,760.4z M894.7,667.8c-9.1,13.9-19.2,27.1-30.2,39.6c-2.7,3.1-7.4,3.4-10.4,0.7
			c-3.1-2.7-3.4-7.4-0.7-10.4c10.6-11.9,20.2-24.6,29-37.9l0,0c7.3-11.1,13.8-22.6,19.6-34.5c1.7-3.7,6-5.4,9.7-3.7
			c3.7,1.7,5.4,6,3.7,9.7c-0.1,0.1-0.1,0.3-0.2,0.4C909.2,644.1,902.3,656.2,894.7,667.8z M799.1,766.9c-0.4,0.7-1,1.3-1.7,1.8
			c-24.1,18.1-49,34.9-74.8,50.5c-3.5,2.1-8.1,1-10.3-2.5c-2.1-3.5-1-8.1,2.5-10.3l0,0c30.4-18.7,53.1-34,73.7-49.6
			c3.1-2.5,7.7-2,10.3,1.1c2,2.5,2.2,6.1,0.3,8.8V766.9z M938.9,546.6c-2.1,3.4-6.7,4.5-10.1,2.3c-2.4-1.5-3.7-4.2-3.4-6.9
			c1.2-15.2,0.6-30.5-1.9-45.6c-2.2-13.2-6.3-25.9-12.1-37.9c-1.8-3.7-0.2-8.1,3.5-9.9c3.7-1.8,8.1-0.2,9.9,3.5
			c6.3,13.3,10.8,27.4,13.3,41.9c2.6,16.2,3.3,32.8,2.1,49.2C940,544.4,939.6,545.6,938.9,546.6z M787.4,683.4
			c-0.2,0.2-0.3,0.5-0.5,0.7c-2.6,3.1-7.3,3.5-10.4,0.9c-23.7-19.6-43.9-43.2-59.6-69.7c-2.1-3.5-0.8-8.1,2.7-10.1
			c3.5-2.1,8.1-0.8,10.1,2.7l0,0c14.9,25,34,47.2,56.4,65.8C789,676.1,789.5,680.3,787.4,683.4z M648.1,862.9
			c-0.6,0.9-1.4,1.7-2.3,2.2c-8.9,5.5-17.8,11-26.7,16.5c-17.3,11-32.9,21.5-47.7,32.1c-3.2,2.5-7.8,2-10.4-1.2
			c-2.5-3.2-2-7.8,1.2-10.4c0.1-0.1,0.3-0.2,0.5-0.3c15.1-10.9,30.9-21.6,48.5-32.8c8.9-5.6,17.9-11.2,26.9-16.7
			c3.4-2.2,7.9-1.2,10.1,2.2c1.6,2.5,1.5,5.7-0.2,8.1L648.1,862.9z M390.2,1204.6c-1.4,2.2-3.8,3.4-6.4,3.3
			c-4.1-0.1-7.3-3.4-7.2-7.5c0,0,0,0,0,0c0.6-30.7,6-61,15.9-90.1c1.3-3.9,5.5-5.9,9.4-4.6c3.9,1.3,5.9,5.5,4.6,9.4l0,0
			c-9.4,27.6-14.5,56.4-15.1,85.6C391.3,1202.1,390.9,1203.5,390.2,1204.6z M504.4,969.3c-0.3,0.5-0.6,0.9-1,1.3
			c-21.3,20.3-40.4,42.6-57.2,66.7c-2.4,3.3-7,4.1-10.3,1.8c-3.2-2.3-4.1-6.6-2-10l0,0c17.4-24.9,37.2-48,59.2-69
			c2.9-2.9,7.5-2.9,10.4,0c0,0,0,0,0,0C505.9,962.6,506.3,966.4,504.4,969.3z M865.4,393.4c-2.2,3.3-6.5,4.3-9.9,2.3
			c-19.8-12.3-43.4-16.9-66.3-12.8c-4.6,0.9-9.1,2.1-13.5,3.7c-3.8,1.4-8.1-0.6-9.4-4.5s0.6-8.1,4.5-9.4c5.1-1.8,10.4-3.2,15.8-4.2
			c26.4-4.7,53.7,0.6,76.5,14.7c3.5,2.1,4.7,6.6,2.6,10.1L865.4,393.4z M701.5,531.5c-2.2,3.4-6.8,4.4-10.2,2.1
			c-1.9-1.3-3.1-3.3-3.3-5.6c-2.4-31.2,3.2-62.5,16.2-91c1.8-3.7,6.1-5.2,9.8-3.5c3.7,1.7,5.3,6.1,3.5,9.8
			c-11.9,26.1-17.1,54.7-14.9,83.3C702.8,528.3,702.4,530,701.5,531.5z"/>
		<path class="st0" d="M1553.9,529c-1,1.5-2.5,2.6-4.3,3.1c-13.2,3.9-25.9,9.5-37.7,16.7c-3.5,2-8,0.8-10.1-2.7
			c-2-3.5-0.8-8,2.8-10.1c12.9-7.9,26.8-14,41.3-18.2c3.9-1,7.9,1.4,9,5.3C1555.4,525.1,1555.1,527.3,1553.9,529z"/>
		<circle class="st4" cx="271.9" cy="1366.3" r="71.3"/>
		
			<ellipse transform="matrix(0.2298 -0.9732 0.9732 0.2298 1062.4561 1724.5071)" class="st4" cx="1620.7" cy="191" rx="53.2" ry="53.2"/>
		<path class="st5" d="M1386.5,1101.6c-4.2-33-27.9-60.3-54.2-80.8c-74.3-57.7-174.8-76.9-267.9-61.9c-34.7,5.6-69.4,15.9-98.4,35.8
			c-59.6,41.1-85.5,123.7-62.2,192.3c3.5,7.5,8.6,14.3,14.8,19.8c-29,55-46,95.7-70.5,152.4c57.6-43.7,119.5-81.4,184.7-112.5
			l8.1,4.3c77.8,47.4,180.7,24.4,259-22.1C1346.9,1201.2,1393.4,1155.6,1386.5,1101.6z"/>
		<ellipse class="st6" cx="1033.6" cy="1113.4" rx="28.4" ry="27.1"/>
		<ellipse class="st6" cx="1132.6" cy="1113.4" rx="28.4" ry="27.1"/>
		<ellipse class="st6" cx="1224.8" cy="1113.4" rx="28.4" ry="27.1"/>
		<path class="st2" d="M1240,1225.4c21.1-63,86.9-99.3,150.3-119.2c146.8-45.7,305.3-36.7,446,25.3
			c65.1,28.9,128.2,72.5,156.7,137.8c24.7,56.9,19.2,124.6-9,179.5c-28.3,54.9-77.9,97.9-134.2,123.8c19.6,50.2,49.4,111.7,69,161.9
			l-119.6-70.5c-20-12.8-41.4-23.3-63.8-31.2c-31-9.5-64.1-8.8-96.2-10.7c-90.6-5.3-181.1-32.1-255.1-84.9
			c-74-52.8-130.3-131.9-147-221.1C1231.5,1286,1230.4,1254.4,1240,1225.4z"/>
		<path class="st6" d="M1835.4,1258.3h-429.3c-9.8,0-17.8-8-17.8-17.8l0,0c0-9.8,8-17.8,17.8-17.8h429.3c9.8,0,17.8,8,17.8,17.8l0,0
			C1853.2,1250.4,1845.2,1258.3,1835.4,1258.3z"/>
		<path class="st6" d="M1694.8,1343.3h-288.8c-9.8,0-17.8-8-17.8-17.8l0,0c0-9.8,8-17.8,17.8-17.8h288.8c9.8,0,17.8,8,17.8,17.8l0,0
			C1712.7,1335.4,1704.7,1343.3,1694.8,1343.3z"/>
		<path class="st6" d="M1594.7,1428.3h-188.6c-9.8,0-17.8-8-17.8-17.8l0,0c0-9.8,8-17.8,17.8-17.8h188.6c9.8,0,17.8,8,17.8,17.8l0,0
			C1612.5,1420.4,1604.5,1428.3,1594.7,1428.3z"/>
		<path class="st6" d="M1682,1392.7h118.4c9.8,0,17.8,8,17.8,17.8l0,0c0,9.8-8,17.8-17.8,17.8H1682c-9.8,0-17.8-8-17.8-17.8l0,0
			C1664.2,1400.7,1672.2,1392.7,1682,1392.7z"/>
		<path class="st7" d="M973.6,318.7c0,0,12.2-67,8.8-68.1L523,102.2L973.6,318.7z"/>
		<polygon class="st8" points="1079.2,166.9 644.1,106.3 1026.3,86.7 969,0 523,102.2 1175.5,312.9 		"/>
		<polygon class="st7" points="996.6,155.4 1026.3,86.7 644.1,106.3 		"/>
		<path class="st8" d="M1437.8,1725.5c-2.2-0.3-69.4,45.8-69.4,45.8l156.8,143.1L1336,1801.2l-72,76.9l370.2,109L1437.8,1725.5z"/>
		<polygon class="st7" points="1363.6,1817.9 1368.4,1771.3 1525.2,1914.5 		"/>
		<path class="st9" d="M2112.1,929.5c0.3-7.3,0.3-40.2-13.3-38.5c-26.3,3.1-53.8,16.5-78.1,33.9c22.8-108.7,22.1-221-2-329.3
			c-3.7-16.7-16.5-20.4-26.5-6.9c-11.9,15.9-16.2,44.9-12.5,64.1c18.6,89.4,16.3,181.9-6.8,270.2c-22.3-46.1-57.7-100.1-80.3-61
			c-8.3,15.9-10.8,34.3-7.1,51.9c2.1,9.4,6.4,18.6,14.9,15.8c12.8,3.8,26.3,36.2,32,46.7c10,19.1,18.2,39.1,24.6,59.7
			c0.6,1.9,1.4,3.7,2.3,5.4c3.5,12.3,11.4,24.6,24.2,12.5c16-16,33.1-30.7,51.3-44c19.2-13.3,40.6-22.6,59.8-35.4
			C2107.8,965.6,2111.4,944.6,2112.1,929.5z"/>
		<path class="st9" d="M366.2,561.7c-19.2-40.4-2.8-66.3,9.6-107.2c5.2-17.4,6.9-35.7,4.8-53.7c1.1-20.6-2.4-39.4-16-37.6l-4.4,0.8
			c-3.7-0.7-7.5,0.3-10.4,2.7c-23.9,7.5-47.8,23.8-70.5,33.3c-31.7,13.3-64.5,22.2-96.9,33.8c-25.6,9.2-26.9,112.9,0.4,109
			c22.7-3.7,44.9-9.5,66.5-17.4c-74.5,122-132.7,253.9-153,396.7c-1.9,13.5-5.4,48.1,10.3,55.9c15.7,7.8,23.2-19.9,24.7-30.2
			c21.8-143,98.6-267.3,173.9-389c2.7,35.2,16.8,68.6,40.1,95.1c12.8,14.1,25-22.8,26.2-28.1C377.1,604.4,375.2,581.8,366.2,561.7z"
			/>
	</g>
</g>
</svg>
