<?xml version="1.0" encoding="utf-8"?>
<!-- Generator: Adobe Illustrator 24.1.0, SVG Export Plug-In . SVG Version: 6.00 Build 0)  -->
<svg version="1.1" id="Layer_1" xmlns="http://www.w3.org/2000/svg" xmlns:xlink="http://www.w3.org/1999/xlink" x="0px" y="0px"
	 viewBox="0 0 2879.7 2000" style="enable-background:new 0 0 2879.7 2000;" xml:space="preserve">
<style type="text/css">
	.st0{fill:#C5C6E3;}
	.st1{fill:#E8EAF7;}
	.st2{fill:#AAACE3;}
	.st3{fill:#2B31BA;}
	.st4{fill-rule:evenodd;clip-rule:evenodd;fill:#FF5856;}
	.st5{fill:#110580;}
	.st6{fill:#E69E19;}
	.st7{fill:#FDB62F;}
	.st8{fill:#FF5856;}
	.st9{fill:#EBDBCD;}
	.st10{fill:#F8F1EB;}
	.st11{fill:#4E53BA;}
	.st12{fill:#868AE0;}
</style>
<g id="Layer_2_1_">
	<g id="illustrations">
		<path class="st0" d="M2578.8,0H652.4C595.3,0.2,549,46.5,548.9,103.6v1159.2c0.1,57.1,46.4,103.4,103.5,103.6h653.4v135.3h-220.7
			c-15.3,0-27.7,12.4-27.7,27.7v15.4c0,15.3,12.4,27.7,27.7,27.7H2146c15.3,0,27.7-12.4,27.7-27.7v-15.4c0-15.3-12.4-27.7-27.7-27.7
			h-220.7v-135.3h653.4c57.1-0.2,103.4-46.5,103.5-103.6V103.6C2682.2,46.5,2635.9,0.2,2578.8,0z"/>
		<path class="st1" d="M660,63.7h1911.3c23.4,0,42.4,19,42.4,42.4v1101.5c0,23.4-19,42.4-42.4,42.4H660c-23.4,0-42.4-19-42.4-42.4
			V106.1C617.6,82.7,636.6,63.7,660,63.7z"/>
		<path class="st2" d="M1337.3,898.7c0,31.2,25.3,56.5,56.5,56.5l0,0h461.5c31.2,0,56.5-25.3,56.5-56.5v0V580.3
			c0-7.2-5.9-13.1-13.1-13.1h-548.3c-7.2,0-13.1,5.9-13.1,13.1L1337.3,898.7z"/>
		<path class="st3" d="M1811.3,321.5L1362.8,430c-30.3,7.3-49,37.8-41.7,68.1c0,0,0,0,0,0.1l15.4,61.7c1.7,7,8.8,11.3,15.8,9.6
			l532.8-128.8c6.9-1.7,11.2-8.5,9.7-15.4l-15.4-61.7c-7.2-30.4-37.6-49.3-68-42.1C1811.4,321.5,1811.3,321.5,1811.3,321.5z"/>
		<rect x="1337.3" y="567.2" class="st3" width="574.4" height="133.2"/>
		<path class="st4" d="M1687,821.5l-54.9-31.6l-54.8-31.6v126.5l54.8-31.6L1687,821.5z"/>
		<polygon class="st5" points="1739.2,700.3 1774.5,700.3 1849.1,567.2 1813.7,567.2 		"/>
		<polygon class="st5" points="1651.6,700.3 1687,700.3 1761.6,567.2 1726.2,567.2 		"/>
		<polygon class="st5" points="1564.1,700.3 1599.4,700.3 1674,567.2 1638.7,567.2 		"/>
		<polygon class="st5" points="1476.5,700.3 1511.9,700.3 1586.4,567.2 1551.1,567.2 		"/>
		<polygon class="st5" points="1388.9,700.3 1424.3,700.3 1498.9,567.2 1463.5,567.2 		"/>
		<polygon class="st5" points="1698.4,348.9 1732.7,340.6 1836.5,452.4 1802.2,460.8 		"/>
		<polygon class="st5" points="1613.3,369.4 1647.6,361.2 1751.4,473 1717,481.4 		"/>
		<polygon class="st5" points="1528.1,390 1562.5,381.7 1666.3,493.6 1631.9,501.9 		"/>
		<polygon class="st5" points="1443,410.6 1477.4,402.3 1581.2,514.2 1546.8,522.5 		"/>
		<polygon class="st5" points="1357.9,431.1 1392.3,422.9 1496.1,534.8 1461.7,543.1 		"/>
		<path class="st6" d="M168.7,1738.4c-10.3-16-28.3-25.3-47.3-24.4c2.4-13.6-1.9-27.6-11.5-37.5c-16.9-16.6-44-16.3-60.6,0.6
			c-14.4,14.7-16.3,37.4-4.6,54.3c-23.6-1.1-43.6,17.1-44.7,40.7s17.1,43.6,40.7,44.7c15.5,0.7,30.2-7,38.4-20.3
			c16.1,24.7,49.1,31.8,73.9,15.7S184.8,1763.2,168.7,1738.4L168.7,1738.4z"/>
		<circle class="st7" cx="420.5" cy="1088.5" r="168"/>
		<circle class="st7" cx="603.8" cy="760" r="59.6"/>
		<circle class="st7" cx="687.8" cy="783.9" r="49.5"/>
		<circle class="st7" cx="399.3" cy="864.3" r="32.4"/>
		<circle class="st7" cx="986.3" cy="1032.7" r="49.5"/>
		<ellipse class="st7" cx="609.3" cy="1032.7" rx="268.3" ry="255.8"/>
		<circle class="st7" cx="772" cy="1071" r="221.8"/>
		<circle class="st7" cx="504.8" cy="831.8" r="97.4"/>
		<circle class="st7" cx="785.3" cy="815.2" r="87.9"/>
		<circle class="st7" cx="257.2" cy="966.4" r="70.4"/>
		<circle class="st7" cx="879.4" cy="866.2" r="34.4"/>
		<circle class="st7" cx="350.1" cy="936.7" r="70.4"/>
		
			<ellipse transform="matrix(0.1602 -0.9871 0.9871 0.1602 -158.6492 1715.2393)" class="st7" cx="928.7" cy="950.9" rx="70.8" ry="70.8"/>
		<circle class="st7" cx="226" cy="1061.3" r="48.8"/>
		<path class="st8" d="M338.5,1134.2L338.5,1134.2c1.4-48.9-37-89.6-85.8-91.1s-89.6,37-91.1,85.8c-0.1,1.7-0.1,3.5,0,5.2l0,0
			l117.3,700.3c5.8,34.4,35.5,59.5,70.4,59.5h61L338.5,1134.2z"/>
		<path class="st8" d="M958.7,1045.8c-48.8,0-88.5,39.5-88.5,88.3l0,0h176.9C1047.1,1085.4,1007.5,1045.8,958.7,1045.8z"/>
		<path class="st8" d="M870,1134.2l-71.4,759.7h61c34.8,0,64.6-25.1,70.4-59.5l117.3-700.3H870z"/>
		<path class="st8" d="M604.3,1045.8c-48.8,0-88.4,39.5-88.5,88.3l0,0l19,759.7h138.9l19.1-759.7
			C692.7,1085.4,653.1,1045.8,604.3,1045.8z"/>
		<path class="st9" d="M427,1045.8c-48.8,0-88.4,39.5-88.5,88.3l71.4,759.7h124.5l-19-759.7C515.5,1085.3,475.9,1045.8,427,1045.8
			C427,1045.8,427,1045.8,427,1045.8z"/>
		<path class="st9" d="M870,1134.2c0-48.9-39.6-88.5-88.5-88.5c-48.9,0-88.5,39.6-88.5,88.5l0,0l-19,759.7h124.8L870,1134.2
			L870,1134.2z"/>
		<path class="st10" d="M319.9,1365.6h564.5c9.8,0,17.8,7.9,17.8,17.7c0,0.6,0,1.2-0.1,1.8l-24,243.1c-0.9,9.1-8.5,16-17.6,16H343.9
			c-9.1,0-16.7-6.9-17.7-16l-23.9-243.1c-1-9.8,6.1-18.5,15.9-19.4C318.8,1365.7,319.4,1365.6,319.9,1365.6z"/>
		<path class="st7" d="M351.3,1842.8c-20.1-25.3-56.9-29.6-82.3-9.5c-17.1,13.6-25.2,35.5-21.1,56.9c-2.2,1.2-4.2,2.5-6.2,4
			c-25.9,19.6-31,56.4-11.5,82.4s56.4,31,82.4,11.5c3.1-2.4,6-5,8.6-7.9c30,12,64.1-2.7,76-32.7c12-30-2.7-64.1-32.7-76l0,0
			l-1.2-0.5C361.8,1860.7,357.7,1851,351.3,1842.8z"/>
		<path class="st11" d="M2874.4,1819.2c-5.4-21-15.8-40.4-30.4-56.6l-117.2-147c-49.2-54.7-119.3-86-192.9-85.9h-361
			c-73.4,0-143.4,31.2-192.4,85.9l-117.2,147c-14.7,16.1-25.3,35.5-30.9,56.6c-9.7,38.6-12,95.8,47.9,124.7
			c76.7,37,208.3-29.7,273.5-74.1c22.6-15.2,49.2-23.3,76.5-23.1h246.4c27.3,0,54,0.8,76.5,16c65.4,44.4,196.7,118.5,273.4,81.6
			C2886.4,1915.1,2884.2,1857.5,2874.4,1819.2z"/>
		<ellipse class="st2" cx="2508.7" cy="1571.9" rx="31" ry="11.9"/>
		<path class="st12" d="M2508.7,1583.8c-17.1,0-30.9-5.2-30.9-11.8v9.7c0,6.6,13.9,11.9,30.9,11.9s30.9-5.3,30.9-11.9l0,0v-9.8
			C2539.7,1578.5,2525.9,1583.8,2508.7,1583.8z"/>
		<ellipse class="st2" cx="2634" cy="1571.9" rx="31" ry="11.9"/>
		<path class="st12" d="M2634,1583.8c-17.1,0-30.9-5.2-30.9-11.8v9.7c0,6.6,13.8,11.9,30.9,11.9c17.1,0,30.9-5.3,30.9-11.9l0,0v-9.8
			C2665,1578.5,2651.1,1583.8,2634,1583.8z"/>
		<ellipse class="st2" cx="2571.4" cy="1545.4" rx="31" ry="11.9"/>
		<path class="st12" d="M2571.4,1557.3c-17.1,0-30.9-5.3-30.9-11.9v9.9c0,6.6,13.9,11.8,30.9,11.8c17,0,30.9-5.2,30.9-11.8l0,0v-9.9
			C2602.3,1552,2588.4,1557.3,2571.4,1557.3z"/>
		<ellipse class="st2" cx="2571.4" cy="1601.3" rx="31" ry="11.9"/>
		<path class="st12" d="M2571.4,1613.2c-17.1,0-30.9-5.3-30.9-11.9v9.8c0,6.6,13.9,11.9,30.9,11.9c17,0,30.9-5.3,30.9-11.9l0,0v-9.8
			C2602.3,1607.8,2588.4,1613.2,2571.4,1613.2z"/>
		<ellipse class="st3" cx="2158.2" cy="1562" rx="58.2" ry="22.3"/>
		<path class="st5" d="M2158.2,1584.3c-32.1,0-58.2-10-58.2-22.3v18.4c0,12.3,26.1,22.3,58.2,22.3c32.1,0,58.1-10,58.1-22.3l0,0
			V1562C2216.3,1574,2190.3,1584.3,2158.2,1584.3z"/>
		<ellipse class="st3" cx="2461.2" cy="1647.1" rx="58.2" ry="22.3"/>
		<path class="st5" d="M2461.3,1669.4c-32.2,0-58.2-10-58.2-22.3v18.4c0,12.3,26,22.3,58.2,22.3s58.1-10,58.1-22.3l0,0v-18.4
			C2519.3,1659.4,2493.3,1669.4,2461.3,1669.4z"/>
		<ellipse class="st2" cx="2305.2" cy="1571.7" rx="15.2" ry="5.9"/>
		<path class="st12" d="M2305.2,1577.6c-8.4,0-15.4-2.6-15.4-5.9v4.9c0,3.2,6.8,5.9,15.4,5.9s15.4-2.6,15.4-5.9l0,0v-4.9
			C2320.4,1575,2313.6,1577.6,2305.2,1577.6z"/>
		<ellipse class="st2" cx="2402" cy="1571.7" rx="15.2" ry="5.9"/>
		<path class="st12" d="M2402,1577.6c-8.4,0-15.4-2.6-15.4-5.9v4.9c0,3.2,6.8,5.9,15.4,5.9c8.6,0,15.4-2.6,15.4-5.9l0,0v-4.9
			C2417.2,1575,2410.4,1577.6,2402,1577.6z"/>
		<path class="st12" d="M2313,1652.7h-30.9c-4.1,0-7.7-1.3-7.7-3v-12.8c0-1.7-3.3-3.1-7.7-3.1h-30.9c-4.1,0-7.7,1.4-7.7,3.1v12.8
			c0,1.7-3.3,3-7.7,3h-30.9c-4.1,0-7.7,1.4-7.7,3.1v16.3c0,1.7,3.3,3.1,7.7,3.1h30.9c4.1,0,7.7,1.3,7.7,3v12.8
			c0,1.7,3.3,3.1,7.7,3.1h30.9c4.1,0,7.7-1.4,7.7-3.1v-12.8c0-1.7,3.3-3,7.7-3h30.9c4.1,0,7.7-1.4,7.7-3.1v-16.3
			C2320.4,1654,2317.1,1652.7,2313,1652.7z"/>
		<path class="st2" d="M2313,1637.6h-30.9c-4.1,0-7.7-1.4-7.7-3.1v-12.8c0-1.7-3.3-3-7.7-3h-30.9c-4.1,0-7.7,1.3-7.7,3v12.8
			c0,1.7-3.3,3.1-7.7,3.1h-30.9c-4.1,0-7.7,1.3-7.7,3v16.3c0,1.7,3.3,3.1,7.7,3.1h30.9c4.1,0,7.7,1.4,7.7,3.1v12.8
			c0,1.6,3.3,3,7.7,3h30.9c4.1,0,7.7-1.4,7.7-3v-12.8c0-1.7,3.3-3.1,7.7-3.1h30.9c4.1,0,7.7-1.4,7.7-3.1v-16.3
			C2320.4,1638.9,2317.1,1637.6,2313,1637.6z"/>
	</g>
</g>
</svg>
