<?xml version="1.0" encoding="utf-8"?>
<!-- Generator: Adobe Illustrator 24.1.0, SVG Export Plug-In . SVG Version: 6.00 Build 0)  -->
<svg version="1.1" id="Layer_1" xmlns="http://www.w3.org/2000/svg" xmlns:xlink="http://www.w3.org/1999/xlink" x="0px" y="0px"
	 viewBox="0 0 3650.6 2000" style="enable-background:new 0 0 3650.6 2000;" xml:space="preserve">
<style type="text/css">
	.st0{fill:#E8E8F7;}
	.st1{fill:#D6D7F0;}
	.st2{fill:#ACAFE0;}
	.st3{fill:#110580;}
	.st4{fill:#FFFFFF;}
	.st5{fill:#FF7A82;}
	.st6{fill:#FDB62F;}
	.st7{fill:#64A7B0;}
	.st8{fill:#AAACE3;}
	.st9{fill:#868AE0;}
	.st10{fill:#2B31BA;}
</style>
<g id="Layer_2_1_">
	<g id="illustrations">
		<path class="st0" d="M940.2,0H2899c21.3,0,38.6,17.3,38.6,38.6v1259.7c0,21.3-17.3,38.6-38.6,38.6H940.2
			c-21.3,0-38.6-17.3-38.6-38.6V38.6C901.6,17.3,918.9,0,940.2,0z"/>
		<path class="st1" d="M2899,0H940.2c-21.3,0-38.6,17.3-38.6,38.6v109.3h2036.1V38.6C2937.6,17.3,2920.3,0,2899,0z"/>
		<circle class="st2" cx="1014.7" cy="73.6" r="27"/>
		<circle class="st2" cx="1114.9" cy="73.6" r="27"/>
		<circle class="st2" cx="1215.3" cy="73.6" r="27"/>
		<path class="st3" d="M3644,422.7c0.8-0.2,1.7-0.2,2.6,0c3.1,1.2,4.8,4.7,3.6,7.8c-4.1,11.7-9.4,22.9-15.9,33.5
			c-1.8,2.8-5.5,3.7-8.4,2c-2.9-1.7-3.8-5.4-2.1-8.2c0,0,0.1-0.1,0.1-0.1c6-9.8,11-20.3,14.8-31.2
			C3639.6,424.3,3641.7,422.8,3644,422.7z"/>
		<path class="st3" d="M2650.9,127.5c0.7-0.2,1.5-0.2,2.2,0l8.6,2.6c20,5.8,40.8,11.8,62.5,18.2c3.2,1,4.9,4.4,3.9,7.6
			c0,0,0,0,0,0.1c-0.9,3.2-4.3,5-7.5,4.1c-0.1,0-0.1,0-0.2-0.1c-21.5-7.1-42.1-13.1-62.1-18.2l-8.6-2.6c-3.3-1-5.1-4.4-4.2-7.7
			C2646.3,129.2,2648.4,127.7,2650.9,127.5z M2791.1,174.7c1-0.2,2-0.2,2.9,0c22.9,9.7,45.2,20.9,66.5,33.7c2.8,1.5,3.9,5.1,2.4,7.9
			c-0.1,0.1-0.1,0.2-0.2,0.3c-1.6,2.9-5.3,3.9-8.2,2.3c-0.1,0-0.1-0.1-0.2-0.1c-21-12.4-42.9-23.4-65.4-32.8
			c-3.1-1.3-4.5-4.8-3.3-7.8c0.9-2.2,3.1-3.7,5.5-3.8V174.7z M2917.6,250.9c1.7-0.2,3.3,0.4,4.6,1.5c19,16.4,36.2,34.7,51.4,54.7
			c2,2.7,1.5,6.5-1.1,8.6c-2.6,2.1-6.4,1.6-8.5-0.9c0,0-0.1-0.1-0.1-0.1c-14.7-19.3-31.4-37-49.7-52.8c-2.3-2.5-2.3-6.3,0-8.7
			c0.9-1.1,2.1-2,3.5-2.4V250.9z M3006.3,367.7c2.5-0.2,4.9,1.2,6,3.5c10.5,22.9,18.6,46.8,24.1,71.4c0.6,3.3-1.5,6.5-4.7,7.3
			c-3.3,0.7-6.6-1.4-7.3-4.7c-5.2-23.7-12.9-46.8-23.1-68.9c-1.3-3.1,0.1-6.6,3.1-8C3004.9,367.9,3005.6,367.7,3006.3,367.7z
			 M2972.1,448.9c13.7-1,27.5-1,41.2,0c3.3,0,6,2.7,6,6c0,3.3-2.7,6-6,6c0,0,0,0,0,0c-13.2-0.8-26.4-0.8-39.5,0l0,0
			c-10.9,0.8-21.7,2.4-32.4,4.6c-3.3,0.7-6.6-1.4-7.3-4.7c-0.7-3.3,1.4-6.4,4.7-7.1c0,0,0,0,0.1,0c11.2-2.4,22.6-4,34.1-4.7H2972.1z
			 M3085.2,461.5h2.2c21,5.8,42.8,12.9,70.7,23.7c3.1,1.2,4.7,4.6,3.6,7.7c-1.2,3.1-4.6,4.7-7.7,3.6c-27.7-10.4-49.2-18.2-69.8-23.1
			c-3.3-1.1-5-4.6-4-7.8c0.7-2.3,2.7-3.9,5.1-4.2V461.5z M2870.2,481c3.3-0.4,6.3,2,6.7,5.3c0.3,2.3-0.8,4.6-2.9,5.9
			c-10.6,6.9-20.3,15-29,24.2c-7.3,8.1-13.4,17.2-18.2,27c-1,3.3-4.5,5.1-7.7,4.1c-3.3-1-5.1-4.5-4.1-7.7c0.2-0.7,0.5-1.3,0.9-1.8
			c5.6-10.8,12.6-20.9,20.8-29.9c9.4-9.9,19.9-18.6,31.3-26.1C2868.7,481.4,2869.4,481.1,2870.2,481z M3036.4,511.3L3036.4,511.3
			c3.3,0.2,5.9,3,5.8,6.4c-1,25.4-6.3,50.5-15.7,74.2c-1.2,3.1-4.6,4.7-7.8,3.5c0,0-0.1,0-0.1,0c-3.2-1.3-4.7-4.8-3.5-8
			c9-22.3,13.9-46.1,14.8-70.1C3030.2,513.7,3033,511.1,3036.4,511.3z M3224.2,511.3c0.9-0.2,1.8-0.2,2.7,0l24.2,9.1
			c16,5.8,30.8,10.7,45.2,15.1c3.2,0.9,5.1,4.2,4.2,7.4c0,0,0,0.1,0,0.1c-1,3.3-4.4,5.1-7.7,4.2c-14.8-4.4-29.7-9.5-45.9-15.3
			c-8.2-2.9-16.2-6-24.4-9.3c-3.1-1.2-4.7-4.6-3.5-7.8c0,0,0-0.1,0-0.1c1.3-1.9,3.5-3,5.8-2.7L3224.2,511.3z M3578.2,508.2
			c3.3-0.3,6.2,2.1,6.6,5.4c0.2,2.2-0.8,4.3-2.6,5.5c-20.4,15.1-43,26.9-67,35c-3.2,1.1-6.6-0.7-7.7-3.8c-1.1-3.2,0.7-6.6,3.8-7.7
			c22.7-7.5,44.2-18.4,63.6-32.4c1-0.7,2.1-1.1,3.3-1.3L3578.2,508.2z M3366.3,551.9h1.5c24.1,3.8,48.5,5.1,72.9,3.8
			c3.4,0.3,6,3.3,5.7,6.7c-0.2,2.7-2.1,4.9-4.8,5.5l0,0c-25.1,1.1-50.2-0.2-75.1-4c-3.3-0.6-5.5-3.6-5.1-6.9c0.7-2.3,2.6-4,4.9-4.4
			L3366.3,551.9z M2806.8,606.5c3.2-0.3,6.1,2,6.4,5.2c0,0,0,0,0,0.1c1.9,19.1,10.8,36.9,25,49.9c2.9,2.6,6,4.9,9.3,7.1
			c3.1,1.4,4.5,5.1,3.1,8.2c-1.4,3.1-5.1,4.5-8.2,3.1c-0.6-0.3-1.2-0.6-1.7-1.1c-3.8-2.4-7.3-5.2-10.6-8.2
			c-16.4-15-26.8-35.5-29-57.6c-0.3-3.3,2-6.3,5.3-6.7L2806.8,606.5z M2980.1,644.4c1.9-0.2,3.7,0.6,4.9,2c2.3,2.4,2.3,6.2,0,8.6
			c-19.3,17.3-42.7,29.5-68,35.3c-3.3,0.6-6.4-1.5-7.1-4.7c-0.8-3.2,1.2-6.5,4.4-7.3c0,0,0.1,0,0.1,0c23.2-5.3,44.6-16.4,62.3-32.2
			c0.9-0.9,2-1.6,3.3-1.8L2980.1,644.4z"/>
		<path class="st3" d="M2548.6,86.7c1.5-0.1,3,0.3,4.2,1.3c9.2,6.8,19.2,12.2,29.9,16.2c3.1,1.3,4.5,4.9,3.3,8
			c-1.3,3.1-4.8,4.5-7.8,3.3c-11.7-4.6-22.7-10.7-32.8-18.2c-2.6-2.1-3.1-5.9-1.1-8.6C2545.4,87.5,2547,86.8,2548.6,86.7z"/>
		<path class="st3" d="M937.1,969.5c-4-1.6-6-6.1-4.5-10.1c1.2-3.2,4.4-5.2,7.7-5h38.3v-38.3c0.7-4.4,4.8-7.4,9.1-6.7
			c3.5,0.5,6.2,3.3,6.7,6.7v54.7h-54.7L937.1,969.5z"/>
		<path class="st3" d="M149.4,968.9c-2.8-1.2-4.7-4-4.7-7.1c0-4.3,3.5-7.8,7.8-7.8c0,0,0,0,0,0h98.6c4.3,0,7.8,3.5,7.8,7.8
			s-3.5,7.8-7.8,7.8h-98.6C151.5,969.7,150.4,969.5,149.4,968.9z M346.4,968.9c-2.9-1.3-4.7-4.1-4.7-7.3c0-4.3,3.5-7.8,7.8-7.8l0,0
			h98.6c4.3,0,7.8,3.5,7.8,7.8c0,4.3-3.5,7.8-7.8,7.8h-98.4c-1.2,0.1-2.3,0-3.5-0.4L346.4,968.9z M543.4,968.9
			c-4-1.6-6-6.1-4.4-10.2c1.2-3.1,4.2-5.1,7.5-5h98.4c4.4,0.7,7.4,4.8,6.7,9.1c-0.5,3.5-3.3,6.2-6.7,6.7h-98.2
			c-1.1,0.1-2.2,0-3.3-0.4V968.9z M740.1,968.9c-2.8-1.2-4.6-4-4.6-7.1c0-4.3,3.5-7.8,7.8-7.8l0,0h98.4c4.3,0,7.8,3.5,7.8,7.8
			s-3.5,7.8-7.8,7.8l0,0h-98.4c-1.1,0.1-2.2,0-3.3-0.4V968.9z"/>
		<path class="st3" d="M0,969.5v-54.7c0.1-4.3,3.5-7.7,7.8-7.8c4.4,0.1,7.8,3.7,7.8,8v38.3h39c4.4,0.7,7.4,4.8,6.7,9.1
			c-0.5,3.5-3.3,6.2-6.7,6.7L0,969.5z"/>
		<path class="st3" d="M4.8,831.2c-2.8-1.2-4.7-4-4.7-7.1V733c0-4.3,3.5-7.8,7.8-7.8c0,0,0,0,0,0c4.3,0,7.8,3.5,7.8,7.8l0,0v91.1
			c-0.1,4.3-3.5,7.7-7.8,7.8C6.8,831.9,5.8,831.6,4.8,831.2z M4.8,649c-3.1-1.3-5.1-4.5-4.7-7.8v-91.1c0.7-4.4,4.8-7.4,9.1-6.7
			c3.5,0.5,6.2,3.3,6.7,6.7v91.1c0,4.3-3.5,7.8-7.8,7.8c0,0,0,0,0,0c-1.1,0-2.1-0.2-3.1-0.7L4.8,649z M4.8,466.8
			c-2.9-1.3-4.8-4.1-4.7-7.3v-91.1c0-4.3,3.5-7.8,7.8-7.8c0,0,0,0,0,0c4.3,0,7.8,3.5,7.8,7.8l0,0v91.1c0,4.3-3.5,7.8-7.8,7.8
			c0,0,0,0,0,0c-1-0.4-1.9-1-2.7-1.8L4.8,466.8z"/>
		<path class="st3" d="M5.1,282.6c-2.9-1.3-4.7-4.1-4.7-7.3v-54.7h54.3c4.5,0,8.1,3.6,8.1,8.1c0,4.5-3.6,8.1-8.1,8.1H16.3v38.3
			c0,4.4-3.6,8-8,8C7.2,283.1,6.1,283,5.1,282.6z"/>
		<path class="st3" d="M150,236.9c-4-1.6-6-6.1-4.4-10.2c1.2-3.1,4.2-5.1,7.5-5h98.4c4.4,0.7,7.4,4.8,6.7,9.1
			c-0.5,3.5-3.3,6.2-6.7,6.7h-98.4C152,237.5,151,237.3,150,236.9z M346.2,236.9c-2.8-1.2-4.7-4-4.7-7.1c0.1-4.4,3.7-7.8,8-7.8h98.4
			c4.3,0,7.8,3.5,7.8,7.8c0,4.3-3.5,7.8-7.8,7.8h-98.4C348.4,237.6,347.2,237.4,346.2,236.9z M543.2,236.9c-4-1.6-6-6.1-4.4-10.2
			c1.2-3.1,4.2-5.1,7.5-5h98.6c4.3,0,7.8,3.5,7.8,7.8c0,4.3-3.5,7.8-7.8,7.8h-98.2c-1,0-2-0.2-2.9-0.5H543.2z M740.1,236.9
			c-2.9-1.3-4.7-4.1-4.7-7.3c0-4.3,3.5-7.8,7.8-7.8l0,0h98.6c4.4,0.7,7.4,4.8,6.7,9.1c-0.5,3.5-3.3,6.2-6.7,6.7h-98
			c-1.1,0-2.1-0.3-3.1-0.7H740.1z"/>
		<path class="st3" d="M983.9,283.1c-2.8-1.2-4.7-4-4.7-7.1v-39.2h-38.4c-4.3,0-7.8-3.5-7.8-7.8c0-4.3,3.5-7.8,7.8-7.8h54.7v54.7
			c0,4.3-3.5,7.8-7.8,7.8l0,0C986.3,283.8,985.1,283.7,983.9,283.1z"/>
		<path class="st3" d="M983.9,831.7c-2.8-1.2-4.6-4-4.6-7.1v-91.1c0-4.3,3.5-7.8,7.8-7.8c4.3,0,7.8,3.5,7.8,7.8v91.1
			c0,4.3-3.5,7.8-7.8,7.8l0,0C986.1,832.5,984.9,832.2,983.9,831.7z M983.9,649.5c-2.9-1.3-4.7-4.1-4.7-7.3v-91.1
			c0-4.3,3.5-7.8,7.8-7.8l0,0c4.3,0.1,7.7,3.5,7.8,7.8v91.1c0,4.3-3.5,7.8-7.8,7.8l0,0c-1.1-0.2-2.1-0.5-3.1-1.1V649.5z
			 M983.9,467.3c-2.9-1.3-4.8-4.1-4.7-7.3V369c0-4.3,3.5-7.8,7.8-7.8c4.3,0,7.8,3.5,7.8,7.8v91.1c0,4.4-3.5,7.9-7.8,8
			c-1.2-0.4-2.2-1.1-3.1-2V467.3z"/>
		<path class="st4" d="M422.9,314.8h1958.8c21.3,0,38.6,17.3,38.6,38.6v1259.7c0,21.3-17.3,38.6-38.6,38.6H422.9
			c-21.3,0-38.6-17.3-38.6-38.6V353.5C384.3,332.1,401.6,314.8,422.9,314.8z"/>
		<path class="st5" d="M1354.5,1391.5V704c0-20.1,16.3-36.4,36.3-36.4l0,0c20.1,0,36.3,16.3,36.3,36.4v687.4
			c0,20.1-16.3,36.4-36.3,36.4l0,0C1370.8,1427.9,1354.5,1411.6,1354.5,1391.5z"/>
		<path class="st5" d="M1693.6,1311.1V784.7c0-20.1,16.3-36.4,36.3-36.4h0c20.1,0,36.3,16.3,36.3,36.4v526.4
			c0,20.1-16.3,36.4-36.3,36.4h0C1709.9,1347.5,1693.6,1331.2,1693.6,1311.1z"/>
		<path class="st5" d="M1015.3,1311.1V784.7c0-20.1,16.3-36.4,36.3-36.4l0,0c20.1,0,36.3,16.3,36.3,36.4v526.4
			c0,20.1-16.3,36.4-36.3,36.4l0,0C1031.5,1347.5,1015.3,1331.2,1015.3,1311.1z"/>
		<path class="st5" d="M1863.2,1174.3V921.6c0-20.1,16.3-36.4,36.3-36.4h0c20.1,0,36.3,16.3,36.3,36.4v252.7
			c0,20.1-16.3,36.4-36.3,36.4h0C1879.5,1210.7,1863.2,1194.4,1863.2,1174.3z"/>
		<path class="st5" d="M845.6,1174.1V921.4c0-20.1,16.3-36.4,36.3-36.4h0c20.1,0,36.3,16.3,36.3,36.4v252.7
			c0,20.1-16.3,36.4-36.3,36.4h0C861.9,1210.5,845.6,1194.2,845.6,1174.1z"/>
		<path class="st5" d="M2032.8,1230.6V865.3c0-20.1,16.3-36.4,36.3-36.4l0,0c20.1,0,36.3,16.3,36.3,36.4v365.3
			c0,20.1-16.3,36.4-36.3,36.4l0,0C2049.1,1267,2032.8,1250.7,2032.8,1230.6z"/>
		<path class="st5" d="M676.2,1230.4V865.1c0-20.1,16.3-36.4,36.3-36.4h0c20.1,0,36.3,16.3,36.3,36.4v365.3
			c0,20.1-16.3,36.4-36.3,36.4h0C692.5,1266.8,676.2,1250.5,676.2,1230.4z"/>
		<path class="st5" d="M1524,1262.6V832.8c0-20.1,16.3-36.4,36.3-36.4l0,0c20.1,0,36.3,16.3,36.3,36.4v429.8
			c0,20.1-16.3,36.4-36.3,36.4l0,0C1540.2,1299.1,1524,1282.8,1524,1262.6z"/>
		<path class="st5" d="M1184.9,1262.8V833c0-20.1,16.3-36.4,36.3-36.4h0c20.1,0,36.3,16.3,36.3,36.4v429.8
			c0,20.1-16.3,36.4-36.3,36.4h0C1201.2,1299.3,1184.9,1282.9,1184.9,1262.8z"/>
		<path class="st1" d="M2381.7,314.8H423.1c-21.3-0.1-38.7,17.1-38.8,38.4c0,0.1,0,0.1,0,0.2v109.3h2036.3V353.5
			c0-21.3-17.3-38.6-38.6-38.6C2381.9,314.8,2381.8,314.8,2381.7,314.8z"/>
		<circle class="st5" cx="497.4" cy="388.4" r="27"/>
		<circle class="st6" cx="597.8" cy="388.4" r="27"/>
		<circle class="st7" cx="698" cy="388.4" r="27"/>
		<path class="st8" d="M2682,1212h0.2c105.8,0,191.5,85.7,191.5,191.5v186.2c0,105.8-85.7,191.5-191.5,191.5h-0.2
			c-105.8,0-191.5-85.7-191.5-191.5v-186.2C2490.5,1297.7,2576.2,1212,2682,1212z"/>
		<path class="st9" d="M2880.8,2000c13.8,0,25-11.1,25-24.9c0-4-0.9-8-2.8-11.5c-59.1-122.1-205.9-173.2-328-114.2
			c-49.8,24.1-90.1,64.3-114.2,114.2c-6.2,12.4-1.2,27.5,11.2,33.8c3.5,1.8,7.3,2.7,11.2,2.7H2880.8z"/>
		<path class="st9" d="M2734.1,1405.5c0,20.1,16.3,36.4,36.4,36.4h102.9v-39c0-11.6-1-23.2-3.1-34.6h-99.8
			c-20.1,0-36.4,16.3-36.4,36.4C2734.1,1405,2734.1,1405.2,2734.1,1405.5z"/>
		<path class="st9" d="M2734.1,1521.7c0,20.1,16.3,36.4,36.4,36.4h102.9v-72.9h-102.9C2750.4,1485.3,2734.1,1501.6,2734.1,1521.7z"
			/>
		<path class="st9" d="M2734.1,1637.8c0,20.1,16.3,36.4,36.4,36.4h83.3c11.2-22.8,17.8-47.5,19.3-72.9h-102.6
			C2750.4,1601.3,2734.1,1617.7,2734.1,1637.8z"/>
		<path class="st9" d="M2629.9,1405.5c0-20.1-16.3-36.4-36.4-36.4h-99.8c-2,11.4-3.1,23-3.1,34.6v38.3h102.9
			C2613.6,1441.9,2629.9,1425.6,2629.9,1405.5z"/>
		<path class="st9" d="M2629.9,1521.7c0-20.1-16.3-36.4-36.4-36.4h-102.9v72.9h102.9C2613.6,1558.2,2629.9,1541.9,2629.9,1521.7z"/>
		<path class="st9" d="M2629.9,1637.8c0-20.1-16.3-36.4-36.4-36.4h-102.6c1.1,25.3,7.3,50.1,18.2,72.9h83.4
			c20.1,0.5,36.8-15.4,37.3-35.5C2629.9,1638.4,2629.9,1638.1,2629.9,1637.8z"/>
		<path class="st8" d="M2682,1896.3c-173.7-0.2-314.5-141-314.7-314.7v-23.3c0-20.1,16.3-36.4,36.4-36.4c20.1,0,36.4,16.3,36.4,36.4
			v23.3c0.1,133.2,108.1,241.2,241.4,241.1c133.1-0.1,241-108,241.1-241.1v-23.3c0-20.1,16.3-36.4,36.4-36.4s36.4,16.3,36.4,36.4
			v23.3C2995.4,1754.9,2855.3,1895.5,2682,1896.3z"/>
		<path class="st8" d="M3157,1425h-76c0-220.4-178.6-399-399-399s-399,178.6-399,399h-76c0-262.3,212.7-475,475.1-474.9
			C2944.4,950.1,3157,1162.7,3157,1425z"/>
		<path class="st3" d="M2224.7,1339.2h36.3c29.7,0,53.7,24.1,53.7,53.7v319.9c0,29.7-24.1,53.7-53.7,53.7h-36.3
			c-29.7,0-53.7-24.1-53.7-53.7v-319.9C2170.9,1363.2,2195,1339.2,2224.7,1339.2z"/>
		<path class="st3" d="M3103.1,1339.2h36.3c29.7,0,53.7,24.1,53.7,53.7v319.9c0,29.7-24.1,53.7-53.7,53.7h-36.3
			c-29.7,0-53.7-24.1-53.7-53.7v-319.9C3049.3,1363.2,3073.4,1339.2,3103.1,1339.2z"/>
		<path class="st10" d="M3193.1,1384.7v335.6c92.5-39.7,135.3-146.8,95.6-239.3c-18.4-43-52.7-77.2-95.6-95.6V1384.7z"/>
		<path class="st10" d="M2170.9,1384.7v335.6c-92.5-39.7-135.3-146.8-95.6-239.3c18.4-43,52.7-77.2,95.6-95.6V1384.7z"/>
	</g>
</g>
</svg>
