<?xml version="1.0" encoding="utf-8"?>
<!-- Generator: Adobe Illustrator 24.1.0, SVG Export Plug-In . SVG Version: 6.00 Build 0)  -->
<svg version="1.1" id="Layer_1" xmlns="http://www.w3.org/2000/svg" xmlns:xlink="http://www.w3.org/1999/xlink" x="0px" y="0px"
	 viewBox="0 0 1600 2156" style="enable-background:new 0 0 1600 2156;" xml:space="preserve">
<style type="text/css">
	.st0{fill:#C30A08;}
	.st1{fill:#FFFFFF;}
	.st2{fill:#110580;}
	.st3{fill:#4E53BA;}
	.st4{fill:#868AE0;}
	.st5{fill:#0079BF;}
	.st6{fill:#453069;}
	.st7{fill:#36C5F0;}
	.st8{fill:#2EB67D;}
	.st9{fill:#ECB22E;}
	.st10{fill:#E01E5A;}
	.st11{fill:#F5F5F5;}
	.st12{fill:#537ABD;}
	.st13{fill:#2EB672;}
	.st14{fill:#FED14B;}
	.st15{fill:#DC395F;}
	.st16{fill:#2C2D33;}
	.st17{fill:#0ACF83;}
	.st18{fill:#A259FF;}
	.st19{fill:#F24E1E;}
	.st20{fill:#FF7262;}
	.st21{fill:#1ABCFE;}
	.st22{fill:#0061FF;}
</style>
<g id="Layer_2_1_">
	<g id="illustrations">
		<circle class="st0" cx="644.6" cy="1230.7" r="166.2"/>
		<path class="st1" d="M708.6,1150.8c-18.3-10.4-40-13.1-60.3-7.4c-18,5.1-33.7,16.3-44.3,31.6l-3.9,5.6c-2.8,0.4-5.5,0.9-8.2,1.6
			h-0.6H591c-17.1,5-31.6,16.5-40.4,32c-18.5,32.8-7,74.3,25.8,92.9c15.9,8.9,34.6,11.2,52.1,6.2l57.3-15.9l4.8-1.4h0.3l1.3-0.3
			c5.2-1.4,10.1-3.5,14.8-6.2c3.2-1.6,6.3-3.5,9.1-5.6c35.5-25.5,43.6-74.9,18.1-110.4c-6.7-9.4-15.4-17.2-25.5-22.8L708.6,1150.8z
			 M623.4,1295.6c-12.6,3.7-26.2,2-37.5-4.7c-23.7-13.4-32.1-43.5-18.7-67.2c6.5-11.4,17.2-19.8,29.7-23.5l0,0
			c2.4-0.6,4.8-1,7.3-1.4c2.6-0.3,5.2-0.5,7.8-0.5c4.8,0.1,9.6,1,14.2,2.6c2.2,0.7,4.3,1.6,6.3,2.7c0.7,0,1.2,0.7,2,0.8l4.1,2.3
			l20.1,11.3c3.3,1.8,4.5,6,2.6,9.3c-0.9,1.6-2.5,2.8-4.3,3.3c-1.8,0.5-3.7,0.3-5.3-0.6l-20.5-11.6l-4.1-2.3l-2.1-1.1
			c-5.6-2.7-11.9-3.8-18.1-3.3c-2.2,0.3-4.4,0.6-6.6,1.2h-1c-8.6,2.8-15.9,8.6-20.6,16.4c-9.6,17-3.7,38.6,13.3,48.3
			c8.3,4.7,18.1,5.9,27.2,3.2l6.1-1.7l7,3.9c3.6,2.1,7.4,4,11.3,5.6l-20.3,6.6L623.4,1295.6z M722.1,1249.9
			c-4.3,7.6-10.2,14.2-17.4,19.3c-2.2,1.6-4.4,3-6.8,4.3c-3.6,2-7.3,3.5-11.3,4.6h-1c-13.5,3.7-27.9,2.7-40.8-2.8
			c-1.6-1-3.6-1.8-5.2-2.7l-3.3-1.9l-8.8-4.3l-22.9-12.9c-3.3-1.8-4.4-6-2.6-9.3c0.1-0.1,0.1-0.2,0.2-0.3c0.9-1.6,2.5-2.8,4.3-3.3
			c1.9-0.6,3.9-0.4,5.6,0.6l34.8,19.6l0,0c3.3,1.8,6.7,3.2,10.2,4.4c8.3,2.5,17.2,2.5,25.6,0c3.8-1,7.5-2.4,10.9-4.4
			c2-1.2,3.9-2.5,5.6-4c4.6-3.9,8.6-8.5,11.7-13.6c12.7-22.5,4.8-51-17.6-63.7c0,0-0.1,0-0.1,0c-19.6-10.9-44.2-6.5-58.8,10.5
			c-4.6-1.8-9.3-3.1-14.2-3.9c17.9-25.6,52.3-33.6,79.7-18.4c28.7,16.2,38.9,52.6,22.7,81.3C722.4,1249.3,722.2,1249.6,722.1,1249.9
			L722.1,1249.9z"/>
		<path class="st2" d="M1099,950.5c0.6,0.2,1.2,0.5,1.7,0.9c2.1,1.7,2.4,4.7,0.7,6.7c0,0,0,0,0,0c-6.1,7.6-13.1,14.5-20.8,20.6
			c-2.1,1.7-5.1,1.3-6.8-0.7c-1.7-2.1-1.3-5.1,0.7-6.8l0,0c7.1-5.7,13.6-12.1,19.4-19.2C1095.2,950.6,1097.1,950,1099,950.5z"/>
		<path class="st2" d="M440.8,464.2c0.6,0.1,1.1,0.4,1.5,0.7l5.6,4.2c13.3,9.7,27,19.8,41.3,30.9c2,1.8,2.2,4.8,0.4,6.8
			c-1.6,1.8-4.3,2.1-6.3,0.8c-14.1-11.3-27.8-21.1-41-30.8l-5.6-4.2c-2.1-1.6-2.6-4.6-1-6.8C436.8,464.3,438.9,463.6,440.8,464.2z
			 M532.4,537c0.8,0.2,1.5,0.6,2,1.1c14.5,13.3,28.1,27.6,40.7,42.8c1.5,2.2,0.9,5.2-1.3,6.7c-1.9,1.3-4.5,1-6.1-0.6
			c-12.3-14.9-25.6-28.9-39.8-41.9c-1.9-1.9-2-4.9-0.1-6.8C529,537,530.7,536.5,532.4,537z M605.6,627.5c1.3,0.3,2.3,1.1,2.9,2.3
			c9.7,17.3,17.6,35.6,23.5,54.5c0.8,2.5-0.6,5.2-3.2,6c-2.5,0.8-5.2-0.6-6-3.2l0,0c-5.6-18.3-13.2-35.9-22.5-52.6
			c-1.3-2.3-0.5-5.3,1.9-6.6c1.1-0.6,2.4-0.8,3.7-0.4H605.6z M639.8,738.3c1.9,0.6,3.3,2.2,3.5,4.2c1.7,19.8,1.3,39.7-1.4,59.4
			c-0.4,2.6-2.8,4.5-5.4,4.1s-4.5-2.8-4.1-5.4l0,0c2.5-19,2.9-38.2,1.3-57.3c-0.2-2.7,1.7-5,4.4-5.2c0.7-0.1,1.3,0,2,0.2H639.8z
			 M592.6,789.4c10.5,2.9,20.7,6.6,30.6,11c2.4,1.1,3.5,3.9,2.5,6.3c-1.1,2.4-3.9,3.5-6.3,2.5c-9.5-4.2-19.4-7.7-29.4-10.5l0,0
			c-8.3-2.3-16.8-4.1-25.3-5.3c-2.6-0.3-4.5-2.7-4.2-5.3c0-0.1,0-0.2,0-0.3c0.4-2.6,2.8-4.5,5.5-4.1c0.1,0,0.1,0,0.2,0
			c9,1.3,17.8,3.2,26.6,5.6L592.6,789.4z M673.3,829.2c0.5,0.1,1,0.4,1.5,0.7c14.1,9.9,28.1,21.2,46.3,36.6c2,1.7,2.3,4.7,0.6,6.7
			c0,0-0.1,0.1-0.1,0.1c-1.7,2-4.8,2.2-6.8,0.5c-17.7-15.2-31.7-26.3-45.5-36c-2.2-1.5-2.8-4.4-1.3-6.6
			C669.1,829.4,671.3,828.6,673.3,829.2L673.3,829.2z M508.5,785.9c2.6,0.6,4.1,3.2,3.5,5.8c-0.4,1.7-1.8,3.1-3.5,3.5
			c-9.8,2.3-19.2,5.7-28.1,10.2c-7.7,4-14.9,9.1-21.2,15c-1.8,2-4.8,2.2-6.8,0.4c-2-1.8-2.2-4.8-0.4-6.8c0.2-0.2,0.4-0.4,0.7-0.6
			c7-6.6,14.9-12.1,23.5-16.5c9.6-5,19.7-8.8,30.2-11.3c0.9-0.1,1.8,0,2.6,0.3H508.5z M623.6,853.1h0.6c2.5,1,3.7,3.8,2.6,6.3
			c-7.5,18.6-18.2,35.7-31.5,50.7c-1.8,2-4.8,2.1-6.8,0.4c-2-1.8-2.1-4.8-0.3-6.8c12.6-14.2,22.6-30.5,29.8-48.1
			c1-2.2,3.7-3.3,6-2.4H623.6z M763.1,904.1c0.7,0.2,1.3,0.5,1.9,1c5.2,4.5,10.4,8.9,15.6,13.3c10.3,8.6,19.9,16.2,29.5,23.2
			c2.1,1.6,2.6,4.6,1,6.8c-1.6,2.1-4.6,2.6-6.7,1c0,0,0,0,0,0c-9.8-7.2-19.6-15-30-23.6c-5.3-4.4-10.5-8.9-15.8-13.5
			c-2-1.8-2.2-4.8-0.5-6.8c1.3-1.5,3.3-2.1,5.2-1.5H763.1z M1026.9,997c1.6,0.4,2.8,1.6,3.3,3.2c0.8,2.5-0.7,5.2-3.2,6
			c-19.1,5.7-39,8.3-58.9,7.9c-2.6,0-4.8-2.2-4.7-4.8c0,0,0,0,0-0.1c0.1-2.7,2.2-4.8,4.9-4.7c19,0.4,38-2.1,56.3-7.5
			c0.8-0.2,1.7-0.2,2.6,0H1026.9z M857.7,972.5l1,0.4c16.8,9.3,34.6,16.8,52.9,22.5c2.5,0.7,4,3.4,3.3,6c-0.7,2.5-3.4,4-6,3.3l0,0
			l0,0c-18.9-5.9-37.2-13.6-54.7-23.1c-2.3-1.3-3.1-4.3-1.7-6.6c1.1-1.8,3.2-2.8,5.3-2.3L857.7,972.5z M427.8,861.9
			c2.4,0.7,3.9,3.2,3.4,5.6c-3.8,14.7-2,30.3,5.1,43.8c1.5,2.7,3.1,5.3,5,7.7c1.6,2.1,1.2,5-0.8,6.6c0,0-0.1,0-0.1,0.1
			c-2.1,1.6-5.1,1.2-6.7-0.8c0,0,0,0,0-0.1c-2.1-2.8-4-5.8-5.6-8.9c-8.2-15.6-10.3-33.6-6-50.7c0.6-2.5,3.1-4.1,5.6-3.6L427.8,861.9
			z M546,936.7c1.4,0.4,2.6,1.5,3.2,2.9c1,2.4-0.2,5.2-2.6,6.2c0,0,0,0,0,0c-18.9,7.7-39.5,10.4-59.8,7.9c-2.7-0.3-4.5-2.8-4.2-5.4
			c0-0.1,0-0.1,0-0.2c0.3-2.6,2.6-4.5,5.2-4.2c0.1,0,0.3,0,0.4,0.1c18.6,2.3,37.5-0.2,54.9-7.3c1.1-0.4,2.2-0.4,3.3,0H546z"/>
		<path class="st2" d="M375.8,406.6c1.2,0.3,2.2,1,2.8,2.1c5.1,7.5,11.1,14.2,17.9,20.1c1.9,1.8,1.9,4.8,0.1,6.7c0,0,0,0-0.1,0.1
			c-1.8,2-4.8,2.1-6.8,0.3c-7.4-6.5-14-13.9-19.5-22.1c-1.4-2.3-0.7-5.2,1.5-6.6C372.9,406.3,374.4,406.1,375.8,406.6z"/>
		<path class="st3" d="M482.1,2156H50.7c-28,0-50.7-22.7-50.7-50.7v-538.6c0-12.6,3.6-24.9,10.5-35.5l161.3-250
			c24.7-38.3,75.8-49.3,114.1-24.6c9.9,6.4,18.3,14.8,24.6,24.6l161.3,250c6.8,10.6,10.5,22.9,10.5,35.5V2156z"/>
		<path class="st3" d="M1372.1,1547.4c5.8,0.1,10.6-4.6,10.6-10.4c0-2-0.5-3.9-1.5-5.6l0,0l-161.3-250l-1-1.3
			c-15.2-22.9-40.9-36.6-68.3-36.5l0,0c-28.1-0.1-54.3,14.1-69.4,37.8l-161.3,250c-3.2,5-5.7,10.5-7.5,16.2L1372.1,1547.4z"/>
		<path class="st4" d="M1208.3,1411.8c0-31.9-25.8-57.8-57.7-57.8c0,0,0,0-0.1,0H565.7l74.6,115.6h510.3
			C1182.4,1469.6,1208.3,1443.8,1208.3,1411.8C1208.3,1411.9,1208.3,1411.9,1208.3,1411.8z"/>
		<polygon class="st3" points="565.7,1354 640.2,1469.6 679.8,1469.6 605.2,1354 		"/>
		<circle class="st5" cx="856.1" cy="447.8" r="127.9"/>
		<path class="st1" d="M878.8,372.8l-88.5,32.4c-8,2.9-12.2,11.7-9.4,19.8c0,0.1,0,0.1,0.1,0.2l32.1,88.2c3,7.9,11.8,12,19.8,9.2
			l88.2-32.2c8.1-2.9,12.3-11.7,9.4-19.8c0-0.1-0.1-0.1-0.1-0.2l-32.2-88.2c-2.6-7.9-11.2-12.2-19.1-9.6
			C879.1,372.7,879,372.8,878.8,372.8z M860.5,484c1.4,3.8-0.6,8.1-4.4,9.5l-21.9,7.9c-3.8,1.4-8.1-0.6-9.5-4.4l-24.4-66.8
			c-1.4-3.9,0.6-8.1,4.4-9.5l21.9-8c3.9-1.4,8.1,0.6,9.5,4.4L860.5,484z M901.1,436c1.4,3.9-0.6,8.1-4.4,9.5l-21.8,8
			c-3.9,1.4-8.1-0.6-9.5-4.4l-13.7-37.5c-1.4-3.9,0.6-8.1,4.4-9.5l22-8.1c3.9-1.4,8.1,0.6,9.5,4.4L901.1,436z"/>
		<circle class="st6" cx="1072.8" cy="944.1" r="141.6"/>
		<path class="st7" d="M1032.9,872.4c-8.5,2.1-13.7,10.7-11.5,19.2c1,4.1,3.6,7.6,7.2,9.8c1.7,1.1,3.6,1.8,5.6,2.1
			c2.1,0.3,4.2,0.2,6.2-0.3l15.4-3.9l-3.8-15.4c-2.3-8.4-10.8-13.4-19.2-11.3L1032.9,872.4z M1043.2,913.5l-41,10.3
			c-8.5,2.1-13.7,10.8-11.6,19.3c2.1,8.5,10.8,13.7,19.3,11.6l0,0l41-10.3c8.5-2.1,13.7-10.8,11.6-19.3
			C1060.4,916.5,1051.8,911.4,1043.2,913.5L1043.2,913.5z"/>
		<path class="st8" d="M1144.5,904.3c-2-8.5-10.5-13.9-19-11.9c-8.5,2-13.9,10.5-11.9,19c0,0.2,0.1,0.4,0.1,0.6l3.9,15.4l15.4-3.9
			c4-1.1,7.4-3.6,9.6-7.2C1144.8,912.7,1145.5,908.4,1144.5,904.3z M1103.5,914.6l-10.3-41.1c-2.1-8.5-10.8-13.7-19.3-11.5
			c-8.5,2.1-13.7,10.8-11.5,19.3l10.3,41.1c2.2,8.5,10.9,13.7,19.4,11.5c4-1,7.5-3.6,9.7-7.2C1103.9,923,1104.5,918.7,1103.5,914.6"
			/>
		<path class="st9" d="M1112.6,1016c4.1-1,7.6-3.6,9.7-7.3c2.2-3.6,2.8-7.9,1.8-12c-2-8.6-10.6-13.9-19.2-11.9c-0.1,0-0.1,0-0.2,0
			l-15.4,3.9l3.9,15.4c2,8.5,10.6,13.8,19.1,11.8C1112.5,1016.1,1112.6,1016.1,1112.6,1016z M1102.3,975l41-10.3
			c8.4-2.6,13.1-11.6,10.5-20c-2.4-7.7-10.3-12.4-18.2-10.9l-41,10.3c-8.5,2.2-13.6,10.8-11.5,19.2c1,4.1,3.6,7.6,7.3,9.8
			c1.7,1.1,3.6,1.8,5.6,2.1c2.1,0.3,4.2,0.2,6.2-0.3"/>
		<path class="st10" d="M1001,984c1,4.1,3.6,7.6,7.3,9.8c3.6,2.1,7.9,2.8,12,1.8c4.1-1.1,7.6-3.7,9.7-7.3c2.2-3.6,2.8-8,1.7-12
			l-3.8-15.4l-15.4,3.9C1004,966.9,998.9,975.5,1001,984z M1042,973.7l10.5,41.1c2.3,8.5,11,13.5,19.5,11.2
			c8.2-2.2,13.2-10.6,11.3-18.9L1073,966c-0.5-2-1.4-4-2.6-5.6c-1.2-1.7-2.8-3.1-4.6-4.2c-1.7-1-3.6-1.8-5.6-2.1
			c-2.1-0.3-4.2-0.2-6.2,0.3c-8.6,1.9-14,10.5-12,19.1C1041.9,973.5,1042,973.6,1042,973.7L1042,973.7z"/>
		<path class="st11" d="M1021.5,1391.6c-69.7-32.1-152.2-1.7-184.3,67.9c-32.1,69.7-1.7,152.2,67.9,184.3
			c69.7,32.1,152.2,1.7,184.3-67.9C1121.5,1506.3,1091.1,1423.8,1021.5,1391.6z"/>
		<polygon class="st12" points="1027.6,1572.5 925.5,1525.4 882.9,1556.5 983.6,1603 		"/>
		<polyline class="st13" points="971.2,1439.4 881.4,1499.5 883.2,1556.7 975.3,1488.4 		"/>
		<polyline class="st14" points="1017.7,1460.9 971.2,1439.4 980.5,1550.8 1028.1,1572.8 1017.7,1460.9 		"/>
		<path class="st4" d="M1589.4,1531.2l-161.3-250c-15.1-23.6-41.3-37.9-69.3-37.8h-208.3c28.1-0.1,54.2,14.1,69.3,37.8l161.3,250
			l0,0c3,5,1.4,11.5-3.6,14.5c-1.7,1-3.6,1.5-5.5,1.5H708.3c-11.5-0.2-22.1-6.3-28.1-16l0,0l-161.5-250
			c-15.1-23.6-41.3-37.9-69.3-37.8H241.1c28.1-0.1,54.2,14.1,69.3,37.8l161.3,250c6.8,10.6,10.5,22.9,10.5,35.5V2156h1067.2
			c28,0,50.7-22.7,50.7-50.7v-538.6C1600,1554.1,1596.3,1541.8,1589.4,1531.2z"/>
		<circle class="st15" cx="592" cy="96.2" r="96.2"/>
		<path class="st1" d="M572.4,53.6c5.7,1.5,11.4-1.9,12.9-7.6c0,0,0-0.1,0-0.1c1.3-5.6-2.2-11.2-7.7-12.5c0,0-0.1,0-0.1,0
			c-5.7-1.5-11.4,1.9-12.9,7.6c0,0,0,0.1,0,0.1c-1.3,5.6,2.2,11.2,7.7,12.5C572.3,53.6,572.4,53.6,572.4,53.6 M538.1,103.2
			c-1.2,2.4-2.1,4.9-2.8,7.4c-2.7,7.3,1,15.3,8.3,18c1.1,0.4,2.2,0.7,3.3,0.8c8.9,1.7,17.9-1.5,23.8-8.4l-5.9,11.7l16.9,4l19-36.8
			c4.8-9.3,10.7-13.3,17.8-11.6c4.8,0.9,8.1,5.5,7.2,10.3c-0.1,0.3-0.1,0.6-0.2,0.9c-0.4,1.8-1.1,3.6-2.1,5.2l-9.3,16.9
			c-1.3,2.3-2.3,4.8-2.9,7.4c-2.4,7.5,1.8,15.5,9.3,17.9c0.9,0.3,1.8,0.5,2.7,0.6c9,2.1,17.5-2,24.7-14.9l-6.2-4.3
			c-5.6,8.6-8.8,9.6-11.3,8.9c-2.5-0.6-3.2-2.3-2.5-5.3c0.5-1.5,1.1-3.1,1.9-4.5l9-16.3c2-3.3,3.5-6.9,4.3-10.6
			c3.1-13.1-3.2-21.7-12.7-24c-9.6-2.3-20,3.7-26.6,11.3l7-14.5l-25.4-5.9l-6.9,12.6l12.2,2.9L576,111.2
			c-8.9,11.7-19.8,9.3-21.1,8.6c-2.1-1.1-3.4-2.2-2.7-5.2c0.6-2.3,1.6-4.6,2.8-6.6l22.2-42.6l-29-6.9L541.2,71l12,2.9l-14.9,29.5"/>
		<circle class="st16" cx="340" cy="332.6" r="122.6"/>
		<g id="ads_manager">
			<path id="path0_fill" class="st17" d="M341.2,407.1c12.3-4.3,18.9-17.7,14.7-30l-7.8-22.9l-22.5,7.7
				c-12.4,4.2-19.1,17.8-14.8,30.2c4.2,12.4,17.8,19.1,30.2,14.8l0,0L341.2,407.1z"/>
			<path id="path1_fill" class="st18" d="M295.2,348c-3.9-12.5,3-25.8,15.5-29.7l0,0l21.8-7.5l14.9,43.8l-21.8,7.3
				C313.4,366.4,299.8,360.2,295.2,348z"/>
			<path id="path1_fill-2" class="st19" d="M279.9,303.2c-4.2-12.4,2.5-25.8,14.9-29.9h0.5l21.8-7.5l15.5,45l-21.8,7.5
				c-12.2,4.6-25.8-1.6-30.4-13.8c0,0,0-0.1,0-0.1C280.1,304,280,303.6,279.9,303.2z"/>
			<path id="path2_fill" class="st20" d="M317,265.6l21.8-7.4c12.1-5.1,26.1,0.5,31.3,12.7c5.1,12.1-0.5,26.1-12.7,31.3
				c-1,0.4-2.1,0.8-3.1,1.1l-21.8,7.4L317,265.6z"/>
			<path id="path3_fill" class="st21" d="M384.8,317.3c4.6,12.2-1.6,25.9-13.8,30.5c-12.2,4.6-25.9-1.6-30.5-13.8
				s1.6-25.9,13.8-30.5c0.1,0,0.2-0.1,0.3-0.1c12.2-4.6,25.8,1.6,30.4,13.8c0,0,0,0,0,0.1L384.8,317.3z"/>
		</g>
		<circle class="st1" cx="1192" cy="613.2" r="96.4"/>
		<path class="st22" d="M1201.4,584.7l-32.5,8.2l21.2,26.1l-32.5,8.2l-21.2-26.1l32.6-8.2l-21.2-26l32.5-8.2L1201.4,584.7z
			 M1155.6,632.8l32.6-8l21.2,26.1l-32.5,8.2L1155.6,632.8z M1190.1,619l32.6-8.2l-21.2-26.1l32.5-8.2l21.2,26.1l-32.5,8.2l21.2,26
			l-32.6,8.2L1190.1,619z"/>
	</g>
</g>
</svg>
