<?xml version="1.0" encoding="utf-8"?>
<!-- Generator: Adobe Illustrator 24.1.0, SVG Export Plug-In . SVG Version: 6.00 Build 0)  -->
<svg version="1.1" id="Layer_1" xmlns="http://www.w3.org/2000/svg" xmlns:xlink="http://www.w3.org/1999/xlink" x="0px" y="0px"
	 viewBox="0 0 3466.3 2000" style="enable-background:new 0 0 3466.3 2000;" xml:space="preserve">
<style type="text/css">
	.st0{fill:#110580;}
	.st1{fill:#D6D7F0;}
	.st2{fill:#E8E8F7;}
	.st3{fill:#C3C6E6;}
	.st4{fill:#007AC0;}
	.st5{fill:#D5D6F0;}
	.st6{fill:#FFFFFF;}
	.st7{fill:#ACAFE0;}
	.st8{fill:#FF7A82;}
	.st9{fill:#AAAAE3;}
	.st10{opacity:0.3;fill:#3B3FAD;enable-background:new    ;}
	.st11{fill:#453069;}
	.st12{fill:#573E82;}
	.st13{fill:#868AE0;}
	.st14{fill:#745CA1;}
	.st15{fill:#C0AFDB;}
</style>
<g id="Layer_2_1_">
	<g id="illustrations">
		<path class="st0" d="M3238.9,1072.2c-2.2-1-3.7-3.3-3.7-5.8c0-3.4,2.8-6.2,6.3-6.2h30.4v-30.3c-0.4-3.4,2.1-6.5,5.5-6.9
			c3.4-0.4,6.5,2.1,6.9,5.5c0.1,0.5,0.1,1,0,1.5v42.3h-42.8C3240.6,1072.4,3239.8,1072.4,3238.9,1072.2z"/>
		<path class="st0" d="M2615.9,1071.7c-2.3-1-3.7-3.2-3.7-5.7c0-3.5,2.8-6.3,6.3-6.3h77.9c3.4,0.4,5.9,3.5,5.5,6.9
			c-0.3,2.9-2.6,5.2-5.5,5.5h-77.9C2617.5,1072.3,2616.7,1072.1,2615.9,1071.7z M2771.7,1071.7c-3.1-1.4-4.6-5-3.2-8.1
			c1-2.3,3.2-3.7,5.7-3.7h78c3.4,0.4,5.9,3.5,5.5,6.9c-0.3,2.9-2.6,5.2-5.5,5.5h-77.9c-0.9,0-1.9-0.1-2.7-0.5L2771.7,1071.7z
			 M2927.5,1071.7c-2.3-1-3.7-3.3-3.7-5.8c0-3.4,2.8-6.2,6.3-6.2h77.9c3.4-0.4,6.5,2.1,6.9,5.5c0.4,3.4-2.1,6.5-5.5,6.9
			c-0.5,0.1-1,0.1-1.5,0H2930c-0.9,0.1-1.8,0-2.7-0.3L2927.5,1071.7z M3083.3,1071.7c-2.3-1-3.7-3.3-3.7-5.8c0-3.4,2.8-6.2,6.2-6.2
			l0,0h78c3.4,0,6.2,2.8,6.2,6.3c0,3.4-2.8,6.2-6.2,6.2l0,0h-78c-0.9,0.1-1.8,0.1-2.6-0.2L3083.3,1071.7z"/>
		<path class="st0" d="M2497.4,1072.3v-42.8c0.4-3.4,3.5-5.9,6.9-5.5c2.9,0.3,5.2,2.6,5.5,5.5v30.4h30.4c3.4-0.4,6.5,2.1,6.9,5.5
			c0.4,3.4-2.1,6.5-5.5,6.9c-0.5,0.1-1,0.1-1.5,0L2497.4,1072.3z"/>
		<path class="st0" d="M2501.3,962.8c-2.3-1-3.7-3.3-3.7-5.8v-72.3c-0.4-3.4,2.1-6.5,5.5-6.9c3.4-0.4,6.5,2.1,6.9,5.5
			c0.1,0.5,0.1,1,0,1.5V957c0,3.5-2.8,6.3-6.3,6.3C2502.9,963.3,2502.1,963.1,2501.3,962.8z M2501.3,818c-2.3-0.9-3.8-2.9-4-5.3V740
			c0.4-3.4,3.5-5.9,6.9-5.5c2.9,0.3,5.2,2.6,5.5,5.5v72.7c0,3.4-2.8,6.2-6.2,6.2c0,0-0.1,0-0.1,0
			C2502.8,818.7,2502.1,818.4,2501.3,818L2501.3,818z M2501.3,673.4c-2.3-1-3.7-3.2-3.7-5.7v-72.4c0.4-3.4,3.5-5.9,6.9-5.5
			c2.9,0.3,5.2,2.6,5.5,5.5v72.4c0,3.4-2.8,6.2-6.3,6.2c-0.8,0-1.6-0.2-2.3-0.5L2501.3,673.4z"/>
		<path class="st0" d="M2501.6,528.7c-2.3-1-3.7-3.3-3.7-5.8v-42.8h42.8c3.4,0.4,5.9,3.5,5.5,6.9c-0.3,2.9-2.6,5.2-5.5,5.5h-30.4
			v30.3c0,3.5-2.8,6.3-6.3,6.3C2503.2,529.2,2502.4,529,2501.6,528.7z"/>
		<path class="st0" d="M2615.9,492.1c-2.2-1-3.7-3.2-3.7-5.7c0-3.4,2.8-6.2,6.2-6.2c0,0,0.1,0,0.1,0h77.9c3.4-0.4,6.5,2.1,6.9,5.5
			c0.4,3.4-2.1,6.5-5.5,6.9c-0.5,0.1-1,0.1-1.5,0h-77.9C2617.5,492.6,2616.7,492.4,2615.9,492.1z M2771.7,492.1
			c-2.3-1-3.7-3.2-3.7-5.7c0-3.4,2.8-6.2,6.3-6.2h77.9c3.4,0.4,5.9,3.5,5.5,6.9c-0.3,2.9-2.6,5.2-5.5,5.5h-78
			c-0.8,0-1.6-0.2-2.3-0.5L2771.7,492.1z M2927.6,492.1c-2.3-1-3.7-3.3-3.7-5.8c0-3.4,2.8-6.2,6.2-6.2l0,0h77.9
			c3.5,0,6.3,2.8,6.3,6.3c0,3.4-2.8,6.2-6.2,6.2c0,0-0.1,0-0.1,0H2930c-0.8,0.1-1.5,0-2.3-0.3L2927.6,492.1z M3083.3,492.1
			c-2.3-1-3.7-3.3-3.7-5.8c0-3.4,2.8-6.2,6.3-6.2h77.9c3.4,0,6.2,2.8,6.2,6.2c0,3.4-2.8,6.2-6.2,6.2h-77.9c-0.8,0.1-1.6,0.1-2.4-0.1
			L3083.3,492.1z"/>
		<path class="st0" d="M3276.2,529.1c-2.3-1-3.7-3.2-3.7-5.7V493h-30.4c-3.4-0.4-5.9-3.5-5.5-6.9c0.3-2.9,2.6-5.2,5.5-5.5h42.6v42.8
			c0,3.4-2.6,6.1-6,6.2c-0.1,0-0.1,0-0.2,0C3277.7,529.6,3276.9,529.4,3276.2,529.1z"/>
		<path class="st0" d="M3275.6,963.2c-2.2-1-3.7-3.2-3.7-5.7v-72.4c0.4-3.4,3.5-5.9,6.9-5.5c2.9,0.3,5.2,2.6,5.5,5.5v72.4
			c-0.1,3.5-3,6.2-6.5,6.1c-0.7,0-1.4-0.2-2-0.4H3275.6z M3275.6,818.5c-2.3-1-3.8-3.2-3.8-5.7v-72.4c-0.4-3.4,2.1-6.5,5.5-6.9
			c3.4-0.4,6.5,2.1,6.9,5.5c0.1,0.5,0.1,1,0,1.5v72.2c0,3.4-2.8,6.2-6.2,6.2l0,0c-0.6,0-1.3-0.1-1.9-0.3H3275.6z M3275.6,673.9
			c-2.3-1-3.7-3.3-3.7-5.8v-72.3c-0.4-3.4,2.1-6.5,5.5-6.9c3.4-0.4,6.5,2.1,6.9,5.5c0.1,0.5,0.1,1,0,1.5v72.3c0,3.4-2.7,6.2-6.1,6.3
			c0,0-0.1,0-0.1,0c-0.7-0.1-1.3-0.2-1.9-0.5L3275.6,673.9z"/>
		<path class="st1" d="M1000.7,0h2061.5c22.5,0,40.7,18.2,40.7,40.7v1325.7c0,22.5-18.2,40.7-40.7,40.7H1000.7
			c-22.5,0-40.7-18.2-40.7-40.7V40.7C960,18.2,978.2,0,1000.7,0z"/>
		<path class="st2" d="M1061.5,281h397.7c14.9,0,27,12.1,27,27v375.9c0,14.9-12.1,27-27,27h-397.7c-14.9,0-27-12.1-27-27V308
			C1034.5,293.1,1046.6,281,1061.5,281z"/>
		<path class="st2" d="M1575.6,281h397.7c14.9,0,27,12.1,27,27v697c0,14.9-12.1,27-27,27h-397.7c-14.9,0-27-12.1-27-27V308
			C1548.6,293.1,1560.7,281,1575.6,281z"/>
		<path class="st2" d="M2089.7,281h397.7c14.9,0,27,12.1,27,27v891.9c0,14.9-12.1,27-27,27h-397.7c-14.9,0-27-12.1-27-27V308
			C2062.6,293.1,2074.7,281,2089.7,281z"/>
		<path class="st2" d="M2603.8,281h397.7c14.9,0,27,12.1,27,27v519c0,14.9-12.1,27-27,27h-397.7c-14.9,0-27-12.1-27-27V308
			C2576.8,293.1,2588.9,281,2603.8,281z"/>
		<path class="st3" d="M1088.9,314.4h199.9c9.2,0,16.7,7.5,16.7,16.7v0.1c0,9.2-7.5,16.7-16.7,16.7h-199.9
			c-9.2,0-16.7-7.5-16.7-16.7v-0.1C1072.3,321.9,1079.7,314.4,1088.9,314.4z"/>
		<path class="st4" d="M3062.3,0H1000.7C978.2,0,960,18.2,960,40.7v134.7h2143V40.7C3103,18.2,3084.8,0,3062.3,0z"/>
		<path class="st5" d="M1988.8,35.1h85.2c5.5,0,9.9,4.4,9.9,9.9v85.2c0,5.5-4.4,9.9-9.9,9.9h-85.2c-5.5,0-9.9-4.4-9.9-9.9V45
			C1978.9,39.6,1983.4,35.1,1988.8,35.1z"/>
		<path class="st4" d="M1996.3,47.7h24.1c2.7,0,4.8,2.2,4.8,4.8v71c0,2.7-2.2,4.8-4.8,4.8h-24.1c-2.7,0-4.8-2.2-4.8-4.8v-71
			C1991.5,49.8,1993.6,47.7,1996.3,47.7z"/>
		<path class="st4" d="M2042.6,47.7h24.1c2.7,0,4.8,2.2,4.8,4.8v41.1c0,2.7-2.2,4.8-4.8,4.8h-24.1c-2.7,0-4.8-2.2-4.8-4.8V52.5
			C2037.8,49.8,2039.9,47.7,2042.6,47.7z"/>
		<path class="st6" d="M1094.7,381.3h331.3c12.4,0,22.4,10,22.4,22.4V621c0,12.4-10,22.4-22.4,22.4h-331.3
			c-12.4,0-22.4-10-22.4-22.4V403.7C1072.3,391.3,1082.3,381.3,1094.7,381.3z"/>
		<path class="st3" d="M1603,314.5h157.5c9.2,0,16.7,7.5,16.7,16.7v0.1c0,9.2-7.5,16.7-16.7,16.7H1603c-9.2,0-16.7-7.5-16.7-16.7
			v-0.1C1586.4,322,1593.8,314.5,1603,314.5z"/>
		<path class="st6" d="M1608.8,381.3h331.3c12.4,0,22.4,10,22.4,22.4v132.6c0,12.4-10,22.4-22.4,22.4h-331.3
			c-12.4,0-22.4-10-22.4-22.4V403.7C1586.4,391.3,1596.4,381.3,1608.8,381.3z"/>
		<path class="st3" d="M2117.2,314.4h250.8c9.2,0,16.7,7.5,16.7,16.7v0.1c0,9.2-7.5,16.7-16.7,16.7h-250.8
			c-9.2,0-16.7-7.5-16.7-16.7v-0.1C2100.5,321.9,2108,314.4,2117.2,314.4z"/>
		<path class="st6" d="M2122.9,685.4h331.3c12.4,0,22.4,10,22.4,22.4v429.1c0,12.4-10,22.4-22.4,22.4h-331.3
			c-12.4,0-22.4-10-22.4-22.4V707.8C2100.5,695.4,2110.5,685.4,2122.9,685.4z"/>
		<path class="st6" d="M2122.9,381.3h331.3c12.4,0,22.4,10,22.4,22.4v225.8c0,12.4-10,22.4-22.4,22.4h-331.3
			c-12.4,0-22.4-10-22.4-22.4V403.7C2100.5,391.3,2110.5,381.3,2122.9,381.3z"/>
		<path class="st6" d="M1611.7,592.4h331.3c12.4,0,22.4,10,22.4,22.4v327.3c0,12.4-10,22.4-22.4,22.4h-331.3
			c-12.4,0-22.4-10-22.4-22.4V614.9C1589.2,602.5,1599.3,592.4,1611.7,592.4z"/>
		<path class="st3" d="M2631.3,314.4h123.6c9.2,0,16.7,7.5,16.7,16.7v0.1c0,9.2-7.5,16.7-16.7,16.7h-123.6
			c-9.2,0-16.7-7.5-16.7-16.7v-0.1C2614.6,321.9,2622.1,314.4,2631.3,314.4z"/>
		<path class="st6" d="M2637,381.3h331.3c12.4,0,22.4,10,22.4,22.4v149.5c0,12.4-10,22.4-22.4,22.4H2637c-12.4,0-22.4-10-22.4-22.4
			V403.7C2614.6,391.3,2624.6,381.3,2637,381.3z"/>
		<path class="st6" d="M2637,609.1h331.3c12.4,0,22.4,10,22.4,22.4v133.6c0,12.4-10,22.4-22.4,22.4H2637c-12.4,0-22.4-10-22.4-22.4
			V631.5C2614.6,619.1,2624.6,609.1,2637,609.1z"/>
		<path class="st2" d="M1132.2,429.2h140.6c9.2,0,16.7,7.5,16.7,16.7v0.1c0,9.2-7.5,16.7-16.7,16.7h-140.6
			c-9.2,0-16.7-7.5-16.7-16.7v-0.1C1115.5,436.7,1123,429.2,1132.2,429.2z"/>
		<path class="st2" d="M1132.2,503.6h199.9c9.2,0,16.7,7.5,16.7,16.7v0.1c0,9.2-7.5,16.7-16.7,16.7h-199.9
			c-9.2,0-16.7-7.5-16.7-16.7v-0.1C1115.5,511.1,1123,503.6,1132.2,503.6z"/>
		<path class="st2" d="M2160.4,920.5H2301c9.2,0,16.7,7.5,16.7,16.7v0.1c0,9.2-7.5,16.7-16.7,16.7h-140.6c-9.2,0-16.7-7.5-16.7-16.7
			v-0.1C2143.7,927.9,2151.2,920.5,2160.4,920.5z"/>
		<path class="st2" d="M2160.4,994.9h199.9c9.2,0,16.7,7.5,16.7,16.7v0.1c0,9.2-7.5,16.7-16.7,16.7h-199.9
			c-9.2,0-16.7-7.5-16.7-16.7v-0.1C2143.7,1002.3,2151.2,994.9,2160.4,994.9z"/>
		<path class="st2" d="M2160.4,1069.3h106.7c9.2,0,16.7,7.5,16.7,16.7v0.1c0,9.2-7.5,16.7-16.7,16.7h-106.7
			c-9.2,0-16.7-7.5-16.7-16.7v-0.1C2143.7,1076.8,2151.2,1069.3,2160.4,1069.3z"/>
		<path class="st2" d="M1646.3,643.5h140.6c9.2,0,16.7,7.5,16.7,16.7v0.1c0,9.2-7.5,16.7-16.7,16.7h-140.6
			c-9.2,0-16.7-7.5-16.7-16.7v-0.1C1629.6,650.9,1637.1,643.5,1646.3,643.5z"/>
		<path class="st2" d="M1646.3,792.3h250.8c9.2,0,16.7,7.5,16.7,16.7v0.1c0,9.2-7.5,16.7-16.7,16.7h-250.8
			c-9.2,0-16.7-7.5-16.7-16.7V809C1629.6,799.8,1637.1,792.3,1646.3,792.3z"/>
		<path class="st2" d="M1646.3,866.7h140.6c9.2,0,16.7,7.5,16.7,16.7v0.1c0,9.2-7.5,16.7-16.7,16.7h-140.6
			c-9.2,0-16.7-7.5-16.7-16.7v-0.1C1629.6,874.2,1637.1,866.7,1646.3,866.7z"/>
		<path class="st2" d="M1646.3,717.9h199.9c9.2,0,16.7,7.5,16.7,16.7v0.1c0,9.2-7.5,16.7-16.7,16.7h-199.9
			c-9.2,0-16.7-7.5-16.7-16.7v-0.1C1629.6,725.4,1637.1,717.9,1646.3,717.9z"/>
		<path class="st2" d="M2160.4,503.6H2301c9.2,0,16.7,7.5,16.7,16.7v0.1c0,9.2-7.5,16.7-16.7,16.7h-140.6c-9.2,0-16.7-7.5-16.7-16.7
			v-0.1C2143.7,511.1,2151.2,503.6,2160.4,503.6z"/>
		<path class="st2" d="M2209.3,429.2h199.9c9.2,0,16.7,7.5,16.7,16.7v0.1c0,9.2-7.5,16.7-16.7,16.7h-199.9
			c-9.2,0-16.7-7.5-16.7-16.7v-0.1C2192.6,436.7,2200.1,429.2,2209.3,429.2z"/>
		<path class="st2" d="M2674.5,503.6h140.6c9.2,0,16.7,7.5,16.7,16.7v0.1c0,9.2-7.5,16.7-16.7,16.7h-140.6
			c-9.2,0-16.7-7.5-16.7-16.7v-0.1C2657.9,511.1,2665.3,503.6,2674.5,503.6z"/>
		<path class="st2" d="M2674.5,429.2h199.9c9.2,0,16.7,7.5,16.7,16.7v0.1c0,9.2-7.5,16.7-16.7,16.7h-199.9
			c-9.2,0-16.7-7.5-16.7-16.7v-0.1C2657.9,436.7,2665.3,429.2,2674.5,429.2z"/>
		<path class="st2" d="M2723.4,657.2h182.9c9.2,0,16.7,7.5,16.7,16.7v0.1c0,9.2-7.5,16.7-16.7,16.7h-182.9
			c-9.2,0-16.7-7.5-16.7-16.7v-0.1C2706.7,664.7,2714.2,657.2,2723.4,657.2z"/>
		<path class="st2" d="M1646.3,429.2h199.9c9.2,0,16.7,7.5,16.7,16.7v0.1c0,9.2-7.5,16.7-16.7,16.7h-199.9
			c-9.2,0-16.7-7.5-16.7-16.7v-0.1C1629.6,436.7,1637.1,429.2,1646.3,429.2z"/>
		<path class="st7" d="M2454.1,685.7h-331.2c-12.4,0-22.4,10.1-22.4,22.5v164.7h376.1v-165C2476.4,695.6,2466.4,685.7,2454.1,685.7z
			"/>
		
			<ellipse transform="matrix(0.1602 -0.9871 0.9871 0.1602 1373.7976 2506.6416)" class="st8" cx="2160" cy="446" rx="16.3" ry="16.3"/>
		<circle class="st8" cx="2674.1" cy="673.9" r="16.3"/>
		<path class="st6" d="M2464.8,1315.6h959.7c23.1,0,41.8,18.7,41.8,41.8v465.7c0,23.1-18.7,41.8-41.8,41.8h-959.7
			c-23.1,0-41.8-18.7-41.8-41.8v-465.7C2423,1334.4,2441.8,1315.6,2464.8,1315.6z"/>
		<path class="st2" d="M2681.3,1478.1h547.3c9.2,0,16.7,7.5,16.7,16.7v0.1c0,9.2-7.5,16.7-16.7,16.7h-547.3
			c-9.2,0-16.7-7.5-16.7-16.7v-0.1C2664.6,1485.6,2672.1,1478.1,2681.3,1478.1z"/>
		<path class="st2" d="M2681.3,1552.5h344c9.2,0,16.7,7.5,16.7,16.7v0.1c0,9.2-7.5,16.7-16.7,16.7h-344c-9.2,0-16.7-7.5-16.7-16.7
			v-0.1C2664.6,1560,2672.1,1552.5,2681.3,1552.5z"/>
		<path class="st9" d="M2522.4,1403.7h182.9c9.2,0,16.7,7.5,16.7,16.7v0.1c0,9.2-7.5,16.7-16.7,16.7h-182.9
			c-9.2,0-16.7-7.5-16.7-16.7v-0.1C2505.7,1411.1,2513.2,1403.7,2522.4,1403.7z"/>
		<path class="st2" d="M2523.2,1654.8h104.7l0,0v122.2l0,0h-104.7c-9.6,0-17.4-7.8-17.4-17.4v-87.3
			C2505.7,1662.6,2513.5,1654.8,2523.2,1654.8z"/>
		<path class="st9" d="M2584.2,1712.8h-14.4v-14.5c0-1.6-1.3-3-3-3l0,0c-1.6,0-3,1.3-3,3v0v14.5h-14.5c-1.6,0-3,1.3-3,3
			c0,1.6,1.3,3,3,3c0,0,0,0,0,0h14.5v14.5c0,1.6,1.3,3,3,3l0,0c1.6,0,3-1.3,3-3v0v-14.7h14.4c1.6,0,3-1.3,3-3c0-1.6-1.3-3-3-3
			c0,0,0,0,0,0V1712.8z"/>
		<path class="st8" d="M2517.8,1478.1h83.8c6.6,0,12,5.4,12,12v83.8c0,6.6-5.4,12-12,12h-83.8c-6.6,0-12-5.4-12-12v-83.8
			C2505.7,1483.5,2511.1,1478.1,2517.8,1478.1z"/>
		<path class="st2" d="M3369.3,1661.2c4.4,0,8,3.6,8,8l0,0v93.1c0,4.4-3.6,8-8,8l0,0h-849.2c-4.4,0-8-3.6-8-8l0,0v-93.1
			c0-4.4,3.6-8,8-8l0,0H3369.3 M3369.3,1654.9h-849.2c-7.9,0-14.3,6.4-14.4,14.3v93.1c0,7.9,6.5,14.3,14.4,14.3h849.2
			c7.9,0,14.3-6.4,14.3-14.3l0,0v-93.1C3383.6,1661.3,3377.2,1654.9,3369.3,1654.9L3369.3,1654.9z"/>
		<path class="st10" d="M2185.3,616.6c0.1-22.5-18.1-40.8-40.6-40.9c-0.1,0-0.1,0-0.2,0H960v16.9h1142.3c22.4,0,40.6,18.2,40.6,40.6
			c0,0,0,0.1,0,0.1V1407h42.3L2185.3,616.6z"/>
		<path class="st0" d="M314,740.7c-0.5,0.6-1.2,1.1-1.9,1.4c-3,1.2-6.4-0.2-7.6-3.1c-4.6-10.9-8-22.3-10.2-33.9
			c-0.7-3.2,1.4-6.3,4.6-6.9c3.2-0.7,6.3,1.4,6.9,4.6c2,10.8,5.1,21.4,9.4,31.6C316.2,736.4,315.7,739,314,740.7z"/>
		<path class="st0" d="M1208.9,314.8c-0.5,0.5-1.1,0.9-1.7,1.3l-7.8,3.7c-17.9,8.5-36.6,17.5-56.6,26.5c-2.9,1.3-6.4-0.1-7.7-3
			c-1.3-2.9-0.1-6.3,2.8-7.6c0,0,0.1,0,0.1-0.1c19.8-8.5,38.3-17.8,56.3-26.3l7.7-3.7c2.9-1.3,6.4-0.1,7.7,2.9
			C1210.8,310.5,1210.5,313,1208.9,314.8L1208.9,314.8z M1078.9,371.1c-0.6,0.7-1.4,1.2-2.3,1.5c-22.6,7.9-45.7,14.2-69.2,19
			c-3.1,0.7-6.1-1.2-6.8-4.3c0-0.1,0-0.2-0.1-0.3c-0.7-3.1,1.3-6.2,4.4-6.8c0,0,0,0,0.1,0c23-4.7,45.6-10.9,67.7-18.6
			c2.9-1.1,6.2,0.4,7.3,3.3c0,0.1,0.1,0.1,0.1,0.2C1080.9,367.3,1080.4,369.6,1078.9,371.1z M940.3,397.9c-1,1.1-2.5,1.8-4.1,1.8
			c-24,0.5-48-1.5-71.6-5.9c-3.2-0.6-5.3-3.6-4.7-6.8c0,0,0,0,0,0c0.6-3.1,3.6-5.2,6.7-4.6c0,0,0.1,0,0.1,0
			c22.8,4.3,46,6.2,69.2,5.7c3.2,0,5.9,2.5,5.9,5.8c0,0,0,0,0,0C942,395.3,941.4,396.8,940.3,397.9z M802.4,371.4
			c-1.7,1.8-4.4,2.2-6.6,1.1c-22.1-9.4-43.2-21.3-62.7-35.3c-2.8-1.7-3.6-5.3-1.9-8c1.7-2.8,5.3-3.6,8-1.9c0.2,0.1,0.5,0.3,0.7,0.5
			c18.9,13.5,39.2,24.8,60.5,33.9c2.9,1.2,4.3,4.6,3.1,7.5c0,0,0,0.1,0,0.1C803.2,370,802.9,370.7,802.4,371.4z M774.7,291.8
			c-9.1,9.5-18.8,18.4-29.2,26.5c-2.5,2.1-6.1,1.8-8.2-0.6c-0.1-0.1-0.2-0.2-0.2-0.3c-2.1-2.5-1.7-6.3,0.9-8.3
			c0.1,0,0.1-0.1,0.2-0.1c9.9-7.8,19.3-16.3,27.9-25.4l0,0c7.2-7.6,14-15.6,20.1-24c1.7-2.8,5.2-3.7,8-2c2.8,1.7,3.7,5.2,2,8
			c-0.2,0.3-0.4,0.6-0.6,0.9c-6.5,8.9-13.5,17.4-21.2,25.4L774.7,291.8z M686.1,355.6c-0.5,0.5-1,0.9-1.6,1.2
			c-21.3,10.6-43.2,20.1-65.4,28.5c-2.9,1.2-6.3-0.2-7.5-3.2c0,0,0-0.1,0-0.1c-1.2-3,0.3-6.4,3.3-7.5c26.3-10.4,46.2-18.9,64.4-28.4
			c2.8-1.5,6.3-0.3,7.8,2.5c0,0,0,0,0,0.1C688.3,350.9,687.9,353.7,686.1,355.6z M826.4,203.9c-1.5,1.5-3.7,2.1-5.8,1.6
			c-3.1-0.9-4.9-4.1-4.1-7.2c3.2-11.6,4.9-23.7,5.1-35.7c0.2-10.5-1.2-21.1-3.9-31.2c-0.9-3.1,0.9-6.2,4-7.1c0,0,0,0,0.1,0
			c3.1-0.8,6.3,1,7.2,4.1c3,11.3,4.5,22.9,4.3,34.5c-0.3,13-2.1,26-5.5,38.5C827.5,202.3,827.1,203.2,826.4,203.9z M688.9,288.6
			l-0.5,0.5c-2.4,2.1-6.1,1.9-8.2-0.6c-0.1-0.1-0.2-0.2-0.2-0.3c-15.7-18.6-28.1-39.8-36.6-62.6c-1.1-3,0.5-6.4,3.5-7.5
			c3-1.1,6.4,0.5,7.5,3.5c8,21.6,19.7,41.6,34.5,59.3C690.8,283.2,690.8,286.4,688.9,288.6L688.9,288.6z M554.9,408.6
			c-0.6,0.6-1.4,1.1-2.2,1.4l-23.1,9.1c-15,6.1-28.6,12.1-41.7,18.3c-2.8,1.4-6.2,0.3-7.6-2.5c0-0.1-0.1-0.1-0.1-0.2
			c-1.4-2.8-0.3-6.3,2.6-7.7c0,0,0.1,0,0.1-0.1c13.3-6.3,27.2-12.4,42.3-18.5c7.7-3.1,15.5-6.2,23.3-9.1c3-1.2,6.3,0.3,7.5,3.2
			c0,0.1,0,0.1,0.1,0.2C556.8,404.6,556.4,407,554.9,408.6z M305.4,637.2c-1.4,1.4-3.4,2-5.4,1.7c-3.1-0.7-5.1-3.7-4.6-6.9
			c4.9-23.7,13.5-46.6,25.4-67.7c1.8-2.7,5.5-3.3,8.1-1.5c2.3,1.6,3.2,4.6,2,7.2c-11.4,20.3-19.5,42.2-24.1,64.9
			c-0.3,0.9-0.8,1.8-1.4,2.5L305.4,637.2z M427.9,470.7l-1,0.8c-19.5,12.7-37.8,27.3-54.3,43.7c-2.3,2.3-6.1,2.3-8.5,0
			s-2.3-6.1,0-8.5l0,0c17.1-16.9,35.8-32.1,56-45.2c2.6-1.9,6.2-1.4,8.2,1.2c0.1,0.1,0.2,0.3,0.3,0.4
			C430,465.5,429.8,468.6,427.9,470.7z M791.3,74.2c-2.2,2.3-5.9,2.4-8.3,0.2c-0.1-0.1-0.1-0.1-0.2-0.2
			c-13.6-12.4-31.3-19.4-49.7-19.6c-3.7,0-7.4,0.3-11.1,0.9c-3,0.3-5.7-1.8-6.3-4.7c-0.5-3.2,1.7-6.1,4.8-6.7c4.3-0.7,8.6-1,12.9-1
			c21.2,0.1,41.7,8.1,57.4,22.3c2.5,2.1,2.8,5.9,0.7,8.4c0,0-0.1,0.1-0.1,0.1L791.3,74.2z M643.8,158.1c-2.3,2.3-6,2.3-8.3,0.1
			c-1.3-1.2-1.9-3-1.7-4.7c2.5-24.6,11.3-48.1,25.4-68.4c1.7-2.8,5.3-3.6,8-1.9c2.8,1.7,3.6,5.3,1.9,8c-0.1,0.2-0.3,0.5-0.5,0.7
			c-13,18.6-21.1,40.3-23.4,62.9C645.1,156,644.6,157.2,643.8,158.1z"/>
		<path class="st0" d="M1307.4,278.1c-1,1.1-2.4,1.7-3.8,1.8c-10.8,1.1-21.5,3.7-31.7,7.6c-3.1,1-6.4-0.8-7.3-3.8
			c-0.9-2.9,0.6-6,3.4-7.2c11.2-4.3,22.9-7.2,34.8-8.5c3.2-0.2,5.9,2.1,6.2,5.3c0,0,0,0.1,0,0.1
			C1309.3,275.2,1308.7,276.9,1307.4,278.1z"/>
		<path class="st6" d="M40.7,592.8h2061.5c22.5,0,40.7,18.2,40.7,40.7v1325.7c0,22.5-18.2,40.7-40.7,40.7H40.7
			c-22.5,0-40.7-18.2-40.7-40.7V633.5C0,611,18.2,592.8,40.7,592.8z"/>
		<path class="st2" d="M957,947.8h596.7c14.4,0,26,11.6,26,26v285c0,14.4-11.6,26-26,26H957c-14.4,0-26-11.6-26-26v-285
			C931,959.4,942.7,947.8,957,947.8z"/>
		<path class="st2" d="M1748.7,1156.7h310.3c9.3,0,16.8,7.5,16.8,16.8v230.3c0,9.3-7.5,16.8-16.8,16.8h-310.3
			c-9.3,0-16.8-7.5-16.8-16.8v-230.3C1732,1164.2,1739.5,1156.7,1748.7,1156.7z"/>
		<path class="st11" d="M40.7,2000h144.6V592.6H40.7C18.2,592.6,0,610.8,0,633.3c0,0.1,0,0.1,0,0.2v1325.8
			C0,1981.8,18.2,2000,40.7,2000z"/>
		<rect x="185.3" y="592.8" class="st12" width="507.7" height="1407.2"/>
		<path class="st8" d="M50.8,702.7h83.8c6.6,0,12,5.4,12,12v83.8c0,6.6-5.4,12-12,12H50.8c-6.6,0-12-5.4-12-12v-83.8
			C38.8,708.1,44.2,702.7,50.8,702.7z"/>
		<path class="st13" d="M790.5,776.4h83.8c6.6,0,12,5.4,12,12v83.8c0,6.6-5.4,12-12,12h-83.8c-6.6,0-12-5.4-12-12v-83.8
			C778.5,781.8,783.9,776.4,790.5,776.4z"/>
		<path class="st13" d="M50.8,865.4h83.8c6.6,0,12,5.4,12,12v83.8c0,6.6-5.4,12-12,12H50.8c-6.6,0-12-5.4-12-12v-83.8
			C38.8,870.7,44.2,865.4,50.8,865.4z"/>
		<path class="st14" d="M134.3,1034.2c3.1,0,5.7,2.5,5.7,5.7v83.8c0,3.1-2.5,5.7-5.7,5.7H50.8c-3.1,0-5.6-2.6-5.7-5.7v-83.8
			c0-3.1,2.6-5.6,5.7-5.7h83.8 M134.6,1027.9H50.8c-6.6,0-12,5.4-12,12v83.8c0,6.6,5.4,12,12,12h83.8c6.6,0,12-5.4,12-12v-83.8
			C146.6,1033.3,141.2,1027.9,134.6,1027.9L134.6,1027.9z"/>
		<path class="st2" d="M92.4,1061.5c-1.7,0-3,1.4-3,3v14.4H75.1c-1.6,0-3,1.3-3,3c0,1.6,1.3,2.9,3,3h14.4v14.5c0,1.6,1.3,3,3,3
			c0,0,0,0,0,0c1.6,0,3-1.3,3-3l0,0v-14.5h14.6c1.6,0,3-1.3,3-3c0-1.6-1.3-2.9-3-3H95.4v-14.4C95.5,1062.9,94.2,1061.6,92.4,1061.5
			C92.5,1061.5,92.5,1061.5,92.4,1061.5z"/>
		<path class="st15" d="M256.4,882.3h276.4c9.2,0,16.7,7.5,16.7,16.7v0.1c0,9.2-7.5,16.7-16.7,16.7H256.4c-9.2,0-16.7-7.5-16.7-16.7
			V899C239.7,889.8,247.2,882.3,256.4,882.3z"/>
		<path class="st6" d="M256.4,702.7h183.2c9.2,0,16.7,7.5,16.7,16.7v0.1c0,9.2-7.5,16.7-16.7,16.7H256.4c-9.2,0-16.7-7.5-16.7-16.7
			v-0.1C239.7,710.2,247.2,702.7,256.4,702.7z"/>
		<path class="st14" d="M256.4,960.3h208.3c9.2,0,16.7,7.5,16.7,16.7v0.1c0,9.2-7.5,16.7-16.7,16.7H256.4c-9.2,0-16.7-7.5-16.7-16.7
			v-0.1C239.7,967.7,247.2,960.3,256.4,960.3z"/>
		<path class="st2" d="M947.7,776.4h462.6c9.2,0,16.7,7.5,16.7,16.7v0.1c0,9.2-7.5,16.7-16.7,16.7H947.7c-9.2,0-16.7-7.5-16.7-16.7
			v-0.1C931,783.8,938.5,776.4,947.7,776.4z"/>
		<path class="st2" d="M947.7,850.8h293.1c9.2,0,16.7,7.5,16.7,16.7v0.1c0,9.2-7.5,16.7-16.7,16.7H947.7c-9.2,0-16.7-7.5-16.7-16.7
			v-0.1C931,858.3,938.5,850.8,947.7,850.8z"/>
		<path class="st13" d="M790.5,1384.8h83.8c6.6,0,12,5.4,12,12v83.8c0,6.6-5.4,12-12,12h-83.8c-6.6,0-12-5.4-12-12v-83.8
			C778.5,1390.2,783.9,1384.8,790.5,1384.8z"/>
		<path class="st13" d="M1739.4,1469.6h51.6c4.1,0,7.4,3.3,7.4,7.4v51.6c0,4.1-3.3,7.4-7.4,7.4h-51.6c-4.1,0-7.4-3.3-7.4-7.4v-51.6
			C1732,1473,1735.3,1469.6,1739.4,1469.6z"/>
		<path class="st8" d="M1739.4,751.2h51.6c4.1,0,7.4,3.3,7.4,7.4v51.6c0,4.1-3.3,7.4-7.4,7.4h-51.6c-4.1,0-7.4-3.3-7.4-7.4v-51.6
			C1732,754.6,1735.3,751.2,1739.4,751.2z"/>
		<path class="st2" d="M947.7,1384.8H1495c9.2,0,16.7,7.5,16.7,16.7v0.1c0,9.2-7.5,16.7-16.7,16.7H947.7c-9.2,0-16.7-7.5-16.7-16.7
			v-0.1C931,1392.3,938.5,1384.8,947.7,1384.8z"/>
		<path class="st2" d="M947.7,1459.2h377.8c9.2,0,16.7,7.5,16.7,16.7v0.1c0,9.2-7.5,16.7-16.7,16.7H947.7c-9.2,0-16.7-7.5-16.7-16.7
			v-0.1C931,1466.7,938.5,1459.2,947.7,1459.2z"/>
		<path class="st2" d="M947.7,1533.6h462.6c9.2,0,16.7,7.5,16.7,16.7v0.1c0,9.2-7.5,16.7-16.7,16.7H947.7c-9.2,0-16.7-7.5-16.7-16.7
			v-0.1C931,1541.1,938.5,1533.6,947.7,1533.6z"/>
		<path class="st2" d="M947.7,1608H1495c9.2,0,16.7,7.5,16.7,16.7v0.1c0,9.2-7.5,16.7-16.7,16.7H947.7c-9.2,0-16.7-7.5-16.7-16.7
			v-0.1C931,1615.5,938.5,1608,947.7,1608z"/>
		<path class="st2" d="M1748.7,851.4h293.1c9.2,0,16.7,7.5,16.7,16.7v0.1c0,9.2-7.5,16.7-16.7,16.7h-293.1
			c-9.2,0-16.7-7.5-16.7-16.7v-0.1C1732,858.9,1739.4,851.4,1748.7,851.4z"/>
		<path class="st2" d="M1748.7,925.8H1957c9.2,0,16.7,7.5,16.7,16.7v0.1c0,9.2-7.5,16.7-16.7,16.7h-208.3c-9.2,0-16.7-7.5-16.7-16.7
			v-0.1C1732,933.3,1739.4,925.8,1748.7,925.8z"/>
		<path class="st2" d="M1748.7,1000.2h259.2c9.2,0,16.7,7.5,16.7,16.7v0.1c0,9.2-7.5,16.7-16.7,16.7h-259.2
			c-9.2,0-16.7-7.5-16.7-16.7v-0.1C1732,1007.7,1739.4,1000.2,1748.7,1000.2z"/>
		<path class="st2" d="M1748.7,1074.6h123.6c9.2,0,16.7,7.5,16.7,16.7v0.1c0,9.2-7.5,16.7-16.7,16.7h-123.6
			c-9.2,0-16.7-7.5-16.7-16.7v-0.1C1732,1082.1,1739.4,1074.6,1748.7,1074.6z"/>
		<path class="st2" d="M1748.7,1573.6H1957c9.2,0,16.7,7.5,16.7,16.7v0.1c0,9.2-7.5,16.7-16.7,16.7h-208.3
			c-9.2,0-16.7-7.5-16.7-16.7v-0.1C1732,1581.1,1739.4,1573.6,1748.7,1573.6z"/>
		<path class="st2" d="M1748.7,1648h293.1c9.2,0,16.7,7.5,16.7,16.7v0.1c0,9.2-7.5,16.7-16.7,16.7h-293.1c-9.2,0-16.7-7.5-16.7-16.7
			v-0.1C1732,1655.5,1739.4,1648,1748.7,1648z"/>
		<path class="st2" d="M947.7,1682.5h293.1c9.2,0,16.7,7.5,16.7,16.7v0.1c0,9.2-7.5,16.7-16.7,16.7H947.7c-9.2,0-16.7-7.5-16.7-16.7
			v-0.1C931,1689.9,938.5,1682.5,947.7,1682.5z"/>
		<path class="st14" d="M256.4,1038.3h208.3c9.2,0,16.7,7.5,16.7,16.7v0.1c0,9.2-7.5,16.7-16.7,16.7H256.4
			c-9.2,0-16.7-7.5-16.7-16.7v-0.1C239.7,1045.8,247.2,1038.3,256.4,1038.3z"/>
		<path class="st14" d="M256.4,1116.3h208.3c9.2,0,16.7,7.5,16.7,16.7v0.1c0,9.2-7.5,16.7-16.7,16.7H256.4
			c-9.2,0-16.7-7.5-16.7-16.7v-0.1C239.7,1123.7,247.2,1116.3,256.4,1116.3z"/>
		<path class="st15" d="M256.4,1320h310.3c9.2,0,16.7,7.5,16.7,16.7v0.1c0,9.2-7.5,16.7-16.7,16.7H256.4c-9.2,0-16.7-7.5-16.7-16.7
			v-0.1C239.7,1327.4,247.2,1320,256.4,1320z"/>
		<path class="st14" d="M256.4,1397.9h208.3c9.2,0,16.7,7.5,16.7,16.7v0.1c0,9.2-7.5,16.7-16.7,16.7H256.4
			c-9.2,0-16.7-7.5-16.7-16.7v-0.1C239.7,1405.4,247.2,1397.9,256.4,1397.9z"/>
		<path class="st15" d="M256.4,1682.2h310.3c9.2,0,16.7,7.5,16.7,16.7v0.1c0,9.2-7.5,16.7-16.7,16.7H256.4
			c-9.2,0-16.7-7.5-16.7-16.7v-0.1C239.7,1689.7,247.2,1682.2,256.4,1682.2z"/>
		<path class="st14" d="M256.4,1760.3h208.3c9.2,0,16.7,7.5,16.7,16.7v0.1c0,9.2-7.5,16.7-16.7,16.7H256.4
			c-9.2,0-16.7-7.5-16.7-16.7v-0.1C239.7,1767.7,247.2,1760.3,256.4,1760.3z"/>
		<path class="st14" d="M256.4,1476h208.3c9.2,0,16.7,7.5,16.7,16.7v0.1c0,9.2-7.5,16.7-16.7,16.7H256.4c-9.2,0-16.7-7.5-16.7-16.7
			v-0.1C239.7,1483.4,247.2,1476,256.4,1476z"/>
		<circle class="st8" cx="637.5" cy="1336.6" r="16.7"/>
		<path class="st2" d="M1672.9,634.2L1672.9,634.2c1.2,0,2.1,0.9,2.1,2.1v1320.1c0,1.2-0.9,2.1-2.1,2.1l0,0c-1.2,0-2.1-0.9-2.1-2.1
			V636.3C1670.8,635.1,1671.7,634.2,1672.9,634.2z"/>
		<path class="st2" d="M1571.6,1804.3c4.4-0.1,8,3.5,8.1,7.9c0,0.2,0,0.4,0,0.6v93.1c0,4.4-3.6,8-8,8c0,0-0.1,0-0.1,0H792.8
			c-4.4,0-8-3.6-8-8l0,0v-93.1c-0.3-4.4,3-8.2,7.4-8.4c0.2,0,0.3,0,0.5,0H1571.6 M1571.6,1797.9H792.8c-7.9,0-14.3,6.4-14.3,14.3
			c0,0,0,0.1,0,0.1v93.1c0,7.9,6.3,14.3,14.2,14.4c0,0,0.1,0,0.1,0h778.8c7.9,0,14.4-6.4,14.4-14.4v-93.1
			C1586,1804.4,1579.6,1797.9,1571.6,1797.9z"/>
		<path class="st2" d="M2061.5,1753c4.5,0.2,8,4,8,8.5v93.1c-0.2,4.4-3.7,7.8-8,8h-315.2c-4.3-0.3-7.7-3.7-8-8v-93.7
			c0-4.5,3.5-8.2,8-8.5h315.2 M2061.5,1746h-315.2c-7.9,0-14.4,6.4-14.4,14.4v93.1c0,7.9,6.4,14.4,14.4,14.4h315.2
			c7.9,0,14.4-6.4,14.4-14.4v-92.7c0-7.9-6.4-14.4-14.4-14.4V1746z"/>
	</g>
</g>
</svg>
