<?xml version="1.0" encoding="utf-8"?>
<!-- Generator: Adobe Illustrator 24.1.0, SVG Export Plug-In . SVG Version: 6.00 Build 0)  -->
<svg version="1.1" id="Layer_1" xmlns="http://www.w3.org/2000/svg" xmlns:xlink="http://www.w3.org/1999/xlink" x="0px" y="0px"
	 viewBox="0 0 1822.9 2000" style="enable-background:new 0 0 1822.9 2000;" xml:space="preserve">
<style type="text/css">
	.st0{fill:#110580;}
	.st1{fill:#FFFFFF;}
	.st2{fill:#868AE0;}
	.st3{fill:#E8E8F7;}
	.st4{fill:#EBDBCD;}
	.st5{fill:#C5C6E3;}
	.st6{fill:none;stroke:#868AE0;stroke-width:6.0627;stroke-linecap:round;stroke-linejoin:round;}
	.st7{fill:#FFCBCE;}
	.st8{fill:#FF5856;}
	.st9{fill:#FEE3B0;}
	.st10{fill:#FDB62F;}
	.st11{fill:#ACAFE0;}
	.st12{fill:#D5D5ED;}
	.st13{fill:#DCDCED;}
</style>
<g id="Layer_2_1_">
	<g id="illustrations">
		<path class="st0" d="M1652.5,1420.2c-1.6-0.3-2.9-1.4-3.2-3c-0.5-2.1,0.8-4.3,2.9-4.8l18.9-4.7l-4.7-18.9c-0.5-2.1,0.8-4.3,3-4.8
			c2.1-0.5,4.3,0.7,4.8,2.9c0,0,0,0,0,0l6.5,26.8l-26.8,6.6C1653.5,1420.4,1653,1420.4,1652.5,1420.2z"/>
		<path class="st0" d="M1263.8,1515.8c-1.5-0.3-2.6-1.4-3-2.8c-0.5-2.1,0.7-4.3,2.9-4.8c0,0,0,0,0,0l48.6-12
			c2.2-0.3,4.3,1.2,4.6,3.4c0.3,1.9-0.8,3.8-2.7,4.4l-48.3,11.9C1265.2,1516.1,1264.5,1516,1263.8,1515.8z M1361,1491.9
			c-2.2-0.5-3.5-2.7-3-4.8c0.3-1.5,1.5-2.6,3-3l48.6-11.9c2.1-0.5,4.3,0.8,4.8,2.9c0.5,2.1-0.8,4.3-2.9,4.8l-48.3,12
			C1362.5,1492.1,1361.7,1492.1,1361,1491.9L1361,1491.9z M1458.1,1468c-2.2-0.5-3.5-2.7-3-4.8c0.3-1.5,1.5-2.6,3-3l48.6-12
			c2.1-0.7,4.4,0.3,5.1,2.4c0.7,2.1-0.3,4.4-2.4,5.1c-0.3,0.1-0.5,0.2-0.8,0.2l-48.6,12C1459.4,1468.1,1458.8,1468.1,1458.1,1468
			L1458.1,1468z M1555.3,1444.1c-1.5-0.3-2.8-1.4-3.2-3c-0.5-2.1,0.8-4.3,2.9-4.8c0,0,0,0,0.1,0l48.6-12c2.1-0.5,4.3,0.8,4.8,2.9
			s-0.8,4.3-2.9,4.8l-48.6,12C1556.4,1444.2,1555.8,1444.2,1555.3,1444.1L1555.3,1444.1z"/>
		<path class="st0" d="M1190.2,1534.5l-6.5-26.8c-0.5-2.1,0.8-4.3,2.9-4.8c2.1-0.5,4.3,0.8,4.8,2.9l4.7,18.9l18.9-4.6
			c2.1-0.5,4.3,0.8,4.8,2.9c0.5,2.1-0.8,4.3-2.9,4.8L1190.2,1534.5z"/>
		<path class="st0" d="M1175.7,1465.5c-1.6-0.3-2.8-1.5-3.2-3l-11.1-45.1c-0.5-2.1,0.7-4.3,2.9-4.8c0,0,0,0,0,0
			c2.1-0.6,4.2,0.7,4.8,2.8c0,0,0,0.1,0,0.1l11.1,45.1c0.5,2.1-0.7,4.3-2.9,4.8c0,0,0,0,0,0
			C1176.9,1465.5,1176.3,1465.5,1175.7,1465.5z M1153.5,1375.2c-1.6-0.2-2.8-1.4-3.2-3l-11.1-45.1c-0.7-2.1,0.3-4.4,2.4-5.1
			s4.4,0.3,5.1,2.4c0.1,0.3,0.2,0.5,0.2,0.8l11.1,45.1c0.5,2.1-0.8,4.3-3,4.8C1154.6,1375.3,1154.1,1375.3,1153.5,1375.2z
			 M1131.3,1285c-1.6-0.3-2.8-1.5-3.2-3L1117,1237c-0.5-2.1,0.8-4.3,2.9-4.8c2.1-0.5,4.3,0.8,4.8,2.9l11.1,45.1
			c0.5,2.1-0.8,4.3-3,4.8C1132.4,1285.1,1131.9,1285.1,1131.3,1285L1131.3,1285z"/>
		<path class="st0" d="M1109.2,1194.8c-1.6-0.3-2.8-1.4-3.2-3l-6.6-26.8l26.8-6.5c2.2-0.3,4.2,1.3,4.5,3.5c0.2,1.9-0.9,3.7-2.6,4.3
			l-18.9,4.6l4.7,18.9c0.6,2.1-0.7,4.2-2.8,4.8c0,0-0.1,0-0.1,0C1110.4,1194.8,1109.8,1194.9,1109.2,1194.8z"/>
		<path class="st0" d="M1175,1154.4c-2.2-0.4-3.6-2.5-3.2-4.7c0.3-1.5,1.4-2.7,2.9-3.1l48.6-11.9c2.1-0.5,4.3,0.8,4.8,2.9
			c0.5,2.1-0.8,4.3-2.9,4.8l-48.3,12C1176.3,1154.5,1175.6,1154.6,1175,1154.4z M1272.2,1130.6c-2.2-0.5-3.5-2.7-3-4.8
			c0.3-1.5,1.5-2.6,3-3l48.3-12c2.2-0.3,4.3,1.2,4.6,3.4c0.3,1.9-0.8,3.8-2.7,4.4l-48.6,11.9
			C1273.2,1130.6,1272.7,1130.6,1272.2,1130.6L1272.2,1130.6z M1369.3,1106.6c-2.1-0.4-3.5-2.5-3.1-4.7c0.3-1.6,1.5-2.8,3.1-3.1
			l48.6-12c2.1-0.5,4.3,0.7,4.8,2.9c0,0,0,0,0,0c0.5,2.1-0.8,4.3-3,4.8l-48.6,12C1370.6,1106.8,1369.9,1106.8,1369.3,1106.6
			L1369.3,1106.6z M1466.4,1082.8c-1.6-0.3-2.8-1.5-3.2-3c-0.5-2.1,0.8-4.3,3-4.8l48.6-12c2.1-0.5,4.3,0.8,4.8,3
			c0.5,2.1-0.7,4.3-2.9,4.8c0,0,0,0,0,0l-48.6,12C1467.5,1082.8,1466.9,1082.8,1466.4,1082.8L1466.4,1082.8z"/>
		<path class="st0" d="M1591.9,1076.1c-1.6-0.3-2.8-1.5-3.2-3l-4.7-18.9l-18.9,4.7c-2.1,0.5-4.3-0.7-4.8-2.9c0,0,0,0,0,0
			c-0.5-2.1,0.8-4.3,2.9-4.8l26.8-6.6l6.5,26.8c0.5,2.1-0.7,4.3-2.9,4.8c0,0,0,0,0,0C1593.1,1076.2,1592.5,1076.2,1591.9,1076.1z"/>
		<path class="st0" d="M1658.5,1346.7c-1.6-0.3-2.8-1.4-3.2-3l-11.1-45.3c-0.5-2.1,0.8-4.3,2.9-4.8c2.1-0.5,4.3,0.8,4.8,2.9
			l11.1,45.1c0.5,2.1-0.7,4.3-2.9,4.8c0,0,0,0,0,0C1659.6,1346.6,1659.1,1346.7,1658.5,1346.7z M1636.4,1256.5
			c-1.6-0.3-2.9-1.4-3.2-3l-11.1-45.1c-0.3-2.2,1.2-4.3,3.4-4.6c1.9-0.3,3.8,0.8,4.4,2.7l11.1,45.1c0.5,2.1-0.8,4.3-3,4.8
			C1637.5,1256.6,1636.9,1256.6,1636.4,1256.5z M1614.2,1166.2c-1.6-0.3-2.8-1.4-3.2-3l-11.1-45.1c-0.5-2.1,0.8-4.3,2.9-4.8
			c2.1-0.5,4.3,0.8,4.8,2.9l11.1,45.1c0.5,2.1-0.8,4.3-3,4.8C1615.3,1166.3,1614.7,1166.4,1614.2,1166.2L1614.2,1166.2z"/>
		<path class="st0" d="M612.2,1002.3c-1.8-1.2-2.4-3.6-1.2-5.5c0.9-1.4,2.5-2.1,4.1-1.8l19.2,3.4l3.4-19.2c0.4-2.2,2.4-3.6,4.6-3.3
			c2.2,0.4,3.6,2.5,3.2,4.7l-4.8,26.8l-27.1-4.8C613.2,1002.7,612.6,1002.6,612.2,1002.3z"/>
		<path class="st0" d="M218.2,932.3c-1.3-0.9-2-2.5-1.7-4c0.4-2.1,2.5-3.6,4.6-3.2l49.3,8.7c2.1,0.6,3.4,2.8,2.8,5
			c-0.5,1.8-2.3,3.1-4.2,2.9l-49-8.7C219.3,932.9,218.7,932.7,218.2,932.3z M316.5,949.6c-1.3-0.9-2-2.5-1.7-4
			c0.4-2.2,2.4-3.6,4.6-3.2c0,0,0,0,0,0l49.3,8.7c2.1,0.6,3.4,2.8,2.8,5c-0.5,1.8-2.3,3.1-4.2,2.9l-49.3-8.7
			C317.5,950.2,317,950,316.5,949.6z M415,967.2c-1.3-0.9-2-2.5-1.7-4c0.4-2.2,2.5-3.6,4.7-3.3l49.3,8.8c2.2,0.4,3.6,2.5,3.2,4.6
			c-0.4,2.2-2.5,3.6-4.6,3.2l0,0l-49.3-8.7c-0.5-0.1-1-0.2-1.4-0.4L415,967.2z M513.5,984.7c-1.3-0.9-2-2.5-1.7-4
			c0.4-2.2,2.4-3.6,4.6-3.2c0,0,0.1,0,0.1,0l49.2,8.7c2.2,0.4,3.6,2.4,3.3,4.6c0,0,0,0,0,0.1c-0.4,2.2-2.5,3.6-4.7,3.2l-49.2-8.6
			c-0.5-0.1-1-0.3-1.4-0.6L513.5,984.7z"/>
		<path class="st0" d="M143.4,919.4l4.8-26.8c0.2-2.2,2.1-3.9,4.3-3.7c2.2,0.2,3.9,2.1,3.7,4.3c0,0.3-0.1,0.5-0.1,0.8l-3.4,19.2
			l19.2,3.4c2.2,0.4,3.6,2.5,3.2,4.6s-2.5,3.6-4.6,3.2l0,0L143.4,919.4z"/>
		<path class="st0" d="M158.1,850.6c-1.3-0.9-2-2.5-1.7-4l8.1-45.7c0.2-2.2,2.1-3.9,4.3-3.7s3.9,2.1,3.7,4.3c0,0.3-0.1,0.5-0.1,0.8
			l-8.2,45.7c-0.3,2.1-2.4,3.6-4.5,3.2c0,0-0.1,0-0.1,0C159,851.1,158.5,850.9,158.1,850.6z M174.2,759.4c-1.3-0.9-2-2.5-1.7-4
			l8.1-45.7c0.2-2.2,2.1-3.9,4.3-3.7c2.2,0.2,3.9,2.1,3.7,4.3c0,0.3-0.1,0.5-0.1,0.8l-8,45.4c-0.3,2.1-2.4,3.6-4.5,3.2
			c0,0-0.1,0-0.1,0c-0.5-0.1-1.1-0.3-1.5-0.6L174.2,759.4z M190.3,667.9c-1.3-0.9-2-2.5-1.7-4l8.1-45.7c0.6-2.1,2.8-3.4,5-2.8
			c1.8,0.5,3.1,2.3,2.9,4.2l-7.8,45.7c-0.4,2.2-2.4,3.6-4.6,3.3c-0.6-0.2-1.1-0.5-1.5-0.9L190.3,667.9z"/>
		<path class="st0" d="M206.8,576.2c-1.3-0.9-2-2.5-1.7-4l4.8-26.8l27.1,4.8c2.2,0.4,3.6,2.5,3.2,4.6c-0.4,2.2-2.5,3.6-4.6,3.2
			l-19.2-3.4l-3.4,19.2c-0.4,2.2-2.4,3.6-4.6,3.3C207.8,576.9,207.3,576.6,206.8,576.2z"/>
		<path class="st0" d="M283.3,565.9c-1.3-0.9-2-2.5-1.7-4c0.4-2.2,2.4-3.6,4.6-3.2c0,0,0.1,0,0.1,0l49.2,8.7
			c2.2,0.4,3.6,2.5,3.2,4.6c-0.4,2.2-2.5,3.6-4.6,3.2l-49.3-8.7C284.3,566.4,283.8,566.2,283.3,565.9z M381.8,583.4
			c-1.8-1.2-2.4-3.6-1.2-5.5c0.9-1.4,2.5-2.1,4.1-1.8l49.3,8.6c2.2,0.4,3.6,2.4,3.3,4.6c-0.4,2.2-2.5,3.6-4.7,3.3l-49.3-8.8
			C382.8,583.9,382.2,583.7,381.8,583.4z M480.3,600.9c-1.8-1.2-2.4-3.6-1.2-5.5c0.9-1.4,2.5-2.1,4.1-1.8l49.3,8.7
			c2.1,0.6,3.4,2.8,2.8,5c-0.5,1.8-2.3,3.1-4.2,2.9l-49.3-8.7C481.3,601.4,480.7,601.2,480.3,600.9z M578.8,618.5
			c-1.3-0.9-2-2.5-1.7-4c0.4-2.2,2.4-3.6,4.6-3.3l49.3,8.7c2.2,0.4,3.6,2.5,3.2,4.7c-0.4,2.1-2.5,3.6-4.6,3.2l-49.3-8.7
			C579.8,618.9,579.3,618.7,578.8,618.5z"/>
		<path class="st0" d="M696.3,663.1c-1.3-0.9-2-2.5-1.7-4L698,640l-19.2-3.4c-2.1-0.3-3.6-2.4-3.2-4.5c0,0,0-0.1,0-0.1
			c0.4-2.2,2.4-3.6,4.6-3.3c0,0,0,0,0.1,0l26.8,4.8l-4.8,26.8c-0.4,2.2-2.5,3.6-4.7,3.3C697.1,663.5,696.7,663.4,696.3,663.1z"/>
		<path class="st0" d="M647.5,937.6c-1.3-0.9-2-2.5-1.7-4l8.2-45.7c0.4-2.2,2.4-3.6,4.6-3.3c0,0,0,0,0.1,0c2.2,0.4,3.6,2.5,3.2,4.7
			l-8.1,45.7c-0.4,2.2-2.4,3.6-4.6,3.2c0,0-0.1,0-0.1,0C648.5,938.1,648,937.9,647.5,937.6z M663.6,846.1c-1.3-0.9-2-2.5-1.7-4
			l8.2-45.7c0.3-2.1,2.4-3.6,4.5-3.2c0,0,0.1,0,0.1,0c2.2,0.4,3.6,2.4,3.2,4.6c0,0,0,0,0,0l-8.1,45.7c-0.4,2.2-2.5,3.6-4.7,3.3
			c-0.5-0.1-0.9-0.3-1.3-0.6H663.6z M679.7,754.9c-1.3-0.9-2-2.5-1.7-4l8.2-45.7c0.3-2.1,2.4-3.6,4.5-3.2c0,0,0.1,0,0.1,0
			c2.2,0.4,3.6,2.4,3.2,4.6c0,0,0,0,0,0l-8.1,45.7c-0.4,2.2-2.5,3.6-4.7,3.3c-0.5-0.2-0.9-0.5-1.2-0.9L679.7,754.9z"/>
		<path class="st1" d="M507.6,33.5h706.3c50.4,0,91.2,40.8,91.2,91.2v1746.1c0,50.4-40.8,91.2-91.2,91.2H507.6
			c-50.4,0-91.2-40.8-91.2-91.2V124.7C416.3,74.4,457.2,33.5,507.6,33.5z"/>
		<path class="st2" d="M1222.3,0H499c-67,0.1-121.3,54.4-121.3,121.4v1757.1c0,67,54.3,121.4,121.3,121.5h723.3
			c67.1,0,121.5-54.4,121.5-121.5V121.4C1343.7,54.4,1289.4,0,1222.3,0z M1305.1,1873.1c0,50.4-40.8,91.2-91.2,91.2l0,0H507.6
			c-50.4,0-91.2-40.8-91.2-91.2l0,0V126.9c0-50.4,40.8-91.2,91.2-91.2h89.2c9.8,0,17.7,7.9,17.8,17.7v7.7c0,26,21,47,47,47l0,0
			h398.4c26,0,47-21,47-47v-7.5c0-9.8,8-17.7,17.8-17.7h89.2c50.4,0,91.2,40.8,91.2,91.2l0,0L1305.1,1873.1z"/>
		<path class="st3" d="M416.3,126.9v222.1h888.8V126.9c0-50.4-40.8-91.2-91.2-91.2h-89.3c-9.8,0-17.7,7.9-17.7,17.7c0,0,0,0,0,0v7.7
			c0,26-21,47-47,47H661.5c-26,0-47-21-47-47c0,0,0,0,0,0v-7.5c0-9.8-8-17.7-17.8-17.7h-89.3C457.2,36,416.5,76.7,416.3,126.9z"/>
		<polygon class="st4" points="301.3,840.8 28.1,1025.4 0,689.1 		"/>
		<circle class="st4" cx="1663.2" cy="1434.2" r="159.7"/>
		<path class="st5" d="M708.4,207.8h283.5c13.1,0,23.7,10.6,23.7,23.7v0.1c0,13.1-10.6,23.7-23.7,23.7H708.4
			c-13.1,0-23.7-10.6-23.7-23.7v-0.1C684.7,218.5,695.3,207.8,708.4,207.8z"/>
		<circle class="st1" cx="1171.7" cy="231.6" r="46.2"/>
		<polyline class="st6" points="1165.9,215.8 1181.6,231.6 1165.9,247.3 		"/>
		<circle class="st1" cx="523.8" cy="231.6" r="46.2"/>
		<polyline class="st6" points="529.4,215.8 513.8,231.6 529.4,247.3 		"/>
		<path class="st7" d="M617.1,830.1h589.4c9,0,16.3,7.3,16.3,16.3v102.6c0,9-7.3,16.3-16.3,16.3H617.1c-9,0-16.3-7.3-16.3-16.3
			V846.4C600.9,837.4,608.1,830.1,617.1,830.1z"/>
		<path class="st3" d="M492.6,790h76.8c8.3,0,15.1,6.7,15.1,15.1l0,0c0,8.3-6.7,15.1-15.1,15.1h-76.8c-8.3,0-15.1-6.7-15.1-15.1l0,0
			C477.6,796.7,484.3,790,492.6,790z"/>
		<path class="st8" d="M617,965.3h19.6V830.1H617c-8.9,0-16.1,7.2-16.1,16.1v102.5c-0.2,8.9,6.8,16.3,15.7,16.5
			C616.7,965.3,616.9,965.3,617,965.3z"/>
		<path class="st9" d="M617.1,1384.4h589.4c9,0,16.3,7.3,16.3,16.3v102.6c0,9-7.3,16.3-16.3,16.3H617.1c-9,0-16.3-7.3-16.3-16.3
			v-102.6C600.9,1391.7,608.1,1384.4,617.1,1384.4z"/>
		<path class="st3" d="M492.6,1344.3h76.8c8.3,0,15.1,6.7,15.1,15.1v0c0,8.3-6.7,15.1-15.1,15.1h-76.8c-8.3,0-15.1-6.7-15.1-15.1v0
			C477.6,1351,484.3,1344.3,492.6,1344.3z"/>
		<path class="st10" d="M617,1519.5h19.6v-135.3H617c-8.9,0-16.1,7.2-16.1,16.1v102.6c-0.3,8.9,6.7,16.3,15.6,16.6
			C616.6,1519.5,616.8,1519.5,617,1519.5z"/>
		<path class="st3" d="M492.6,1593.2h76.8c8.3,0,15.1,6.7,15.1,15.1l0,0c0,8.3-6.7,15.1-15.1,15.1h-76.8c-8.3,0-15.1-6.8-15.1-15.1
			l0,0C477.6,1599.9,484.3,1593.2,492.6,1593.2z"/>
		<path class="st3" d="M617.1,1633.3h589.4c9,0,16.3,7.3,16.3,16.3v159.1c0,9-7.3,16.3-16.3,16.3H617.1c-9,0-16.3-7.3-16.3-16.3
			v-159.1C600.9,1640.6,608.1,1633.3,617.1,1633.3z"/>
		<path class="st11" d="M617,1825h19.6v-191.6H617c-8.9,0-16.1,7.2-16.1,16.1v159.1c-0.2,8.9,6.9,16.2,15.8,16.4
			C616.8,1825,616.9,1825,617,1825z"/>
		<path class="st3" d="M617.1,496.4h589.4c9,0,16.3,7.3,16.3,16.3v215.7c0,9-7.3,16.3-16.3,16.3H617.1c-9,0-16.3-7.3-16.3-16.3
			V512.7C600.9,503.7,608.1,496.4,617.1,496.4z"/>
		<path class="st3" d="M492.6,456.3h76.8c8.3,0,15.1,6.7,15.1,15.1v0c0,8.3-6.7,15.1-15.1,15.1h-76.8c-8.3,0-15.1-6.7-15.1-15.1v0
			C477.6,463,484.3,456.3,492.6,456.3z"/>
		<path class="st11" d="M617,744.6h19.6V496.4H617c-8.9,0-16.1,7.2-16.1,16.1v215.6c-0.2,8.9,6.8,16.3,15.7,16.5
			C616.7,744.6,616.9,744.6,617,744.6z"/>
		<path class="st3" d="M492.6,1026.3h76.8c8.3,0,15.1,6.7,15.1,15.1l0,0c0,8.3-6.7,15.1-15.1,15.1h-76.8c-8.3,0-15.1-6.7-15.1-15.1
			l0,0C477.6,1033,484.3,1026.3,492.6,1026.3z"/>
		<path class="st3" d="M617.1,1066.4h589.4c9,0,16.3,7.3,16.3,16.3v184.2c0,9-7.3,16.3-16.3,16.3H617.1c-9,0-16.3-7.3-16.3-16.3
			v-184.2C600.9,1073.7,608.1,1066.4,617.1,1066.4z"/>
		<path class="st11" d="M617,1283.3h19.6v-216.8H617c-8.9,0-16.1,7.2-16.1,16.1v184.2c-0.2,8.9,6.8,16.3,15.7,16.5
			C616.7,1283.3,616.9,1283.3,617,1283.3z"/>
		<path class="st0" d="M658.9,574.1c-0.3,0.1-0.6,0.1-1,0c-1.2-0.5-1.8-1.8-1.3-3.1c0,0,0,0,0,0c1.7-4.5,3.9-8.8,6.6-12.8
			c0.7-1.1,2.2-1.4,3.3-0.7s1.4,2.2,0.7,3.3c-2.5,3.7-4.6,7.7-6.2,11.9C660.6,573.5,659.8,574.1,658.9,574.1z"/>
		<path class="st0" d="M1040.9,702.1c-0.3,0.1-0.5,0.1-0.8,0l-3.3-1.1c-7.7-2.6-15.7-5.4-24-8.3c-1.2-0.4-1.9-1.8-1.4-3
			c0.5-1.2,1.8-1.9,3.1-1.4c8.3,3.1,16.1,5.6,23.9,8.2l3.3,1.1c1.2,0.4,1.9,1.7,1.5,3c0,0,0,0,0,0
			C1042.7,701.6,1041.8,702.2,1040.9,702.1z M987.2,682c-0.4,0.1-0.7,0.1-1.1,0c-8.8-4.1-17.4-8.7-25.6-13.9
			c-1.1-0.7-1.4-2.1-0.8-3.2c0,0,0-0.1,0.1-0.1c0.7-1.1,2.2-1.4,3.3-0.7c8,5.1,16.4,9.7,25,13.6c1.2,0.5,1.7,1.9,1.2,3.1
			C988.9,681.5,988.1,682,987.2,682z M938.9,650.7c-0.6,0-1.3-0.2-1.7-0.6c-7.2-6.6-13.7-14-19.3-21.9c-0.9-1-0.9-2.5,0.1-3.4
			c1-0.9,2.5-0.9,3.4,0.1c0.2,0.2,0.3,0.4,0.4,0.6c5.4,7.8,11.7,15,18.6,21.5c0.9,0.9,1,2.4,0.1,3.3c-0.4,0.4-1,0.7-1.6,0.7
			L938.9,650.7z M906,604c-1,0-1.9-0.6-2.3-1.4c-3.8-9-6.6-18.4-8.4-28.1c-0.2-1.3,0.6-2.5,1.9-2.8c1.3-0.2,2.5,0.6,2.7,1.9
			c0,0,0,0,0,0c1.7,9.2,4.4,18.2,8.1,26.8c0.5,1.2,0,2.6-1.2,3.1c0,0,0,0,0,0L906,604z M920.4,572.8c-5.4,0.2-10.7,0.1-16.1-0.5
			c-1.3-0.1-2.3-1.3-2.1-2.6c0.1-1.3,1.3-2.3,2.6-2.1l0,0c5.1,0.5,10.2,0.7,15.3,0.5l0,0c4.3-0.2,8.5-0.6,12.7-1.3
			c1.3-0.2,2.5,0.6,2.7,1.9c0.2,1.3-0.6,2.5-1.9,2.7C929.3,572.2,924.8,572.7,920.4,572.8L920.4,572.8z M876.6,566.4
			c-0.3,0.1-0.5,0.1-0.8,0c-9.2-2.9-18.3-6.3-27.2-10.1c-1.2-0.5-1.8-1.9-1.3-3.1c0.5-1.2,1.9-1.8,3.1-1.3
			c10.7,4.5,18.8,7.5,26.8,10c1.2,0.3,1.9,1.5,1.6,2.7c0,0.1,0,0.1-0.1,0.2C878.4,565.8,877.6,566.4,876.6,566.4L876.6,566.4z
			 M960.4,561.7c-0.9,0-1.7-0.4-2.1-1.1c-0.6-1.1-0.3-2.6,0.8-3.3c4.2-2.5,8.1-5.5,11.6-9c3-3,5.6-6.5,7.7-10.2
			c0.6-1.2,2.1-1.6,3.2-1c1.2,0.6,1.6,2.1,1,3.2c-2.3,4.2-5.1,8-8.5,11.3c-3.8,3.7-8,7-12.5,9.8
			C961.2,561.6,960.8,561.7,960.4,561.7L960.4,561.7z M896,547.7L896,547.7c-1.3-0.1-2.3-1.2-2.2-2.5c0,0,0,0,0,0
			c0.7-9.9,3.1-19.6,7-28.7c0.5-1.2,1.9-1.7,3.1-1.2c1.2,0.5,1.7,1.9,1.2,3.1c-3.7,8.5-6,17.6-6.7,26.8c0,1.3-1,2.4-2.3,2.4H896z
			 M822.9,544.9h-1l-9.3-3.9c-6.1-2.5-11.8-4.6-17.4-6.4c-1.2-0.4-1.9-1.7-1.5-2.9c0,0,0,0,0-0.1c0.4-1.2,1.7-1.9,3-1.5c0,0,0,0,0,0
			c5.7,1.9,11.4,4,17.7,6.5l9.4,3.9c1.2,0.5,1.8,1.9,1.2,3.1c0,0,0,0,0,0c-0.3,0.7-1,1.2-1.8,1.3H822.9z M685.2,541.5
			c-1.3,0.1-2.4-1-2.5-2.3c0-0.8,0.3-1.6,1-2c8.2-5.6,17.3-9.9,26.8-12.7c1.2-0.4,2.6,0.2,3,1.4s-0.2,2.6-1.4,3
			c-0.1,0-0.1,0-0.2,0.1c-9,2.7-17.5,6.8-25.2,12.1c-0.4,0.3-0.8,0.4-1.3,0.4H685.2z M768.2,527.2h-0.5c-9.3-1.8-18.8-2.6-28.2-2.5
			c-1.3,0-2.4-1-2.4-2.3c0,0,0,0,0,0c0-1.3,1-2.4,2.3-2.4l0,0c9.8-0.1,19.5,0.7,29.1,2.5c1.3,0.2,2.1,1.5,1.9,2.8c0,0,0,0,0,0
			c-0.2,1-0.9,1.7-1.9,1.9H768.2z M986.6,513.8c-1.3,0.1-2.4-0.9-2.5-2.2c-0.5-7.5-3.7-14.5-9.1-19.7c-1.1-1-2.2-2-3.5-2.8
			c-1-0.9-1-2.4-0.1-3.4c0.7-0.8,1.9-1,2.8-0.5c1.4,1,2.8,2.1,4,3.3c6.3,6,10.1,14.1,10.7,22.8c0.1,1.3-0.9,2.4-2.1,2.6H986.6z
			 M919.7,496.8c-0.7,0-1.4-0.3-1.9-0.9c-0.8-1-0.7-2.5,0.3-3.3c0,0,0,0,0,0c7.7-6.5,16.9-10.9,26.8-12.8c1.3-0.2,2.5,0.6,2.8,1.9
			c0.2,1.3-0.6,2.5-1.9,2.8c-9.1,1.8-17.6,5.8-24.7,11.7c-0.3,0.3-0.7,0.5-1.1,0.6H919.7z"/>
		<path class="st0" d="M1080.3,719.3c-0.6,0-1.2-0.2-1.6-0.5c-3.5-2.7-7.3-5-11.4-6.8c-1.2-0.5-1.7-1.9-1.2-3.1
			c0.6-1.2,2-1.7,3.2-1.2c4.5,1.9,8.7,4.4,12.5,7.4c0.9,0.9,0.9,2.3,0.1,3.3c0,0,0,0-0.1,0.1
			C1081.4,718.9,1080.9,719.2,1080.3,719.3z"/>
		<path class="st12" d="M1065.1,662c-3.1-1.1-6.4,0.3-7.9,3.2l-55.8,105.9c2.2,1.2,4.9,1.3,7.2,0.4l165.8-68.1
			c2.3-1,4.1-2.9,4.9-5.4L1065.1,662z"/>
		<path class="st1" d="M1132.1,584.8L1132.1,584.8h-0.6l0,0H1132.1z"/>
		<path class="st1" d="M1067,689c3,0.7,6.1-0.6,7.8-3.2l57.3-101h-0.6h-0.3c-0.6-0.1-1.1-0.1-1.7,0h0.8c-1.5-0.2-3-0.1-4.4,0.5
			L960,653.4c-2,0.8-3.6,2.4-4.5,4.4L1067,689z"/>
		<path class="st3" d="M1047.9,683.6l-92.5-26.1c-0.2,0.3-0.3,0.6-0.4,0.9l0,0c-0.8,2-0.8,4.3,0,6.3l41.7,101.5
			c0.9,2.1,2.4,3.8,4.5,4.9L1047.9,683.6z"/>
		<path class="st3" d="M1178.5,699.5v0.3V699.5z"/>
		<path class="st3" d="M1178.4,699.8c-0.3,0.5-0.6,0.9-1,1.3C1177.8,700.7,1178.1,700.3,1178.4,699.8z"/>
		<path class="st3" d="M1132.1,584.8l-47.4,83.6l94.7,29.4c-0.2,0.5-0.4,1.1-0.7,1.6c1.3-2.5,1.5-5.5,0.4-8.1l-41.6-101.1
			C1136.5,587.7,1134.6,585.7,1132.1,584.8z"/>
		<path class="st3" d="M1132.9,585.2l-0.8-0.4l0,0L1132.9,585.2z"/>
		<path class="st10" d="M901.4,1384.2c4.3,45.3,44.6,78.5,89.8,74.1c39.3-3.8,70.4-34.9,74.1-74.1H901.4z"/>
		<path class="st5" d="M711.4,1129.4h284.1c8.3,0,15.1,6.7,15.1,15.1l0,0c0,8.3-6.7,15.1-15.1,15.1H711.4c-8.3,0-15.1-6.7-15.1-15.1
			l0,0C696.3,1136.2,703.1,1129.4,711.4,1129.4z"/>
		<path class="st5" d="M711.4,1190.1h164.8c8.3,0,15.1,6.7,15.1,15.1l0,0c0,8.3-6.7,15.1-15.1,15.1H711.4c-8.3,0-15.1-6.7-15.1-15.1
			l0,0C696.3,1196.9,703.1,1190.1,711.4,1190.1z"/>
		<path class="st5" d="M711.4,1683.8h328.1c8.3,0,15.1,6.7,15.1,15.1l0,0c0,8.3-6.7,15.1-15.1,15.1H711.4c-8.3,0-15.1-6.7-15.1-15.1
			l0,0C696.3,1690.5,703.1,1683.8,711.4,1683.8z"/>
		<path class="st5" d="M711.4,1744.5H939c8.3,0,15.1,6.7,15.1,15.1l0,0c0,8.3-6.7,15.1-15.1,15.1H711.4c-8.3,0-15.1-6.8-15.1-15.1
			l0,0C696.3,1751.2,703.1,1744.5,711.4,1744.5z"/>
		<path class="st8" d="M814.4,930.1h-29.1c-19.8,0-36.1-15.5-37.1-35.2l-4.7-85.8c-0.3-2.9,1.9-5.6,4.8-5.9c0.2,0,0.4,0,0.6,0h101.6
			c3,0,5.4,2.4,5.4,5.3c0,0.2,0,0.4,0,0.6l-4.7,85.8C850,914.4,834,929.8,814.4,930.1z"/>
		<path class="st8" d="M855.2,822.6l-0.8,13.1c14.2,3.1,23.3,17.1,20.2,31.3c-2.4,11.3-11.9,19.6-23.3,20.7l-0.8,13.1
			c21.7-0.8,38.7-19,37.9-40.7C887.8,841.2,873.8,825.5,855.2,822.6z"/>
		<path class="st13" d="M807.4,783.3c0,0-24.9-23-24.1-39.9c1.2-25.9,24.5-35.7,15.6-60c-4.2-11.6-21.5-49-21.5-49s28.8,28.4,39,46
			c9.2,16.1,8.1,41.1-1.9,53.2C792.4,759.8,807.4,783.3,807.4,783.3z"/>
		<path class="st10" d="M881,1404.7c-19.6,0.3-37.6,10.9-47.4,28c-3.6,7.2-4.5,15.4-2.6,23.2c0.6,2.7,4.3,15.2,9.3,10.7
			c12.6-11.9,27.3-21.4,43.4-28c7.8-3.2,6.9-33.4-2.7-33.7V1404.7z"/>
		<path class="st10" d="M925.4,1459.3c-10.2,15.8-17.9,33.1-22.8,51.3c-2,8.4-1.3,17.2,2,25.2c2.1,4.5,6.9,8.5,10.7,3
			c4.5-8,8-16.6,10.4-25.4c3.2-8.6,6.7-17.1,9.5-25.8c2.6-7.7,2.6-16.1,0-23.8C933.8,1459.9,929.3,1453,925.4,1459.3L925.4,1459.3z"
			/>
		<path class="st10" d="M1071.1,1455.5c13.5,12.9,26.4,26.3,40.3,38.6c6.3,5.4,9.3-2.6,10.1-8.3c1-7.6,0.4-21.5-5.8-26.8
			c-13.1-12.4-27.1-23.7-40.7-35.5c-5.8-5-8.5,2.3-9.2,7.6c-0.9,6.9-0.3,19.3,5.4,24.7L1071.1,1455.5z"/>
		<path class="st10" d="M996.9,1481.9c-0.6,18.9,5,39.9,10.7,58.2c1.8,5.8,7.6,16.7,13.8,8.2c6.2-8.6,5.1-23,2.7-32.6
			c-1.9-7.9-4.6-15.7-7.1-23.4c-2.5-7.7-4.1-18.1-10.7-23.9c-6.6-5.8-9.2,11.6-9.3,13.5L996.9,1481.9z"/>
	</g>
</g>
</svg>
